<?xml version="1.0" encoding="UTF-8" standalone="no"?>
<svg
   xmlns:dc="http://purl.org/dc/elements/1.1/"
   xmlns:cc="http://creativecommons.org/ns#"
   xmlns:rdf="http://www.w3.org/1999/02/22-rdf-syntax-ns#"
   xmlns:svg="http://www.w3.org/2000/svg"
   xmlns="http://www.w3.org/2000/svg"
   xmlns:sodipodi="http://sodipodi.sourceforge.net/DTD/sodipodi-0.dtd"
   xmlns:inkscape="http://www.inkscape.org/namespaces/inkscape"
   id="Ebene_1"
   xml:space="preserve"
   viewBox="0 0 100 100"
   version="1.1"
   y="0px"
   x="0px"
   inkscape:version="0.48.4 r9939"
   width="100%"
   height="100%"
   sodipodi:docname="books.svg"><defs
     id="defs9" /><sodipodi:namedview
     pagecolor="#ffffff"
     bordercolor="#666666"
     borderopacity="1"
     objecttolerance="10"
     gridtolerance="10"
     guidetolerance="10"
     inkscape:pageopacity="0"
     inkscape:pageshadow="2"
     inkscape:window-width="1280"
     inkscape:window-height="1000"
     id="namedview7"
     showgrid="false"
     inkscape:zoom="3.337544"
     inkscape:cx="18.219405"
     inkscape:cy="25.72907"
     inkscape:window-x="0"
     inkscape:window-y="24"
     inkscape:window-maximized="1"
     inkscape:current-layer="Ebene_1" /><path
     d="m 54.276206,63.296848 -2.542863,-1.538913 -0.09929,-1.720499 c -0.09537,-1.663671 -0.14109,-1.738788 -1.374962,-2.25742 -1.380188,-0.579377 -1.481432,-0.824323 -0.909892,-2.218227 0.660374,-1.611417 0.696299,-1.83546 0.832163,-5.028245 0.161337,-3.798945 0.312223,-3.665696 -4.452134,-3.949833 -1.873997,-0.111689 -6.318946,-0.424571 -9.878824,-0.695644 -3.559877,-0.271075 -6.713471,-0.416082 -7.00806,-0.322676 -0.462457,0.147621 -5.721931,10.5601 -7.619444,15.086043 -0.461152,1.099317 -1.332505,2.062116 -3.525912,3.89431 -1.602925,1.338383 -2.96613,2.595771 -3.029489,2.794341 -0.155459,0.484666 1.903391,1.32336 8.669772,3.533096 3.123548,1.020281 6.409087,2.120903 7.301995,2.446845 0.892909,0.325941 1.936704,0.680622 2.319472,0.788398 0.531696,0.148928 0.726346,0.500996 0.819752,1.482085 0.06728,0.708056 0.002,1.287435 -0.144355,1.287435 -0.628367,0 -17.942436,-5.97145 -18.125982,-6.251015 -0.12084,-0.183546 -0.299814,-0.151539 -0.442208,0.07838 -0.365133,0.590481 0.07315,0.856983 3.240468,1.969363 1.60619,0.563702 3.651323,1.354059 4.54358,1.756424 0.892255,0.401058 2.352785,0.966066 3.24504,1.254122 5.887189,1.898819 5.806193,1.828928 5.956426,5.135368 0.09929,2.185569 0.04312,2.57291 -0.336391,2.340374 -0.250825,-0.153498 -2.493874,-1.821742 -4.985136,-3.70619 -2.49126,-1.88445 -5.231387,-3.905415 -6.089677,-4.490672 l -1.561121,-1.065351 0.09994,1.715273 0.101251,1.713967 2.746658,1.100622 c 2.308368,0.924916 4.004045,1.932785 5.669023,3.369147 0.322022,0.277605 -0.42196,0.07447 -3.54812,-0.966718 -3.201931,-1.067964 -3.966161,-1.472288 -3.788493,-2.005942 0.139782,-0.417388 0.08556,-0.423267 -0.377544,-0.04116 -0.834775,0.690421 -0.651882,1.363205 0.762925,2.80414 l 1.301805,1.326625 -0.906626,0.868088 c -0.65123,0.624449 -1.341649,1.088866 -1.708742,1.211011 l -0.119533,0.58983 1.970669,1.001338 c 1.084293,0.550637 2.126129,1.001338 2.3149,1.001338 0.590483,0 4.709491,1.748586 5.979289,2.538291 0.666252,0.414121 1.354713,0.664945 1.53042,0.555863 0.175708,-0.109083 0.875273,0.08622 1.55459,0.432411 0.679969,0.346843 1.91972,0.732878 2.755148,0.858943 0.835429,0.124106 1.728991,0.394526 1.985694,0.597667 0.460498,0.367093 0.962147,3.778043 0.555863,3.778043 -0.11692,0 -3.051697,-1.033997 -6.5247,-2.297917 -3.47235,-1.26392 -7.225572,-2.608182 -8.341219,-2.986378 -1.28874,-0.437637 -2.02815,-0.867435 -2.02815,-1.179006 0,-0.410856 -0.08948,-0.400404 -0.556516,0.06597 -0.488585,0.488585 -0.498382,0.613997 -0.08165,1.031385 0.44874,0.448741 17.302311,6.991731 17.997957,6.987159 0.178974,-0.0013 1.639503,-1.422645 3.247001,-3.157514 1.60619,-1.735522 4.604979,-4.911325 6.665788,-7.05705 2.060157,-2.145071 4.371792,-4.630453 5.137982,-5.522055 0.766843,-0.89291 1.855708,-1.845259 2.420717,-2.116332 1.002645,-0.481399 1.027465,-0.547372 1.027465,-2.670887 0,-1.891634 -0.09601,-2.245663 -0.731571,-2.688525 -0.982395,-0.689767 -0.925568,-0.911197 0.406283,-1.545443 l 1.135242,-0.541495 v -3.535708 c 0.0032,-4.020377 0.260622,-3.586006 -3.456674,-5.836893 z M 28.986051,87.931854 c -0.875273,-0.792318 -2.947839,-2.727716 -4.605632,-4.300594 -1.657792,-1.572224 -2.945881,-2.860313 -2.862925,-2.860313 0.08296,0 1.249549,0.507529 2.591852,1.128711 1.488616,0.687807 3.152288,1.794962 4.263362,2.83941 1.553935,1.459223 1.851136,1.927559 2.01378,3.171883 l 0.191384,1.459877 -1.591821,-1.438974 z M 43.031565,69.22192 c -0.390606,-0.05225 -2.388057,-0.244292 -4.441682,-0.427185 v -6.53e-4 C 36.536911,68.61119 32.006396,68.211438 28.521634,67.906399 l -6.336582,-0.553904 0.0091,-2.237824 0.0078,-2.237824 1.298538,0.18224 c 1.324013,0.185506 12.825357,1.271758 17.52309,1.65518 l 2.597077,0.211633 0.06009,2.194713 c 0.05748,2.084325 0.02417,2.189488 -0.64927,2.101307 z"
     id="path3"
     style="fill:#000000;fill-opacity:1"
     inkscape:connector-curvature="0" /><metadata
     id="metadata5"><rdf:RDF><cc:Work><dc:format>image/svg+xml</dc:format><dc:type
           rdf:resource="http://purl.org/dc/dcmitype/StillImage" /><cc:license
           rdf:resource="http://creativecommons.org/licenses/publicdomain/" /><dc:publisher><cc:Agent
             rdf:about="http://openclipart.org/"><dc:title>Openclipart</dc:title></cc:Agent></dc:publisher><dc:title></dc:title><dc:date>2011-06-26T22:55:48</dc:date><dc:description>black and white, books, bw, clip art, clipart, library, okf, paper, reading, silhouette, staple, </dc:description><dc:source>http://openclipart.org/detail/147367/stack-of-books-by-gka</dc:source><dc:creator><cc:Agent><dc:title>gka</dc:title></cc:Agent></dc:creator><dc:subject><rdf:Bag><rdf:li>black and white</rdf:li><rdf:li>books</rdf:li><rdf:li>bw</rdf:li><rdf:li>clip art</rdf:li><rdf:li>clipart</rdf:li><rdf:li>library</rdf:li><rdf:li>okf</rdf:li><rdf:li>paper</rdf:li><rdf:li>reading</rdf:li><rdf:li>silhouette</rdf:li><rdf:li>staple</rdf:li></rdf:Bag></dc:subject></cc:Work><cc:License
         rdf:about="http://creativecommons.org/licenses/publicdomain/"><cc:permits
           rdf:resource="http://creativecommons.org/ns#Reproduction" /><cc:permits
           rdf:resource="http://creativecommons.org/ns#Distribution" /><cc:permits
           rdf:resource="http://creativecommons.org/ns#DerivativeWorks" /></cc:License></rdf:RDF></metadata><g
     id="g3767"
     transform="matrix(0.65318856,0,0,0.65318856,-41.495162,37.507744)"><g
       id="g3761"
       transform="matrix(0.4009847,0,0,0.4009847,94.90406,-56.282246)"><path
         inkscape:connector-curvature="0"
         d="m 131.57685,286.54496 30.508,-0.1589 c 31.834,-1.701 48.801,-16.445 58.792,-26.854 15.21,-15.845 20.284,-46.319 18.273,-79.449 -2.675,4.9944 -5.6453,11.641 -9.5339,12.553 6.1899,-26.143 4.8429,-60.939 -14.46,-76.271 4.4769,14.252 -1.1502,29.28 -8.5805,39.725 -0.89686,-20.947 3.7029,-64.714 -32.415,-90.095 4.0053,12 6.306,24.855 3.3369,40.837 -5.4,-40.204 -35.07,-61.603 -34.64,-96.767 -15.46,7.942 -6.15,49.914 -12.87,76.271 -5.26,-7.884 -11.09,-17.91 -24.79,-23.199 14.284,44.575 2.7506,51.928 -1.4301,72.775 -3.3895,-13.686 -10.925,-23.276 -26.536,-25.583 16.179,25.118 5.2034,37.981 4.4492,68.326 -5.4146,-6.0368 -8.1344,-18.106 -23.199,-17.161 20.191,23.982 0.57006,62.859 15.572,92.002 9.2523,17.974 27.87,26.592 57.521,33.051 z"
         id="path3596" /><path
         style="fill:#ffffff;fill-opacity:1"
         inkscape:connector-curvature="0"
         d="m 145.22685,69.17696 c 0.90038,8.6335 1.0426,20.904 0.96875,27.312 -0.0738,6.4087 -1.7957,17.689 -4.625,26.375 6.5852,-6.8621 10.236,-20.673 10.188,-27.312 -0.0482,-6.6395 -2.8711,-18.59 -6.5312,-26.375 z m 13.188,92 c 1.365,20.166 1.5533,40.18 -7.9375,59.094 -10.974,-6.6616 -14.99,-18.644 -17.781,-28.281 -7.5027,20.936 -1.8027,41.131 6.6562,55 -20.556,-2.7244 -26.684,-31.181 -29.219,-43.406 -8.477,26.286 -5.0576,51.172 11.281,64.219 4.0218,3.2115 8.7205,6.0498 12.688,8.875 3.2846,2.3392 4.65424,7.92316 4.78994,10.87336 l 9.2188,0.16494 c -0.12193,-2.9039 0.0987,-8.6379 3.02256,-10.6945 5.4816,-3.8556 13.274,-8.4938 23.812,-17.969 13.332,-11.986 19.365,-28.201 18.75,-38.625 -4.0619,7.5377 -10.38,13.913 -14.281,14.938 -0.91839,-11.742 10.254,-18.257 6.6562,-39.25 -6.0515,11.086 -14.393,23.709 -20.969,29.875 -2.6955,-15.913 5.1401,-29.848 4.5938,-41.469 -0.31511,-6.7021 -6.0353,-15.715 -11.281,-23.344 z"
         id="path3594"
         sodipodi:nodetypes="cscccccccccscccscccccscc" /></g></g></svg>