<?xml version="1.0" encoding="UTF-8" standalone="no"?>
<svg
   xmlns:dc="http://purl.org/dc/elements/1.1/"
   xmlns:cc="http://creativecommons.org/ns#"
   xmlns:rdf="http://www.w3.org/1999/02/22-rdf-syntax-ns#"
   xmlns:svg="http://www.w3.org/2000/svg"
   xmlns="http://www.w3.org/2000/svg"
   xmlns:sodipodi="http://sodipodi.sourceforge.net/DTD/sodipodi-0.dtd"
   xmlns:inkscape="http://www.inkscape.org/namespaces/inkscape"
   id="svg2"
   viewBox="0 0 374.88 693.36"
   version="1.1"
   inkscape:version="0.48.4 r9939"
   width="100%"
   height="100%"
   sodipodi:docname="fight_surveillance.svg">
  <defs
     id="defs9" />
  <sodipodi:namedview
     pagecolor="#ffffff"
     bordercolor="#666666"
     borderopacity="1"
     objecttolerance="10"
     gridtolerance="10"
     guidetolerance="10"
     inkscape:pageopacity="0"
     inkscape:pageshadow="2"
     inkscape:window-width="1280"
     inkscape:window-height="1000"
     id="namedview7"
     showgrid="false"
     inkscape:zoom="0.68074305"
     inkscape:cx="152.46001"
     inkscape:cy="282.89968"
     inkscape:window-x="0"
     inkscape:window-y="24"
     inkscape:window-maximized="1"
     inkscape:current-layer="svg2" />
  <path
     inkscape:connector-curvature="0"
     d="m 151.3655,553.5201 c 0.46751,-4.6504 2.11689,-26.01436 2.76759,-32.21536 0.65071,-6.2005 1.5618,-15.459 2.0248,-20.574 2.2892,-25.295 3.5744,-38.378 4.2363,-43.121 0.30275,-2.1702 0.78081,-6.8628 1.0623,-10.428 0.50269,-6.367 1.9632,-21.106 4.8038,-48.476 0.7883,-7.5956 1.6861,-16.727 1.9951,-20.292 0.30901,-3.5653 0.79529,-7.7506 1.0806,-9.3007 0.28528,-1.5501 0.80189,-5.9891 1.148,-9.8644 0.70312,-7.8733 1.846,-18.445 3.047,-28.184 0.43961,-3.5653 1.2289,-11.936 1.7539,-18.601 1.2776,-16.218 2.889,-33.224 3.899,-41.149 0.45443,-3.5653 0.83863,-8.1479 0.85379,-10.184 0.0152,-2.0357 0.30524,-5.2036 0.64469,-7.0397 0.54677,-2.9578 0.50703,-3.4034 -0.3487,-3.9084 -2.3443,-1.3834 -3.122,-2.4224 -3.5915,-4.7975 -1.512,-7.6499 -2.4245,-10.873 -3.7748,-13.333 -2.1111,-3.8463 -3.0716,-4.7638 -8.3875,-8.0123 -5.7862,-3.5358 -7.8409,-5.5414 -8.868,-8.656 -0.95307,-2.8902 -0.7511,-4.2111 0.71514,-4.6764 2.1262,-0.67482 1.1137,-6.8266 -1.436,-8.7255 -1.093,-0.814 -2.3478,-1.1456 -8.4646,-2.2368 -5.0343,-0.89812 -19.669,-3.933 -21.983,-4.5589 -1.2401,-0.33533 -3.449,-0.67019 -4.9087,-0.74413 -4.3766,-0.22172 -6.7996,-3.4272 -6.2519,-8.2709 0.27029,-2.3904 0.16161,-2.664 -1.6025,-4.0331 -1.1095,-0.86104 -2.9326,-3.448 -4.4064,-6.2527 -2.265,-4.3104 -2.4461,-4.9327 -1.829,-6.287 0.94783,-2.0803 4.5702,-3.5448 11.231,-4.5408 5.6962,-0.85172 7.925,-0.63779 10.514,1.0092 1.954,1.2431 11.592,4.5847 25.719,8.9168 24.132,7.4003 25.633,7.881 27.62,8.8471 l 1.9729,0.95917 -0.12598,6.3237 c -0.14256,7.1565 -1.0031,10.103 -3.078,10.539 -2.9209,0.61414 -5.9801,0.99635 -8.9151,1.1138 -3.7055,0.14831 -5.3338,0.9403 -6.4765,3.15 -1.1567,2.2368 -1.0914,3.0308 0.64168,7.7922 1.2023,3.3032 1.8434,4.294 3.2439,5.0128 0.96001,0.4927 3.841,2.3815 6.4022,4.1973 4.2311,2.9998 6.9602,4.0268 7.6497,2.8787 0.47862,-0.79698 2.1961,-15.078 4.0506,-33.68 0.49452,-4.9604 1.3924,-13.204 1.9951,-18.32 0.60281,-5.1154 1.3731,-12.596 1.7117,-16.623 0.33861,-4.0273 0.85455,-7.7687 1.1465,-8.3143 0.44965,-0.84027 1.3523,-0.99194 5.903,-0.99194 7.4583,0 7.5528,0.0749 7.5528,5.9833 l 0,4.8162 1.832,-0.36561 c 2.8405,-0.56692 7.4032,-1.9218 8.0696,-2.3964 0.33049,-0.23532 1.3997,-1.6022 2.376,-3.0375 0.97635,-1.4353 2.1339,-2.7473 2.5724,-2.9156 1.059,-0.40639 2.2639,-7.0787 1.4544,-8.0541 -0.32102,-0.38679 -2.4087,-1.0179 -4.6392,-1.4024 -2.2305,-0.38453 -4.7405,-1.0392 -5.5777,-1.4548 -0.83718,-0.41561 -2.0615,-0.75566 -2.7208,-0.75566 -2.0039,0 -4.3476,-2.8664 -4.7977,-5.8676 -0.31567,-2.1048 -0.68629,-2.7776 -1.7538,-3.1834 -1.7897,-0.68045 -2.0881,-1.6418 -1.3549,-4.3648 1.1938,-4.4336 1.3487,-4.5008 13.277,-5.7563 5.8904,-0.62006 14.768,-1.751 19.729,-2.5132 4.9604,-0.7622 13.331,-1.9376 18.601,-2.612 5.2704,-0.67437 11.485,-1.4822 13.81,-1.7952 3.7993,-0.51139 4.6458,-0.437 8.3564,0.73442 2.2708,0.7169 5.1154,2.0181 6.3212,2.8916 5.9023,4.2756 4.738,9.2034 -3.7152,15.725 -1.7273,1.3327 -3.5203,3.1572 -3.9844,4.0545 -0.46402,0.89733 -1.1459,1.5312 -1.5152,1.4085 -1.0949,-0.36359 -1.5318,-5.9785 -0.83418,-10.72 0.54079,-3.6757 0.51492,-4.5141 -0.15947,-5.1609 -0.81169,-0.77836 -8.4974,-2.5695 -11.026,-2.5695 -1.7526,0 -2.2229,1.2552 -2.9863,7.9691 -0.32997,2.9025 -0.7608,6.5913 -0.95735,8.1972 l -0.35743,2.9199 1.9058,0.30184 c 8.4851,1.3439 10.376,1.5496 11.739,1.2769 1.4139,-0.28278 1.5295,-0.18279 1.2825,1.1095 -0.14931,0.78115 -0.80904,1.6176 -1.4661,1.8588 -1.2507,0.45911 -16.732,-0.14878 -21.338,-0.83785 -1.8357,-0.27462 -2.9359,-0.17841 -3.522,0.30803 -0.64851,0.53818 -2.7882,0.61065 -8.9441,0.30291 l -8.0918,-0.4045 -0.35822,2.1683 c -0.68661,4.156 -0.45212,6.3126 0.75674,6.9595 1.5201,0.81351 1.4184,2.3797 -0.33466,5.1568 -2.0561,3.257 -3.9003,4.6779 -7.5184,5.7926 -5.1591,1.5895 -10.101,4.2741 -12.032,6.5368 -2.8026,3.2829 -4.9163,7.9054 -4.9176,10.754 0,2.676 -2.0552,24.68 -2.5203,27 -0.15541,0.77507 -0.79017,7.7506 -1.4106,15.501 -1.1533,14.408 -1.6167,19.701 -3.1101,35.512 -0.46848,4.9604 -1.3589,15.782 -1.9787,24.047 -0.61982,8.2656 -1.5025,17.778 -1.9615,21.138 -1.0546,7.7202 -4.4489,39.059 -5.6374,52.049 -0.49642,5.4254 -1.1397,11.894 -1.4295,14.374 -2.0526,17.564 -4.3874,41.106 -6.1774,62.286 -0.30129,3.5653 -1.1796,11.936 -1.9517,18.601 -0.77218,6.6655 -1.9216,17.7 -2.5543,24.52 -0.63267,6.8205 -1.6625,17.22 -2.2885,23.111 -0.62598,5.8904 -1.3851,14.134 -1.6869,18.32 -0.30178,4.1853 -0.7897,9.2584 -1.0842,11.274 -0.29451,2.0152 -0.8264,6.7078 -1.182,10.428 -0.35562,3.7203 -0.89376,8.6666 -1.1959,10.992 -0.30214,2.3252 -0.76402,7.2714 -1.0264,10.992 -0.80827,7.2114 -13.64992,1.66874 -12.92304,-5.55132 z M 130.31463,191.13288 c 0.65921,-0.83194 2.0979,-16.397 1.6286,-17.62 -0.2598,-0.67705 -1.5782,-0.84034 -6.7845,-0.84034 -7.3824,0 -6.6963,-0.56015 -7.595,6.2005 -1.1803,8.8791 -1.2701,11.075 -0.48003,11.731 0.4151,0.34445 3.277,0.70979 6.3599,0.81188 3.0829,0.10207 5.7644,0.23867 5.9589,0.30356 0.19459,0.0649 0.605,-0.19909 0.9121,-0.58662 z"
     id="path2874"
     sodipodi:nodetypes="csccssscscscccccccscsscsscscscsccscsssccsscscssccccccccsscsccccsccccscscccscssscscsccscccsssssssscsscsccccssscsccc" />
  <metadata
     id="metadata5">
    <rdf:RDF>
      <cc:Work>
        <dc:format>image/svg+xml</dc:format>
        <dc:type
           rdf:resource="http://purl.org/dc/dcmitype/StillImage" />
        <cc:license
           rdf:resource="http://creativecommons.org/licenses/publicdomain/" />
        <dc:publisher>
          <cc:Agent
             rdf:about="http://openclipart.org/">
            <dc:title>Openclipart</dc:title>
          </cc:Agent>
        </dc:publisher>
        <dc:title></dc:title>
        <dc:date>2012-02-02T18:00:45</dc:date>
        <dc:description>Normal people chopping down a CCTV camera</dc:description>
        <dc:source>http://openclipart.org/detail/167626/fight-surveillance!-by-worker</dc:source>
        <dc:creator>
          <cc:Agent>
            <dc:title>worker</dc:title>
          </cc:Agent>
        </dc:creator>
        <dc:subject>
          <rdf:Bag>
            <rdf:li>against</rdf:li>
            <rdf:li>camera</rdf:li>
            <rdf:li>capitalism</rdf:li>
            <rdf:li>clip art</rdf:li>
            <rdf:li>clipart</rdf:li>
            <rdf:li>fight</rdf:li>
            <rdf:li>surveillance</rdf:li>
          </rdf:Bag>
        </dc:subject>
      </cc:Work>
      <cc:License
         rdf:about="http://creativecommons.org/licenses/publicdomain/">
        <cc:permits
           rdf:resource="http://creativecommons.org/ns#Reproduction" />
        <cc:permits
           rdf:resource="http://creativecommons.org/ns#Distribution" />
        <cc:permits
           rdf:resource="http://creativecommons.org/ns#DerivativeWorks" />
      </cc:License>
    </rdf:RDF>
  </metadata>
</svg>
