<?xml version="1.0" encoding="UTF-8" standalone="no"?>
<svg
   xmlns:dc="http://purl.org/dc/elements/1.1/"
   xmlns:cc="http://creativecommons.org/ns#"
   xmlns:rdf="http://www.w3.org/1999/02/22-rdf-syntax-ns#"
   xmlns:svg="http://www.w3.org/2000/svg"
   xmlns="http://www.w3.org/2000/svg"
   xmlns:xlink="http://www.w3.org/1999/xlink"
   xmlns:sodipodi="http://sodipodi.sourceforge.net/DTD/sodipodi-0.dtd"
   xmlns:inkscape="http://www.inkscape.org/namespaces/inkscape"
   id="svg2"
   viewBox="0 0 686.56 892.72"
   version="1.1"
   inkscape:version="0.48.4 r9939"
   width="100%"
   height="100%"
   sodipodi:docname="chinawall.svg">
  <sodipodi:namedview
     pagecolor="#ffffff"
     bordercolor="#666666"
     borderopacity="1"
     objecttolerance="10"
     gridtolerance="10"
     guidetolerance="10"
     inkscape:pageopacity="0"
     inkscape:pageshadow="2"
     inkscape:window-width="1280"
     inkscape:window-height="1000"
     id="namedview104"
     showgrid="false"
     inkscape:zoom="0.74772471"
     inkscape:cx="305.61907"
     inkscape:cy="287.1706"
     inkscape:window-x="0"
     inkscape:window-y="24"
     inkscape:window-maximized="1"
     inkscape:current-layer="svg2" />
  <defs
     id="defs6">
    <linearGradient
       id="linearGradient3144">
      <stop
         id="stop3146"
         stop-color="#e0c8a3"
         offset="0" />
      <stop
         id="stop3148"
         stop-color="#c5b299"
         offset="1" />
    </linearGradient>
    <linearGradient
       id="linearGradient3007">
      <stop
         id="stop3011"
         stop-color="#241f1c"
         offset="0" />
      <stop
         id="stop3009"
         stop-color="#6c5d53"
         offset="1" />
    </linearGradient>
    <linearGradient
       id="linearGradient3767">
      <stop
         id="stop3769"
         stop-color="#ddd0be"
         offset="0" />
      <stop
         id="stop3771"
         stop-color="#e0c79e"
         offset="1" />
    </linearGradient>
    <linearGradient
       id="linearGradient3540"
       y2="342.94"
       xlink:href="#linearGradient3767"
       gradientUnits="userSpaceOnUse"
       x2="2097.1"
       y1="377.15"
       x1="2256" />
    <linearGradient
       id="linearGradient3542"
       y2="313.24"
       xlink:href="#linearGradient3767"
       gradientUnits="userSpaceOnUse"
       x2="2021.8"
       y1="339.96"
       x1="2075.9" />
    <radialGradient
       id="radialGradient3544"
       xlink:href="#linearGradient3007"
       gradientUnits="userSpaceOnUse"
       cy="371.82"
       cx="2121.6"
       gradientTransform="matrix(1.4729 0 0 2.7876 -1003.3 -657.74)"
       r="14.803" />
    <linearGradient
       id="linearGradient3546"
       y2="173.76"
       xlink:href="#linearGradient3144"
       gradientUnits="userSpaceOnUse"
       x2="2093.3"
       gradientTransform="matrix(-.63964 0 0 .63964 3400 -17.422)"
       y1="127.15"
       x1="2066.5" />
    <linearGradient
       id="linearGradient3548"
       y2="174.31"
       xlink:href="#linearGradient3144"
       gradientUnits="userSpaceOnUse"
       x2="2127.9"
       gradientTransform="matrix(-.63964 0 0 .63964 3391.7 -16.783)"
       y1="174.31"
       x1="2013.8" />
    <linearGradient
       id="linearGradient3640"
       y2="631.98"
       xlink:href="#linearGradient3767"
       gradientUnits="userSpaceOnUse"
       x2="2015.8"
       gradientTransform="translate(-1775 140.88)"
       y1="392.56"
       x1="1994.5" />
    <radialGradient
       id="radialGradient3643"
       xlink:href="#linearGradient3007"
       gradientUnits="userSpaceOnUse"
       cy="371.82"
       cx="2121.6"
       gradientTransform="matrix(1.4729 0 0 2.7876 -2778.3 -516.86)"
       r="14.803" />
    <linearGradient
       id="linearGradient3647"
       y2="382.07"
       gradientUnits="userSpaceOnUse"
       x2="2080"
       gradientTransform="translate(-1849.3 148.7)"
       y1="509.22"
       x1="2097.1">
      <stop
         id="stop3802"
         stop-color="#ddd0be"
         offset="0" />
      <stop
         id="stop3804"
         stop-color="#d7c8b3"
         offset="1" />
    </linearGradient>
    <linearGradient
       id="linearGradient3650"
       y2="313.24"
       xlink:href="#linearGradient3767"
       gradientUnits="userSpaceOnUse"
       x2="2021.8"
       gradientTransform="translate(-1775 140.88)"
       y1="339.96"
       x1="2075.9" />
    <linearGradient
       id="linearGradient3654"
       y2="342.94"
       xlink:href="#linearGradient3767"
       gradientUnits="userSpaceOnUse"
       x2="2097.1"
       gradientTransform="translate(-1775 140.88)"
       y1="377.15"
       x1="2256" />
    <linearGradient
       id="linearGradient3657"
       y2="459.62"
       gradientUnits="userSpaceOnUse"
       x2="2436.8"
       gradientTransform="translate(-1775 140.88)"
       y1="827.2"
       x1="1543.9">
      <stop
         id="stop3430"
         stop-color="#445016"
         offset="0" />
      <stop
         id="stop3432"
         stop-color="#6c6753"
         offset="1" />
    </linearGradient>
    <radialGradient
       id="radialGradient3667"
       xlink:href="#linearGradient3007"
       gradientUnits="userSpaceOnUse"
       cy="371.82"
       cx="2121.6"
       gradientTransform="matrix(.59789 0 0 1.1316 -1062.5 -71.957)"
       r="14.803" />
    <linearGradient
       id="linearGradient3670"
       y2="313.24"
       xlink:href="#linearGradient3767"
       gradientUnits="userSpaceOnUse"
       x2="2021.8"
       gradientTransform="matrix(.40593 0 0 .40593 -655.23 195.04)"
       y1="339.96"
       x1="2075.9" />
    <linearGradient
       id="linearGradient3674"
       y2="342.94"
       xlink:href="#linearGradient3767"
       gradientUnits="userSpaceOnUse"
       x2="2097.1"
       gradientTransform="matrix(.40593 0 0 .40593 -655.23 195.04)"
       y1="377.15"
       x1="2256" />
    <linearGradient
       id="linearGradient3677"
       y2="174.31"
       xlink:href="#linearGradient3144"
       gradientUnits="userSpaceOnUse"
       x2="2127.9"
       gradientTransform="translate(-1775 140.88)"
       y1="174.31"
       x1="2013.8" />
    <linearGradient
       id="linearGradient3681"
       y2="173.76"
       xlink:href="#linearGradient3144"
       gradientUnits="userSpaceOnUse"
       x2="2093.3"
       gradientTransform="translate(-1788 139.88)"
       y1="127.15"
       x1="2066.5" />
    <linearGradient
       id="linearGradient3693"
       y2="431.71"
       gradientUnits="userSpaceOnUse"
       x2="2306.5"
       gradientTransform="translate(-1775 140.88)"
       y1="351.06"
       x1="1747.1">
      <stop
         id="stop3422"
         stop-color="#484537"
         offset="0" />
      <stop
         id="stop3424"
         stop-color="#8a916f"
         offset="1" />
    </linearGradient>
    <linearGradient
       id="linearGradient3710"
       y2="403.01"
       gradientUnits="userSpaceOnUse"
       x2="2812.3"
       gradientTransform="translate(-1775 140.88)"
       y1="117.62"
       x1="2052.7">
      <stop
         id="stop3454"
         stop-color="#6c6753"
         offset="0" />
      <stop
         id="stop3456"
         stop-color="#450"
         offset="1" />
    </linearGradient>
    <linearGradient
       id="linearGradient3713"
       y2="88.347"
       gradientUnits="userSpaceOnUse"
       x2="2489.5"
       gradientTransform="translate(-1775 140.88)"
       y1="238.79"
       x1="2377.7">
      <stop
         id="stop3446"
         stop-color="#1c241f"
         offset="0" />
      <stop
         id="stop3448"
         stop-color="#484537"
         offset="1" />
    </linearGradient>
    <linearGradient
       id="linearGradient3716"
       y2="-139.65"
       gradientUnits="userSpaceOnUse"
       x2="2162.2"
       gradientTransform="translate(-1775 140.88)"
       y1="745.96"
       x1="2158.1">
      <stop
         id="stop3232"
         stop-color="#d7d7ff"
         offset="0" />
      <stop
         id="stop3240"
         stop-color="#d8d8ff"
         offset=".67455" />
      <stop
         id="stop3238"
         stop-color="#fff"
         offset=".78341" />
      <stop
         id="stop3234"
         stop-color="#d5d5ff"
         offset="1" />
    </linearGradient>
  </defs>
  <rect
     id="rect3023"
     ry=".5646"
     height="892.73"
     width="686.54"
     y="-.003906"
     x=".0069126"
     style="stroke:#000000;stroke-opacity:1;stroke-width:1.77165360000000005;stroke-miterlimit:4;stroke-dasharray:none;fill:#ffffff;fill-opacity:1"
     fill="url(#linearGradient3716)" />
  <path
     id="path3415"
     d="m686.56 221.5s-8.9499 5.4869-12.563 9.2188c-8.2816 8.5548-11.354 21.484-20.187 29.469-19.22 17.374-44.062 27.884-68.219 37.25-24.317 9.4279-76 18.594-76 18.594l82.19 107.03 94.78-19.93z"
     fill="url(#linearGradient3713)"
     style="stroke:#000000;stroke-opacity:1;stroke-width:1.77165360000000005;stroke-miterlimit:4;stroke-dasharray:none;fill:#ffffff;fill-opacity:1" />
  <path
     id="path3378"
     fill="url(#linearGradient3710)"
     d="m343.62 213.66c-16.455-1.7662-33.273-0.99064-49.625 1.5625-11.164 1.7432-22.063 5.2162-32.594 9.3125-16.151 6.2824-30.362 16.935-46.5 23.25-26.079 10.205-52.698 22.474-80.688 23.406-29.81 0.99281-59.374-8.9652-87.406-19.156-16.548-6.0159-46.813-24.469-46.813-24.469v664.59c0 0.15639 0.086 0.30421 0.1876 0.40625 0.1 0.0913 0.2276 0.15625 0.375 0.15625h685.44c0.1564 0 0.273-0.0542 0.375-0.15625 0.1021-0.10204 0.1876-0.24986 0.1876-0.40625v-546l-2.4063 0.0312s-18.14-1.7567-26.782 0.48929c-13.496 3.5076-22.961 19.754-36.906 19.698-15.2-0.0606-28.47-11.952-40.055-21.792-14.925-12.677-21.913-32.837-36.055-46.382-22.012-21.082-46.86-40.205-74.546-52.952-39.387-18.134-83.074-26.966-126.19-31.594z"
     style="stroke:#000000;stroke-opacity:1;stroke-width:1.77165360000000005;stroke-miterlimit:4;stroke-dasharray:none;fill:#ffffff;fill-opacity:1" />
  <path
     id="path3162"
     d="m 264.67314,224.57821 c 0,0 6.62854,0.38445 9.92967,0.72656 4.18413,0.43364 12.50754,1.67968 12.50754,1.67968 l -3.0622,-16.55096 -16.7107,-0.17569 z"
     style="fill:#000000;fill-opacity:1;stroke:#ffffff;stroke-width:1.77165364999999997;stroke-miterlimit:4;stroke-opacity:1;stroke-dasharray:none"
     inkscape:connector-curvature="0" />
  <path
     id="path3164"
     d="m 270.73431,207.12091 16.48412,0.24219 -0.0156,-3.39063 -16.46826,-0.24219 z"
     style="fill:#000000;fill-opacity:1;stroke:#ffffff;stroke-width:1.77165364999999997;stroke-miterlimit:4;stroke-opacity:1;stroke-dasharray:none"
     inkscape:connector-curvature="0" />
  <path
     id="path3166"
     d="m 283.74034,210.39961 c 0.685,-0.17126 3.42507,-3.25378 3.42507,-3.25378 l 2.91129,14.04266 -5.71189,8.83764 z"
     style="fill:#000000;fill-opacity:1;stroke:#ffffff;stroke-width:1.77165364999999997;stroke-miterlimit:4;stroke-opacity:1;stroke-dasharray:none"
     inkscape:connector-curvature="0" />
  <path
     id="path3168"
     d="m 280.35288,217.58804 -3.16291,-0.0879 c 0,0 -0.0348,-2.35468 0,-3.86578 0.0163,-0.70876 0.96037,-1.31782 1.66925,-1.31782 0.70895,0 1.68082,0.60903 1.66926,1.31782 -0.0223,1.37538 -0.17572,3.95358 -0.17572,3.95358 z"
     style="fill:#ffffff;fill-opacity:1;stroke:#000000;stroke-width:1.77165365;stroke-miterlimit:4;stroke-opacity:1;stroke-dasharray:none"
     inkscape:connector-curvature="0" />
  <path
     id="path3170"
     d="m 271.56135,206.97816 -3.03512,1.46137 -1.23648,-1.45956 3.48387,-3.26261 z"
     style="fill:#000000;fill-opacity:1;stroke:#ffffff;stroke-width:1.77165364999999997;stroke-miterlimit:4;stroke-opacity:1;stroke-dasharray:none"
     inkscape:connector-curvature="0" />
  <path
     id="path3172"
     d="m 285.76828,207.045 -2.63576,2.0207 -14.5842,-0.17572 2.72356,-2.46004 14.23299,0.0879 z"
     style="fill:#000000;fill-opacity:1;stroke:#ffffff;stroke-width:1.77165364999999997;stroke-miterlimit:4;stroke-opacity:1;stroke-dasharray:none"
     inkscape:connector-curvature="0" />
  <path
     id="path3174"
     d="m 267.33552,210.29311 16.48412,0.24219 -0.0156,-3.39063 -16.46826,-0.24219 z"
     style="fill:#000000;fill-opacity:1;stroke:#ffffff;stroke-width:1.77165364999999997;stroke-miterlimit:4;stroke-opacity:1;stroke-dasharray:none"
     inkscape:connector-curvature="0" />
  <path
     id="path3176"
     d="m 287.34305,207.10392 -3.57688,3.49746 -0.0795,-3.41793 3.41793,-3.25899 z"
     style="fill:#000000;fill-opacity:1;stroke:#ffffff;stroke-width:1.77165364999999997;stroke-miterlimit:4;stroke-opacity:1;stroke-dasharray:none"
     inkscape:connector-curvature="0" />
  <path
     inkscape:connector-curvature="0"
     style="fill:#ffffff;fill-opacity:1;stroke:#000000;stroke-width:1.77165353000000003;stroke-miterlimit:4;stroke-opacity:1;stroke-dasharray:none"
     d="m 329.82053,266.89017 c 0,0 -24.81748,-18.02888 -36.22356,-28.24304 -4.75169,-4.25528 -13.35296,-13.70633 -13.35296,-13.70633 l 0.95339,-9.33756 c 0,0 9.18738,8.40931 14.19559,12.0897 10.62597,7.8086 33.47414,21.08205 33.47414,21.08205 z"
     id="path3178" />
  <path
     inkscape:connector-curvature="0"
     style="fill:#ffffff;fill-opacity:1;stroke:#000000;stroke-width:1.77165353000000003;stroke-miterlimit:4;stroke-opacity:1;stroke-dasharray:none"
     d="m 277.08822,217.71797 4.29028,-0.23835 11.91777,9.77247 20.73616,14.0624 9.29543,6.43545 -2.86025,2.38348 -34.56073,-19.54492 z"
     id="path3180" />
  <path
     inkscape:connector-curvature="0"
     style="fill:#000000;fill-opacity:1;stroke:#ffffff;stroke-width:1.77165353000000003;stroke-miterlimit:4;stroke-opacity:1;stroke-dasharray:none"
     d="m 324.18034,267.32507 c 0,0 -24.81748,-18.02887 -36.22356,-28.24304 -4.75168,-4.25528 -13.35296,-13.70632 -13.35296,-13.70632 l 0.95333,-9.33756 c 0,0 9.18738,8.40931 14.19559,12.0897 10.62597,7.80859 33.47414,21.08205 33.47414,21.08205 z"
     id="path3182" />
  <path
     id="path3384"
     d="m318.59 267.97 4.875 21.688-86.875 74.469-6 7.2812-6.4062-13.5c-10.857 1.551-47.484-2.1482-69.781 4.6562-56.914 17.369-154.41 89.594-154.41 89.594v440c0 0.15639 0.086 0.30421 0.1876 0.40625 0.1 0.0913 0.2276 0.15625 0.375 0.15625h685.44c0.3128 0 0.5626-0.24971 0.5626-0.5625v-500s-50.232 15.694-75.188 11.281c-89.761-15.87-240.12-130.84-240.12-130.84z"
     style="stroke:#000000;stroke-opacity:1;stroke-width:1.77165360000000005;stroke-miterlimit:4;stroke-dasharray:none;fill:#ffffff;fill-opacity:1"
     fill="#454837" />
  <path
     id="path3405"
     fill="url(#linearGradient3693)"
     d="m249 367.22c-24.205-4.1527-49.327 3.8701-72.875 10.844-31.059 9.1979-56.213 36.762-88.406 40.344-29.691 3.3037-87.719-18.375-87.719-18.375v492.12c0 0.31279 0.2498 0.5625 0.5626 0.5625h685.44c0.3128 0 0.5626-0.24971 0.5626-0.5625v-347.62s-13.989-4.6224-20.344-8.25c-21.466-12.253-38.416-31.222-58.938-45-37.317-25.054-73.003-56.194-116.31-68.219-44.838-12.449-94.499 9.9214-139.59-1.5625-37.43-9.5321-64.306-47.75-102.38-54.281z"
     style="fill:#ffffff;fill-opacity:1;stroke:#000000;stroke-opacity:1;stroke-width:1.77165360000000005;stroke-miterlimit:4;stroke-dasharray:none" />
  <path
     inkscape:connector-curvature="0"
     style="fill:#000000;fill-opacity:1;stroke:#ffffff;stroke-width:1.77165353000000003;stroke-miterlimit:4;stroke-opacity:1;stroke-dasharray:none"
     d="m 375.61235,275.83845 c 0,0 -15.25011,0.88449 -22.84492,1.67157 -9.62633,0.99767 -28.77576,3.8644 -28.77576,3.8644 l 7.0451,-38.07836 38.44588,-0.40421 z"
     id="path3112" />
  <path
     inkscape:connector-curvature="0"
     style="fill:#000000;fill-opacity:1;stroke:#ffffff;stroke-width:1.77165353000000003;stroke-miterlimit:4;stroke-opacity:1;stroke-dasharray:none"
     d="m 361.66758,235.67489 -37.92458,0.55719 0.0359,-7.80073 37.88809,-0.55719 z"
     id="path3114" />
  <path
     inkscape:connector-curvature="0"
     style="fill:#000000;fill-opacity:1;stroke:#ffffff;stroke-width:1.77165353000000003;stroke-miterlimit:4;stroke-opacity:1;stroke-dasharray:none"
     d="m 331.74496,243.2181 c -1.57597,-0.394 -7.87997,-7.48587 -7.87997,-7.48587 l -6.69792,32.30757 13.14119,20.33253 z"
     id="path3116" />
  <path
     inkscape:connector-curvature="0"
     style="fill:#ffffff;fill-opacity:1;stroke:#000000;stroke-width:1.77165353;stroke-miterlimit:4;stroke-opacity:1;stroke-dasharray:none"
     d="m 339.5384,259.75634 7.27682,-0.20213 c 0,0 0.08,-5.41735 0,-8.8939 -0.0376,-1.63063 -2.2095,-3.03188 -3.84042,-3.03188 -1.63104,0 -3.867,1.40118 -3.84041,3.03188 0.0513,3.16429 0.40427,9.0959 0.40427,9.0959 z"
     id="path3118" />
  <path
     inkscape:connector-curvature="0"
     style="fill:#000000;fill-opacity:1;stroke:#ffffff;stroke-width:1.77165353000000003;stroke-miterlimit:4;stroke-opacity:1;stroke-dasharray:none"
     d="m 359.76483,235.34647 6.98282,3.36213 2.84473,-3.35796 -8.01525,-7.5062 z"
     id="path3120" />
  <path
     inkscape:connector-curvature="0"
     style="fill:#000000;fill-opacity:1;stroke:#ffffff;stroke-width:1.77165353000000003;stroke-miterlimit:4;stroke-opacity:1;stroke-dasharray:none"
     d="m 327.07932,235.50025 6.06403,4.64896 33.55347,-0.40427 -6.26602,-5.65975 -32.74546,0.20213 z"
     id="path3122" />
  <path
     inkscape:connector-curvature="0"
     style="fill:#000000;fill-opacity:1;stroke:#ffffff;stroke-width:1.77165353000000003;stroke-miterlimit:4;stroke-opacity:1;stroke-dasharray:none"
     d="m 369.48708,242.97309 -37.92458,0.55719 0.0359,-7.80073 37.88809,-0.55719 z"
     id="path3124" />
  <path
     inkscape:connector-curvature="0"
     style="fill:#000000;fill-opacity:1;stroke:#ffffff;stroke-width:1.77165353000000003;stroke-miterlimit:4;stroke-opacity:1;stroke-dasharray:none"
     d="m 323.45629,235.63579 8.22924,8.04653 0.18287,-7.86355 -7.86355,-7.49786 z"
     id="path3126" />
  <path
     id="path3156"
     d="m225.8 373.18s57.097-41.478 83.337-64.978c10.932-9.7899 30.721-31.533 30.721-31.533l-2.1934-21.482s-21.137 19.347-32.66 27.815c-24.446 17.965-77.012 48.503-77.012 48.503z"
     fill="url(#linearGradient3681)"
     style="stroke:#000000;stroke-opacity:1;stroke-width:1.77165360000000005;stroke-miterlimit:4;stroke-dasharray:none;fill:#000500;fill-opacity:1" />
  <path
     id="path3152"
     fill="#c5b299"
     d="m347.12 260.06-9.8704-0.54836-27.418 22.483-47.707 32.353-21.386 14.806 6.5804 5.4836 79.512-44.965z"
     style="stroke:#000000;stroke-opacity:1;stroke-width:1.77165360000000005;stroke-miterlimit:4;stroke-dasharray:none;fill:#ffffff;fill-opacity:1" />
  <path
     id="path3110"
     d="m238.8 374.18s57.097-41.478 83.337-64.978c10.932-9.7899 30.721-31.533 30.721-31.533l-2.1934-21.482s-21.137 19.347-32.66 27.815c-24.446 17.965-77.012 48.503-77.012 48.503z"
     fill="url(#linearGradient3677)"
     style="stroke:#000000;stroke-opacity:1;stroke-width:1.77165360000000005;stroke-miterlimit:4;stroke-dasharray:none;fill:#000000;fill-opacity:1" />
  <path
     id="path3064"
     d="m256.78 375.55s-23.75 1.3775-35.578 2.6033c-14.992 1.5537-44.814 6.0184-44.814 6.0184l10.972-59.301 59.875-0.62951z"
     fill="url(#linearGradient3674)"
     style="stroke:#ffffff;stroke-opacity:1;stroke-width:1.77165360000000005;stroke-miterlimit:4;stroke-dasharray:none;fill:#000000;fill-opacity:1" />
  <path
     id="path3066"
     d="m235.05 313-59.063 0.86775 0.056-12.149 59.007-0.86775z"
     fill="#dfc9a5"
     style="stroke:#ffffff;stroke-opacity:1;stroke-width:1.77165360000000005;stroke-miterlimit:4;stroke-dasharray:none;fill:#000000;fill-opacity:1" />
  <path
     id="path3068"
     d="m188.46 324.75c-2.4544-0.61358-12.272-11.658-12.272-11.658l-10.431 50.315 12.711 23.827z"
     fill="url(#linearGradient3670)"
     style="stroke:#ffffff;stroke-opacity:1;stroke-width:1.77165360000000005;stroke-miterlimit:4;stroke-dasharray:none;fill:#000000;fill-opacity:1" />
  <path
     id="path3070"
     d="m200.61 350.51 11.333-0.3148s0.1247-8.437 0-13.851c-0.058-2.5395-3.441-4.7219-5.9811-4.7219s-6.0223 2.1821-5.9811 4.7219c0.08 4.9278 0.6296 14.166 0.6296 14.166z"
     fill="url(#radialGradient3667)"
     style="stroke:#000000;stroke-opacity:1;stroke-width:1.77165360000000005;stroke-miterlimit:4;stroke-dasharray:none;fill:#ffffff;fill-opacity:1" />
  <path
     id="path3072"
     d="m232.07 312.49 10.875 5.236 4.4304-5.2297-12.483-11.69z"
     fill="#dfcaaa"
     style="stroke:#ffffff;stroke-opacity:1;stroke-width:1.77165360000000005;stroke-miterlimit:4;stroke-dasharray:none;fill:#000000;fill-opacity:1" />
  <path
     id="path3074"
     d="m181.18 312.73 9.4439 7.2403 52.256-0.62959-9.7587-8.8143-50.997 0.31479z"
     fill="#6c5d53"
     style="stroke:#000000;stroke-opacity:1;stroke-width:1.77165360000000005;stroke-miterlimit:4;stroke-dasharray:none;fill:#ffffff;fill-opacity:1" />
  <path
     id="path3076"
     d="m247.23 324.37-59.063 0.86775 0.056-12.149 59.007-0.86775z"
     fill="#dfc199"
     style="stroke:#ffffff;stroke-opacity:1;stroke-width:1.77165360000000005;stroke-miterlimit:4;stroke-dasharray:none;fill:#000000;fill-opacity:1" />
  <path
     id="path3078"
     d="m175.53 312.94 12.816 12.531 0.2848-12.246-12.246-11.677z"
     fill="#ddcfbb"
     style="stroke:#ffffff;stroke-opacity:1;stroke-width:1.77165360000000005;stroke-miterlimit:4;stroke-dasharray:none;fill:#000000;fill-opacity:1" />
  <path
     id="path3025"
     d="m220.3 395.81-1.551 72.897s32.371 21.927 49.632 31.02c19.46 10.251 60.489 26.367 60.489 26.367l1.551-58.938s-63.576-28.83-92.777-41.406c-7.6564-3.2976-17.343-29.939-17.343-29.939z"
     fill="#e0c79e"
     style="stroke:#000000;stroke-opacity:1;stroke-width:1.77165360000000005;stroke-miterlimit:4;stroke-dasharray:none;fill:#000000;fill-opacity:1" />
  <path
     id="path3027"
     d="m260.47 519.43-73.153-46.67s-14.388-8.7735-21.773-19.72c-2.704-4.0081-1.8713-8.3074-2.7462-12.574-3.8434-18.743 27.934-91.124 27.934-91.124l32.836 1.1934s-5.9409 14.771-3.0322 32.027c2.9086 17.256 3.6669 36.997 7.0651 46.937 9.4169 27.544 74.943 30.795 74.943 30.795z"
     fill="#c5b299"
     style="stroke:#ffffff;stroke-opacity:1;stroke-width:1.77165360000000005;stroke-miterlimit:4;stroke-dasharray:none;fill:#000000;fill-opacity:1" />
  <path
     id="path3021"
     d="m162.3 430.81-3.4686 39.541-1.0824 33.355s26.099 28.574 42.632 38.02c18.382 10.502 60.489 19.367 60.489 19.367l1.551-58.938s-74.068-20.942-95.712-49.632c-4.4482-5.8958-4.4079-21.714-4.4079-21.714z"
     fill="#e0c79e"
     style="stroke:#ffffff;stroke-opacity:1;stroke-width:1.77165360000000005;stroke-miterlimit:4;stroke-dasharray:none;fill:#000000;fill-opacity:1" />
  <path
     id="path3410"
     fill="url(#linearGradient3657)"
     d="m259.87 584.35-259.88 167.28v140.53c0 0.31279 0.2498 0.5625 0.5626 0.5625h685.44c0.3128 0 0.5626-0.24971 0.5626-0.5625v-263.41l-215.75-42.844-210.94-1.5625z"
     style="fill:#ffffff;stroke:#000000;stroke-opacity:1;stroke-width:1.77165360000000005;stroke-miterlimit:4;stroke-dasharray:none;fill-opacity:1" />
  <path
     id="path2989"
     d="m471.69 585.57s-58.508 3.3934-87.646 6.4131c-36.932 3.8276-110.4 14.826-110.4 14.826l27.029-146.09 147.5-1.5508z"
     fill="url(#linearGradient3654)"
     style="fill:#000000;fill-opacity:1;stroke:#ffffff;stroke-opacity:1;stroke-width:1.77165360000000005;stroke-miterlimit:4;stroke-dasharray:none" />
  <path
     id="path3826"
     d="m418.17 431.48-145.5 2.1377 0.1378-29.928 145.36-2.1377z"
     fill="#dfc9a5"
     style="stroke:#ffffff;stroke-opacity:1;stroke-width:1.77165360000000005;stroke-miterlimit:4;stroke-dasharray:none;fill:#000000;fill-opacity:1" />
  <path
     id="path3806"
     d="m303.39 460.41c-6.0463-1.5116-30.232-28.72-30.232-28.72l-25.697 123.95 50.417-33.255z"
     fill="url(#linearGradient3650)"
     style="stroke:#ffffff;stroke-opacity:1;stroke-width:1.77165360000000005;stroke-miterlimit:4;stroke-dasharray:none;fill:#000000;fill-opacity:1" />
  <path
     id="path3794"
     fill="url(#linearGradient3647)"
     d="m326.9 479.28s-33.881 33.297-53.438 46.562c-25.532 17.319-53.107 32.401-82.312 42.344-11.477 3.907-23.296 6.6448-35.281 8.7188 11.243-0.60521 22.45-1.5321 33.625-2.6562 25.588-2.574 51.562-5.5874 75.906-13.875 21.438-7.2981 41.985-17.406 61.5-29.094v-52z"
     style="stroke:#ffffff;stroke-opacity:1;stroke-width:1.77165360000000005;stroke-miterlimit:4;stroke-dasharray:none;fill:#000000;fill-opacity:1" />
  <path
     id="path3783"
     d="m309.22 524.89s-27.224 23.338-42.754 32.065c-36.797 20.68-117.57 47.029-117.57 47.029l19.239 27.79 185.98-53.442 19.239-57.718z"
     fill="#c5b299"
     style="stroke:#000000;stroke-opacity:1;stroke-width:1.77165360000000005;stroke-miterlimit:4;stroke-dasharray:none;fill:#ffffff;fill-opacity:1" />
  <path
     id="path3005"
     d="m333.32 523.87 27.918-0.77549s0.3071-20.784 0-34.122c-0.1441-6.256-8.4769-11.632-14.734-11.632-6.2576 0.00001-14.836 5.3757-14.734 11.632 0.1968 12.14 1.551 34.897 1.551 34.897z"
     fill="url(#radialGradient3643)"
     style="stroke:#000000;stroke-opacity:1;stroke-width:1.77165360000000005;stroke-miterlimit:4;stroke-dasharray:none;fill:#ffffff;fill-opacity:1" />
  <path
     id="path2987"
     fill="url(#linearGradient3640)"
     d="m401.16 471.44s-33.881 33.328-53.438 46.594c-25.532 17.319-53.107 32.401-82.312 42.344-24.345 8.2876-50.319 11.301-75.906 13.875-32.974 3.3171-66.346 4.6507-99.375 1.9375-26.99-2.2171-73.267-12.473-90.125-16.344v198.97c5.0424 0.99664 25.871 5.0948 38.813 7.625 23.864 4.6656 47.389 11.58 71.594 13.906 18.796 1.8067 37.977 2.7646 56.656 0 27.986-4.1419 55.336-13.244 81.25-24.594 19.31-8.4571 38.661-18.151 54.5-32.062 8.7193-7.658 14.25-18.309 21.375-27.469 17.816-22.905 36.939-44.848 53.437-68.719 8.5467-12.365 23.531-38.5 23.531-38.5v-117.56z"
     style="stroke-width:1.77165360000000005;stroke-miterlimit:4;stroke-dasharray:none;stroke:#ffffff;stroke-opacity:1;fill:#000000;fill-opacity:1" />
  <path
     id="path2999"
     d="m410.82 430.22 26.79 12.899 10.914-12.883-30.751-28.798z"
     fill="#dfcaaa"
     style="stroke:#ffffff;stroke-opacity:1;stroke-width:1.77165360000000005;stroke-miterlimit:4;stroke-dasharray:none;fill:#000000;fill-opacity:1" />
  <path
     id="path3003"
     fill="#6c5d53"
     d="m285.46 430.81 23.265 17.836 128.73-1.551-24.04-21.714-125.63 0.77549z"
     style="stroke:#ffffff;stroke-opacity:1;stroke-width:1.77165360000000005;stroke-miterlimit:4;stroke-dasharray:none;fill:#000000;fill-opacity:1" />
  <path
     id="path3824"
     d="m448.17 459.48-145.5 2.1377 0.1378-29.928 145.36-2.1377z"
     fill="#dfc199"
     style="fill:#000000;fill-opacity:1;stroke:#ffffff;stroke-opacity:1;stroke-width:1.77165360000000005;stroke-miterlimit:4;stroke-dasharray:none" />
  <path
     id="path3001"
     fill="#ddcfbb"
     d="m271.55 431.33 31.572 30.871 0.7016-30.169-30.169-28.766z"
     style="stroke:#ffffff;stroke-opacity:1;stroke-width:1.77165360000000005;stroke-miterlimit:4;stroke-dasharray:none;fill:#000000;fill-opacity:1" />
  <path
     id="path3154"
     d="m164.25 448.53s-1.2357-12.394-0.2902-18.483c4.3194-27.816 26.87-80.06 26.87-80.06v-3.8385h-3.8385s-21.678 51.923-24.676 79.512c-0.8266 7.6056 1.9352 22.87 1.9352 22.87z"
     fill="#dfc199"
     style="stroke:#ffffff;stroke-opacity:1;stroke-width:1.77165360000000005;stroke-miterlimit:4;stroke-dasharray:none;fill:#000000;fill-opacity:1" />
  <path
     id="path3228"
     d="m229.11 413.29s-3.9761-7.6577-4.6519-11.846c-2.7386-16.972 2.7963-51.499 2.7963-51.499l-0.5648-2.3517-3.7968 0.34986s-6.3028 33.018-2.7073 48.963c1.3679 6.0665 8.9245 16.383 8.9245 16.383z"
     fill="#dfc199"
     style="stroke:#000000;stroke-opacity:1;stroke-width:1.77165360000000005;stroke-miterlimit:4;stroke-dasharray:none;fill:#ffffff;fill-opacity:1" />
  <metadata
     id="metadata102">
    <rdf:RDF>
      <cc:Work>
        <dc:format>image/svg+xml</dc:format>
        <dc:type
           rdf:resource="http://purl.org/dc/dcmitype/StillImage" />
        <cc:license
           rdf:resource="http://creativecommons.org/licenses/publicdomain/" />
        <dc:publisher>
          <cc:Agent
             rdf:about="http://openclipart.org/">
            <dc:title>Openclipart</dc:title>
          </cc:Agent>
        </dc:publisher>
        <dc:title></dc:title>
        <dc:date>2011-04-24T15:29:44</dc:date>
        <dc:description>architecture, border, building, china, chinese, clip art, clipart, great wall, landmark, wall, </dc:description>
        <dc:source>http://openclipart.org/detail/133855/great-wall-by-gnokii</dc:source>
        <dc:creator>
          <cc:Agent>
            <dc:title>gnokii</dc:title>
          </cc:Agent>
        </dc:creator>
        <dc:subject>
          <rdf:Bag>
            <rdf:li>architecture</rdf:li>
            <rdf:li>border</rdf:li>
            <rdf:li>building</rdf:li>
            <rdf:li>china</rdf:li>
            <rdf:li>chinese</rdf:li>
            <rdf:li>clip art</rdf:li>
            <rdf:li>clipart</rdf:li>
            <rdf:li>great wall</rdf:li>
            <rdf:li>landmark</rdf:li>
            <rdf:li>wall</rdf:li>
          </rdf:Bag>
        </dc:subject>
      </cc:Work>
      <cc:License
         rdf:about="http://creativecommons.org/licenses/publicdomain/">
        <cc:permits
           rdf:resource="http://creativecommons.org/ns#Reproduction" />
        <cc:permits
           rdf:resource="http://creativecommons.org/ns#Distribution" />
        <cc:permits
           rdf:resource="http://creativecommons.org/ns#DerivativeWorks" />
      </cc:License>
    </rdf:RDF>
  </metadata>
</svg>
