<?xml version="1.0" encoding="UTF-8" standalone="no"?>
<svg
   xmlns:dc="http://purl.org/dc/elements/1.1/"
   xmlns:cc="http://creativecommons.org/ns#"
   xmlns:rdf="http://www.w3.org/1999/02/22-rdf-syntax-ns#"
   xmlns:svg="http://www.w3.org/2000/svg"
   xmlns="http://www.w3.org/2000/svg"
   xmlns:sodipodi="http://sodipodi.sourceforge.net/DTD/sodipodi-0.dtd"
   xmlns:inkscape="http://www.inkscape.org/namespaces/inkscape"
   style="shape-rendering:geometricPrecision;text-rendering:geometricPrecision;image-rendering:optimizeQuality"
   fill-rule="evenodd"
   xml:space="preserve"
   clip-rule="evenodd"
   viewBox="0 0 58.282 58.282"
   id="svg2"
   version="1.1"
   inkscape:version="0.48.4 r9939"
   width="100%"
   height="100%"
   sodipodi:docname="molumen_phone_icon.svg"><sodipodi:namedview
     pagecolor="#ffffff"
     bordercolor="#666666"
     borderopacity="1"
     objecttolerance="10"
     gridtolerance="10"
     guidetolerance="10"
     inkscape:pageopacity="0"
     inkscape:pageshadow="2"
     inkscape:window-width="1280"
     inkscape:window-height="1000"
     id="namedview17"
     showgrid="false"
     inkscape:zoom="4.0492777"
     inkscape:cx="-23.109701"
     inkscape:cy="53.316566"
     inkscape:window-x="0"
     inkscape:window-y="24"
     inkscape:window-maximized="1"
     inkscape:current-layer="svg2" /><defs
     id="defs4"><style
       type="text/css"
       id="style6">
    .fil0 {fill:#1B1C1F}
    .fil1 {fill:#1B1C1F;fill-rule:nonzero}
  </style></defs><path
     sodipodi:type="arc"
     style="fill:none;stroke:#000000;stroke-width:3.54330708999999988;stroke-miterlimit:4;stroke-opacity:1;stroke-dasharray:none"
     id="path3039"
     sodipodi:cx="29.162443"
     sodipodi:cy="29.206869"
     sodipodi:rx="27.503502"
     sodipodi:ry="27.503502"
     d="m 56.665945,29.206869 a 27.503502,27.503502 0 1 1 -55.0070037,0 27.503502,27.503502 0 1 1 55.0070037,0 z" /><g
     id="g3809"
     transform="matrix(0.80720644,0,0,0.80720644,-3.7331011,10.227454)"><path
       style="fill:#1b1c1f"
       inkscape:connector-curvature="0"
       d="m 24.186,22.5 c -5.4466,3.1445 2.8637,18.724 8.8237,15.283 1.0584,1.8332 4.4676,7.7381 5.526,9.5712 -2.5146,1.4519 -4.6432,2.3671 -7.5585,0.70054 -8.0946,-4.6273 -17.005,-20.054 -16.751,-29.256 0.08805,-3.196 1.971,-4.4482 4.434,-5.8702 1.0584,1.8332 4.4676,7.738 5.526,9.5712 z"
       class="fil0"
       id="_152222248" /><path
       style="fill:#1b1c1f"
       inkscape:connector-curvature="0"
       d="m 26.47,22.24 c -0.58849,0.33978 -1.3458,0.13697 -1.6856,-0.45158 l -5.2095,-9.0232 c -0.33984,-0.58862 -0.13704,-1.3459 0.45152,-1.6857 l 2.738,-1.5808 c 0.58855,-0.33984 1.346,-0.13685 1.6858,0.4517 l 5.2095,9.0231 c 0.33978,0.58849 0.13691,1.3458 -0.45158,1.6856 l -2.738,1.5808 z"
       class="fil0"
       id="_150519168" /><path
       style="fill:#1b1c1f"
       inkscape:connector-curvature="0"
       d="m 40.702,46.89 c -0.58849,0.33978 -1.3458,0.13697 -1.6856,-0.45164 l -5.2095,-9.0232 c -0.33984,-0.58855 -0.13704,-1.3459 0.45152,-1.6856 l 2.738,-1.5808 c 0.58855,-0.33978 1.346,-0.13679 1.6858,0.4517 l 5.2095,9.0231 c 0.33978,0.58855 0.13691,1.3459 -0.45158,1.6856 l -2.738,1.5808 z"
       class="fil0"
       id="_226148072" /></g><metadata
     id="metadata15"><rdf:RDF><cc:Work><dc:format>image/svg+xml</dc:format><dc:type
           rdf:resource="http://purl.org/dc/dcmitype/StillImage" /><cc:license
           rdf:resource="http://creativecommons.org/licenses/publicdomain/" /><dc:publisher><cc:Agent
             rdf:about="http://openclipart.org/"><dc:title>Openclipart</dc:title></cc:Agent></dc:publisher><dc:title></dc:title><dc:date>2006-10-06T16:21:45</dc:date><dc:description>an icon representing a phone</dc:description><dc:source>http://openclipart.org/detail/399/phone-icon-by-molumen</dc:source><dc:creator><cc:Agent><dc:title>molumen</dc:title></cc:Agent></dc:creator><dc:subject><rdf:Bag><rdf:li>black &amp; white</rdf:li><rdf:li>button</rdf:li><rdf:li>circle</rdf:li><rdf:li>clip art</rdf:li><rdf:li>clipart</rdf:li><rdf:li>icon</rdf:li><rdf:li>phone</rdf:li><rdf:li>round</rdf:li><rdf:li>sign</rdf:li></rdf:Bag></dc:subject></cc:Work><cc:License
         rdf:about="http://creativecommons.org/licenses/publicdomain/"><cc:permits
           rdf:resource="http://creativecommons.org/ns#Reproduction" /><cc:permits
           rdf:resource="http://creativecommons.org/ns#Distribution" /><cc:permits
           rdf:resource="http://creativecommons.org/ns#DerivativeWorks" /></cc:License></rdf:RDF></metadata><g
     id="g3814"
     transform="matrix(1.4751794,0,0,1.4751794,8.4841082,-16.455733)"><path
       id="path2948"
       d="m 10.545115,19.286357 c -0.09281,0 -0.167535,0.07479 -0.167535,0.167535 v 14.422166 c 0,0.09275 0.07472,0.167534 0.167535,0.167534 h 14.049403 c 0.09281,0 0.167534,-0.07479 0.167534,-0.167534 V 20.999393 h -0.137429 v -0.553659 h 0.137429 v -0.229051 l -1.11251,-0.93061 h -0.29842 v 0.04712 h -1.201554 l -0.05628,0.04188 -0.09686,0.06937 v 0.0013 h -9.745873 v -0.159682 h -1.705454 z m 12.863262,13.158122 h 0.842905 v 0.600778 h -0.842905 v -0.600778 z"
       inkscape:connector-curvature="0"
       style="fill-opacity:0.99607999;filter:url(#filter3832)" /><path
       inkscape:connector-curvature="0"
       d="m 10.37758,19.123934 c -0.09281,0 -0.167534,0.07478 -0.167534,0.167532 v 14.422168 c 0,0.09275 0.07472,0.167534 0.167534,0.167534 h 14.049404 c 0.09281,0 0.167534,-0.07479 0.167534,-0.167534 V 20.836969 H 24.457089 V 20.28331 h 0.137429 v -0.229053 l -1.11251,-0.930609 h -0.29842 v 0.04712 h -1.201554 l -0.05628,0.04188 -0.09686,0.06937 v 0.0013 h -9.745873 v -0.159675 h -1.705455 z m 12.863263,13.158121 h 0.842905 v 0.600777 h -0.842905 v -0.600777 z"
       id="rect2831"
       style="fill-opacity:0.99607999" /><rect
       id="rect2851"
       height="8.3415194"
       width="10.937459"
       y="25.540028"
       x="11.933498"
       style="opacity:0.6;fill:#000000;fill-opacity:0.99607999" /><rect
       height="1.3618423"
       x="11.997501"
       width="10.809714"
       y="25.603687"
       id="rect2862"
       style="fill:#ffffff;fill-opacity:0.99607999" /><rect
       height="0.95754075"
       x="11.997501"
       width="10.809714"
       y="27.015579"
       id="rect2864"
       style="fill:#ffffff;fill-opacity:0.99607999" /><rect
       height="0.95754075"
       x="11.997501"
       width="10.809714"
       y="28.023296"
       id="rect2866"
       style="fill:#ffffff;fill-opacity:0.99607999" /><rect
       height="0.95754075"
       x="11.997501"
       width="10.809714"
       y="29.031013"
       id="rect2868"
       style="fill:#ffffff;fill-opacity:0.99607999" /><rect
       height="0.95754075"
       x="11.997501"
       width="10.809714"
       y="30.038315"
       id="rect2870"
       style="fill:#ffffff;fill-opacity:0.99607999" /><rect
       height="0.95754075"
       x="11.997501"
       width="10.809714"
       y="31.046032"
       id="rect2872"
       style="fill:#ffffff;fill-opacity:0.99607999" /><rect
       height="0.95754075"
       x="11.997501"
       width="10.809714"
       y="32.053749"
       id="rect2874"
       style="fill:#ffffff;fill-opacity:0.99607999" /><path
       id="rect2853"
       d="m 13.871085,19.113336 v 4.770951 c 0,0.139221 0.112078,0.251301 0.251299,0.251301 h 7.285218 c 0.13922,0 0.2513,-0.11208 0.2513,-0.251301 v -4.770951 h -7.787817 z m 4.510433,0.72379 h 2.128186 v 3.956692 h -2.128186 v -3.956692 z"
       style="fill:#ffffff;fill-opacity:1;stroke:#000000;stroke-width:0.14840613;stroke-miterlimit:4;stroke-opacity:1;stroke-dasharray:none"
       inkscape:connector-curvature="0" /><path
       id="path3014"
       d="m 12.735999,26.773714 c 0,0.0019 -5.64e-4,0.0036 -0.0019,0.0051 -0.0013,0.0015 -0.0033,0.0027 -0.0062,0.0037 -0.0029,9.52e-4 -0.0067,0.0017 -0.01145,0.0023 -0.0048,5.65e-4 -0.01088,9.53e-4 -0.01833,9.53e-4 -0.0073,0 -0.01331,-3.88e-4 -0.01818,-9.53e-4 -0.0049,-5.64e-4 -0.0087,-0.0013 -0.01159,-0.0023 -0.0029,-9.53e-4 -0.0049,-0.0022 -0.0062,-0.0037 -0.0013,-0.0015 -0.0019,-0.0032 -0.0019,-0.0051 v -0.349876 c 0,-0.0019 5.64e-4,-0.0036 0.0019,-0.0052 0.0013,-0.0015 0.0033,-0.0027 0.0063,-0.0037 0.003,-9.52e-4 0.0068,-0.0017 0.01159,-0.0023 0.0048,-5.64e-4 0.01079,-9.52e-4 0.01805,-9.52e-4 0.0074,0 0.01356,3.88e-4 0.01832,9.52e-4 0.0048,5.64e-4 0.0086,0.0013 0.01145,0.0023 0.0029,9.52e-4 0.0049,0.0022 0.0062,0.0037 0.0013,0.0015 0.0019,0.0032 0.0019,0.0052 z"
       inkscape:connector-curvature="0"
       style="fill:#000000;fill-opacity:1" /><path
       id="path3016"
       d="m 13.123003,26.757796 c 0,0.0044 -7.41e-4,0.0083 -0.0023,0.01174 -0.0015,0.0035 -0.0036,0.0063 -0.0062,0.0086 -0.0026,0.0023 -0.0056,0.004 -0.0092,0.005 -0.0035,0.0011 -0.0071,0.0015 -0.01073,0.0015 h -0.03207 c -0.0067,0 -0.01245,-7.4e-4 -0.01732,-0.002 -0.0049,-0.0013 -0.0094,-0.0038 -0.01346,-0.0073 -0.0041,-0.0035 -0.0081,-0.0083 -0.01188,-0.01432 -0.0038,-0.006 -0.0081,-0.0138 -0.01288,-0.02333 l -0.0922,-0.17322 c -0.0053,-0.0103 -0.01079,-0.02142 -0.01633,-0.03335 -0.0055,-0.01193 -0.01049,-0.02353 -0.01488,-0.03479 h -5.64e-4 c 7.4e-4,0.01375 0.0013,0.02744 0.0017,0.04109 3.88e-4,0.01365 5.65e-4,0.02773 5.65e-4,0.04223 v 0.193833 c 0,0.0019 -5.65e-4,0.0036 -0.0015,0.0052 -0.0011,0.0015 -0.0029,0.0028 -0.0054,0.0039 -0.0026,0.0011 -0.0061,0.0019 -0.01045,0.0024 -0.0044,5.64e-4 -0.01002,9.52e-4 -0.01689,9.52e-4 -0.0067,0 -0.01221,-3.88e-4 -0.0166,-9.52e-4 -0.0044,-5.64e-4 -0.0078,-0.0013 -0.0103,-0.0024 -0.0025,-0.0011 -0.0042,-0.0023 -0.0052,-0.0039 -9.52e-4,-0.0015 -0.0015,-0.0032 -0.0015,-0.0052 V 26.44057 c 0,-0.009 0.0026,-0.01569 0.0079,-0.02018 0.0053,-0.0045 0.01168,-0.0067 0.01933,-0.0067 h 0.04037 c 0.0073,0 0.01335,5.64e-4 0.01832,0.0019 0.005,0.0013 0.0094,0.0033 0.01332,0.0062 0.0039,0.0029 0.0076,0.0068 0.01103,0.01188 0.0035,0.0051 0.007,0.01132 0.01059,0.01875 l 0.07215,0.135427 c 0.0042,0.0082 0.0084,0.01627 0.01245,0.02419 0.0041,0.0079 0.0081,0.01584 0.01188,0.02376 0.0038,0.0079 0.0075,0.01571 0.01116,0.02333 0.0036,0.0076 0.0072,0.01528 0.0106,0.02291 h 3.88e-4 c -5.64e-4,-0.01335 -9.52e-4,-0.0273 -0.0013,-0.0418 -3.88e-4,-0.01451 -3.88e-4,-0.02835 -3.88e-4,-0.04152 v -0.173791 c 0,-0.0019 5.64e-4,-0.0036 0.0017,-0.0052 0.0011,-0.0015 0.003,-0.0029 0.0057,-0.004 0.0027,-0.0011 0.0062,-0.002 0.01059,-0.0024 0.0044,-5.64e-4 0.01002,-7.41e-4 0.01689,-7.41e-4 0.0065,0 0.01193,1.88e-4 0.01632,7.41e-4 0.0044,5.64e-4 0.0078,0.0013 0.01015,0.0024 0.0024,0.0011 0.0041,0.0025 0.005,0.004 9.52e-4,0.0015 0.0015,0.0032 0.0015,0.0052 z"
       inkscape:connector-curvature="0"
       style="fill:#000000;fill-opacity:1" /><path
       id="path3018"
       d="m 13.511263,26.593613 c 0,0.03398 -0.0044,0.06303 -0.01331,0.08718 -0.0089,0.02414 -0.02162,0.04385 -0.03822,0.05912 -0.0166,0.01528 -0.03679,0.02649 -0.06055,0.03364 -0.02376,0.0072 -0.05206,0.01073 -0.08489,0.01073 h -0.08847 c -0.0063,0 -0.01159,-0.0019 -0.0159,-0.0056 -0.0043,-0.0037 -0.0064,-0.0098 -0.0064,-0.01818 v -0.32294 c 0,-0.0084 0.0022,-0.01446 0.0064,-0.01818 0.0043,-0.0037 0.0096,-0.0056 0.0159,-0.0056 h 0.09506 c 0.03302,0 0.06103,0.0039 0.08403,0.01159 0.023,0.0077 0.04237,0.01919 0.05812,0.03436 0.01574,0.01517 0.02773,0.03393 0.03593,0.05626 0.0082,0.02234 0.01231,0.04819 0.01231,0.07759 z m -0.07788,0.0026 c 0,-0.01756 -0.002,-0.03388 -0.0062,-0.04896 -0.0041,-0.01507 -0.0107,-0.02815 -0.01975,-0.03922 -0.0091,-0.01107 -0.02071,-0.01971 -0.03493,-0.02591 -0.01421,-0.0062 -0.03288,-0.0093 -0.05597,-0.0093 h -0.03808 v 0.251954 h 0.03923 c 0.02061,0 0.03798,-0.0027 0.05211,-0.008 0.01412,-0.0053 0.02591,-0.01341 0.03536,-0.02419 0.0094,-0.01079 0.01651,-0.02419 0.02119,-0.04023 0.0047,-0.01603 0.007,-0.03474 0.007,-0.05611 z"
       inkscape:connector-curvature="0"
       style="fill:#000000;fill-opacity:1" /><path
       id="path3020"
       d="m 13.79272,26.754864 c 0,0.0055 -1.88e-4,0.01017 -7.41e-4,0.01389 -5.64e-4,0.0037 -0.0011,0.0067 -0.0022,0.009 -9.52e-4,0.0023 -0.0022,0.004 -0.0036,0.005 -0.0015,0.0011 -0.003,0.0015 -0.0047,0.0015 h -0.186105 c -0.0063,0 -0.01159,-0.0019 -0.0159,-0.0056 -0.0043,-0.0037 -0.0064,-0.0098 -0.0064,-0.01818 v -0.322961 c 0,-0.0084 0.0022,-0.01445 0.0064,-0.01818 0.0043,-0.0037 0.0096,-0.0056 0.0159,-0.0056 h 0.184957 c 0.0017,0 0.0032,5.65e-4 0.0046,0.0015 0.0013,9.52e-4 0.0025,0.0026 0.0035,0.005 9.52e-4,0.0024 0.0017,0.0054 0.0022,0.0092 5.64e-4,0.0037 7.41e-4,0.0085 7.41e-4,0.01418 0,0.0053 -1.87e-4,0.0099 -7.41e-4,0.01359 -5.64e-4,0.0037 -0.0011,0.0067 -0.0022,0.009 -9.52e-4,0.0023 -0.0021,0.004 -0.0035,0.005 -0.0013,0.0011 -0.0029,0.0015 -0.0046,0.0015 h -0.132276 v 0.09048 h 0.111946 c 0.0017,0 0.0033,5.64e-4 0.0047,0.0015 0.0015,0.0011 0.0026,0.0027 0.0036,0.0049 9.52e-4,0.0022 0.0017,0.0052 0.0022,0.0089 5.64e-4,0.0037 7.4e-4,0.0083 7.4e-4,0.01359 0,0.0055 -1.87e-4,0.01012 -7.4e-4,0.01374 -5.64e-4,0.0036 -0.0011,0.0065 -0.0022,0.0087 -9.52e-4,0.0022 -0.0022,0.0038 -0.0036,0.0047 -0.0015,9.52e-4 -0.003,0.0015 -0.0047,0.0015 h -0.111946 v 0.104504 h 0.133424 c 0.0017,0 0.0033,5.64e-4 0.0047,0.0015 0.0015,0.0011 0.0026,0.0027 0.0036,0.005 9.52e-4,0.0023 0.0017,0.0053 0.0022,0.009 5.64e-4,0.0037 7.41e-4,0.0084 7.41e-4,0.01389 z"
       inkscape:connector-curvature="0"
       style="fill:#000000;fill-opacity:1" /><path
       id="path3022"
       d="m 14.1236,26.755702 c 0.0035,0.0067 0.0057,0.01202 0.0067,0.01604 0.0011,0.004 3.88e-4,0.0071 -0.0019,0.0092 -0.0023,0.0021 -0.0064,0.0035 -0.01245,0.004 -0.006,5.64e-4 -0.01436,9.52e-4 -0.02505,9.52e-4 -0.009,0 -0.01603,-1.87e-4 -0.02119,-5.64e-4 -0.0052,-3.88e-4 -0.0092,-9.52e-4 -0.01217,-0.0019 -0.003,-9.52e-4 -0.0051,-0.002 -0.0065,-0.0036 -0.0013,-0.0015 -0.0025,-0.0035 -0.0035,-0.0057 l -0.06957,-0.133708 -0.06929,0.133708 c -0.0011,0.0023 -0.0024,0.0042 -0.0037,0.0057 -0.0013,0.0015 -0.0035,0.0027 -0.0064,0.0036 -0.003,9.52e-4 -0.0071,0.0015 -0.01231,0.0019 -0.0053,3.88e-4 -0.01217,5.64e-4 -0.02076,5.64e-4 -0.0099,0 -0.01762,-3.88e-4 -0.02305,-9.52e-4 -0.0054,-5.64e-4 -0.0091,-0.0019 -0.01102,-0.004 -0.0019,-0.0021 -0.0023,-0.0052 -0.0011,-0.0092 0.0011,-0.004 0.0035,-0.0094 0.0072,-0.01604 l 0.08875,-0.161766 -0.08246,-0.152032 c -0.0035,-0.0069 -0.0058,-0.01236 -0.007,-0.01646 -0.0013,-0.0041 -7.4e-4,-0.0072 0.0015,-0.0092 0.0022,-0.002 0.0062,-0.0032 0.01217,-0.0037 0.0059,-5.64e-4 0.01432,-7.4e-4 0.0252,-7.4e-4 0.009,0 0.01608,1.87e-4 0.02133,5.64e-4 0.0053,3.88e-4 0.0094,9.52e-4 0.01245,0.0019 0.003,9.52e-4 0.0052,0.002 0.0065,0.0036 0.0013,0.0015 0.0024,0.0035 0.0036,0.0057 l 0.06499,0.122543 0.06327,-0.122543 c 0.0011,-0.0023 0.0023,-0.0042 0.0036,-0.0057 0.0013,-0.0015 0.0032,-0.0027 0.006,-0.0036 0.0028,-9.52e-4 0.0066,-0.0015 0.01145,-0.0019 0.0049,-3.88e-4 0.01159,-5.64e-4 0.02019,-5.64e-4 0.0095,0 0.01709,1.87e-4 0.02262,7.4e-4 0.0055,5.64e-4 0.0094,0.0017 0.01146,0.0039 0.0021,0.0021 0.0026,0.0052 0.0015,0.0092 -0.0011,0.004 -0.0032,0.0094 -0.0064,0.01633 l -0.08246,0.151174 z"
       inkscape:connector-curvature="0"
       style="fill:#000000;fill-opacity:1" /></g></svg>