<?xml version="1.0" encoding="UTF-8" standalone="no"?>
<svg
   xmlns:dc="http://purl.org/dc/elements/1.1/"
   xmlns:cc="http://creativecommons.org/ns#"
   xmlns:rdf="http://www.w3.org/1999/02/22-rdf-syntax-ns#"
   xmlns:svg="http://www.w3.org/2000/svg"
   xmlns="http://www.w3.org/2000/svg"
   xmlns:sodipodi="http://sodipodi.sourceforge.net/DTD/sodipodi-0.dtd"
   xmlns:inkscape="http://www.inkscape.org/namespaces/inkscape"
   viewBox="0 0 468 542"
   version="1.0"
   id="svg2"
   inkscape:version="0.48.4 r9939"
   width="100%"
   height="100%"
   sodipodi:docname="face.svg">
  <defs
     id="defs54" />
  <sodipodi:namedview
     pagecolor="#ffffff"
     bordercolor="#666666"
     borderopacity="1"
     objecttolerance="10"
     gridtolerance="10"
     guidetolerance="10"
     inkscape:pageopacity="0"
     inkscape:pageshadow="2"
     inkscape:window-width="1280"
     inkscape:window-height="1000"
     id="namedview52"
     showgrid="false"
     inkscape:zoom="0.87084871"
     inkscape:cx="-12.782473"
     inkscape:cy="216.85252"
     inkscape:window-x="0"
     inkscape:window-y="24"
     inkscape:window-maximized="1"
     inkscape:current-layer="svg2" />
  <g
     transform="translate(0 542) scale(.084324 -.084324)"
     id="g4">
    <path
       d="m 1614.8619,6139.1601 c -184.34,-54.2356 -397.4154,-230.7505 -482.622,-415.8845 C 1047.0332,5538.1417 960.52462,5578.7726 745.75107,5281.1777 708.75342,5229.9129 629,5058 628,5000 c -2,-126 19,-187 73,-216 60,-30 203,-1 233,48 17,29 -1,32 -55,9 -55,-24 -113,-22 -156,5 -46,29 -19,93 52,124 23,10 57,31 76,47 19,16 50,35 69,43 19,7 52,26 72,41 43,34 68,36 93,9 20,-22 55,-27 55,-7 0,7 -9,37 -21,67 -11,30 -25,68 -31,84 -12,31 -4,247 10,301 8,27 21,38 82,65 21,9 65,94 57,111 -4,8 -13,23 -21,34 -13,18 -13,24 0,50 8,17 33,44 56,60 22,17 64,49 92,73 90,76 170,111 351,156 126,30 225,34 325,10 108,-25 114,-26 165,-15 117,24 207,51 233,69 24,18 55,22 244,32 323,17 386,8 370,-52 -9,-35 -88,-105 -140,-123 -95,-34 -111,-44 -129,-82 -12,-24 -27,-39 -43,-43 -13,-3 -37,-24 -53,-45 -15,-22 -35,-50 -43,-62 -14,-20 -14,-25 2,-52 23,-38 14,-47 -25,-27 -16,9 -41,16 -56,16 -36,0 -32,-27 10,-66 29,-27 34,-36 26,-55 -11,-33 -42,-35 -71,-4 -31,33 -50,32 -50,-4 0,-28 21,-52 92,-103 22,-16 22,-17 6,-34 -17,-17 -20,-17 -65,-1 -27,9 -56,17 -65,17 -30,0 -21,-38 20,-80 31,-33 47,-41 102,-51 87,-15 92,-17 85,-28 -11,-19 -91,-24 -123,-7 -17,9 -37,16 -45,16 -22,0 -97,-63 -97,-81 0,-21 63,-77 93,-83 12,-3 46,-7 75,-9 64,-5 84,-20 59,-44 -16,-16 -21,-16 -87,1 -87,22 -106,13 -95,-43 4,-20 8,-64 9,-98 1,-53 5,-66 30,-92 22,-23 39,-31 65,-31 20,0 43,-4 51,-10 26,-16 -17,-24 -58,-11 -53,18 -152,11 -166,-11 -19,-31 5,-50 155,-125 160,-81 169,-82 266,-38 123,56 224,150 248,233 15,48 35,73 87,105 15,10 35,31 44,48 53,103 146,186 303,269 73,39 85,63 34,68 -41,4 -41,12 -4,40 20,15 32,36 41,71 17,70 31,79 83,54 23,-11 62,-39 87,-60 86,-76 138,-96 285,-105 327,-21 340,-21 354,-4 11,13 5,24 -40,75 -99,113 -139,194 -139,281 0,21 -5,52 -11,69 -11,30 -15,32 -42,27 -16,-3 -40,-6 -53,-6 -15,0 -28,-9 -37,-25 l -13,-25 -34,25 c -40,29 -48,30 -70,10 -16,-14 -22,-13 -65,10 -26,14 -63,25 -82,25 -38,0 -97,22 -108,40 -10,17 21,40 53,40 13,0 55,-7 93,-17 65,-15 70,-15 88,1 24,22 55,23 98,5 30,-12 34,-11 56,9 33,31 53,27 122,-22 59,-42 60,-43 72,-111 14,-74 35,-115 59,-115 29,0 8,95 -43,195 -58,114 -73,132 -158,195 -65,49 -87,61 -157,89 -35,13 -36,38 -3,51 31,12 96,-5 251,-66 l 99.7416,-40.9817 c 42.9983,-33.4851 69.9613,19.0324 7.4016,46.5331 -453.9207,199.54 -851.9567,66.9014 -1180.7246,110.2264 -328.7678,43.325 -792.9664,-73.7133 -957.6547,-74.8977 -164.6883,-1.1845 -355.5621,18.5155 -539.902,-35.72 z M 3366,6175 c 36,-14 82,-25 100,-25 39,0 77,-31 68,-55 -4,-9 -33,-34 -65,-56 -36,-24 -68,-56 -85,-84 -14,-25 -40,-53 -58,-62 -53,-28 -95,-66 -151,-138 -60,-78 -64,-88 -100,-215 -29,-104 -32,-156 -8,-182 17,-19 26,-91 24,-200 -1,-31 3,-67 8,-80 5,-13 5,-33 0,-45 -7,-19 -16,-23 -51,-23 -24,0 -54,6 -68,13 -26,13 -27,21 -14,86 6,28 3,37 -17,52 l -23,17 18,113 18,114 -31,26 c -36,29 -37,38 -15,81 14,27 15,37 4,65 -10,31 -9,37 13,66 42,55 67,115 67,159 0,24 7,68 15,98 8,30 15,72 15,93 0,28 7,44 26,62 15,14 30,25 35,25 4,0 17,16 29,35 25,41 100,84 147,85 18,0 62,-11 99,-25 z m 240,-336 c 22,-18 62,-42 90,-55 28,-13 59,-33 69,-44 18,-19 17,-20 -2,-20 -11,0 -32,9 -47,21 -15,12 -44,23 -66,26 -57,8 -164,-15 -201,-43 -40,-29 -79,-32 -79,-5 0,10 7,24 16,32 8,7 24,30 35,52 37,71 121,87 185,36 z m 124,-192 c 62,-35 81,-52 108,-97 55,-92 28,-103 -79,-31 -111,75 -179,130 -179,145 0,41 60,34 150,-17 z"
       id="path6"
       inkscape:connector-curvature="0"
       sodipodi:nodetypes="zzsccccccscccsccccccccccccccccccccccscccscccsccccsscccccccscccccccccccccccccsccscccccscsccccccsccccccszzzcsccccccccscsscccccccccssscsccccscssccsccccccsc" />
    <path
       d="m2235 6025c-123-16-139-22-220-86-123-99-230-299-160-299 29 0 93 39 115 70 47 66 81 19 40-56-16-32-17-40-6-63 7-14 16-38 20-53 11-45 48-38 88 18 61 84 91 115 146 150 52 34 54 37 49 70-7 44 10 61 71 69 78 10 130 26 149 47 16 18 16 22 2 46-16 29-116 87-164 95-16 2-75-1-130-8z"
       id="path8" />
    <path
       d="m4442 5951c-26-16-8-46 40-68 33-16 55-36 72-66 14-24 37-54 51-67 28-27 33-71 10-90-21-17-19-33 9-75 27-39 49-128 44-172-6-51-33-39-138 61-102 97-133 117-153 97-9-9-8-18 3-35 8-13 30-49 49-81 37-62 104-118 164-137 45-14 80-53 124-140 31-63 83-211 83-238 0-26 119-382 139-415 10-18 33-72 51-121s41-105 51-125c25-51 49-160 49-228 0-69-18-98-79-126-39-17-43-17-79-1s-41 16-83 0c-24-10-56-26-71-36s-47-22-72-27c-24-4-59-20-76-35-58-48-96-21-50 37 13 16 20 40 20 67s8 53 22 73c51 71 152 173 219 221 80 56 89 70 61 85-27 15-85-4-119-37-15-16-48-42-73-59-51-35-131-120-205-217-52-69-103-181-104-229-1-16-6-48-12-73-17-66 16-208 59-256 22-25 41-23 128 17 59 27 88 35 129 34 29-1 58 2 65 6 6 4 47 8 90 10 78 2 110 14 110 41 0 23-31 44-64 44-19 0-39 6-45 14-12 14-33 109-35 161-1 35 23 43 79 25 38-13 61-59 50-103-9-36 3-67 26-67 14 0 26 14 40 47 11 25 36 68 55 95 31 42 35 53 29 85-5 30-2 40 22 65 26 27 28 35 27 106-2 112-25 201-103 384-155 370-163 402-112 460 67 78 69 135 9 255-38 78-40 86-30 122 7 21 12 65 12 98 0 52-5 67-42 126-36 56-50 70-82 79-22 7-42 21-47 32-4 12-19 48-31 81-13 33-54 106-90 161-56 85-75 105-113 123-49 23-63 25-83 12zm320-2208c24-28 28-51 16-78-14-31-19-31-63-2-40 26-48 48-28 76 17 26 55 27 75 4zm-140-127c14-32 5-53-29-68-15-7-36-18-45-26-24-20-63-12-63 13 0 15 8 21 33 23 34 3 36 6 46 55 8 35 42 37 58 3zm95-53c-15-15-37-11-37 7 0 10 31 19 43 12 5-2 2-11-6-19z"
       id="path10" />
    <path
       d="m1782 5503c-6-2-30-35-52-73s-79-108-131-160c-50-51-98-109-106-128-35-85-5-306 50-368 37-43 83-52 153-30 62 20 72 31 50 55-23 25-20 39 15 80 80 95 109 145 109 188v43h-42c-24 0-49 4-56 9-7 4-20 34-28 66-20 75-6 93 29 38 31-49 82-93 108-93 25 0 59 35 59 60 0 26 22 70 46 91 11 9 41 19 68 22 52 5 76 24 76 59 0 22-37 38-90 38-30 0-48 8-74 31-20 17-40 28-45 25s-19-31-32-61c-18-45-27-55-44-53-21 3-21 7-9 81 4 26 1 45-10 62-17 25-21 27-44 18z"
       id="path12" />
    <path
       d="m 1244,5016 -37,-56 17,-47 c 20,-55 29,-261 13,-280 -17,-23 -56,-16 -63,12 -3,14 -10,26 -15,27 -5,0 -13,1 -18,2 -17,2 -72,-84 -96,-153 -23,-62 -25,-84 -25,-227 0,-87 6,-185 12,-218 11,-51 11,-60 -2,-64 -17,-6 -49,-39 -98,-100 -35,-45 -63,-52 -96,-27 -13,10 -44,15 -88,15 -92,0 -124,17 -138,73 -21,85 -24,92 -52,95 -36,4 -58,-30 -58,-90 0,-41 5,-54 35,-87 39,-43 43,-68 17,-101 -24,-30 -106,-42 -158,-24 -65,22 -143,119 -128,157 3,8 17,18 30,21 36,9 38,27 10,81 -21,39 -26,62 -26,124 l 0,77 68,94 c 78,109 92,116 178,89 90,-28 193,-21 224,16 21,25 -5,42 -78,49 -120,12 -209,72 -232,156 -9,32 -7,49 10,97 28,79 28,84 3,94 -21,8 -23,6 -23,-31 0,-32 -4,-39 -21,-42 -31,-4 -55,-97 -40,-149 18,-62 14,-82 -28,-123 -22,-22 -45,-51 -51,-67 -7,-15 -22,-35 -35,-43 -38,-25 -68,-133 -63,-224 3,-41 1,-89 -4,-106 -8,-25 -3,-55 25,-151 19,-66 40,-132 46,-147 14,-36 63,-66 121,-73 84,-11 96,-16 129,-46 23,-21 39,-28 50,-23 9,4 57,8 106,9 84,1 95,4 165,41 55,29 82,50 103,82 27,41 49,52 62,32 10,-16 -19,-61 -97,-149 -85,-96 -105,-109 -190,-118 -52,-5 -68,-12 -93,-36 -27,-27 -38,-31 -124,-39 -102,-9 -146,-1 -176,32 -20,22 -54,26 -59,8 -2,-7 -14,-44 -26,-82 -14,-42 -20,-80 -16,-98 3,-17 1,-61 -6,-100 -13,-79 -3,-113 49,-162 27,-27 118,-69 175,-82 35,-7 48,-32 25,-49 -9,-6 -40,-17 -70,-24 -49,-12 -56,-12 -98,9 -51,26 -55,32 -69,82 -20,72 -68,68 -94,-6 -33,-96 63,-249 182,-287 55,-17 59,-23 65,-102 11,-131 23,-151 155,-268 38,-33 65,-138 68,-271 0.47674,-25.2673 292.71434,-174.7206 513.4499,-104.3973 242.2735,77.1851 415.1335,375.9275 417.7498,370.6949 10,-18 -38.8533,-340.2221 232.1199,-765.0487 C 1570.0204,1378.9714 1215.8583,841.50844 871.75879,932.52216 926.86547,720.83562 667.70618,713.24933 575,622 c -3,-7 2,-29 10,-48 10,-25 20,-34 38,-34 37,0 89,20 117,46 14,12 38,27 53,33 17,7 32,23 38,41 6,17 18,30 27,30 25,0 79,36 98,64 21,34 12,71 -24,88 -15,7 -28,23 -30,36 -4,30 6,28 43,-7 25,-25 41,-31 95,-36 111,-11 124,-6 160,65 27,52 176,203 245,246 33,21 87,63 120,92 33,29 83,69 112,88 40,27 53,41 53,60 0,13 6,27 14,30 16,6 56,-12 68,-30 13,-18 9,-53 -7,-66 -11,-9 -15,-34 -15,-96 0,-50 -6,-102 -16,-131 -13,-39 -14,-59 -6,-113 5,-36 8,-82 5,-102 -3,-21 2,-59 12,-90 27,-81 112,-254 143,-290 27,-32 80,-119 137,-225 17,-33 38,-56 56,-63 21,-9 36,-29 55,-71 38,-83 53,-94 133,-94 60,0 66,2 69,22 2,16 -12,38 -50,75 -29,30 -73,87 -97,128 -24,41 -56,92 -70,114 -14,21 -38,58 -52,82 -14,24 -36,56 -50,71 -47,52 -76,98 -130,203 -52,103 -53,107 -53,195 -1,50 5,131 12,180 17,113 4,288 -25,338 -15,25 -17,38 -9,60 7,20 6,37 -3,60 -7,18 -21,55 -31,83 -10,29 -30,70 -45,93 -15,22 -25,47 -22,55 11,28 -25,56 -80,63 -31,3 -54,11 -57,20 -7,17 17,27 48,19 17,-4 26,-1 30,10 13,35 6,56 -23,67 -26,10 -30,17 -36,66 -13,123 -12,138 20,171 20,21 29,39 27,56 -3,20 1,24 23,24 14,0 34,4 44,9 20,11 47,-2 37,-18 -4,-6 -18,-11 -32,-11 -33,0 -30,-20 9,-58 38,-37 46,-38 127,-15 58,16 61,18 86,72 33,70 36,127 9,147 -10,8 -25,14 -32,14 -18,0 -53,-37 -75,-78 -24,-44 -56,-42 -165,12 -57,28 -108,45 -145,50 -31,3 -63,9 -72,12 -21,8 -20,34 4,64 16,21 20,41 20,121 0,87 -3,102 -30,155 -48,95 -36,124 49,124 47,0 67,-21 101,-104 24,-59 40,-72 71,-55 31,16 51,-5 38,-38 -20,-54 15,-72 50,-27 29,37 26,73 -9,125 -53,79 -37,172 40,230 95,71 268,284 256,315 -12,31 -46,13 -96,-48 -27,-35 -63,-72 -79,-82 -16,-11 -37,-33 -46,-49 -10,-16 -36,-37 -60,-47 -23,-10 -61,-30 -84,-44 -85,-54 -160,-74 -288,-78 -109,-2 -122,-1 -168,22 l -50,25 -3,64 c -2,35 -10,73 -18,85 -7,11 -14,38 -14,60 0,26 -11,60 -33,100 -23,41 -38,87 -46,140 -12,70 -11,83 5,117 17,39 17,40 -6,64 -22,24 -23,29 -13,77 10,51 10,52 -24,85 -30,31 -33,38 -27,71 11,59 22,75 50,68 13,-3 35,-9 49,-12 18,-5 25,-2 25,8 0,9 -11,32 -25,52 -26,39 -32,70 -15,81 6,4 10,30 10,58 l 0,87 c 1,19 -2,52 -5,73 -6,31 -4,37 10,37 26,0 103,-89 121,-140 26,-71 94,-120 86,-61 -2,15 5,26 27,39 23,13 31,24 31,45 0,16 9,41 21,55 17,23 19,35 13,89 l -6,63 28,0 c 21,0 42,14 79,50 28,28 74,65 101,83 58,38 65,63 17,61 -19,-1 -57,-18 -94,-43 -34,-23 -66,-41 -73,-41 -13,0 -47,22 -103,68 -52,42 -76,116 -71,217 l 3,70 35,3 c 43,4 60,24 60,71 0,49 -8,58 -55,63 -22,3 -48,8 -57,12 -13,6 -25,-5 -54,-48 z M 731,3332 c 14,-9 45,-39 68,-65 32,-38 41,-56 41,-86 0,-33 -5,-41 -47,-72 -67,-48 -80,-54 -155,-74 -67,-18 -68,-18 -140,5 -105,32 -174,68 -187,97 -6,13 -11,44 -11,68 0,41 2,44 36,55 23,8 60,10 101,6 81,-8 135,6 181,49 42,39 74,44 113,17 z m 204,-392 c 9,-17 38,-46 64,-65 48,-35 61,-56 61,-104 0,-15 14,-37 35,-57 19,-17 35,-41 35,-52 0,-12 18,-36 45,-58 50,-40 59,-76 28,-112 -38,-44 -106,-92 -130,-92 -14,0 -64,16 -111,37 l -86,36 -53,-28 c -32,-18 -65,-28 -83,-27 -22,2 -37,-5 -53,-23 -12,-15 -37,-28 -57,-31 -31,-5 -42,0 -92,41 -57,47 -108,118 -108,151 0,10 -5,32 -12,51 -11,29 -10,35 10,53 26,25 27,33 6,51 -20,17 -10,56 24,92 28,29 54,35 69,15 6,-7 18,-46 28,-86 21,-88 75,-164 128,-181 70,-23 252,27 252,69 0,21 -31,24 -92,9 -66,-15 -79,-6 -69,46 5,27 25,55 72,103 35,37 64,70 64,74 0,4 -11,15 -25,24 -16,11 -25,26 -25,43 0,56 50,69 75,21 z m 22,-708 c 35,-27 134,-74 207,-98 37,-12 55,-38 40,-61 -13,-20 -127,-67 -219,-88 l -70,-17 -91,46 c -101,51 -111,59 -148,132 -35,67 -28,84 33,84 30,0 56,7 76,21 44,29 121,21 172,-19 z"
       id="path14"
       inkscape:connector-curvature="0"
       sodipodi:nodetypes="ccccccccsccccsccsccccccsccccccccsccccccccccccccccccccscccccccccccccccscccccscccscccccccscssccsccccccccsccscsccccccccccccccccccsccsccccscccccscsccccccsccccccscccscccccccccsccsccscccscccsccccsccccscccccsccccsccccccscsccscccccccscccccccscccscsccccccccscc" />
    <path
       d="m2145 4865c-16-8-42-14-56-15-52 0-146-46-186-90-21-24-53-49-70-57-18-7-33-17-33-23 0-17 19-21 42-9 12 6 53 18 91 26l70 14 46-48c41-44 54-51 124-68 58-14 87-16 115-9 49 12 54 38 11 62-18 9-44 28-57 40-23 22-24 28-19 96 8 96-8 113-78 81z"
       id="path16" />
    <path
       d="m1905 4558c-27-5-61-20-75-32-14-13-37-31-52-41-31-19-35-37-13-55 13-10 13-15 1-32-8-11-28-28-44-38s-43-42-60-72c-29-51-32-63-38-191l-7-136-28-6c-19-4-29-13-29-25 0-25 8-29 79-36 34-4 61-10 61-14 0-3-10-16-23-28-28-26-66-28-124-6-49 19-58 15-49-20 10-39 83-50 163-25 32 10 46 10 54 2 28-28-130-62-189-41-27 10-35 9-48-4-24-24-8-39 39-37 23 1 55-4 72-10 24-10 36-9 67 5 20 9 44 14 52 11 17-7 21-34 7-55-10-17-104-42-159-42-50 0-61-16-37-54 20-30 45-40 105-40 38-1 45-4 45-21 0-18-6-20-50-18-58 3-118-14-112-30 2-7 20-21 40-31 24-13 40-30 47-52 7-21 21-36 40-44 38-16 38-24-3-49-35-21-74-91-63-110 11-17 32-13 84 12 26 13 78 35 117 48 41 14 82 36 100 55 42 41 68 99 61 133-19 90-19 89 14 148 32 56 32 58 16 88-13 24-16 54-13 157 3 124 3 128 31 157 32 33 57 97 47 122-3 10-22 28-41 41-42 29-48 54-21 106 11 21 23 63 27 93 6 47 13 59 50 94 24 23 44 46 44 52 0 14-67 73-83 73-7 0-21 2-32 4s-42 0-70-6z"
       id="path18" />
    <path
       d="m842 4425c-23-51-3-75 32-39 19 19 20 36 4 52-17 17-23 15-36-13z"
       id="path20" />
    <path
       d="m1250 4037c0-7-9-29-20-49-22-41-18-68 10-68 12 0 23 15 34 49 21 65 20 81-4 81-11 0-20-6-20-13z"
       id="path22" />
    <path
       d="m3061 3995c-77-17-208-60-271-89-83-39-180-100-186-118-14-46 30-50 90-9 49 34 153 78 205 87 20 3 79 14 133 25 132 26 195 24 333-11 167-42 195-39 195 23 0 24-7 31-52 51-123 54-309 70-447 41z"
       id="path24" />
    <path
       d="m3245 3721c-38-10-88-25-110-35-49-21-196-118-246-162-20-18-46-35-58-39-21-6-38-46-27-63 10-17-24-50-59-56-25-5-35-12-35-26 0-22 13-26 108-35l72-7 38 41c44 48 74 53 98 15 13-19 15-32 8-52-8-23-16-27-49-28-62-1-65-3-65-29 0-36 26-46 77-26 43 15 45 15 61-6 13-18 27-22 63-22 25 1 55-4 67-10 28-15 58-14 85 3 12 8 42 17 67 21s60 16 79 27c19 10 73 32 120 48 66 22 86 32 86 47 0 32-41 26-117-18-118-69-196-55-136 25 20 27 23 40 20 106-3 89 3 120 23 120 24 0 94-55 133-105 24-32 42-45 55-43 35 5 31 28-12 67-55 51-55 73 0 69 58-4 60 14 7 63-77 72-112 91-179 95-33 3-70 11-82 18-19 12-32 11-92-3zm70-211c10-11 20-41 23-69 5-60-23-126-70-166-36-31-59-28-128 13-55 34-82 93-62 137 9 19 18 25 35 23 18-2 23-10 25-40 5-61 62-88 102-48 28 28 26 68-5 82-35 16-33 53 3 72 37 21 56 20 77-4z"
       id="path26" />
    <path
       d="m5093 3654c-15-39 7-127 82-329 72-195 108-440 85-575-6-30-15-95-21-145-6-49-28-151-49-225s-41-153-45-175-11-46-17-53c-11-13-28-114-32-192-3-44-18-111-38-160-5-14-16-59-24-100-28-142-31-155-54-223-16-50-20-80-16-111 6-36 3-47-21-79-46-59-82-121-95-163-10-29-22-43-50-56-20-10-46-31-58-48-15-21-30-30-49-30-16 0-40-9-54-20s-87-41-164-66l-138-46-230-2c-126-1-241 1-253 6-13 5-73 9-133 10-78 1-112 5-120 14-6 8-28 14-48 14s-60 12-90 25c-30 14-73 30-95 35-23 6-72 19-111 30-38 11-82 20-97 20s-42 13-60 28c-51 44-145 94-170 90-34-5-32-38 3-77 28-31 37-34 78-32 42 2 51-2 87-37 29-28 52-42 83-47 24-4 76-22 115-41s114-45 166-59c98-25 231-63 310-88 74-24 138-37 179-37 21 0 52-5 70-11 37-13 115 2 143 28 10 8 24 13 33 10 21-9 19-51-5-72-14-13-20-31-20-62 0-24-6-56-14-71-7-15-16-43-20-63-4-22-27-61-56-98-52-65-60-88-35-97 22-9 61 20 91 66 26 38 29 40 81 40 89 0 164-37 242-120 38-40 73-89 82-113l15-42 65 3c79 4 94 16 56 45-41 32-85 77-137 141-25 31-62 67-83 81-20 14-60 48-87 75s-62 52-77 56c-49 10-53 13-53 32 0 11 10 32 21 47 14 17 24 48 28 83l6 57 54 17c30 10 67 29 82 44 17 16 53 32 102 45 42 10 97 28 122 39 26 11 62 20 80 20 46 0 146-27 208-56 29-13 67-24 85-24s55-11 83-25c57-29 89-26 89 9s-50 76-92 76c-20 0-41 7-48 15-19 23-100 61-144 68-43 7-76 32-76 58 0 9 16 26 35 37 21 13 37 32 41 49 4 15 17 39 29 53 55 61 78 125 101 275 7 49 22 133 34 185 11 52 20 107 20 121 0 31 35 171 49 198 6 11 15 48 20 83 23 146 33 195 52 237 10 24 19 54 19 67 0 12 5 35 11 51 46 117 77 338 59 419-6 24-5 67 2 112 9 62 8 86-7 150-22 97-51 192-80 262-24 57-74 233-82 285-9 61-14 75-29 75-8 0-17-7-21-16z"
       id="path28" />
    <path
       d="m4747 2973c-14-14-6-39 34-99 47-72 52-113 20-152-11-15-26-37-31-50-20-46 40-111 75-82 32 27 78 112 78 148 3 91-136 276-176 235z"
       id="path30" />
    <path
       d="m4040 2785c-17-20-4-116 22-172 29-63 91-115 131-111 44 4 47 31 5 59-54 36-98 110-98 167 0 65-30 93-60 57z"
       id="path32" />
    <path
       d="m4373 2680c-75-37-101-64-87-88 17-27 42-26 83 2 26 18 50 26 80 26 54 0 81 15 81 43 0 56-66 63-157 17z"
       id="path34" />
    <path
       d="m4563 2570c-12-5-29-20-39-35-14-21-15-32-6-68 6-23 10-53 9-67-4-44 28-36 47 11 10 23 31 61 48 85 37 51 34 78-7 81-17 1-40-2-52-7z"
       id="path36" />
    <path
       d="m4723 2310c-29-10-63-26-75-34-28-20-77-20-148-1s-132 5-163-37c-17-22-27-28-45-23-27 7-138-49-183-92-19-17-42-26-75-29-34-3-68-18-119-49-46-29-83-45-104-45-51 0-99-25-107-56-9-36 6-57 47-67 19-4 48-12 65-18 17-5 50-9 75-9 56 0 106-30 125-75 12-29 27-40 90-70 43-19 93-35 113-35s55-7 78-15c24-8 81-18 128-21 69-6 89-4 109 10 14 9 56 23 93 32 78 18 116 47 144 112 24 55 45 148 54 237 9 85 34 162 69 208 46 60 30 83-65 92-39 3-69-1-106-15zm-258-135c15-45 24-55 50-55 16 0 30 10 42 31 16 27 22 30 54 25 23-4 53 1 88 15 41 15 56 17 67 8 18-15 17-69-4-143-16-58-19-61-82-98-43-25-78-38-102-38-20 0-64-7-98-16-34-8-74-13-90-9-22 5-37 1-56-14-20-16-41-21-87-21-33 0-87-5-121-11-56-11-68-10-125 11-73 27-94 54-69 92 20 30 132 80 221 98 21 4 51 20 67 35 24 23 33 26 71 20 58-9 97 7 105 42 17 70 51 83 69 28z"
       id="path38" />
    <path
       d="m2007 2132c-10-10-17-25-17-33 0-18 32-120 43-136 11-17 42-16 56 1 21 25-30 186-58 186-4 0-15-8-24-18z"
       id="path40" />
    <path
       d="m2480 1465c-21-25 2-59 46-73 27-8 50-26 73-58 66-88 204-193 237-180 39 15 1 71-55 82-23 5-40 19-63 53-46 69-78 99-114 111-18 6-44 27-59 46-28 37-46 42-65 19z"
       id="path42" />
    <path
       d="m5277 753c-14-13-6-30 43-95 64-85 110-103 110-43 0 42-19 69-76 108-56 38-66 42-77 30z"
       id="path44" />
    <path
       d="m1068 683c-41-48-50-113-23-177 10-23 13-50 9-76-4-27 1-66 16-122 34-123 51-197 58-253 7-48 8-50 40-53 20-2 41 3 50 12 10 8 29 17 44 21 49 13 51 23 18 156-27 113-33 127-66 154-34 29-36 35-54 150-11 66-20 134-20 151 0 51-41 72-72 37z"
       id="path46" />
    <path
       d="m5494 15c-18-13-17-14 19-15 26 0 37 4 37 15 0 19-30 19-56 0z"
       id="path48" />
  </g>
  <metadata
     id="metadata50">
    <rdf:RDF>
      <cc:Work>
        <dc:format>image/svg+xml</dc:format>
        <dc:type
           rdf:resource="http://purl.org/dc/dcmitype/StillImage" />
        <cc:license
           rdf:resource="http://creativecommons.org/licenses/publicdomain/" />
        <dc:publisher>
          <cc:Agent
             rdf:about="http://openclipart.org/">
            <dc:title>Openclipart</dc:title>
          </cc:Agent>
        </dc:publisher>
        <dc:title></dc:title>
        <dc:date>2011-12-26T16:39:45</dc:date>
        <dc:description>Girl Face, Stamp, clip art, clipart, </dc:description>
        <dc:source>http://openclipart.org/detail/166576/girl-face-stamp-by-crossworder</dc:source>
        <dc:creator>
          <cc:Agent>
            <dc:title>crossworder</dc:title>
          </cc:Agent>
        </dc:creator>
        <dc:subject>
          <rdf:Bag>
            <rdf:li>Girl Face</rdf:li>
            <rdf:li>Stamp</rdf:li>
            <rdf:li>clip art</rdf:li>
            <rdf:li>clipart</rdf:li>
          </rdf:Bag>
        </dc:subject>
      </cc:Work>
      <cc:License
         rdf:about="http://creativecommons.org/licenses/publicdomain/">
        <cc:permits
           rdf:resource="http://creativecommons.org/ns#Reproduction" />
        <cc:permits
           rdf:resource="http://creativecommons.org/ns#Distribution" />
        <cc:permits
           rdf:resource="http://creativecommons.org/ns#DerivativeWorks" />
      </cc:License>
    </rdf:RDF>
  </metadata>
  <rect
     style="fill:none;stroke:#000000;stroke-width:7.08661413;stroke-linejoin:miter;stroke-miterlimit:4;stroke-opacity:1;stroke-dasharray:14.17322826,7.08661413;stroke-dashoffset:0"
     id="rect3031"
     width="147.77931"
     height="99.060875"
     x="186.75409"
     y="185.54327" />
  <rect
     style="fill:none;stroke:#000000;stroke-width:7.08661413000000007;stroke-linejoin:miter;stroke-miterlimit:4;stroke-opacity:1;stroke-dasharray:21.25984240000000014, 7.08661413000000007;stroke-dashoffset:0"
     id="rect3031-9"
     width="101.49677"
     height="103.93272"
     x="354.02081"
     y="164.02596" />
  <rect
     style="fill:none;stroke:#000000;stroke-width:7.087;stroke-linejoin:miter;stroke-miterlimit:4;stroke-opacity:1;stroke-dasharray:21.261,7.087;stroke-dashoffset:0"
     id="rect3819"
     width="150.21527"
     height="119.36025"
     x="286.62695"
     y="291.9119" />
</svg>
