<?xml version="1.0" encoding="UTF-8" standalone="no"?>
<!-- Created with Inkscape (http://www.inkscape.org/) -->

<svg
   xmlns:dc="http://purl.org/dc/elements/1.1/"
   xmlns:cc="http://creativecommons.org/ns#"
   xmlns:rdf="http://www.w3.org/1999/02/22-rdf-syntax-ns#"
   xmlns:svg="http://www.w3.org/2000/svg"
   xmlns="http://www.w3.org/2000/svg"
   xmlns:xlink="http://www.w3.org/1999/xlink"
   xmlns:sodipodi="http://sodipodi.sourceforge.net/DTD/sodipodi-0.dtd"
   xmlns:inkscape="http://www.inkscape.org/namespaces/inkscape"
   version="1.0"
   width="646.84003"
   height="805.92999"
   id="svg2431"
   inkscape:version="0.48.4 r9939"
   sodipodi:docname="Försvarets_radioanstalt_vapen.svg">
  <sodipodi:namedview
     pagecolor="#ffffff"
     bordercolor="#666666"
     borderopacity="1"
     objecttolerance="10"
     gridtolerance="10"
     guidetolerance="10"
     inkscape:pageopacity="0"
     inkscape:pageshadow="2"
     inkscape:window-width="1280"
     inkscape:window-height="1000"
     id="namedview117"
     showgrid="false"
     inkscape:zoom="0.82824663"
     inkscape:cx="326.57681"
     inkscape:cy="327.82243"
     inkscape:window-x="0"
     inkscape:window-y="24"
     inkscape:window-maximized="1"
     inkscape:current-layer="svg2431" />
  <defs
     id="defs2433" />
  <metadata
     id="metadata1880">
    <rdf:RDF>
      <cc:Work
         rdf:about="">
        <dc:title></dc:title>
        <dc:date>18-02-2008</dc:date>
        <dc:creator>
          <cc:Agent>
            <dc:title>Lokal_Profil</dc:title>
          </cc:Agent>
        </dc:creator>
        <cc:license
           rdf:resource="http://creativecommons.org/licenses/by-sa/2.5/" />
        <dc:rights>
          <cc:Agent>
            <dc:title>cc-by-sa-2.5</dc:title>
          </cc:Agent>
        </dc:rights>
        <dc:format>image/svg+xml</dc:format>
        <dc:type
           rdf:resource="http://purl.org/dc/dcmitype/StillImage" />
      </cc:Work>
      <cc:License
         rdf:about="http://creativecommons.org/licenses/by-sa/2.5/">
        <cc:permits
           rdf:resource="http://web.resource.org/cc/Reproduction" />
        <cc:permits
           rdf:resource="http://web.resource.org/cc/Distribution" />
        <cc:requires
           rdf:resource="http://web.resource.org/cc/Notice" />
        <cc:requires
           rdf:resource="http://web.resource.org/cc/Attribution" />
        <cc:permits
           rdf:resource="http://web.resource.org/cc/DerivativeWorks" />
        <cc:requires
           rdf:resource="http://web.resource.org/cc/ShareAlike" />
      </cc:License>
    </rdf:RDF>
  </metadata>
  <g
     style="fill:#ffffff;stroke:#000000;fill-opacity:1"
     id="g2576"
     transform="translate(172.9179,81.38748)">
    <g
       id="g2584"
       transform="matrix(0.999756,0,0,1.113415,-6.012982,-43.51597)"
       style="fill:#ffffff;fill-opacity:1">
      <use
         xlink:href="#Blixt"
         height="494.51999"
         width="301"
         y="0"
         x="0"
         id="use2528"
         transform="matrix(0.990268,-0.139173,0.139173,0.990268,-31.51548,47.24447)"
         style="fill:#ffffff;fill-opacity:1" />
      <path
         inkscape:connector-curvature="0"
         id="Blixt"
         style="fill:#ffffff;stroke:#000000;fill-opacity:1"
         d="m -121.38777,214.84604 c 0,0 -44.53014,0 -44.53014,0 9.89838,2.65824 13.85382,3.78415 31.80647,8.37059 17.49272,4.46897 42.36049,10.88833 55.26171,14.26528 23.33915,6.1091 23.43112,6.14282 18.36008,6.72942 0,0 -46.22318,6.86227 -46.22318,6.86227 l 109.5597,27.08051 c -9.4455,1.35031 -15.02772,2.36609 -29.67203,4.15834 18.64495,2.44667 38.8972,2.38892 58.20186,3.16226 11.33689,0.46097 20.51785,0.73189 20.40223,0.60204 -18.91278,-9.66989 -19.89161,-10.03858 -55.7434,-29.92731 10.23289,11.32451 8.7089,10.06081 12.78836,15.74946 -27.15453,-7.34292 -55.2567,-11.70009 -82.15987,-19.98724 0.19629,-0.20536 15.31682,-1.43491 33.60121,-2.73238 l 33.24435,-2.35901 c 0,0 -114.89735,-31.97423 -114.89735,-31.97423 z" />
    </g>
    <use
       xlink:href="#g2584"
       height="494.51999"
       width="301"
       y="0"
       x="0"
       id="use2534"
       transform="matrix(1,0,0,-1,0,658.8913)"
       style="fill:#ffffff;fill-opacity:1" />
  </g>
  <use
     style="fill:#ffffff;stroke:#000000;fill-opacity:1;stroke-opacity:1;opacity:1"
     xlink:href="#g2576"
     height="494.51999"
     width="301"
     y="0"
     x="0"
     id="use2542"
     transform="matrix(-1,0,0,1,646.8358,0)" />
  <g
     transform="matrix(1.237387,0,0,-1.237387,-11.35353,1046.738)"
     style="fill:#ffffff;stroke:#000000;stroke-width:2;fill-opacity:1"
     id="Sword">
    <path
       d="M 254.81293,227.21933 C 265.02722,185.61219 277.95578,185.61219 287.67007,227.21933 C 297.38436,268.82647 300.38436,320.04076 289.67007,361.6479 C 278.95578,403.25504 261.52722,403.25504 250.81293,361.6479 C 240.09864,320.04076 244.59864,268.82647 254.81293,227.21933 z "
       id="path2198"
       style="fill:#ffffff;fill-opacity:1" />
    <path
       d="M 249.8995,371.64075 L 291.19484,371.64075 L 285.21236,806.83783 L 270.54716,844.45833 L 255.88198,806.83783 L 249.8995,371.64075 z "
       style="stroke-width:2.12092018000000015;fill:#ffffff;fill-opacity:1"
       id="path2201" />
    <path
       d="M 268.88335,375.56823 L 270.54717,840.72332 L 272.21099,375.56823 L 268.88335,375.56823 z "
       style="fill:#ffffff;stroke:none;fill-opacity:1"
       id="path2203" />
    <rect
       width="161.86885"
       height="21.377804"
       x="189.61275"
       y="358.07336"
       id="rect2206"
       style="fill:#ffffff;fill-opacity:1" />
    <path
       d="M 299.33652,233.12339 C 299.34245,249.0275 286.45128,261.92347 270.54718,261.92347 C 254.64307,261.92347 241.7519,249.0275 241.75783,233.12339 C 241.7519,217.21928 254.64307,204.32331 270.54718,204.32331 C 286.45128,204.32331 299.34245,217.21928 299.33652,233.12339 L 299.33652,233.12339 z "
       id="path2210"
       style="fill:#ffffff;fill-opacity:1" />
    <path
       d="M 282.69807,233.12339 C 282.7006,239.83592 277.25972,245.27885 270.54717,245.27885 C 263.83464,245.27885 258.39376,239.83592 258.39628,233.12339 C 258.39376,226.41085 263.83464,220.96792 270.54717,220.96792 C 277.25972,220.96792 282.7006,226.41085 282.69807,233.12339 L 282.69807,233.12339 z "
       id="path2212"
       style="fill:#ffffff;fill-opacity:1" />
  </g>
  <path
     d="M 447.46852,263.17499 L 323.41802,263.17499 L 199.36747,263.17499 L 199.36747,436.67158 C 198.60023,530.39246 279.65691,564.49133 323.418,564.49133 C 366.41185,564.49133 448.23575,530.39246 447.46852,436.67158 L 447.46852,263.17499 z "
     style="fill:#ffffff;stroke:none;fill-opacity:1"
     id="Shield" />
  <path
     style="fill:#000000;fill-opacity:1"
     inkscape:connector-curvature="0"
     id="Krona-1"
     d="m 323.40457,420.2528 c 7.82218,0 11.60857,11.9929 6.21544,18.69939 14.90673,1.4058 9.09893,26.97827 -4.45483,20.42762 -0.79305,12.20222 15.29235,15.14128 16.08539,0.69129 l 2.66756,0.10369 c 1.84598,14.64265 16.59343,11.86414 15.79196,-1.34801 -13.01817,4.72861 -13.78091,-19.46476 -2.98768,-19.01047 -6.4092,-7.91501 1.89121,-23.795 10.03003,-14.82817 0,0 -3.97467,72.75826 -3.97467,72.75826 l -39.3732,0 -39.37317,0 c 0,0 -3.948,-72.75826 -3.948,-72.75826 8.13882,-8.96683 16.41255,6.91316 10.00335,14.82817 10.79324,-0.45429 10.03051,23.73908 -2.98766,19.01047 -0.80148,13.21215 13.94597,15.99066 15.79195,1.34801 l 2.69423,-0.10369 c 0.79305,14.44999 16.87843,11.51093 16.0854,-0.69129 -13.55376,6.55065 -19.38826,-19.02182 -4.4815,-20.42762 -5.39314,-6.70649 -1.60676,-18.69939 6.2154,-18.69939 z" />
  <use
     style="fill:#000000;fill-opacity:1"
     xlink:href="#Krona-1"
     height="494.51999"
     width="301"
     y="0"
     x="0"
     id="Krona-2"
     transform="translate(65.971,-106.333)" />
  <use
     style="fill:#000000;fill-opacity:1"
     xlink:href="#Krona-1"
     height="494.51999"
     width="301"
     y="0"
     x="0"
     id="Krona-3"
     transform="translate(-65.971,-106.333)" />
  <path
     d="M 447.46856,263.17499 L 323.41806,263.17499 L 199.36751,263.17499 L 199.36751,436.67158 C 198.60027,530.39246 279.65695,564.49133 323.41804,564.49133 C 366.41189,564.49133 448.23579,530.39246 447.46856,436.67158 L 447.46856,263.17499 z "
     style="fill:none;fill-opacity:0;stroke:#000000;stroke-width:1.88832211;stroke-linecap:round"
     id="Frame" />
  <path
     d="m 335.45882,103.34272 c -1.55749,0.1203 -3.11842,0.25083 -4.6758,0.32109 -2.45357,0.1107 -4.91144,0.14653 -7.36495,0.14048 -4.01128,-0.01 -8.02948,-0.25187 -12.04076,-0.54183 0.97762,5.47563 5.98179,9.65266 12.04076,9.65267 6.03262,0 11.02981,-4.13527 12.04075,-9.57241 z"
     style="fill:#000000;stroke:#000000;stroke-width:0.54545498000000003;fill-opacity:1"
     id="path16007"
     inkscape:connector-curvature="0" />
  <path
     d="m 323.41807,89.716604 c -6.06497,0 -11.07012,4.193169 -12.04076,9.692806 1.59791,-0.149318 3.19833,-0.313974 4.79624,-0.401356 2.44053,-0.133462 4.88417,-0.185526 7.32475,-0.180611 2.44059,0.0049 4.88428,0.06476 7.32487,0.200678 1.54451,0.08602 3.09109,0.245209 4.63565,0.381289 -0.97031,-5.499642 -5.97338,-9.6928 -12.04075,-9.692806 z"
     style="fill:#000000;stroke:#000000;stroke-width:0.54545498000000003;fill-opacity:1"
     id="path16009"
     inkscape:connector-curvature="0" />
  <path
     style="fill:#ffffff;stroke:#000000;stroke-width:0.54545498000000003;fill-opacity:1"
     d="m 324.89119,82.504151 0,6.48378 0.88438,0.88691 -4.71754,0 0.88439,-0.88691 0,-6.48378 -6.48378,0 -0.88438,0.88691 0,-4.720068 0.88438,0.88691 6.48378,0 0,-6.486305 -0.88439,-0.884385 4.71754,0 -0.88438,0.884385 0,6.486305 6.4863,0 0.88439,-0.88691 0,4.720068 -0.88439,-0.88691 -6.4863,0 z"
     id="polygon16011"
     inkscape:connector-curvature="0" />
  <rect
     style="fill:#ffffff;stroke:#000000;stroke-width:0.54545498000000003;fill-opacity:1"
     width="15.889675"
     height="8.2563972"
     x="315.47324"
     y="110.36771"
     id="rect16013" />
  <path
     style="fill:#ffffff;stroke:#000000;stroke-width:0.54545498000000003;fill-opacity:1"
     d="m 323.40102,89.710315 c -0.66862,0 -1.30429,0.08944 -1.94318,0.1875 -0.11209,1.337358 -0.24941,2.668328 -0.32386,4.005685 -0.0781,1.402594 -0.0944,2.807119 -0.11932,4.210231 -3.47182,0.166822 -7.17929,0.726208 -9.63069,1.295456 -0.111,0.628643 -0.20455,1.267153 -0.20455,1.926133 0,0.6623 0.0917,1.29429 0.20455,1.92614 4.01127,0.28997 8.02282,0.53557 12.0341,0.54546 2.45351,0.006 4.91007,-0.0257 7.36364,-0.13637 1.55738,-0.0703 3.11297,-0.20356 4.67046,-0.32386 0.12207,-0.6564 0.20454,-1.32177 0.20454,-2.01137 2e-5,-0.65898 -0.0936,-1.29749 -0.20454,-1.926133 -2.34248,-0.526899 -6.1307,-1.062808 -9.61365,-1.261365 -0.0155,-1.399703 -0.0221,-2.794077 -0.0852,-4.193185 -0.0609,-1.350312 -0.19138,-2.70651 -0.28978,-4.056822 -0.67036,-0.108267 -1.35892,-0.1875 -2.0625,-0.1875 z"
     id="path16015"
     inkscape:connector-curvature="0" />
  <path
     inkscape:connector-curvature="0"
     id="Velvet"
     style="fill:#000000;stroke:#000000;stroke-width:0.54545498000000003;fill-opacity:1"
     d="m 322.9571,135.6838 c 18.59762,0 37.46305,4.68097 45.94019,9.4034 8.47708,4.72242 15.53756,6.67247 23.52553,8.10202 7.98791,1.42957 12.50695,1.2975 19.17836,0.90525 6.67151,-0.39229 19.62803,3.33058 29.7219,9.29775 10.09386,5.96714 16.77372,12.02483 21.84252,18.41064 l -37.94807,60.59185 -203.59908,0 -37.94797,-60.59185 c 5.09135,-6.38581 11.7627,-12.4435 21.84521,-18.41064 10.08257,-5.96717 23.05056,-9.69004 29.71915,-9.29775 6.66858,0.39225 11.19186,0.52432 19.18121,-0.90525 7.98934,-1.42955 15.04837,-3.3796 23.52545,-8.10202 8.47707,-4.72243 26.41793,-9.4034 45.0156,-9.4034 z" />
  <g
     id="Crown-base"
     style="fill:#ffffff;stroke:#000000;stroke-width:1;fill-opacity:1"
     transform="matrix(0.545455,0,0,0.545455,55.36587,-211.9962)">
    <path
       inkscape:connector-curvature="0"
       id="path16033"
       d="m 491.55812,740.79783 6.7759,1.27364 c -1.0916,2.80088 -1.3177,5.86098 -1.3177,9.08452 0,14.36507 12.0743,26.05324 26.9384,26.05324 11.9308,0 22.092,-7.55166 25.5819,-17.9831 0.3914,0.27615 2.5692,-9.42266 3.6939,-9.30432 0.9428,0.10144 0.8436,10.07639 1.1909,9.89606 1.7257,13.13652 13.4692,22.0238 26.6902,22.0238 14.842,0 26.8776,-11.62618 26.8776,-26.01942 0,-1.07077 -0.0606,-2.14152 -0.204,-3.17846 l 8.4354,-8.54352 4.532,10.88791 c -1.8028,3.42079 -2.5196,7.25862 -2.5196,11.37258 0,13.73388 11.4954,24.84158 25.6867,24.84158 8.9262,0 16.7661,-4.39011 21.3699,-11.05134 l 5.3975,-7.01628 -0.0386,8.6055 c 0,8.64497 3.5727,16.39951 11.8263,17.76894 0,0 9.4774,0.59739 22.0313,-9.47901 12.5648,-10.0764 19.4842,-18.42269 19.4842,-18.42269 l 1.0806,10.09331 c 0,0 -10.4258,16.4784 -21.7778,23.19601 -6.2025,3.69693 -15.6248,7.56857 -23.1175,6.31747 -7.9282,-1.3131 -13.5739,-7.8109 -16.4849,-15.30058 -5.6513,3.39826 -12.3224,5.38198 -19.4677,5.38198 -15.3547,0 -29.1546,-8.60552 -34.6129,-21.56168 -7.0626,7.78835 -16.8985,12.57858 -28.4323,12.57858 -12.2618,0 -23.4925,-5.64121 -30.533,-14.30871 -6.9192,6.44146 -16.3252,10.41453 -26.6901,10.41453 -13.574,0 -25.6813,-6.79649 -32.5454,-17.05322 -6.8532,10.25673 -18.9494,17.05322 -32.5013,17.05322 -10.35957,0 -19.78741,-3.97307 -26.71215,-10.41453 -7.01305,8.6675 -18.26584,14.30871 -30.52207,14.30871 -11.53936,0 -21.37525,-4.79023 -28.44339,-12.57858 -5.45263,12.95616 -19.24714,21.56168 -34.60736,21.56168 -7.15079,0 -13.79439,-1.98372 -19.4401,-5.38198 -2.93858,7.48968 -8.58429,13.98748 -16.49044,15.30058 -7.49257,1.2511 -16.91499,-2.62054 -23.13405,-6.31747 -11.35746,-6.71761 -21.77225,-23.19601 -21.77225,-23.19601 l 1.09161,-10.09331 c 0,0 6.92486,8.34629 19.46777,18.42269 12.56491,10.0933 22.03137,9.47901 22.03137,9.47901 8.25346,-1.36943 11.82062,-9.12397 11.82062,-17.76894 l -0.0386,-8.6055 5.39753,7.01628 c 4.59825,6.66123 12.46579,11.05134 21.37537,11.05134 14.18585,0 25.68117,-11.1077 25.68117,-24.84158 0,-4.11396 -0.72216,-7.95179 -2.52511,-11.37258 l 4.53197,-10.88791 8.44654,8.54352 c -0.12691,1.03694 -0.20403,2.10769 -0.20403,3.17846 0,14.39324 12.01912,26.01942 26.87203,26.01942 13.24317,0 24.96454,-8.88728 26.69025,-22.0238 0.36933,0.18033 0.27008,-9.79462 1.20746,-9.89606 1.11363,-0.11834 3.30803,9.58047 3.67735,9.30432 3.51206,10.43144 13.65665,17.9831 25.62608,17.9831 14.85855,0 26.89415,-11.68817 26.89415,-26.05324 0,-3.22354 -0.1874,-6.28364 -1.2956,-9.08452 l 7.024,-1.27364"
       style="fill:#ffffff;fill-opacity:1" />
    <path
       inkscape:connector-curvature="0"
       id="path16029"
       d="m 309.85189,864.48997 c 3.75588,-1.78214 -5.08584,-15.15759 -6.29277,-28.0103 -1.58205,-16.84737 -14.10755,-18.48041 -14.10755,-18.48041 49.97582,-14.76213 124.253,-25.17521 201.68105,-25.2739 77.4569,0.0987 152.117,10.17385 202.0986,24.93597 0,0 -14.7173,6.5119 -15.5277,22.16437 -0.99169,12.03377 -8.4658,22.88213 -4.704,24.66427 0,0 -363.14763,0 -363.14763,0 z"
       style="fill:#ffffff;fill-opacity:1" />
    <path
       inkscape:connector-curvature="0"
       id="path16031"
       d="m 491.26312,802.67473 c -77.42799,0.12191 -146.99589,5.33445 -196.97171,20.1198 -3.33205,0.99846 -6.85576,-0.30767 -7.93548,-3.45978 -1.07971,-3.15793 0.71405,-6.78025 4.04609,-7.80193 50.19068,-15.39487 121.55235,-23.06021 200.8786,-23.22275 79.3436,0.14513 150.9781,7.82788 201.1745,23.22275 3.3321,1.02168 5.1258,4.644 4.0461,7.80193 -1.0855,3.15211 -4.6092,4.45824 -7.9356,3.45978 -49.9816,-14.78535 -119.8455,-19.99789 -197.3025,-20.1198 z"
       style="fill:#ffffff;fill-opacity:1" />
    <path
       inkscape:connector-curvature="0"
       id="path16075"
       d="m 310.63249,869.83176 c -3.33842,-1.00396 -5.08364,-4.03324 -4.89039,-7.16699 -0.0585,-3.04669 1.66327,-5.80902 4.89039,-6.77236 0,0 361.62378,0 361.62378,0 3.22696,0.96334 4.91959,3.72567 4.86108,6.77236 0.17565,3.13375 -1.54624,6.16303 -4.86108,7.16699 0,0 -361.62378,0 -361.62378,0 z"
       style="fill:#ffffff;fill-opacity:1" />
  </g>
  <path
     inkscape:connector-curvature="0"
     id="path3964"
     d="m 183.35513,186.36859 c 0.49358,1.74579 1.20196,3.46841 2.48842,5.17752 l 14.64961,-16.6965 c -1.09833,-3.0435 -1.33342,-4.53549 -0.88298,-7.76629 1.71246,-12.28313 21.51122,-25.11835 45.57418,-26.83082 24.00237,-1.70813 66.97282,-25.32984 78.3653,-17.37882 -4.10869,-5.0037 -14.2871,-4.96298 -26.61007,-2.94998 -3.2424,1.02471 -6.54743,2.09828 -9.99383,3.29114 -8.33117,2.88358 -17.04263,6.07797 -25.18529,8.64927 -4.07122,1.28565 -8.0015,2.40699 -11.65943,3.27108 -1.82897,0.43203 -3.59804,0.79995 -5.27788,1.08366 -1.67978,0.28371 -3.276,0.49528 -4.77616,0.60204 -3.00786,0.21406 -5.94203,0.60978 -8.78974,1.18401 -2.84766,0.57423 -5.61448,1.32878 -8.24788,2.20747 -2.63346,0.87869 -5.14026,1.88276 -7.50541,3.01018 -2.3652,1.12744 -4.57942,2.37204 -6.62242,3.69251 -2.043,1.32046 -3.91211,2.71636 -5.57891,4.17412 -1.66675,1.45777 -3.13828,2.97592 -4.37477,4.51528 -1.23655,1.53937 -2.23784,3.1106 -2.99018,4.67583 -0.3761,0.78262 -0.69813,1.56931 -0.94315,2.34795 -0.24496,0.77864 -0.41471,1.54011 -0.52178,2.30781 -0.22522,1.6154 -0.27868,2.79718 -0.14051,3.95338 0.13827,1.1562 0.47438,2.29116 1.02349,3.81291 l -12.00061,13.66625 z"
     style="fill:#ffffff;stroke:#000000;stroke-width:0.54545498000000003;fill-opacity:1" />
  <path
     inkscape:connector-curvature="0"
     id="path3966"
     d="m 183.35513,186.36859 12.00061,-13.66625 c -0.54911,-1.52175 -0.88522,-2.65671 -1.02349,-3.81291 -0.13817,-1.1562 -0.0847,-2.33798 0.14051,-3.95338 0.10707,-0.7677 0.27682,-1.52917 0.52178,-2.30781 0.24502,-0.77864 0.56705,-1.56533 0.94315,-2.34795 0.75234,-1.56523 1.75363,-3.13646 2.99018,-4.67583 1.23649,-1.53936 2.70802,-3.05751 4.37477,-4.51528 1.6668,-1.45776 3.53591,-2.85366 5.57891,-4.17412 2.043,-1.32047 4.25722,-2.56507 6.62242,-3.69251 2.36515,-1.12742 4.87195,-2.13149 7.50541,-3.01018 2.6334,-0.87869 5.40022,-1.63324 8.24788,-2.20747 2.84771,-0.57423 5.78188,-0.96995 8.78974,-1.18401 1.50016,-0.10676 3.09638,-0.31833 4.77616,-0.60204 1.67984,-0.28371 3.44891,-0.65163 5.27788,-1.08366 3.65793,-0.86409 7.58821,-1.98543 11.65943,-3.27108 8.14266,-2.5713 16.85412,-5.76569 25.18529,-8.64927 3.4464,-1.19286 6.75143,-2.26643 9.99383,-3.29114 -19.26558,3.14709 -43.90046,11.17119 -59.60171,12.72306 -25.69905,2.54004 -51.93806,19.91555 -54.22357,41.4804 -0.47089,4.43224 -0.84164,8.41305 0.24082,12.24143 z"
     style="fill:#ffffff;stroke:#000000;stroke-width:0.54545498000000003;fill-opacity:1" />
  <path
     inkscape:connector-curvature="0"
     id="path3968"
     d="m 200.15673,218.76222 c 1.99434,0.91244 2.571,1.05149 5.61316,1.10037 3.12399,0.18587 9.63263,-1.79152 9.63263,-1.79152 0,-1e-5 -2.08184,-1.23314 -2.72924,-2.36678 -0.84856,-1.48571 -0.79151,-2.18284 -2.36804,-3.63236 -1.57658,-1.44954 -4.19422,-1.66003 -4.19422,-1.66003 l -1.08365,-2.16956 2.10714,-0.31228 c 0,-1e-5 1.11873,2.11271 3.65237,2.84343 2.45902,0.70921 6.52206,-1.7751 6.52206,-1.7751 0,2e-5 -2.16535,-4.4585 -4.53535,-4.86505 -2.37006,-0.40656 -3.35133,-0.0986 -3.35133,-0.0986 l -1.40476,-1.70934 1.3044,-0.72319 c 0,-1e-5 3.15922,1.16744 4.65573,0.4109 1.49662,-0.75653 1.35758,-1.94387 1.94662,-4.3391 0.48982,-1.99175 1.36462,-4.45416 1.36462,-4.45416 0,1e-5 -2.5355,-0.0991 -4.43504,-0.90398 -1.89955,-0.80486 -3.13179,-2.64818 -5.41833,-1.66004 -2.18733,0.94529 -1.83301,2.46692 -2.50844,3.82959 -0.68722,1.38632 -2.82961,1.66004 -2.82961,1.66004 l -0.38127,-1.84084 c 0,0 2.01726,-0.52645 2.62888,-2.76124 0.61167,-2.23482 -0.10031,-4.40485 -0.10031,-4.40485 0,0 -3.28386,0.16113 -4.63839,1.9416 -1.35447,1.78046 -0.66104,2.17434 -1.67575,2.84775 -1.0146,0.6734 -2.16191,0.64209 -2.16191,0.64209 0,0 -0.55969,-1.4891 0.38122,-2.28569 0.94091,-0.79659 0.72518,-0.74019 1.80208,-1.60557 1.077,-0.86535 3.01424,-4.6965 3.01424,-4.6965 0,1e-5 -1.33893,-0.19512 -2.51248,-0.0832 -1.1736,0.11187 -2.81924,0.68728 -3.13162,0.19723 -0.31244,-0.49005 0.108,-0.42527 -0.83907,-2.66803 -0.94702,-2.24275 -2.23233,-3.85311 -2.23233,-3.85311 -1.575,0.32248 -2.69035,0.97638 -4.70941,2.32852 -2.01911,1.35214 -1.38207,1.19833 -4.00669,3.3725 -2.10377,-0.89309 -5.62855,-1.37523 -8.85001,-0.1021 4.98519,3.58522 6.56357,5.02062 9.73299,12.59346 0.58909,0.64622 1.16024,1.37563 1.72582,2.16955 0.56564,0.79392 1.11033,1.63928 1.64558,2.53115 1.07051,1.78372 2.08266,3.72772 2.99008,5.60467 0.90747,1.87695 1.71911,3.68743 2.40818,5.25952 0.34451,0.78605 0.80477,1.59944 1.36462,2.39966 0.55986,0.80022 1.2252,1.60095 1.9265,2.38322 0.59154,0.65973 3.03458,2.02112 3.67833,2.64703 z"
     style="fill:#ffffff;stroke:#000000;stroke-width:0.54545498000000003;stroke-opacity:1;fill-opacity:1" />
  <path
     inkscape:connector-curvature="0"
     id="path3970"
     d="m 194.85294,214.04425 c 3.55735,-1.43266 4.39342,-6.4063 1.80611,-11.29153 -2.63269,-4.97095 -7.78528,-7.91019 -11.49895,-6.59084 -0.16441,0.0584 -0.28822,0.17373 -0.4415,0.24655 0.13277,0.80343 0.0946,0.80781 0.28097,1.75865 0.30665,1.56454 0.68165,3.24536 1.1238,4.76644 0.4422,1.52108 0.95924,2.88601 1.52515,3.81315 0.56601,0.92713 1.41054,1.94052 2.34796,2.92561 0.93747,0.98508 1.96304,1.94424 2.92997,2.79412 1.03707,0.91159 1.26311,1.05211 1.92649,1.57785 z"
     style="fill:#ffffff;stroke:#000000;stroke-width:0.54545498000000003;fill-opacity:1" />
  <path
     inkscape:connector-curvature="0"
     id="path3972"
     style="fill:#000000;stroke:#000000;stroke-width:0.54545498000000003;fill-opacity:1"
     d="m 186.80851,206.1696 c -1.95551,-3.69217 -2.97442,-6.78736 -0.42594,-7.69275 2.54842,-0.90539 6.20253,1.33551 8.15804,5.02768 1.95715,3.69544 1.47191,7.41856 -1.08513,8.327 -2.54853,0.90537 -4.68982,-1.96647 -6.64697,-5.66193" />
  <path
     inkscape:connector-curvature="0"
     id="path3974"
     d="m 219.19293,238.7536 c 0.31387,-0.0774 0.56418,-0.21037 0.88461,-0.28013 8.81557,-1.9189 16.65566,-0.1296 17.54651,3.96287 0.88701,4.07516 -5.45813,8.89912 -14.21587,10.83468 -0.3952,-0.55856 -0.83148,-1.02535 -1.19483,-1.61243 -0.5464,-0.88287 -1.05762,-1.77709 -1.48102,-2.69865 -0.42334,-0.92156 -0.75296,-1.8559 -0.9921,-2.78516 -0.22476,-0.87296 -0.39087,-1.76517 -0.50006,-2.63005 -0.10925,-0.86489 -0.16674,-1.69964 -0.1854,-2.52758 -0.0186,-0.82424 0.0917,-1.50448 0.13816,-2.26355 z"
     style="fill:#ffffff;stroke:#000000;stroke-width:0.54545498000000003;fill-opacity:1" />
  <path
     inkscape:connector-curvature="0"
     id="path3976"
     style="fill:#000000;stroke:#000000;stroke-width:0.54545498000000003;fill-opacity:1"
     d="m 218.87224,241.32626 c 0.5829,-0.16768 1.08936,-0.39012 1.70634,-0.52442 6.54776,-1.42527 12.32912,-0.29419 12.9404,2.51423 0.61133,2.80841 -4.1684,6.25438 -10.71616,7.67965 -0.39527,0.0861 -0.74761,0.0741 -1.13646,0.14181 -0.48487,-0.4186 -0.99522,-0.78253 -1.42022,-1.26609 -0.39314,-0.44733 -0.75481,-0.92616 -1.04729,-1.42107 -0.29243,-0.4949 -0.5115,-1.01986 -0.65575,-1.55463 -0.14585,-0.54087 -0.22374,-1.1161 -0.24274,-1.70679 -0.0189,-0.59069 0.009,-1.19757 0.0859,-1.80451 0.0903,-0.7132 0.30984,-1.37292 0.48593,-2.05818 z" />
  <rect
     id="rect3978"
     transform="matrix(0.89853201,0.438908,-0.86214119,0.5066681,0,0)"
     y="107.89114"
     x="403.85706"
     height="20.147099"
     width="20.016045"
     style="fill:#ffffff;stroke:#000000;stroke-width:0.54545491999999995;fill-opacity:1" />
  <rect
     id="rect3980"
     style="fill:#000000;stroke:#000000;stroke-width:0.54545491999999995;fill-opacity:1"
     transform="matrix(0.90006,0.43576599,-0.86388323,0.50369214,0,0)"
     y="113.3693"
     x="408.76602"
     height="13.209364"
     width="13.124138" />
  <path
     inkscape:connector-curvature="0"
     id="path3982"
     d="m 243.53098,160.98267 c -0.17275,2.94689 -0.23035,6.98916 1.00342,9.27138 1.52515,2.82129 1.44142,3.01339 3.31113,4.93671 l 7.76635,-12.36184 c -1.16547,-1.24549 -1.4112,-1.45864 -1.8864,-4.83637 -1.56426,-11.11912 11.05479,-19.41682 26.00806,-20.7703 14.73132,-1.33342 33.73263,-22.46624 39.81472,-15.17135 -2.02205,-4.23483 -6.29368,-4.60615 -11.63935,-3.29114 -0.13506,0.0746 -0.24502,0.10418 -0.38133,0.18061 -1.89606,1.06338 -3.9204,2.28925 -6.00028,3.59216 -2.07987,1.30291 -4.21533,2.68057 -6.3816,4.01358 -2.16633,1.33301 -4.34663,2.6191 -6.50205,3.77277 -2.15536,1.15367 -4.29431,2.16503 -6.34146,2.92992 -1.02354,0.38245 -2.01191,0.69721 -2.99013,0.94319 -0.97816,0.24598 -1.94902,0.41836 -2.86969,0.5017 -1.86916,0.16919 -3.70833,0.48052 -5.49862,0.90305 -1.79024,0.42255 -3.5148,0.96611 -5.17752,1.60544 -1.66271,0.63933 -3.24943,1.36784 -4.73602,2.1874 -1.48658,0.81956 -2.87215,1.72587 -4.134,2.68911 -1.26186,0.96323 -2.40295,2.00003 -3.39148,3.07039 -0.98852,1.07035 -1.84183,2.17029 -2.50849,3.31121 -0.66665,1.14091 -1.14878,2.31689 -1.44485,3.49181 -0.29613,1.17492 -0.40402,2.35959 -0.28097,3.53196 0.17798,1.69619 0.27524,2.82374 0.46151,3.81291 0.18638,0.98916 0.46086,1.84384 1.04357,2.94998 l -4.09386,6.9435 c -0.75055,-0.85627 -1.35115,-1.87111 -1.82619,-3.01019 -0.47498,-1.13907 -0.83749,-2.3919 -1.10378,-3.67243 -0.10478,-0.50422 -0.14105,-1.01428 -0.22069,-1.52516 z"
     style="fill:#ffffff;stroke:#000000;stroke-width:0.54545498000000003;fill-opacity:1" />
  <path
     inkscape:connector-curvature="0"
     id="path3984"
     d="m 243.53098,160.98267 c 0.0796,0.51088 0.11591,1.02094 0.22069,1.52516 0.26629,1.28053 0.6288,2.53336 1.10378,3.67243 0.47504,1.13908 1.07564,2.15392 1.82619,3.01019 l 4.09386,-6.9435 c -0.58271,-1.10614 -0.85719,-1.96082 -1.04357,-2.94998 -0.18627,-0.98917 -0.28353,-2.11672 -0.46151,-3.81291 -0.12305,-1.17237 -0.0152,-2.35704 0.28097,-3.53196 0.29607,-1.17492 0.7782,-2.3509 1.44485,-3.49181 0.66666,-1.14092 1.51997,-2.24086 2.50849,-3.31121 0.98853,-1.07036 2.12962,-2.10716 3.39148,-3.07039 1.26185,-0.96324 2.64742,-1.86955 4.134,-2.68911 1.48659,-0.81956 3.07331,-1.54807 4.73602,-2.1874 1.66272,-0.63933 3.38728,-1.18289 5.17752,-1.60544 1.79029,-0.42253 3.62946,-0.73386 5.49862,-0.90305 0.92067,-0.0833 1.89153,-0.25572 2.86969,-0.5017 0.97822,-0.24598 1.96659,-0.56074 2.99013,-0.94319 2.04715,-0.76489 4.1861,-1.77625 6.34146,-2.92992 2.15542,-1.15367 4.33572,-2.43976 6.50205,-3.77277 2.16627,-1.33301 4.30173,-2.71067 6.3816,-4.01358 2.07988,-1.30291 4.10422,-2.52878 6.00028,-3.59216 0.13631,-0.0764 0.24627,-0.106 0.38133,-0.18061 -9.50919,2.33919 -22.43271,10.09673 -32.34952,11.47885 -15.15923,2.11276 -34.72083,10.55174 -32.02841,30.52331 0.009,0.0652 0.004,0.15392 0,0.22075 z"
     style="fill:#ffffff;stroke:#000000;stroke-width:0.54545498000000003;fill-opacity:1" />
  <path
     style="fill:#ffffff;stroke:#000000;stroke-width:0.54545498000000003;fill-opacity:1"
     d="m 232.35892,209.33598 c 0,-3.50081 -2.84755,-6.34828 -6.34883,-6.34828 -3.51856,0 -6.36622,2.84747 -6.36622,6.34828 0,3.51928 2.84766,6.36676 6.36622,6.36676 3.50128,0 6.34883,-2.84748 6.34883,-6.36676"
     id="path3988"
     inkscape:connector-curvature="0" />
  <path
     style="fill:#ffffff;stroke:#000000;stroke-width:0.54545498000000003;fill-opacity:1"
     d="m 295.9341,198.04181 c 0,-3.50081 -2.84755,-6.34828 -6.34883,-6.34828 -3.51856,0 -6.36622,2.84747 -6.36622,6.34828 0,3.51927 2.84766,6.36676 6.36622,6.36676 3.50128,0 6.34883,-2.84749 6.34883,-6.36676"
     id="path3990"
     inkscape:connector-curvature="0" />
  <path
     d="m 299.83961,241.27861 c 0,-1.7985 -1.54528,-3.26136 -3.44509,-3.26136 -1.90937,0 -3.45459,1.46286 -3.45459,3.26136 0,1.79533 1.54522,3.27086 3.45459,3.27086 1.89981,0 3.44509,-1.47553 3.44509,-3.27086"
     style="fill:#ffffff;stroke:#000000;stroke-width:0.65454601999999995;fill-opacity:1"
     id="path3992"
     inkscape:connector-curvature="0" />
  <path
     d="m 248.44537,242.97857 c 0,-1.7985 -1.54522,-3.26136 -3.44188,-3.26136 -1.91253,0 -3.45458,1.46286 -3.45458,3.26136 0,1.80799 1.54205,3.27086 3.45458,3.27086 1.89666,0 3.44188,-1.46287 3.44188,-3.27086"
     style="fill:#ffffff;stroke:#000000;stroke-width:0.65454601999999995;fill-opacity:1"
     id="path3994"
     inkscape:connector-curvature="0" />
  <path
     style="fill:#ffffff;stroke:#000000;stroke-width:0.54545498000000003;fill-opacity:1"
     d="m 308.32149,114.27273 c 0.006,2.59844 -2.09395,4.71463 -4.69244,4.72097 -2.59844,0.006 -4.71459,-2.09081 -4.72091,-4.69242 -0.003,-0.009 -0.003,-0.019 0,-0.0285 -0.01,-2.60161 2.09078,-4.71463 4.69238,-4.72415 2.59844,-0.006 4.71464,2.09398 4.72419,4.69244 -0.003,0.0127 -0.003,0.0222 -0.003,0.0317 z"
     id="path3996"
     inkscape:connector-curvature="0" />
  <path
     style="fill:#ffffff;stroke:#000000;stroke-width:0.54545498000000003;fill-opacity:1"
     d="m 294.58726,116.05678 c 0.01,2.85226 -2.29702,5.17467 -5.14926,5.18102 -2.85229,0.01 -5.17468,-2.29704 -5.18422,-5.14929 0,-0.0127 0,-0.0222 0,-0.0318 -0.006,-2.85542 2.29707,-5.17467 5.14931,-5.18419 2.85546,-0.009 5.17468,2.29704 5.18417,5.14929 0,0.0127 0,0.0222 0,0.0349 z"
     id="path3998"
     inkscape:connector-curvature="0" />
  <path
     style="fill:#ffffff;stroke:#000000;stroke-width:0.54545498000000003;fill-opacity:1"
     d="m 279.10725,119.69209 c 0.01,3.27741 -2.63962,5.93929 -5.91705,5.952 -3.27736,0.009 -5.94245,-2.63651 -5.95195,-5.91392 0,-0.0127 0,-0.0254 0,-0.0381 -0.01,-3.27739 2.63962,-5.94245 5.91705,-5.95198 3.27736,-0.009 5.94246,2.63652 5.95195,5.91709 0,0.01 0,0.0222 0,0.0349 z"
     id="path4000"
     inkscape:connector-curvature="0" />
  <path
     style="fill:#ffffff;stroke:#000000;stroke-width:0.54545498000000003;fill-opacity:1"
     d="m 261.4381,124.31432 c 0.01,3.61688 -2.91251,6.55798 -6.52942,6.57066 -3.61686,0.0127 -6.55795,-2.90935 -6.57066,-6.52941 0,-0.0127 0,-0.0254 0,-0.0412 -0.009,-3.61687 2.9094,-6.55796 6.52942,-6.57066 3.61686,-0.009 6.55795,2.91254 6.57066,6.52942 0,0.0127 0,0.0286 0,0.0412 z"
     id="path4002"
     inkscape:connector-curvature="0" />
  <path
     style="fill:#ffffff;stroke:#000000;stroke-width:0.54545498000000003;fill-opacity:1"
     d="m 240.11376,127.95282 c 0.0128,4.04201 -3.25195,7.32893 -7.29399,7.34162 -4.04204,0.0127 -7.3289,-3.25202 -7.34166,-7.29403 0,-0.0127 0,-0.0286 0,-0.0444 -0.0126,-4.04203 3.25206,-7.32894 7.2941,-7.34164 4.04204,-0.0127 7.32895,3.25202 7.34155,7.29404 0,0.0127 0,0.0285 0,0.0444 z"
     id="path4004"
     inkscape:connector-curvature="0" />
  <path
     style="fill:#ffffff;stroke:#000000;stroke-width:0.54545498000000003;fill-opacity:1"
     d="m 217.79134,134.51455 c 0.0127,4.3815 -3.52806,7.94762 -7.90959,7.96031 -4.38464,0.0127 -7.9476,-3.52804 -7.96026,-7.90955 0,-0.0159 0,-0.0349 0,-0.0508 -0.0127,-4.3815 3.528,-7.94762 7.90953,-7.9603 4.38148,-0.0127 7.94445,3.52804 7.96032,7.90954 0,0.0159 0,0.0349 0,0.0508 z"
     id="path4006"
     inkscape:connector-curvature="0" />
  <path
     style="fill:#ffffff;stroke:#000000;stroke-width:0.54545498000000003;fill-opacity:1"
     d="m 200.18656,147.00983 c 0.0127,4.38151 -3.528,7.94762 -7.90948,7.9603 -4.38153,0.0127 -7.9476,-3.52803 -7.96037,-7.90954 0,-0.0159 0,-0.0317 0,-0.0507 -0.0127,-4.3815 3.52806,-7.94761 7.90954,-7.9603 4.38147,-0.0127 7.94449,3.52804 7.96031,7.90954 0,0.0159 0,0.0349 0,0.0508 z"
     id="path4008"
     inkscape:connector-curvature="0" />
  <path
     style="fill:#ffffff;stroke:#000000;stroke-width:0.54545498000000003;fill-opacity:1"
     d="m 190.78843,169.63376 c 0.0159,4.72097 -3.8009,8.56312 -8.52181,8.57581 -4.72102,0.0159 -8.56315,-3.80089 -8.57586,-8.52188 0,-0.0159 0,-0.0349 0,-0.0539 -0.0159,-4.72415 3.80089,-8.56311 8.52191,-8.57898 4.72092,-0.0159 8.5631,3.80089 8.57576,8.52187 0,0.019 0,0.0381 0,0.0571 z"
     id="path4010"
     inkscape:connector-curvature="0" />
  <path
     style="fill:#ffffff;stroke:#000000;stroke-width:0.54545498000000003;fill-opacity:1"
     d="m 311.95956,112.30771 c -0.008,2.30368 1.85368,4.17983 4.16008,4.18826 2.30646,0.008 4.17971,-1.85364 4.18822,-4.16014 0,-0.008 0,-0.0169 0,-0.0281 0.006,-2.30371 -1.85645,-4.17985 -4.16007,-4.18548 -2.30368,-0.006 -4.17977,1.85365 -4.18539,4.16014 -0.003,0.008 -0.003,0.0169 -0.003,0.0253 z"
     id="path4012"
     inkscape:connector-curvature="0" />
  <path
     style="fill:#ffffff;stroke:#000000;stroke-width:0.54545498000000003;fill-opacity:1"
     d="m 302.18436,121.69942 c 0.006,2.59844 -2.09395,4.71464 -4.69244,4.72415 -2.59844,0.006 -4.71459,-2.09398 -4.72414,-4.69242 0,-0.01 0,-0.019 0,-0.0286 -0.006,-2.59844 2.09401,-4.71463 4.69244,-4.72098 2.59839,-0.009 4.71465,2.09081 4.72414,4.69243 0,0.003 0,0.0159 0,0.0254 z"
     id="path4014"
     inkscape:connector-curvature="0" />
  <path
     style="fill:#ffffff;stroke:#000000;stroke-width:0.54545498000000003;fill-opacity:1"
     d="m 289.7518,127.33285 c 0.009,3.2774 -2.63651,5.94246 -5.91388,5.95199 -3.27742,0.009 -5.94251,-2.63652 -5.952,-5.91392 0,-0.0127 0,-0.0254 0,-0.0381 -0.009,-3.27739 2.63651,-5.94246 5.91704,-5.95198 3.27742,-0.01 5.94251,2.63651 5.952,5.91708 -0.003,0.009 -0.003,0.0222 -0.003,0.0349 z"
     id="path4016"
     inkscape:connector-curvature="0" />
  <path
     style="fill:#ffffff;stroke:#000000;stroke-width:0.54545498000000003;fill-opacity:1"
     d="m 273.65161,130.94651 c 0.009,3.27739 -2.63657,5.94246 -5.9171,5.95198 -3.27742,0.01 -5.94251,-2.63651 -5.95201,-5.91391 0,-0.0127 0,-0.0254 0,-0.0381 -0.009,-3.27741 2.63652,-5.94247 5.91394,-5.95199 3.27736,-0.009 5.94246,2.63968 5.95195,5.91708 0.003,0.01 0.003,0.0222 0.003,0.0349 z"
     id="path4018"
     inkscape:connector-curvature="0" />
  <path
     style="fill:#ffffff;stroke:#000000;stroke-width:0.54545498000000003;fill-opacity:1"
     d="m 258.74421,139.4911 c 0.0123,3.90093 -3.13849,7.07311 -7.03937,7.08536 -3.90087,0.0123 -7.07313,-3.1385 -7.0853,-7.03943 0,-0.0153 0,-0.0275 0,-0.0429 -0.0123,-3.90093 3.1415,-7.0731 7.04237,-7.08535 3.90099,-0.0123 7.07308,3.13849 7.08536,7.03942 -0.003,0.0123 -0.003,0.0275 -0.003,0.0429 z"
     id="path4020"
     inkscape:connector-curvature="0" />
  <path
     style="fill:#ffffff;stroke:#000000;stroke-width:0.54545498000000003;fill-opacity:1"
     d="m 251.43653,156.71745 c 0.0127,4.72098 -3.80089,8.56312 -8.52191,8.5758 -4.72414,0.0159 -8.5631,-3.80089 -8.57897,-8.52187 0,-0.0159 0,-0.0349 0,-0.0539 -0.0127,-4.72414 3.80089,-8.56311 8.52191,-8.57897 4.72413,-0.0127 8.5631,3.80089 8.57897,8.52187 0,0.0222 0,0.0381 0,0.0571 z"
     id="path4022"
     inkscape:connector-curvature="0" />
  <path
     style="fill:#ffffff;stroke:#000000;stroke-width:0.54545498000000003;fill-opacity:1"
     d="m 313.63842,116.45677 c 0.005,2.12652 -1.71366,3.85837 -3.84006,3.86616 -2.12645,0.005 -3.85816,-1.71368 -3.86602,-3.84019 0,-0.008 0,-0.0156 0,-0.0234 -0.005,-2.12651 1.71366,-3.85837 3.84006,-3.86356 2.12646,-0.008 3.85822,1.71108 3.86602,3.8402 0,0.003 0,0.013 0,0.0208 z"
     id="path4024"
     inkscape:connector-curvature="0" />
  <path
     inkscape:connector-curvature="0"
     id="path4026"
     d="m 244.72356,158.74685 c 0.58359,0.039 2.94284,0.83736 5.23953,1.77264 2.67453,1.08914 5.04868,4.22912 5.04868,4.22912 0,0 2.19355,-0.8123 3.6569,-1.07365 1.4634,-0.26135 3.83231,-0.26387 3.83231,-0.26387 0,0 0.64003,1.45077 0.40925,3.57733 -0.23072,2.12655 -0.0734,3.50687 -0.57005,3.75222 0,0 1.02813,0.17972 2.27493,0.38437 1.24674,0.20464 1.92316,1.10325 1.92316,1.10325 0,0 -2.54455,2.59197 -3.93551,3.12525 -1.39097,0.5333 -1.69871,0.59047 -2.92713,1.09472 -1.22836,0.50425 -1.29616,2.53614 -1.29616,2.53614 0,0 1.18265,-0.18655 2.44723,-0.55483 1.26459,-0.36828 0.85479,-1.50151 2.82819,-2.82655 1.97334,-1.32505 7.02835,-1.25522 7.02835,-1.25522 0,0 0.0161,2.24112 -1.33806,4.19219 -1.35414,1.95107 -3.59247,1.92008 -3.59247,1.92008 l -0.23384,1.84175 c 0,0 2.32457,0.30517 3.48208,-0.82374 1.13771,-1.10965 1.25809,-2.63814 3.82036,-2.95329 2.67835,-0.32945 3.34473,1.7386 5.04372,3.00197 1.69903,1.26338 4.30075,2.02442 4.30075,2.02442 0,0 -1.70564,2.10406 -2.85541,3.85757 -1.38272,2.10874 -1.641,3.2706 -3.42949,3.59002 -1.7886,0.31942 -4.65693,-1.62436 -4.65693,-1.62436 l -1.58106,0.33283 0.89297,1.99378 c 0,0 1.12282,-0.0436 3.43604,0.96764 2.31311,1.01124 3.09474,5.80609 3.09474,5.80609 0,0 -4.98649,1.27774 -7.2936,-0.0432 -2.37709,-1.36099 -2.84619,-3.6636 -2.84619,-3.6636 l -2.28338,-0.26509 0.42366,2.34674 c 0,0 2.63591,0.89956 3.79309,2.68701 1.15729,1.78743 0.86433,2.41895 1.25885,4.04803 0.30104,1.24304 2.05632,2.96355 2.05632,2.96355 0,0 -7.36654,0.14039 -10.52887,-0.86163 -8.74577,-3.91173 -2.76251,-4.456 -8.60308,1.53644 -2.36591,1.98933 -9.13511,4.37348 -9.13511,4.37348 0,0 0.72141,-2.16283 0.36327,-3.39567 -0.46937,-1.61572 -1.05671,-2.09001 -0.91315,-4.10976 0.14357,-2.01976 2.08299,-3.73646 2.08299,-3.73646 l -0.80771,-2.27814 -1.94128,1.01959 c -1.1e-4,0 0.74378,2.25355 -0.72562,4.3015 -1.4262,1.98767 -6.60949,2.52618 -6.60949,2.52618 0,0 -1.72664,-4.62607 -0.13751,-6.33424 1.58913,-1.70818 2.6322,-2.05138 2.6322,-2.05138 l -0.2016,-2.11725 -1.60669,0.23648 c 0,0 -1.63909,2.74878 -3.42764,3.0682 -1.78855,0.31943 -2.59479,-0.65233 -4.92388,-2.09817 -1.93675,-1.20227 -4.557,-2.53377 -4.557,-2.53377 0,0 1.97869,-1.57906 2.88125,-3.30706 0.90257,-1.72799 0.45731,-3.83552 3.05995,-4.44924 2.48984,-0.5871 3.37626,0.76157 4.97472,1.38255 1.62627,0.63177 3.56547,-0.4349 3.56547,-0.4349 l -1.12958,-1.59824 c 0,0 -2.01938,0.7914 -4.24239,-0.52084 -2.22294,-1.31222 -3.34751,-3.35537 -3.34751,-3.35537 0,1e-5 4.56061,-1.7871 7.02841,-1.25521 2.46774,0.53189 2.6712,1.70197 4.00811,1.60563 1.33702,-0.0963 2.50718,-0.33001 2.50718,-0.33001 0,1e-5 -1.09451,-1.8243 -2.46769,-1.86393 -1.37313,-0.0397 -1.68213,0.0133 -3.21786,0.003 -1.53578,-0.0106 -5.16682,-1.49965 -5.16682,-1.49965 0,0 0.15818,-1.04766 1.18778,-1.65883 1.02955,-0.6112 1.87299,-1.12515 1.87299,-1.12515 -0.57622,-0.0537 -1.13482,-1.36242 -2.42564,-3.21723 -1.29077,-1.85481 -1.44622,-3.39213 -1.44622,-3.39213 0,-1e-5 2.15509,-0.80545 3.61849,-1.0668 1.4634,-0.26135 3.87072,-0.27072 3.87072,-0.27072 0,-1e-5 0.56247,-3.66443 2.44058,-5.56665 1.25275,-1.16238 2.45847,-2.60564 4.0164,-3.42568 z"
     style="fill:#ffffff;stroke:#000000;stroke-width:0.54545498000000003;stroke-opacity:1;fill-opacity:1" />
  <path
     style="fill:none;stroke:#000000;stroke-width:0.54545498;stroke-linecap:round"
     d="m 196.74861,211.89073 c 0,0 1.56961,1.57657 2.45597,2.14047 0.88631,0.5639 3.40086,1.42813 3.40086,1.42813"
     id="path4030"
     inkscape:connector-curvature="0" />
  <path
     style="fill:none;stroke:#000000;stroke-width:0.54545498;stroke-linecap:round"
     d="m 197.99601,205.92381 c 2.49863,-0.74673 4.97019,-0.44115 7.35776,0.0224"
     id="path4032"
     inkscape:connector-curvature="0" />
  <path
     style="fill:none;stroke:#000000;stroke-width:0.54545498;stroke-linecap:round"
     d="m 196.63221,202.51657 c 2.2055,-1.34507 5.02572,-2.47886 8.66739,-3.33032"
     id="path4034"
     inkscape:connector-curvature="0" />
  <path
     style="fill:none;stroke:#000000;stroke-width:0.54545498;stroke-linecap:round"
     d="m 194.05538,199.03812 c 0,0 0.7446,-1.64549 1.81325,-2.40176 1.0686,-0.75628 1.48653,-1.90906 1.48653,-1.90906"
     id="path4036"
     inkscape:connector-curvature="0" />
  <path
     style="fill:none;stroke:#000000;stroke-width:0.54545498;stroke-linecap:round"
     d="m 187.81581,195.85656 c 0,0 -0.22468,-0.61352 0.18507,-2.70208 0.39715,-2.02419 1.55695,-3.44056 1.55695,-3.44056"
     id="path4038"
     inkscape:connector-curvature="0" />
  <path
     style="fill:none;stroke:#000000;stroke-width:0.54545498;stroke-linecap:round"
     d="m 258.11301,196.72094 c 0,0 1.18211,1.79282 1.93004,2.48439 0.74804,0.69156 3.05127,1.93051 3.05127,1.93051"
     id="path4040"
     inkscape:connector-curvature="0" />
  <path
     style="fill:none;stroke:#000000;stroke-width:0.54545498;stroke-linecap:round"
     d="m 260.83167,191.04877 c 2.68434,-0.34705 5.08233,0.3361 7.35726,1.16149"
     id="path4042"
     inkscape:connector-curvature="0" />
  <path
     style="fill:none;stroke:#000000;stroke-width:0.54545498;stroke-linecap:round"
     d="m 260.30661,187.48832 c 2.53839,-0.98062 5.63995,-1.65834 9.49397,-1.93132"
     id="path4044"
     inkscape:connector-curvature="0" />
  <path
     style="fill:none;stroke:#000000;stroke-width:0.54545498;stroke-linecap:round"
     d="m 258.58521,183.67 c 0,0 1.15058,-1.50216 2.40633,-2.08006 1.2558,-0.5779 1.95802,-1.64635 1.95802,-1.64635"
     id="path4046"
     inkscape:connector-curvature="0" />
  <path
     style="fill:none;stroke:#000000;stroke-width:0.54545498;stroke-linecap:round"
     d="m 250.35909,179.2452 c 0.1193,-0.61069 -2.39678,-9.00221 -2.39678,-9.00221"
     id="path4048"
     inkscape:connector-curvature="0" />
  <path
     style="fill:none;stroke:#000000;stroke-width:0.54545498;stroke-linecap:round"
     d="m 253.12548,179.5763 c 0,0 -0.0737,-0.63788 0.85102,-2.62743 0.89623,-1.92824 2.40589,-3.14088 2.40589,-3.14088"
     id="path4050"
     inkscape:connector-curvature="0" />
  <path
     style="fill:none;stroke:#000000;stroke-width:0.54545498;stroke-linecap:round"
     d="m 251.92308,197.82641 c 0,0 -0.16347,2.03313 -0.492,2.91696 -0.32853,0.88381 -1.79297,2.79565 -1.79297,2.79565"
     id="path4052"
     inkscape:connector-curvature="0" />
  <path
     style="fill:none;stroke:#000000;stroke-width:0.54545498;stroke-linecap:round"
     d="m 246.56802,193.59615 c -2.61704,0.59975 -4.45015,2.03853 -6.09901,3.56467"
     id="path4054"
     inkscape:connector-curvature="0" />
  <path
     style="fill:none;stroke:#000000;stroke-width:0.54545498;stroke-linecap:round"
     d="m 245.23558,190.17989 c -2.80642,-0.0261 -5.97093,0.41529 -9.61381,1.4812"
     id="path4056"
     inkscape:connector-curvature="0" />
  <path
     style="fill:none;stroke:#000000;stroke-width:0.54545498;stroke-linecap:round"
     d="m 244.85982,186.12125 c 0,0 -1.80977,-0.97345 -3.2453,-1.07072 -1.43542,-0.0973 -2.61709,-0.82925 -2.61709,-0.82925"
     id="path4058"
     inkscape:connector-curvature="0" />
  <path
     style="fill:none;stroke:#000000;stroke-width:0.54545498;stroke-linecap:round"
     d="m 247.74298,180.53757 c 0,0 -0.25723,-0.6051 -2.10933,-2.09873 -1.79498,-1.44759 -3.78398,-2.03541 -3.78398,-2.03541"
     id="path4060"
     inkscape:connector-curvature="0" />
  <path
     inkscape:connector-curvature="0"
     id="path4062"
     d="m 260.04419,187.76257 c -1.40945,-5.29406 -5.82589,-8.97931 -9.86722,-8.25756 -4.04139,0.72176 -6.19724,5.58077 -4.78773,10.87483 1.41082,5.29876 5.83091,8.99808 9.88588,8.2739 4.04138,-0.72176 6.17984,-5.59242 4.76907,-10.89117"
     style="fill:#ffffff;stroke:#000000;stroke-width:0.54545498000000003;fill-opacity:1" />
  <path
     inkscape:connector-curvature="0"
     id="path4064"
     style="fill:#000000;stroke:#000000;stroke-width:0.54545498000000003;fill-opacity:1"
     d="m 257.74581,188.17558 c -1.04695,-3.93215 -4.14191,-6.70248 -6.91522,-6.20718 -2.77337,0.49529 -4.18855,4.07111 -3.14161,8.00326 1.04782,3.93565 4.14563,6.71644 6.92832,6.21947 2.77326,-0.49529 4.17633,-4.07989 3.12851,-8.01555" />
  <path
     style="fill:#ffffff;stroke:#000000;stroke-width:0.54545498000000003;fill-opacity:1"
     d="m 463.48093,186.36859 c -0.49358,1.74579 -1.20196,3.46841 -2.48842,5.17752 l -14.64961,-16.6965 c 1.09833,-3.0435 1.33342,-4.53549 0.88298,-7.76629 -1.71246,-12.28313 -21.51122,-25.11835 -45.57418,-26.83082 -24.00237,-1.70813 -66.97282,-25.32984 -78.3653,-17.37882 4.10869,-5.0037 14.2871,-4.96298 26.61007,-2.94998 3.2424,1.02471 6.54743,2.09828 9.99383,3.29114 8.33117,2.88358 17.04263,6.07797 25.18529,8.64927 4.07122,1.28565 8.0015,2.40699 11.65943,3.27108 1.82897,0.43203 3.59804,0.79995 5.27788,1.08366 1.67978,0.28371 3.276,0.49528 4.77616,0.60204 3.00786,0.21406 5.94203,0.60978 8.78974,1.18401 2.84766,0.57423 5.61448,1.32878 8.24788,2.20747 2.63346,0.87869 5.14026,1.88276 7.50541,3.01018 2.3652,1.12744 4.57942,2.37204 6.62242,3.69251 2.043,1.32046 3.91211,2.71636 5.57891,4.17412 1.66675,1.45777 3.13828,2.97592 4.37477,4.51528 1.23655,1.53937 2.23784,3.1106 2.99018,4.67583 0.3761,0.78262 0.69813,1.56931 0.94315,2.34795 0.24496,0.77864 0.41471,1.54011 0.52178,2.30781 0.22522,1.6154 0.27868,2.79718 0.14051,3.95338 -0.13827,1.1562 -0.47438,2.29116 -1.02349,3.81291 l 12.00061,13.66625 z"
     id="path16021"
     inkscape:connector-curvature="0" />
  <path
     style="fill:#ffffff;stroke:#000000;stroke-width:0.54545498000000003;fill-opacity:1"
     d="m 463.48093,186.36859 -12.00061,-13.66625 c 0.54911,-1.52175 0.88522,-2.65671 1.02349,-3.81291 0.13817,-1.1562 0.0847,-2.33798 -0.14051,-3.95338 -0.10707,-0.7677 -0.27682,-1.52917 -0.52178,-2.30781 -0.24502,-0.77864 -0.56705,-1.56533 -0.94315,-2.34795 -0.75234,-1.56523 -1.75363,-3.13646 -2.99018,-4.67583 -1.23649,-1.53936 -2.70802,-3.05751 -4.37477,-4.51528 -1.6668,-1.45776 -3.53591,-2.85366 -5.57891,-4.17412 -2.043,-1.32047 -4.25722,-2.56507 -6.62242,-3.69251 -2.36515,-1.12742 -4.87195,-2.13149 -7.50541,-3.01018 -2.6334,-0.87869 -5.40022,-1.63324 -8.24788,-2.20747 -2.84771,-0.57423 -5.78188,-0.96995 -8.78974,-1.18401 -1.50016,-0.10676 -3.09638,-0.31833 -4.77616,-0.60204 -1.67984,-0.28371 -3.44891,-0.65163 -5.27788,-1.08366 -3.65793,-0.86409 -7.58821,-1.98543 -11.65943,-3.27108 -8.14266,-2.5713 -16.85412,-5.76569 -25.18529,-8.64927 -3.4464,-1.19286 -6.75143,-2.26643 -9.99383,-3.29114 19.26558,3.14709 43.90046,11.17119 59.60171,12.72306 25.69905,2.54004 51.93806,19.91555 54.22357,41.4804 0.47089,4.43224 0.84164,8.41305 -0.24082,12.24143 z"
     id="path16023"
     inkscape:connector-curvature="0" />
  <path
     style="fill:#ffffff;stroke:#000000;stroke-width:0.54545498000000003;stroke-opacity:1;fill-opacity:1"
     d="m 446.67933,218.76222 c -1.99434,0.91244 -2.571,1.05149 -5.61316,1.10037 -3.12399,0.18587 -9.63263,-1.79152 -9.63263,-1.79152 0,-1e-5 2.08184,-1.23314 2.72924,-2.36678 0.84856,-1.48571 0.79151,-2.18284 2.36804,-3.63236 1.57658,-1.44954 4.19422,-1.66003 4.19422,-1.66003 l 1.08365,-2.16956 -2.10714,-0.31228 c 0,-1e-5 -1.11873,2.11271 -3.65237,2.84343 -2.45902,0.70921 -6.52206,-1.7751 -6.52206,-1.7751 0,2e-5 2.16535,-4.4585 4.53535,-4.86505 2.37006,-0.40656 3.35133,-0.0986 3.35133,-0.0986 l 1.40476,-1.70934 -1.3044,-0.72319 c 0,-1e-5 -3.15922,1.16744 -4.65573,0.4109 -1.49662,-0.75653 -1.35758,-1.94387 -1.94662,-4.3391 -0.48982,-1.99175 -1.36462,-4.45416 -1.36462,-4.45416 0,1e-5 2.5355,-0.0991 4.43504,-0.90398 1.89955,-0.80486 3.13179,-2.64818 5.41833,-1.66004 2.18733,0.94529 1.83301,2.46692 2.50844,3.82959 0.68722,1.38632 2.82961,1.66004 2.82961,1.66004 l 0.38127,-1.84084 c 0,0 -2.01726,-0.52645 -2.62888,-2.76124 -0.61167,-2.23482 0.10031,-4.40485 0.10031,-4.40485 0,0 3.28386,0.16113 4.63839,1.9416 1.35447,1.78046 0.66104,2.17434 1.67575,2.84775 1.0146,0.6734 2.16191,0.64209 2.16191,0.64209 0,0 0.55969,-1.4891 -0.38122,-2.28569 -0.94091,-0.79659 -0.72518,-0.74019 -1.80208,-1.60557 -1.077,-0.86535 -3.01424,-4.6965 -3.01424,-4.6965 0,1e-5 1.33893,-0.19512 2.51248,-0.0832 1.1736,0.11187 2.81924,0.68728 3.13162,0.19723 0.31244,-0.49005 -0.108,-0.42527 0.83907,-2.66803 0.94702,-2.24275 2.23233,-3.85311 2.23233,-3.85311 1.575,0.32248 2.69035,0.97638 4.70941,2.32852 2.01911,1.35214 1.38207,1.19833 4.00669,3.3725 2.10377,-0.89309 5.62855,-1.37523 8.85001,-0.1021 -4.98519,3.58522 -6.56357,5.02062 -9.73299,12.59346 -0.58909,0.64622 -1.16024,1.37563 -1.72582,2.16955 -0.56564,0.79392 -1.11033,1.63928 -1.64558,2.53115 -1.07051,1.78372 -2.08266,3.72772 -2.99008,5.60467 -0.90747,1.87695 -1.71911,3.68743 -2.40818,5.25952 -0.34451,0.78605 -0.80477,1.59944 -1.36462,2.39966 -0.55986,0.80022 -1.2252,1.60095 -1.9265,2.38322 -0.59154,0.65973 -3.03458,2.02112 -3.67833,2.64703 z"
     id="path16059"
     inkscape:connector-curvature="0" />
  <path
     style="fill:#ffffff;stroke:#000000;stroke-width:0.54545498000000003;fill-opacity:1"
     d="m 451.98312,214.04425 c -3.55735,-1.43266 -4.39342,-6.4063 -1.80611,-11.29153 2.63269,-4.97095 7.78528,-7.91019 11.49895,-6.59084 0.16441,0.0584 0.28822,0.17373 0.4415,0.24655 -0.13277,0.80343 -0.0946,0.80781 -0.28097,1.75865 -0.30665,1.56454 -0.68165,3.24536 -1.1238,4.76644 -0.4422,1.52108 -0.95924,2.88601 -1.52515,3.81315 -0.56601,0.92713 -1.41054,1.94052 -2.34796,2.92561 -0.93747,0.98508 -1.96304,1.94424 -2.92997,2.79412 -1.03707,0.91159 -1.26311,1.05211 -1.92649,1.57785 z"
     id="path16071"
     inkscape:connector-curvature="0" />
  <path
     d="m 460.02755,206.1696 c 1.95551,-3.69217 2.97442,-6.78736 0.42594,-7.69275 -2.54842,-0.90539 -6.20253,1.33551 -8.15804,5.02768 -1.95715,3.69544 -1.47191,7.41856 1.08513,8.327 2.54853,0.90537 4.68982,-1.96647 6.64697,-5.66193"
     style="fill:#000000;stroke:#000000;stroke-width:0.54545498000000003;fill-opacity:1"
     id="path16073"
     inkscape:connector-curvature="0" />
  <path
     style="fill:#ffffff;stroke:#000000;stroke-width:0.54545498000000003;fill-opacity:1"
     d="m 427.64313,238.7536 c -0.31387,-0.0774 -0.56418,-0.21037 -0.88461,-0.28013 -8.81557,-1.9189 -16.65566,-0.1296 -17.54651,3.96287 -0.88701,4.07516 5.45813,8.89912 14.21587,10.83468 0.3952,-0.55856 0.83148,-1.02535 1.19483,-1.61243 0.5464,-0.88287 1.05762,-1.77709 1.48102,-2.69865 0.42334,-0.92156 0.75296,-1.8559 0.9921,-2.78516 0.22476,-0.87296 0.39087,-1.76517 0.50006,-2.63005 0.10925,-0.86489 0.16674,-1.69964 0.1854,-2.52758 0.0186,-0.82424 -0.0917,-1.50448 -0.13816,-2.26355 z"
     id="path16083"
     inkscape:connector-curvature="0" />
  <path
     d="m 427.96382,241.32626 c -0.5829,-0.16768 -1.08936,-0.39012 -1.70634,-0.52442 -6.54776,-1.42527 -12.32912,-0.29419 -12.9404,2.51423 -0.61133,2.80841 4.1684,6.25438 10.71616,7.67965 0.39527,0.0861 0.74761,0.0741 1.13646,0.14181 0.48487,-0.4186 0.99522,-0.78253 1.42022,-1.26609 0.39314,-0.44733 0.75481,-0.92616 1.04729,-1.42107 0.29243,-0.4949 0.5115,-1.01986 0.65575,-1.55463 0.14585,-0.54087 0.22374,-1.1161 0.24274,-1.70679 0.0189,-0.59069 -0.009,-1.19757 -0.086,-1.80451 -0.0903,-0.7132 -0.30984,-1.37292 -0.48593,-2.05818 z"
     style="fill:#000000;stroke:#000000;stroke-width:0.54545498000000003;fill-opacity:1"
     id="path16085"
     inkscape:connector-curvature="0" />
  <rect
     style="fill:#ffffff;stroke:#000000;stroke-width:0.54545491999999995;fill-opacity:1"
     width="20.016045"
     height="20.147099"
     x="10.73285"
     y="448.44022"
     transform="matrix(-0.89853201,0.438908,0.86214119,0.5066681,0,0)"
     id="rect16103" />
  <rect
     width="13.124138"
     height="13.209364"
     x="16.135698"
     y="453.05087"
     transform="matrix(-0.90006,0.43576599,0.86388323,0.50369214,0,0)"
     style="fill:#000000;stroke:#000000;stroke-width:0.54545491999999995;fill-opacity:1"
     id="rect16105" />
  <path
     style="fill:#ffffff;stroke:#000000;stroke-width:0.54545498000000003;fill-opacity:1"
     d="m 403.30508,160.98267 c 0.17275,2.94689 0.23035,6.98916 -1.00342,9.27138 -1.52515,2.82129 -1.44142,3.01339 -3.31113,4.93671 l -7.76635,-12.36184 c 1.16547,-1.24549 1.4112,-1.45864 1.8864,-4.83637 1.56426,-11.11912 -11.05479,-19.41682 -26.00806,-20.7703 -14.73132,-1.33342 -33.73263,-22.46624 -39.81472,-15.17135 2.02205,-4.23483 6.29368,-4.60615 11.63935,-3.29114 0.13506,0.0746 0.24502,0.10418 0.38133,0.18061 1.89606,1.06338 3.9204,2.28925 6.00028,3.59216 2.07987,1.30291 4.21533,2.68057 6.3816,4.01358 2.16633,1.33301 4.34663,2.6191 6.50205,3.77277 2.15536,1.15367 4.29431,2.16503 6.34146,2.92992 1.02354,0.38245 2.01191,0.69721 2.99013,0.94319 0.97816,0.24598 1.94902,0.41836 2.86969,0.5017 1.86916,0.16919 3.70833,0.48052 5.49862,0.90305 1.79024,0.42255 3.5148,0.96611 5.17752,1.60544 1.66271,0.63933 3.24943,1.36784 4.73602,2.1874 1.48658,0.81956 2.87215,1.72587 4.134,2.68911 1.26186,0.96323 2.40295,2.00003 3.39148,3.07039 0.98852,1.07035 1.84183,2.17029 2.50849,3.31121 0.66665,1.14091 1.14878,2.31689 1.44485,3.49181 0.29613,1.17492 0.40402,2.35959 0.28097,3.53196 -0.17798,1.69619 -0.27524,2.82374 -0.46151,3.81291 -0.18638,0.98916 -0.46086,1.84384 -1.04357,2.94998 l 4.09386,6.9435 c 0.75055,-0.85627 1.35115,-1.87111 1.82619,-3.01019 0.47498,-1.13907 0.83749,-2.3919 1.10378,-3.67243 0.10478,-0.50422 0.14105,-1.01428 0.22069,-1.52516 z"
     id="path16187"
     inkscape:connector-curvature="0" />
  <path
     style="fill:#ffffff;stroke:#000000;stroke-width:0.54545498000000003;fill-opacity:1"
     d="m 403.30508,160.98267 c -0.0796,0.51088 -0.11591,1.02094 -0.22069,1.52516 -0.26629,1.28053 -0.6288,2.53336 -1.10378,3.67243 -0.47504,1.13908 -1.07564,2.15392 -1.82619,3.01019 l -4.09386,-6.9435 c 0.58271,-1.10614 0.85719,-1.96082 1.04357,-2.94998 0.18627,-0.98917 0.28353,-2.11672 0.46151,-3.81291 0.12305,-1.17237 0.0152,-2.35704 -0.28097,-3.53196 -0.29607,-1.17492 -0.7782,-2.3509 -1.44485,-3.49181 -0.66666,-1.14092 -1.51997,-2.24086 -2.50849,-3.31121 -0.98853,-1.07036 -2.12962,-2.10716 -3.39148,-3.07039 -1.26185,-0.96324 -2.64742,-1.86955 -4.134,-2.68911 -1.48659,-0.81956 -3.07331,-1.54807 -4.73602,-2.1874 -1.66272,-0.63933 -3.38728,-1.18289 -5.17752,-1.60544 -1.79029,-0.42253 -3.62946,-0.73386 -5.49862,-0.90305 -0.92067,-0.0833 -1.89153,-0.25572 -2.86969,-0.5017 -0.97822,-0.24598 -1.96659,-0.56074 -2.99013,-0.94319 -2.04715,-0.76489 -4.1861,-1.77625 -6.34146,-2.92992 -2.15542,-1.15367 -4.33572,-2.43976 -6.50205,-3.77277 -2.16627,-1.33301 -4.30173,-2.71067 -6.3816,-4.01358 -2.07988,-1.30291 -4.10422,-2.52878 -6.00028,-3.59216 -0.13631,-0.0764 -0.24627,-0.106 -0.38133,-0.18061 9.50919,2.33919 22.43271,10.09673 32.34952,11.47885 15.15923,2.11276 34.72083,10.55174 32.02841,30.52331 -0.009,0.0652 -0.004,0.15392 0,0.22075 z"
     id="path16189"
     inkscape:connector-curvature="0" />
  <path
     style="fill:#ffffff;stroke:#000000;stroke-width:0.54545498000000003;fill-opacity:1"
     inkscape:connector-curvature="0"
     id="path16037"
     d="m 414.47714,209.33598 c 0,-3.50081 2.84755,-6.34828 6.34883,-6.34828 3.51856,0 6.36622,2.84747 6.36622,6.34828 0,3.51928 -2.84766,6.36676 -6.36622,6.36676 -3.50128,0 -6.34883,-2.84748 -6.34883,-6.36676" />
  <path
     style="fill:#ffffff;stroke:#000000;stroke-width:0.54545498000000003;fill-opacity:1"
     inkscape:connector-curvature="0"
     id="path16041"
     d="m 350.90196,198.04181 c 0,-3.50081 2.84755,-6.34828 6.34883,-6.34828 3.51856,0 6.36622,2.84747 6.36622,6.34828 0,3.51927 -2.84766,6.36676 -6.36622,6.36676 -3.50128,0 -6.34883,-2.84749 -6.34883,-6.36676" />
  <path
     inkscape:connector-curvature="0"
     id="path16095"
     style="fill:#ffffff;stroke:#000000;stroke-width:0.65454601999999995;fill-opacity:1"
     d="m 346.99645,241.27861 c 0,-1.7985 1.54528,-3.26136 3.44509,-3.26136 1.90937,0 3.45459,1.46286 3.45459,3.26136 0,1.79533 -1.54522,3.27086 -3.45459,3.27086 -1.89981,0 -3.44509,-1.47553 -3.44509,-3.27086" />
  <path
     inkscape:connector-curvature="0"
     id="path16097"
     style="fill:#ffffff;stroke:#000000;stroke-width:0.65454601999999995;fill-opacity:1"
     d="m 398.39069,242.97857 c 0,-1.7985 1.54522,-3.26136 3.44188,-3.26136 1.91253,0 3.45458,1.46286 3.45458,3.26136 0,1.80799 -1.54205,3.27086 -3.45458,3.27086 -1.89666,0 -3.44188,-1.46287 -3.44188,-3.27086" />
  <path
     style="fill:#ffffff;stroke:#000000;stroke-width:0.54545498000000003;fill-opacity:1"
     inkscape:connector-curvature="0"
     id="path16125"
     d="m 338.51457,114.27273 c -0.006,2.59844 2.09395,4.71463 4.69244,4.72097 2.59844,0.006 4.71459,-2.09081 4.72091,-4.69242 0.003,-0.009 0.003,-0.019 0,-0.0285 0.01,-2.60161 -2.09078,-4.71463 -4.69238,-4.72415 -2.59844,-0.006 -4.71464,2.09398 -4.72419,4.69244 0.003,0.0127 0.003,0.0222 0.003,0.0317 z" />
  <path
     style="fill:#ffffff;stroke:#000000;stroke-width:0.54545498000000003;fill-opacity:1"
     inkscape:connector-curvature="0"
     id="path16127"
     d="m 352.2488,116.05678 c -0.01,2.85226 2.29702,5.17467 5.14926,5.18102 2.85229,0.01 5.17468,-2.29704 5.18422,-5.14929 0,-0.0127 0,-0.0222 0,-0.0318 0.006,-2.85542 -2.29707,-5.17467 -5.14931,-5.18419 -2.85546,-0.009 -5.17468,2.29704 -5.18417,5.14929 0,0.0127 0,0.0222 0,0.0349 z" />
  <path
     style="fill:#ffffff;stroke:#000000;stroke-width:0.54545498000000003;fill-opacity:1"
     inkscape:connector-curvature="0"
     id="path16129"
     d="m 367.72881,119.69209 c -0.01,3.27741 2.63962,5.93929 5.91705,5.952 3.27736,0.009 5.94245,-2.63651 5.95195,-5.91392 0,-0.0127 0,-0.0254 0,-0.0381 0.01,-3.27739 -2.63962,-5.94245 -5.91705,-5.95198 -3.27736,-0.009 -5.94246,2.63652 -5.95195,5.91709 0,0.01 0,0.0222 0,0.0349 z" />
  <path
     style="fill:#ffffff;stroke:#000000;stroke-width:0.54545498000000003;fill-opacity:1"
     inkscape:connector-curvature="0"
     id="path16131"
     d="m 385.39796,124.31432 c -0.01,3.61688 2.91251,6.55798 6.52942,6.57066 3.61686,0.0127 6.55795,-2.90935 6.57066,-6.52941 0,-0.0127 0,-0.0254 0,-0.0412 0.009,-3.61687 -2.9094,-6.55796 -6.52942,-6.57066 -3.61686,-0.009 -6.55795,2.91254 -6.57066,6.52942 0,0.0127 0,0.0286 0,0.0412 z" />
  <path
     style="fill:#ffffff;stroke:#000000;stroke-width:0.54545498000000003;fill-opacity:1"
     inkscape:connector-curvature="0"
     id="path16133"
     d="m 406.7223,127.95282 c -0.0128,4.04201 3.25195,7.32893 7.29399,7.34162 4.04204,0.0127 7.3289,-3.25202 7.34166,-7.29403 0,-0.0127 0,-0.0286 0,-0.0444 0.0126,-4.04203 -3.25206,-7.32894 -7.2941,-7.34164 -4.04204,-0.0127 -7.32895,3.25202 -7.34155,7.29404 0,0.0127 0,0.0285 0,0.0444 z" />
  <path
     style="fill:#ffffff;stroke:#000000;stroke-width:0.54545498000000003;fill-opacity:1"
     inkscape:connector-curvature="0"
     id="path16135"
     d="m 429.04472,134.51455 c -0.0127,4.3815 3.52806,7.94762 7.90959,7.96031 4.38464,0.0127 7.9476,-3.52804 7.96026,-7.90955 0,-0.0159 0,-0.0349 0,-0.0508 0.0127,-4.3815 -3.528,-7.94762 -7.90953,-7.9603 -4.38148,-0.0127 -7.94445,3.52804 -7.96032,7.90954 0,0.0159 0,0.0349 0,0.0508 z" />
  <path
     style="fill:#ffffff;stroke:#000000;stroke-width:0.54545498000000003;fill-opacity:1"
     inkscape:connector-curvature="0"
     id="path16137"
     d="m 446.6495,147.00983 c -0.0127,4.38151 3.528,7.94762 7.90948,7.9603 4.38153,0.0127 7.9476,-3.52803 7.96037,-7.90954 0,-0.0159 0,-0.0317 0,-0.0507 0.0127,-4.3815 -3.52806,-7.94761 -7.90954,-7.9603 -4.38147,-0.0127 -7.94449,3.52804 -7.96031,7.90954 0,0.0159 0,0.0349 0,0.0508 z" />
  <path
     style="fill:#ffffff;stroke:#000000;stroke-width:0.54545498000000003;fill-opacity:1"
     inkscape:connector-curvature="0"
     id="path16139"
     d="m 456.04763,169.63376 c -0.0159,4.72097 3.8009,8.56312 8.52181,8.57581 4.72102,0.0159 8.56315,-3.80089 8.57586,-8.52188 0,-0.0159 0,-0.0349 0,-0.0539 0.0159,-4.72415 -3.80089,-8.56311 -8.52191,-8.57898 -4.72092,-0.0159 -8.5631,3.80089 -8.57576,8.52187 0,0.019 0,0.0381 0,0.0571 z" />
  <path
     style="fill:#ffffff;stroke:#000000;stroke-width:0.54545498000000003;fill-opacity:1"
     inkscape:connector-curvature="0"
     id="path16141"
     d="m 334.8765,112.30771 c 0.008,2.30368 -1.85368,4.17983 -4.16008,4.18826 -2.30646,0.008 -4.17971,-1.85364 -4.18822,-4.16014 0,-0.008 0,-0.0169 0,-0.0281 -0.006,-2.30371 1.85645,-4.17985 4.16007,-4.18548 2.30368,-0.006 4.17977,1.85365 4.18539,4.16014 0.003,0.008 0.003,0.0169 0.003,0.0253 z" />
  <path
     style="fill:#ffffff;stroke:#000000;stroke-width:0.54545498000000003;fill-opacity:1"
     inkscape:connector-curvature="0"
     id="path16191"
     d="m 344.6517,121.69942 c -0.006,2.59844 2.09395,4.71464 4.69244,4.72415 2.59844,0.006 4.71459,-2.09398 4.72414,-4.69242 0,-0.01 0,-0.019 0,-0.0286 0.006,-2.59844 -2.09401,-4.71463 -4.69244,-4.72098 -2.59839,-0.009 -4.71465,2.09081 -4.72414,4.69243 0,0.003 0,0.0159 0,0.0254 z" />
  <path
     style="fill:#ffffff;stroke:#000000;stroke-width:0.54545498000000003;fill-opacity:1"
     inkscape:connector-curvature="0"
     id="path16193"
     d="m 357.08426,127.33285 c -0.009,3.2774 2.63651,5.94246 5.91388,5.95199 3.27742,0.009 5.94251,-2.63652 5.952,-5.91392 0,-0.0127 0,-0.0254 0,-0.0381 0.009,-3.27739 -2.63651,-5.94246 -5.91704,-5.95198 -3.27742,-0.01 -5.94251,2.63651 -5.952,5.91708 0.003,0.009 0.003,0.0222 0.003,0.0349 z" />
  <path
     style="fill:#ffffff;stroke:#000000;stroke-width:0.54545498000000003;fill-opacity:1"
     inkscape:connector-curvature="0"
     id="path16195"
     d="m 373.18445,130.94651 c -0.009,3.27739 2.63657,5.94246 5.9171,5.95198 3.27742,0.01 5.94251,-2.63651 5.95201,-5.91391 0,-0.0127 0,-0.0254 0,-0.0381 0.009,-3.27741 -2.63652,-5.94247 -5.91394,-5.95199 -3.27736,-0.009 -5.94246,2.63968 -5.95195,5.91708 -0.003,0.01 -0.003,0.0222 -0.003,0.0349 z" />
  <path
     style="fill:#ffffff;stroke:#000000;stroke-width:0.54545498000000003;fill-opacity:1"
     inkscape:connector-curvature="0"
     id="path16197"
     d="m 388.09185,139.4911 c -0.0123,3.90093 3.13849,7.07311 7.03937,7.08536 3.90087,0.0123 7.07313,-3.1385 7.0853,-7.03943 0,-0.0153 0,-0.0275 0,-0.0429 0.0123,-3.90093 -3.1415,-7.0731 -7.04237,-7.08535 -3.90099,-0.0123 -7.07308,3.13849 -7.08536,7.03942 0.003,0.0123 0.003,0.0275 0.003,0.0429 z" />
  <path
     style="fill:#ffffff;stroke:#000000;stroke-width:0.54545498000000003;fill-opacity:1"
     inkscape:connector-curvature="0"
     id="path16199"
     d="m 395.39953,156.71745 c -0.0127,4.72098 3.80089,8.56312 8.52191,8.5758 4.72414,0.0159 8.5631,-3.80089 8.57897,-8.52187 0,-0.0159 0,-0.0349 0,-0.0539 0.0127,-4.72414 -3.80089,-8.56311 -8.52191,-8.57897 -4.72413,-0.0127 -8.5631,3.80089 -8.57897,8.52187 0,0.0222 0,0.0381 0,0.0571 z" />
  <path
     style="fill:#ffffff;stroke:#000000;stroke-width:0.54545498000000003;fill-opacity:1"
     inkscape:connector-curvature="0"
     id="path16201"
     d="m 333.19764,116.45677 c -0.005,2.12652 1.71366,3.85837 3.84006,3.86616 2.12645,0.005 3.85816,-1.71368 3.86602,-3.84019 0,-0.008 0,-0.0156 0,-0.0234 0.005,-2.12651 -1.71366,-3.85837 -3.84006,-3.86356 -2.12646,-0.008 -3.85822,1.71108 -3.86602,3.8402 0,0.003 0,0.013 0,0.0208 z" />
  <path
     style="fill:#ffffff;stroke:#000000;stroke-width:0.54545498000000003;stroke-opacity:1;fill-opacity:1"
     d="m 402.1125,158.74685 c -0.58359,0.039 -2.94284,0.83736 -5.23953,1.77264 -2.67453,1.08914 -5.04868,4.22912 -5.04868,4.22912 0,0 -2.19355,-0.8123 -3.6569,-1.07365 -1.4634,-0.26135 -3.83231,-0.26387 -3.83231,-0.26387 0,0 -0.64003,1.45077 -0.40925,3.57733 0.23072,2.12655 0.0734,3.50687 0.57005,3.75222 0,0 -1.02813,0.17972 -2.27493,0.38437 -1.24674,0.20464 -1.92316,1.10325 -1.92316,1.10325 0,0 2.54455,2.59197 3.93551,3.12525 1.39097,0.5333 1.69871,0.59047 2.92713,1.09472 1.22836,0.50425 1.29616,2.53614 1.29616,2.53614 0,0 -1.18265,-0.18655 -2.44723,-0.55483 -1.26459,-0.36828 -0.85479,-1.50151 -2.82819,-2.82655 -1.97334,-1.32505 -7.02835,-1.25522 -7.02835,-1.25522 0,0 -0.0161,2.24112 1.33806,4.19219 1.35414,1.95107 3.59247,1.92008 3.59247,1.92008 l 0.23384,1.84175 c 0,0 -2.32457,0.30517 -3.48208,-0.82374 -1.13771,-1.10965 -1.25809,-2.63814 -3.82036,-2.95329 -2.67835,-0.32945 -3.34473,1.7386 -5.04372,3.00197 -1.69903,1.26338 -4.30075,2.02442 -4.30075,2.02442 0,0 1.70564,2.10406 2.85541,3.85757 1.38272,2.10874 1.641,3.2706 3.42949,3.59002 1.7886,0.31942 4.65693,-1.62436 4.65693,-1.62436 l 1.58106,0.33283 -0.89297,1.99378 c 0,0 -1.12282,-0.0436 -3.43604,0.96764 -2.31311,1.01124 -3.09474,5.80609 -3.09474,5.80609 0,0 4.98649,1.27774 7.2936,-0.0432 2.37709,-1.36099 2.84619,-3.6636 2.84619,-3.6636 l 2.28338,-0.26509 -0.42366,2.34674 c 0,0 -2.63591,0.89956 -3.79309,2.68701 -1.15729,1.78743 -0.86433,2.41895 -1.25885,4.04803 -0.30104,1.24304 -2.05632,2.96355 -2.05632,2.96355 0,0 7.36654,0.14039 10.52887,-0.86163 8.74577,-3.91173 2.76251,-4.456 8.60308,1.53644 2.36591,1.98933 9.13511,4.37348 9.13511,4.37348 0,0 -0.72141,-2.16283 -0.36327,-3.39567 0.46937,-1.61572 1.05671,-2.09001 0.91315,-4.10976 -0.14357,-2.01976 -2.08299,-3.73646 -2.08299,-3.73646 l 0.80771,-2.27814 1.94128,1.01959 c 1.1e-4,0 -0.74378,2.25355 0.72562,4.3015 1.4262,1.98767 6.60949,2.52618 6.60949,2.52618 0,0 1.72664,-4.62607 0.13751,-6.33424 -1.58913,-1.70818 -2.6322,-2.05138 -2.6322,-2.05138 l 0.2016,-2.11725 1.60669,0.23648 c 0,0 1.63909,2.74878 3.42764,3.0682 1.78855,0.31943 2.59479,-0.65233 4.92388,-2.09817 1.93675,-1.20227 4.557,-2.53377 4.557,-2.53377 0,0 -1.97869,-1.57906 -2.88125,-3.30706 -0.90257,-1.72799 -0.45731,-3.83552 -3.05995,-4.44924 -2.48984,-0.5871 -3.37626,0.76157 -4.97472,1.38255 -1.62627,0.63177 -3.56547,-0.4349 -3.56547,-0.4349 l 1.12958,-1.59824 c 0,0 2.01938,0.7914 4.24239,-0.52084 2.22294,-1.31222 3.34751,-3.35537 3.34751,-3.35537 0,1e-5 -4.56061,-1.7871 -7.02841,-1.25521 -2.46774,0.53189 -2.6712,1.70197 -4.00811,1.60563 -1.33702,-0.0963 -2.50718,-0.33001 -2.50718,-0.33001 0,1e-5 1.09451,-1.8243 2.46769,-1.86393 1.37313,-0.0397 1.68213,0.0133 3.21786,0.003 1.53578,-0.0106 5.16682,-1.49965 5.16682,-1.49965 0,0 -0.15818,-1.04766 -1.18778,-1.65883 -1.02955,-0.6112 -1.87299,-1.12515 -1.87299,-1.12515 0.57622,-0.0537 1.13482,-1.36242 2.42564,-3.21723 1.29077,-1.85481 1.44622,-3.39213 1.44622,-3.39213 0,-1e-5 -2.15509,-0.80545 -3.61849,-1.0668 -1.4634,-0.26135 -3.87072,-0.27072 -3.87072,-0.27072 0,-1e-5 -0.56247,-3.66443 -2.44058,-5.56665 -1.25275,-1.16238 -2.45847,-2.60564 -4.0164,-3.42568 z"
     id="path16217"
     inkscape:connector-curvature="0" />
  <path
     style="fill:none;stroke:#000000;stroke-width:0.54545498;stroke-linecap:round"
     inkscape:connector-curvature="0"
     id="path16061"
     d="m 450.08745,211.89073 c 0,0 -1.56961,1.57657 -2.45597,2.14047 -0.88631,0.5639 -3.40086,1.42813 -3.40086,1.42813" />
  <path
     style="fill:none;stroke:#000000;stroke-width:0.54545498;stroke-linecap:round"
     inkscape:connector-curvature="0"
     id="path16063"
     d="m 448.84005,205.92381 c -2.49863,-0.74673 -4.97019,-0.44115 -7.35776,0.0224" />
  <path
     style="fill:none;stroke:#000000;stroke-width:0.54545498;stroke-linecap:round"
     inkscape:connector-curvature="0"
     id="path16065"
     d="m 450.20385,202.51657 c -2.2055,-1.34507 -5.02572,-2.47886 -8.66739,-3.33032" />
  <path
     style="fill:none;stroke:#000000;stroke-width:0.54545498;stroke-linecap:round"
     inkscape:connector-curvature="0"
     id="path16067"
     d="m 452.78068,199.03812 c 0,0 -0.7446,-1.64549 -1.81325,-2.40176 -1.0686,-0.75628 -1.48653,-1.90906 -1.48653,-1.90906" />
  <path
     style="fill:none;stroke:#000000;stroke-width:0.54545498;stroke-linecap:round"
     inkscape:connector-curvature="0"
     id="path16069"
     d="m 459.02025,195.85656 c 0,0 0.22468,-0.61352 -0.18507,-2.70208 -0.39715,-2.02419 -1.55695,-3.44056 -1.55695,-3.44056" />
  <path
     style="fill:none;stroke:#000000;stroke-width:0.54545498;stroke-linecap:round"
     inkscape:connector-curvature="0"
     id="path16219"
     d="m 388.72305,196.72094 c 0,0 -1.18211,1.79282 -1.93004,2.48439 -0.74804,0.69156 -3.05127,1.93051 -3.05127,1.93051" />
  <path
     style="fill:none;stroke:#000000;stroke-width:0.54545498;stroke-linecap:round"
     inkscape:connector-curvature="0"
     id="path16221"
     d="m 386.00439,191.04877 c -2.68434,-0.34705 -5.08233,0.3361 -7.35726,1.16149" />
  <path
     style="fill:none;stroke:#000000;stroke-width:0.54545498;stroke-linecap:round"
     inkscape:connector-curvature="0"
     id="path16223"
     d="m 386.52945,187.48832 c -2.53839,-0.98062 -5.63995,-1.65834 -9.49397,-1.93132" />
  <path
     style="fill:none;stroke:#000000;stroke-width:0.54545498;stroke-linecap:round"
     inkscape:connector-curvature="0"
     id="path16225"
     d="m 388.25085,183.67 c 0,0 -1.15058,-1.50216 -2.40633,-2.08006 -1.2558,-0.5779 -1.95802,-1.64635 -1.95802,-1.64635" />
  <path
     style="fill:none;stroke:#000000;stroke-width:0.54545498;stroke-linecap:round"
     inkscape:connector-curvature="0"
     id="path16227"
     d="m 396.47697,179.2452 c -0.1193,-0.61069 2.39678,-9.00221 2.39678,-9.00221" />
  <path
     style="fill:none;stroke:#000000;stroke-width:0.54545498;stroke-linecap:round"
     inkscape:connector-curvature="0"
     id="path16229"
     d="m 393.71058,179.5763 c 0,0 0.0737,-0.63788 -0.85102,-2.62743 -0.89623,-1.92824 -2.40589,-3.14088 -2.40589,-3.14088" />
  <path
     style="fill:none;stroke:#000000;stroke-width:0.54545498;stroke-linecap:round"
     inkscape:connector-curvature="0"
     id="path16231"
     d="m 394.91298,197.82641 c 0,0 0.16347,2.03313 0.492,2.91696 0.32853,0.88381 1.79297,2.79565 1.79297,2.79565" />
  <path
     style="fill:none;stroke:#000000;stroke-width:0.54545498;stroke-linecap:round"
     inkscape:connector-curvature="0"
     id="path16233"
     d="m 400.26804,193.59615 c 2.61704,0.59975 4.45015,2.03853 6.09901,3.56467" />
  <path
     style="fill:none;stroke:#000000;stroke-width:0.54545498;stroke-linecap:round"
     inkscape:connector-curvature="0"
     id="path16235"
     d="m 401.60048,190.17989 c 2.80642,-0.0261 5.97093,0.41529 9.61381,1.4812" />
  <path
     style="fill:none;stroke:#000000;stroke-width:0.54545498;stroke-linecap:round"
     inkscape:connector-curvature="0"
     id="path16237"
     d="m 401.97624,186.12125 c 0,0 1.80977,-0.97345 3.2453,-1.07072 1.43542,-0.0973 2.61709,-0.82925 2.61709,-0.82925" />
  <path
     style="fill:none;stroke:#000000;stroke-width:0.54545498;stroke-linecap:round"
     inkscape:connector-curvature="0"
     id="path16239"
     d="m 399.09308,180.53757 c 0,0 0.25723,-0.6051 2.10933,-2.09873 1.79498,-1.44759 3.78398,-2.03541 3.78398,-2.03541" />
  <path
     style="fill:#ffffff;stroke:#000000;stroke-width:0.54545498000000003;fill-opacity:1"
     d="m 386.79187,187.76257 c 1.40945,-5.29406 5.82589,-8.97931 9.86722,-8.25756 4.04139,0.72176 6.19724,5.58077 4.78773,10.87483 -1.41082,5.29876 -5.83091,8.99808 -9.88588,8.2739 -4.04138,-0.72176 -6.17984,-5.59242 -4.76907,-10.89117"
     id="path16241"
     inkscape:connector-curvature="0" />
  <path
     d="m 389.09025,188.17558 c 1.04695,-3.93215 4.14191,-6.70248 6.91522,-6.20718 2.77337,0.49529 4.18855,4.07111 3.14161,8.00326 -1.04782,3.93565 -4.14563,6.71644 -6.92832,6.21947 -2.77326,-0.49529 -4.17633,-4.07989 -3.12851,-8.01555"
     style="fill:#000000;stroke:#000000;stroke-width:0.54545498000000003;fill-opacity:1"
     id="path16243"
     inkscape:connector-curvature="0" />
  <path
     style="fill:#ffffff;stroke:#000000;stroke-width:0.54545498000000003;fill-opacity:1"
     d="m 317.67863,118.0069 c -2.36466,1.12518 -4.20344,2.80303 -4.79619,4.88288 -0.68007,3.17711 -1.1088,6.80464 -1.18407,10.65797 -0.0116,0.40061 0.0201,0.79057 0.0201,1.18422 0,0.4562 -0.10892,0.94586 -0.12043,1.41133 -0.19397,8.08406 -1.62339,15.22669 -3.69251,19.5964 l 15.59275,11.80975 15.43229,-11.80975 c -2.05751,-4.36971 -3.49877,-11.51235 -3.67249,-19.5964 -0.009,-0.46546 -0.12595,-0.95512 -0.1404,-1.41133 0,-0.39367 0.0488,-0.78362 0.0401,-1.18422 -0.0955,-3.85331 -0.50684,-7.48087 -1.18402,-10.65797 -0.60677,-2.10493 -2.43666,-3.80867 -4.79619,-4.93155 0.16189,1.4222 0.36938,2.78369 0.40135,4.36377 0.004,0.25712 -0.0201,0.50978 -0.0201,0.76244 0.008,0.29281 0.0556,17.74032 0.0602,18.03907 0.0454,2.59434 0.26673,5.04207 0.60202,7.18643 0.33524,2.14436 0.78546,3.98343 1.32448,5.38577 l -8.08741,7.59198 -8.16759,-7.59198 c 0.54202,-1.40233 1.00866,-3.24142 1.34449,-5.38577 0.33589,-2.14435 0.53117,-4.59209 0.582,-7.18643 0.006,-0.29874 0.0803,-17.74626 0.0803,-18.03907 -5e-5,-0.25266 -0.0262,-0.50532 -0.0201,-0.76244 0.0249,-1.56283 0.24164,-2.90636 0.40135,-4.3151 z"
     id="path16203"
     inkscape:connector-curvature="0" />
  <path
     style="fill:#ffffff;stroke:#000000;stroke-width:0.54545498000000003;fill-opacity:1"
     d="m 323.40203,249.07194 c -9.02193,0 -16.30032,-3.39859 -16.30032,-7.58689 0,-4.18831 7.27839,-7.601 16.30032,-7.601 9.03001,0 16.33234,3.39859 16.33234,7.601 0,4.1883 -7.30233,7.58689 -16.33234,7.58689"
     id="path16079"
     inkscape:connector-curvature="0" />
  <path
     d="m 323.40618,246.68926 c -6.70108,0 -12.10709,-2.33224 -12.10709,-5.20642 0,-2.87418 5.40601,-5.2161 12.10709,-5.2161 6.70702,0 12.13086,2.33225 12.13086,5.2161 0,2.87418 -5.42384,5.20642 -12.13086,5.20642"
     style="fill:#000000;stroke:#000000;stroke-width:0.54545498000000003;fill-opacity:1"
     id="path16081"
     inkscape:connector-curvature="0" />
  <path
     style="fill:#ffffff;stroke:#000000;stroke-width:0.54545498000000003;fill-opacity:1"
     d="m 317.67863,118.0069 c -0.15971,1.40874 -0.37648,2.75227 -0.40135,4.3151 -0.006,0.25712 0.02,0.50978 0.0201,0.76244 0,0.29281 -0.0743,17.74033 -0.0803,18.03907 -0.0508,2.59434 -0.24611,5.04208 -0.582,7.18643 -0.33583,2.14435 -0.80247,3.98344 -1.34449,5.38577 l 8.16759,7.59198 8.08741,-7.59198 c -0.53902,-1.40234 -0.98924,-3.24141 -1.32448,-5.38577 -0.33529,-2.14436 -0.55658,-4.59209 -0.60202,-7.18643 -0.004,-0.29875 -0.0527,-17.74626 -0.0602,-18.03907 0,-0.25266 0.0247,-0.50532 0.0201,-0.76244 -0.032,-1.58008 -0.23946,-2.94157 -0.40135,-4.36377 -1.6692,-0.79434 -3.561,-1.33022 -5.65915,-1.33022 l -0.0201,0 c -2.12989,0 -4.09822,0.55976 -5.81967,1.37889 z"
     id="path16205"
     inkscape:connector-curvature="0" />
  <g
     style="fill:#ffffff;stroke:#000000;stroke-width:1;fill-opacity:1"
     id="Center-pearls"
     transform="matrix(0.545455,0,0,0.545455,55.36587,-211.9962)">
    <path
       d="m 483.77602,596.15032 c -0.0102,4.21055 3.3983,7.63968 7.6268,7.65509 4.2284,0.0103 7.6628,-3.38797 7.6783,-7.60369 0,-0.0154 0,-0.0308 0,-0.0514 0.0103,-4.2106 -3.3983,-7.63972 -7.6268,-7.64999 -4.2233,-0.0103 -7.6628,3.388 -7.6731,7.60369 -0.005,0.0154 -0.005,0.0308 -0.005,0.0463 z"
       id="path16207"
       inkscape:connector-curvature="0"
       style="fill:#ffffff;fill-opacity:1" />
    <path
       d="m 500.06042,609.37189 c 0.0174,4.76381 -3.839,8.64349 -8.6028,8.66095 -4.7637,0.0116 -8.6435,-3.83896 -8.6609,-8.60276 0,-0.0175 0,-0.0349 0,-0.0524 -0.0117,-4.7638 3.839,-8.64348 8.6028,-8.65513 4.7638,-0.0174 8.6435,3.83316 8.6609,8.60277 0,0.0116 0,0.0291 0,0.0465 z"
       id="path16209"
       inkscape:connector-curvature="0"
       style="fill:#ffffff;fill-opacity:1" />
    <path
       d="m 501.80252,621.88924 c 0.0116,5.72938 -4.6242,10.38266 -10.3478,10.3943 -5.7293,0.0116 -10.3826,-4.62421 -10.4001,-10.34776 0,-0.0116 0,-0.0291 0,-0.0465 -0.0116,-5.72935 4.6243,-10.38263 10.3536,-10.40009 5.7294,-0.0117 10.3826,4.6242 10.3943,10.35358 0,0.0116 0,0.0291 0,0.0465 z"
       id="path16211"
       inkscape:connector-curvature="0"
       style="fill:#ffffff;fill-opacity:1" />
    <path
       d="m 503.87332,637.95473 c 0.0115,6.86942 -5.5433,12.45337 -12.4186,12.4708 -6.8694,0.0116 -12.4533,-5.54322 -12.4707,-12.41846 0,-0.0174 0,-0.0349 0,-0.0523 -0.0117,-6.86942 5.5431,-12.45337 12.4184,-12.47081 6.8694,-0.0116 12.4533,5.54322 12.4709,12.41846 0,0.0174 0,0.0349 0,0.0524 z"
       id="path16213"
       inkscape:connector-curvature="0"
       style="fill:#ffffff;fill-opacity:1" />
    <path
       d="m 505.75202,655.85245 c 0.0175,7.91058 -6.3808,14.33794 -14.2914,14.35538 -7.9106,0.0175 -14.3322,-6.38081 -14.3554,-14.29141 0,-0.0174 0,-0.0407 0,-0.064 -0.0175,-7.9106 6.3808,-14.33796 14.2913,-14.35539 7.9107,-0.0175 14.338,6.38082 14.3555,14.29139 0,0.0233 0,0.0407 0,0.064 z"
       id="path16215"
       inkscape:connector-curvature="0"
       style="fill:#ffffff;fill-opacity:1" />
  </g>
  <path
     style="fill:#ffffff;stroke:#000000;stroke-width:0.54545498000000003;stroke-opacity:1;fill-opacity:1"
     d="m 323.33778,152.11341 c -0.5718,0.13993 -2.71331,1.33163 -4.7561,2.6462 -2.37884,1.53082 -3.91326,5.01297 -3.91326,5.01298 0,0 -2.40403,-0.4109 -3.93333,-0.4109 -1.52923,0 -3.89313,0.41089 -3.89313,0.4109 0,0 -0.25325,1.52915 0.54186,3.56661 0.795,2.03747 1.00467,3.41356 1.56529,3.56662 0,0 -0.97795,0.35499 -2.16737,0.77249 -1.1894,0.41749 -1.62551,1.41349 -1.62551,1.41349 0,0 3.22686,2.08846 4.75615,2.36679 1.52919,0.27833 1.8515,0.28049 3.21088,0.55882 1.35927,0.27833 1.96658,2.25174 1.96664,2.25173 0,0 -1.22946,0.0241 -2.58879,-0.11505 -1.35938,-0.13916 -1.25154,-1.31788 -3.57213,-2.26817 -2.32053,-0.95028 -7.34484,0 -7.34484,0 0,0 0.57918,2.19247 2.44829,3.86246 1.86911,1.67 4.09386,1.24914 4.09386,1.24914 l 0.72246,1.75865 c 0,0 -2.23795,0.7038 -3.69252,-0.19723 -1.42973,-0.88564 -1.9558,-2.35803 -4.59552,-2.21886 -2.75948,0.14548 -2.87501,2.28232 -4.23436,3.81315 -1.35936,1.53083 -3.75267,2.72838 -3.75267,2.72838 0,0 2.26032,1.75814 3.87308,3.27076 1.93949,1.81906 2.50569,2.90918 4.3748,2.90917 1.86911,0 4.21427,-2.39965 4.21427,-2.39965 l 1.66568,0.0493 -0.36123,2.10381 c 0,0 -1.13177,0.15332 -3.17074,1.54499 -2.03903,1.39165 -1.54526,6.2128 -1.54526,6.2128 0,0 5.31385,0.3783 7.26461,-1.31488 2.00984,-1.74452 1.86633,-4.07614 1.86633,-4.07613 l 2.20746,-0.65744 0.20067,2.36679 c 0,0 -2.39073,1.33886 -3.07042,3.2872 -0.67964,1.94832 -0.21966,2.51422 -0.18055,4.17475 0.0298,1.26703 -1.26431,3.25432 -1.26431,3.25432 0,0 7.38612,-1.14824 10.27474,-2.67907 7.68579,-5.34799 1.57233,-4.83573 8.99046,0 2.88862,1.53083 10.27479,2.67907 10.27479,2.67907 0,0 -1.29414,-1.98729 -1.26425,-3.25432 0.039,-1.66053 0.49903,-2.22643 -0.18066,-4.17475 -0.67969,-1.94834 -3.07036,-3.2872 -3.07036,-3.2872 l 0.20067,-2.36679 2.20745,0.65744 c 0,-1e-5 -0.14356,2.33161 1.86633,4.07613 1.95071,1.69318 7.26459,1.31488 7.26459,1.31488 0,0 0.49375,-4.82115 -1.54522,-6.2128 -2.03902,-1.39167 -3.17073,-1.54499 -3.17073,-1.54499 l -0.3612,-2.10381 1.6656,-0.0493 c 0,0 2.36526,2.39965 4.23437,2.39965 1.869,1e-5 2.41517,-1.09011 4.35469,-2.90917 1.61275,-1.51262 3.87312,-3.27076 3.87312,-3.27076 -6e-5,0 -2.39335,-1.19755 -3.75273,-2.72838 -1.35933,-1.53083 -1.47486,-3.66767 -4.23426,-3.81315 -2.63979,-0.13917 -3.16588,1.33322 -4.59562,2.21886 -1.45457,0.90103 -3.67239,0.19723 -3.67239,0.19723 l 0.70233,-1.75865 c 0,0 2.22475,0.42086 4.09386,-1.24914 1.86911,-1.66999 2.44827,-3.86246 2.44827,-3.86246 0,0 -5.02429,-0.95028 -7.34482,0 -2.32059,0.95029 -2.21275,2.12901 -3.57208,2.26817 -1.35938,0.13917 -2.58873,0.11505 -2.58873,0.11505 -1.1e-4,1e-5 0.60726,-1.9734 1.96664,-2.25173 1.35933,-0.27833 1.68158,-0.28049 3.21088,-0.55882 1.52918,-0.27833 4.75604,-2.36679 4.75604,-2.36679 0,0 -0.43609,-0.996 -1.62546,-1.41349 -1.18942,-0.4175 -2.16736,-0.77249 -2.16736,-0.77249 0.56056,-0.15306 0.77023,-1.52915 1.56534,-3.56662 0.795,-2.03746 0.5418,-3.56661 0.5418,-3.56661 0,-1e-5 -2.36394,-0.4109 -3.89318,-0.4109 -1.52929,0 -3.93333,0.4109 -3.93333,0.4109 0,-1e-5 -1.53442,-3.48216 -3.91321,-5.01298 -1.55847,-0.9171 -3.14465,-2.11683 -4.91667,-2.6462 z"
     id="path16245"
     inkscape:connector-curvature="0" />
  <path
     style="fill:none;stroke:#000000;stroke-width:0.54545498;stroke-linecap:round"
     inkscape:connector-curvature="0"
     id="path16247"
     d="m 320.06652,191.55202 c 0,0 -0.70309,1.95792 -1.26557,2.76413 -0.56247,0.8062 -2.53118,2.41861 -2.53118,2.41861" />
  <path
     style="fill:none;stroke:#000000;stroke-width:0.54545498;stroke-linecap:round"
     inkscape:connector-curvature="0"
     id="path16249"
     d="m 315.84792,186.48444 c -2.7701,0.12933 -4.98088,1.21522 -7.03108,2.41862" />
  <path
     style="fill:none;stroke:#000000;stroke-width:0.54545498;stroke-linecap:round"
     inkscape:connector-curvature="0"
     id="path16251"
     d="m 323.16023,173.1245 c -0.28124,-0.57585 0,-9.21376 0,-9.21376" />
  <path
     style="fill:none;stroke:#000000;stroke-width:0.54545498;stroke-linecap:round"
     inkscape:connector-curvature="0"
     id="path16253"
     d="m 315.42601,182.91413 c -2.79273,-0.51516 -6.06688,-0.63613 -9.98414,-0.23036" />
  <path
     style="fill:none;stroke:#000000;stroke-width:0.54545498;stroke-linecap:round"
     inkscape:connector-curvature="0"
     id="path16255"
     d="m 316.1291,178.8831 c 0,0 -1.5468,-1.2669 -2.95304,-1.6124 -1.40618,-0.34553 -2.39051,-1.2669 -2.39051,-1.2669" />
  <path
     style="fill:none;stroke:#000000;stroke-width:0.54545498;stroke-linecap:round"
     inkscape:connector-curvature="0"
     id="path16257"
     d="m 320.48843,173.93071 c 0,0 -0.096,-0.63609 -1.54686,-2.41861 -1.40623,-1.72758 -3.23427,-2.64896 -3.23427,-2.64896" />
  <path
     style="fill:none;stroke:#000000;stroke-width:0.54545498;stroke-linecap:round"
     inkscape:connector-curvature="0"
     id="path16259"
     d="m 326.53518,191.55202 c 0,0 0.70309,1.95792 1.26556,2.76413 0.56248,0.8062 2.53119,2.41861 2.53119,2.41861" />
  <path
     style="fill:none;stroke:#000000;stroke-width:0.54545498;stroke-linecap:round"
     inkscape:connector-curvature="0"
     id="path16261"
     d="m 330.75384,186.48444 c 2.77009,0.12933 4.98082,1.21522 7.03113,2.41862" />
  <path
     style="fill:none;stroke:#000000;stroke-width:0.54545498;stroke-linecap:round"
     inkscape:connector-curvature="0"
     id="path16263"
     d="m 331.17569,182.91413 c 2.79284,-0.51516 6.06693,-0.63613 9.98412,-0.23036" />
  <path
     style="fill:none;stroke:#000000;stroke-width:0.54545498;stroke-linecap:round"
     inkscape:connector-curvature="0"
     id="path16265"
     d="m 330.4726,178.8831 c 0,0 1.54686,-1.2669 2.95304,-1.6124 1.40618,-0.34553 2.39062,-1.2669 2.39062,-1.2669" />
  <path
     style="fill:none;stroke:#000000;stroke-width:0.54545498;stroke-linecap:round"
     inkscape:connector-curvature="0"
     id="path16267"
     d="m 326.11332,173.93071 c 0,0 0.0959,-0.63609 1.54681,-2.41861 1.40623,-1.72758 3.23427,-2.64896 3.23427,-2.64896" />
  <path
     style="fill:#ffffff;stroke:#000000;stroke-width:0.54545498000000003;fill-opacity:1"
     d="m 315.76059,183.1363 c 0,-5.41846 3.42698,-9.78974 7.65033,-9.78974 4.22341,0 7.66457,4.37128 7.66457,9.78974 0,5.42327 -3.42698,9.80894 -7.66457,9.80894 -4.22335,0 -7.65033,-4.38567 -7.65033,-9.80894"
     id="path16269"
     inkscape:connector-curvature="0" />
  <path
     d="m 318.16321,183.13878 c 0,-4.02456 2.35178,-7.27134 5.24995,-7.27134 2.89822,0 5.25971,3.24678 5.25971,7.27134 0,4.02813 -2.35173,7.28561 -5.25971,7.28561 -2.89817,0 -5.24995,-3.25748 -5.24995,-7.28561"
     style="fill:#000000;stroke:#000000;stroke-width:0.54545498000000003;fill-opacity:1"
     id="path16271"
     inkscape:connector-curvature="0" />
</svg>
