<?xml version="1.0" encoding="UTF-8" standalone="no"?>
<svg
   xmlns:dc="http://purl.org/dc/elements/1.1/"
   xmlns:cc="http://creativecommons.org/ns#"
   xmlns:rdf="http://www.w3.org/1999/02/22-rdf-syntax-ns#"
   xmlns:svg="http://www.w3.org/2000/svg"
   xmlns="http://www.w3.org/2000/svg"
   xmlns:xlink="http://www.w3.org/1999/xlink"
   xmlns:sodipodi="http://sodipodi.sourceforge.net/DTD/sodipodi-0.dtd"
   xmlns:inkscape="http://www.inkscape.org/namespaces/inkscape"
   id="svg2"
   fill-rule="evenodd"
   xml:space="preserve"
   viewBox="0 0 19755.556 10365.038"
   version="1.1"
   inkscape:version="0.48.4 r9939"
   width="100%"
   height="100%"
   sodipodi:docname="OS.svg"><sodipodi:namedview
     pagecolor="#ffffff"
     bordercolor="#666666"
     borderopacity="1"
     objecttolerance="10"
     gridtolerance="10"
     guidetolerance="10"
     inkscape:pageopacity="0"
     inkscape:pageshadow="2"
     inkscape:window-width="1280"
     inkscape:window-height="1000"
     id="namedview23"
     showgrid="false"
     inkscape:zoom="0.02"
     inkscape:cx="11488.138"
     inkscape:cy="11982.46"
     inkscape:window-x="0"
     inkscape:window-y="24"
     inkscape:window-maximized="1"
     inkscape:current-layer="svg2" /><defs
     id="defs4"><style
       id="style6"
       type="text/css">
    .fil35 {fill:none}
    .fil82 {fill:black}
    .fil153 {fill:#000103}
    .fil105 {fill:#000205}
    .fil70 {fill:#000301}
    .fil102 {fill:#000308}
    .fil152 {fill:#00040A}
    .fil69 {fill:#000502}
    .fil106 {fill:#00060F}
    .fil103 {fill:#000814}
    .fil91 {fill:#000A04}
    .fil68 {fill:#000D05}
    .fil90 {fill:#001207}
    .fil67 {fill:#001408}
    .fil66 {fill:#001F0D}
    .fil92 {fill:#00210E}
    .fil65 {fill:#002610}
    .fil89 {fill:#002B12}
    .fil64 {fill:#002E13}
    .fil63 {fill:#003817}
    .fil62 {fill:#00401B}
    .fil93 {fill:#00421B}
    .fil61 {fill:#00471E}
    .fil60 {fill:#004F21}
    .fil107 {fill:#010B1A}
    .fil104 {fill:#010C1C}
    .fil108 {fill:#010E21}
    .fil151 {fill:#011129}
    .fil109 {fill:#01122B}
    .fil150 {fill:#011533}
    .fil110 {fill:#011636}
    .fil149 {fill:#011738}
    .fil111 {fill:#01193D}
    .fil148 {fill:#011A40}
    .fil112 {fill:#011D47}
    .fil147 {fill:#02214F}
    .fil113 {fill:#022252}
    .fil146 {fill:#022354}
    .fil114 {fill:#022457}
    .fil135 {fill:#022559}
    .fil145 {fill:#02265C}
    .fil39 {fill:#030000}
    .fil154 {fill:#030300}
    .fil88 {fill:#030303}
    .fil59 {fill:#035726}
    .fil87 {fill:#050505}
    .fil94 {fill:#055928}
    .fil115 {fill:#062A61}
    .fil86 {fill:#080808}
    .fil196 {fill:#085C2B}
    .fil58 {fill:#095E2D}
    .fil5 {fill:#0A0102}
    .fil155 {fill:#0A0901}
    .fil85 {fill:#0A0A0A}
    .fil116 {fill:#0C3169}
    .fil84 {fill:#0D0D0D}
    .fil134 {fill:#0D336B}
    .fil95 {fill:#0E6331}
    .fil83 {fill:#0F0F0F}
    .fil57 {fill:#0F6633}
    .fil144 {fill:#123870}
    .fil117 {fill:#133870}
    .fil56 {fill:#156B39}
    .fil143 {fill:#163B73}
    .fil6 {fill:#1A0304}
    .fil118 {fill:#1A4078}
    .fil156 {fill:#1C1A02}
    .fil55 {fill:#1C703F}
    .fil142 {fill:#1D427A}
    .fil96 {fill:#1F7342}
    .fil119 {fill:#234880}
    .fil54 {fill:#247847}
    .fil7 {fill:#260506}
    .fil215 {fill:#264B82}
    .fil141 {fill:#284D85}
    .fil157 {fill:#2B2803}
    .fil120 {fill:#2B5087}
    .fil97 {fill:#2B7D4D}
    .fil53 {fill:#2C7D4E}
    .fil140 {fill:#31558C}
    .fil197 {fill:#317D50}
    .fil52 {fill:#338053}
    .fil121 {fill:#34578C}
    .fil139 {fill:#35588C}
    .fil8 {fill:#360709}
    .fil133 {fill:#385A8C}
    .fil51 {fill:#388056}
    .fil71 {fill:#3B0809}
    .fil122 {fill:#3C5D8F}
    .fil158 {fill:#3D3904}
    .fil50 {fill:#3D825A}
    .fil123 {fill:#40608F}
    .fil49 {fill:#44825E}
    .fil9 {fill:#45090B}
    .fil124 {fill:#456491}
    .fil138 {fill:#486591}
    .fil98 {fill:#488561}
    .fil48 {fill:#498562}
    .fil99 {fill:#4C8564}
    .fil125 {fill:#4D6891}
    .fil47 {fill:#4E8565}
    .fil159 {fill:#4F4A05}
    .fil46 {fill:#518768}
    .fil126 {fill:#536D94}
    .fil10 {fill:#540B0D}
    .fil137 {fill:#566F94}
    .fil45 {fill:#56876B}
    .fil44 {fill:#58876C}
    .fil213 {fill:#595305}
    .fil127 {fill:#597094}
    .fil128 {fill:#5C7396}
    .fil160 {fill:#5E5806}
    .fil136 {fill:#5F7596}
    .fil43 {fill:#5F8A71}
    .fil42 {fill:#608A72}
    .fil129 {fill:#627796}
    .fil11 {fill:#630D10}
    .fil130 {fill:#637796}
    .fil41 {fill:#648A74}
    .fil40 {fill:#688C77}
    .fil131 {fill:#6A7D99}
    .fil212 {fill:#6B6406}
    .fil132 {fill:#6D7E99}
    .fil72 {fill:#6E0E11}
    .fil12 {fill:#700E12}
    .fil161 {fill:#706907}
    .fil101 {fill:#708099}
    .fil100 {fill:#74849C}
    .fil73 {fill:#781013}
    .fil211 {fill:#7D7507}
    .fil13 {fill:#801114}
    .fil162 {fill:#807808}
    .fil74 {fill:#871115}
    .fil195 {fill:#877F08}
    .fil14 {fill:#8C1216}
    .fil210 {fill:#8C8308}
    .fil38 {fill:#8F1317}
    .fil163 {fill:#918809}
    .fil75 {fill:#941317}
    .fil15 {fill:#99191D}
    .fil209 {fill:#998F09}
    .fil76 {fill:#9E1D21}
    .fil164 {fill:#9E9409}
    .fil194 {fill:#A19709}
    .fil16 {fill:#A62328}
    .fil37 {fill:#A82529}
    .fil208 {fill:#A89E0D}
    .fil165 {fill:#ADA311}
    .fil17 {fill:#B53135}
    .fil207 {fill:#B5AA17}
    .fil166 {fill:#BAAF1A}
    .fil18 {fill:#BF3B40}
    .fil206 {fill:#C2B721}
    .fil193 {fill:#C7BC25}
    .fil19 {fill:#C9464B}
    .fil167 {fill:#CCC12B}
    .fil214 {fill:#CF4C51}
    .fil192 {fill:#CFC42D}
    .fil205 {fill:#D4C933}
    .fil20 {fill:#D6565A}
    .fil168 {fill:#D6CB36}
    .fil191 {fill:#DBD03B}
    .fil77 {fill:#DE5D61}
    .fil21 {fill:#DE6266}
    .fil78 {fill:#DE686C}
    .fil22 {fill:#E06B6F}
    .fil79 {fill:#E07073}
    .fil23 {fill:#E07276}
    .fil80 {fill:#E0777A}
    .fil204 {fill:#E0D53E}
    .fil24 {fill:#E37B7E}
    .fil81 {fill:#E37F83}
    .fil25 {fill:#E38487}
    .fil169 {fill:#E3D844}
    .fil26 {fill:#E68D90}
    .fil27 {fill:#E69396}
    .fil28 {fill:#E8999B}
    .fil29 {fill:#E8A0A3}
    .fil30 {fill:#E8A2A4}
    .fil216 {fill:#E8DE4B}
    .fil36 {fill:#EBA7A9}
    .fil31 {fill:#EBABAE}
    .fil32 {fill:#EBAEB0}
    .fil33 {fill:#EBB3B5}
    .fil34 {fill:#EDB6B8}
    .fil203 {fill:#EDE24E}
    .fil170 {fill:#F0E654}
    .fil202 {fill:#F5EB58}
    .fil190 {fill:#FAF05F}
    .fil171 {fill:#FAF061}
    .fil189 {fill:#FAF067}
    .fil185 {fill:#FAF16C}
    .fil172 {fill:#FAF16E}
    .fil201 {fill:#FAF173}
    .fil173 {fill:#FAF176}
    .fil200 {fill:#FAF27B}
    .fil174 {fill:#FAF27D}
    .fil199 {fill:#FAF282}
    .fil188 {fill:#FAF284}
    .fil175 {fill:#FAF289}
    .fil187 {fill:#FAF38E}
    .fil176 {fill:#FAF391}
    .fil177 {fill:#FAF499}
    .fil178 {fill:#FAF49E}
    .fil198 {fill:#FAF4A0}
    .fil179 {fill:#FAF4A5}
    .fil180 {fill:#FAF5AA}
    .fil186 {fill:#FCF7AE}
    .fil181 {fill:#FCF7B3}
    .fil182 {fill:#FCF7B6}
    .fil183 {fill:#FCF8BB}
    .fil184 {fill:#FCF8BD}
    .fil3 {fill:#007C33;fill-rule:nonzero}
    .fil2 {fill:#02398B;fill-rule:nonzero}
    .fil4 {fill:#DD1B23;fill-rule:nonzero}
    .fil1 {fill:#FAEC0F;fill-rule:nonzero}
    .fil0 {fill:black;fill-rule:nonzero}
  </style><radialGradient
       id="radialGradient13869"
       gradientUnits="userSpaceOnUse"
       cy="-34.906"
       cx="280.09"
       gradientTransform="matrix(68.856,0,0,77.43,-9377.2,4832.7)"
       r="102.73"><stop
         id="stop13846"
         stop-color="#fff"
         stop-opacity=".8"
         offset="0" /><stop
         id="stop13848"
         stop-color="#fff"
         stop-opacity="0"
         offset="1" /></radialGradient><linearGradient
       id="linearGradient13876"
       y2="1925.3"
       gradientUnits="userSpaceOnUse"
       x2="9762"
       gradientTransform="matrix(0.045866,0,0,0.045866,-97.745,-37.455)"
       y1="7715.6"
       x1="9762"><stop
         id="stop4077"
         stop-color="#808080"
         offset="0" /><stop
         id="stop4079"
         stop-color="#fff"
         offset="1" /></linearGradient><radialGradient
       inkscape:collect="always"
       xlink:href="#radialGradient13869"
       id="radialGradient3008"
       gradientUnits="userSpaceOnUse"
       gradientTransform="matrix(89.127206,0,0,100.22539,-10517.574,322.32139)"
       cx="280.09"
       cy="-34.906"
       r="102.73" /><linearGradient
       inkscape:collect="always"
       xlink:href="#linearGradient13876"
       id="linearGradient3011"
       gradientUnits="userSpaceOnUse"
       gradientTransform="matrix(0.045866,0,0,0.045866,-97.745,-37.455)"
       x1="9762"
       y1="7715.6"
       x2="9762"
       y2="1925.3" /></defs><path
     id="path4459"
     d="m 4082.4539,1434.8695 c -1408.4656,0 -2549.7835,1139.6811 -2549.7835,2546.9048 0,1407.4213 1141.3179,2549.8399 2549.7835,2549.8399 121.6359,0 242.4252,-8.1843 359.828,-24.8352 65.7568,1348.72 1180.2358,2423.6885 2545.8888,2423.6885 57.5725,0 115.4272,-3.3866 172.153,-7.0555 27.0929,-1.9755 54.1859,-3.6688 80.9966,-6.2088 2.8222,-0.2822 5.3621,-0.5644 8.1843,-0.8466 42.6149,-4.5155 85.5121,-9.5954 127.8448,-15.8042 42.0504,-6.4911 83.5365,-14.6754 125.0225,-23.1419 34.9951,-7.0555 69.7079,-14.3931 104.1385,-22.8597 1.6933,-0.2822 2.8222,-0.5644 4.5155,-0.8466 38.3816,-9.5954 75.9166,-21.4486 113.7339,-32.7373 38.6638,-11.571 77.6099,-23.4241 115.4271,-36.9706 29.9151,-10.4421 58.9836,-22.013 88.3343,-33.5839 8.1843,-3.1044 16.3686,-6.2088 24.5529,-9.5954 18.3442,-7.6199 36.6884,-16.0865 54.7503,-23.7064 27.9396,-12.4176 54.7503,-24.8351 82.1255,-38.0994 11.8531,-5.6444 24.2707,-10.7243 36.1239,-16.6509 14.9576,-7.6198 30.1973,-15.2397 44.8727,-23.1418 1.9755,-0.8467 3.3866,-2.2578 5.3621,-3.3867 20.6019,-11.0065 41.2038,-22.013 61.8058,-33.5839 22.8596,-12.6998 45.4371,-25.9641 67.7323,-39.5105 3.951,-2.54 7.6199,-4.7977 11.5709,-7.0555 30.7618,-18.9086 62.6524,-38.0994 92.5675,-58.4191 5.9266,-3.9511 11.0065,-8.1843 16.6509,-12.1354 16.3686,-11.0065 32.7373,-22.2952 48.5415,-33.5839 13.2642,-9.5954 25.9641,-19.4731 38.9461,-29.0685 3.951,-3.1044 7.6199,-5.9266 11.2887,-9.031 24.553,-18.3441 48.8237,-36.9705 72.53,-56.4436 4.2333,-3.3866 8.1844,-6.2088 12.1354,-9.5954 17.2153,-14.1109 34.4306,-29.3507 51.3637,-44.026 16.3686,-14.3931 33.0195,-28.504 49.3882,-43.1794 20.0374,-18.6263 39.5105,-37.5349 58.9835,-56.4436 18.062,-17.4975 35.5595,-35.8416 52.7748,-53.9036 3.3866,-3.3866 7.3377,-6.2088 10.7243,-9.5954 14.3931,-15.2398 28.2218,-30.4796 42.3327,-46.0016 12.4176,-13.5464 24.8352,-27.3751 36.9705,-41.486 3.3867,-3.6688 5.6444,-7.6199 8.7488,-11.2887 22.2952,-25.9641 45.1549,-52.7748 66.3212,-79.5855 0.2823,-0.2822 0.5645,-0.2822 0.8467,-0.8467 14.6753,-18.3441 29.0685,-37.535 43.1794,-56.4436 9.5954,-12.6998 19.7552,-25.6818 29.0684,-38.6638 5.6444,-7.6199 10.4421,-15.2398 15.8042,-22.8597 16.9331,-23.9885 32.4551,-48.8237 48.5415,-73.3767 0.5645,-0.8466 2.2578,-0.8466 2.8222,-1.6933 14.1109,-21.7308 27.0929,-43.1794 40.6394,-65.1924 1.6933,-3.1044 4.2333,-6.7732 5.9266,-9.8776 11.5709,-18.9086 22.8596,-38.0994 33.5839,-57.2903 13.8287,-24.5529 26.5285,-49.1059 39.7928,-73.9411 18.3441,-34.995 36.1239,-70.8367 52.7747,-106.6784 16.6509,-35.5595 32.7373,-71.4012 47.6949,-107.8073 0.5644,-1.1289 0.5644,-2.2577 0.8466,-3.3866 11.8532,-29.0685 23.7064,-57.8547 34.4306,-87.4876 3.1044,-8.1843 5.9266,-16.0864 8.7488,-24.553 11.0065,-30.4795 22.013,-61.5235 31.8906,-92.5675 2.2578,-7.6199 3.9511,-15.2397 6.2088,-22.8596 9.5954,-32.7373 19.4731,-65.7568 28.2218,-98.7763 l 4.2333,-19.4731 c 0.5644,-2.2577 0.2822,-4.7977 0.8467,-7.0554 9.3132,-36.9706 18.0619,-74.2234 25.6818,-112.0406 8.1843,-40.6394 14.1109,-81.2788 20.3197,-122.4826 4.5155,-30.7618 7.9021,-61.5235 11.5709,-92.8497 1.1289,-10.1599 3.3867,-20.3197 4.2333,-30.7618 3.9511,-40.075 7.6199,-80.9966 9.8776,-121.636 0,-1.1289 -0.2822,-2.5399 0,-3.6688 113.7339,15.522 230.29,23.9885 348.2571,23.9885 118.2493,0 233.6763,-9.3132 347.4103,-24.8352 66.039,1348.72 1181.083,2423.6885 2547.018,2423.6885 1365.371,0 2479.285,-1074.1219 2546.171,-2421.9952 113.734,15.8042 230.29,23.1419 348.257,23.1419 1408.55,0 2549.84,-1142.4186 2549.84,-2549.8399 0,-1407.2237 -1141.29,-2546.9048 -2549.84,-2546.9048 -1366.218,0 -2481.543,1073.5856 -2547.018,2422.7289 -113.734,-15.522 -229.161,-23.9886 -347.41,-23.9886 -118.25,0 -234.523,8.4666 -348.257,23.9886 -64.91,-1349.6231 -1179.672,-2422.7289 -2546.1713,-2422.7289 -1366.4997,0 -2481.8254,1073.4163 -2547.0177,2422.7289 -53.9037,-7.3377 -108.3718,-13.8287 -163.1221,-17.7798 -3.1044,-0.2822 -5.9265,-0.5644 -8.7487,-0.8466 -1.6933,0 -3.1044,0.2822 -4.5155,0 -23.7063,-1.4111 -47.6948,-2.54 -71.4012,-3.3866 -33.3017,-1.4111 -66.8856,-1.9756 -100.7518,-1.9756 -91.4386,0 -181.4662,5.3622 -270.6471,15.2398 -29.6329,3.1044 -58.7013,5.3622 -88.052,9.5954 C 6565.1259,2508.314 5449.2358,1434.8695 4082.4539,1434.8695 z m 0,504.4647 c 1130.001,0 2046.0807,913.2858 2046.0807,2042.4401 -184.5706,66.039 -359.2636,154.0911 -521.2567,258.5117 -27.093,17.4975 -53.057,35.2773 -79.3033,53.9037 -395.1052,276.2914 -708.9317,659.8257 -896.3245,1110.2457 -12.4175,29.9151 -23.7063,61.2413 -34.995,91.7209 -58.7013,157.7598 -101.5985,322.8574 -128.127,493.8815 -124.7403,23.9885 -254.2784,38.6639 -386.0742,38.6639 -1130.2832,0 -2047.0685,-917.4908 -2047.0685,-2046.9274 0,-1129.1543 916.7853,-2042.4401 2047.0685,-2042.4401 z m 5801.2738,0 c 1128.5903,0 2042.6943,910.7458 2045.2343,2038.2068 -873.747,308.1821 -1529.34,1078.3551 -1672.142,2017.0123 -121.072,22.2952 -245.53,34.1484 -373.0923,34.1484 -127.8448,0 -253.4318,-12.6998 -374.7856,-34.9951 v -1.1288 c -4.5154,-28.7863 -9.5954,-57.5725 -14.9575,-86.3587 -0.2822,-0.5645 0,-1.1289 0,-1.6933 -5.6444,-28.5041 -12.4176,-56.4437 -18.6264,-84.6655 -11.5709,-50.7992 -24.2708,-102.1629 -38.6639,-151.8333 -1.9755,-5.9265 -2.8222,-12.4176 -4.5155,-18.3441 -0.8466,-2.54 -1.9755,-3.9511 -2.8221,-6.2088 -5.6444,-19.7553 -12.1354,-39.7928 -18.3442,-58.9836 -1.9755,-5.9266 -3.3866,-11.2887 -5.3622,-16.9331 -1.9755,-5.6443 -4.2332,-11.8531 -6.2088,-17.4975 -7.6198,-22.013 -15.5219,-43.7438 -23.7063,-65.4746 -3.6688,-9.8776 -7.6199,-18.9086 -11.5709,-29.0684 -6.491,-16.6509 -12.4176,-34.4306 -19.4731,-51.0815 -1.9755,-5.3621 -4.5154,-10.4421 -6.7732,-15.8042 -14.3931,-33.8662 -29.3507,-66.6035 -45.1549,-99.623 -1.9755,-4.2332 -3.3866,-8.1843 -5.3621,-12.4176 -1.1289,-2.2577 -2.2578,-4.7977 -3.3866,-7.0554 -10.7243,-22.013 -22.2953,-43.7438 -33.584,-65.1924 -6.491,-12.6998 -12.6998,-25.6818 -19.473,-38.0994 -12.4176,-22.8597 -26.5285,-46.2838 -39.5105,-68.8612 -7.6199,-12.6998 -15.2398,-25.9641 -22.8597,-38.6639 -7.3377,-11.5709 -14.1109,-22.8596 -21.4486,-34.4306 -30.1973,-48.2593 -61.5235,-94.2608 -95.1074,-140.2623 -14.6754,-20.0375 -29.6329,-40.3572 -44.8727,-59.8303 -2.54,-3.1044 -4.7977,-5.9265 -7.0555,-9.0309 -14.3931,-18.062 -29.3506,-37.535 -44.3082,-55.3148 -3.1044,-3.951 -6.2088,-7.6199 -9.5954,-11.5709 -16.3687,-19.7553 -32.4551,-38.9461 -49.3882,-58.1369 -1.6933,-1.9756 -4.5155,-3.3866 -6.2088,-5.3622 -5.0799,-5.6443 -9.8776,-11.8531 -14.9575,-17.4975 -13.8287,-15.522 -27.9396,-30.1973 -42.3327,-45.1549 -19.7553,-20.6019 -39.7928,-40.0749 -59.8302,-59.8302 -20.3197,-19.7553 -41.2039,-40.075 -61.8058,-59.2658 -3.3866,-2.8222 -5.6444,-5.9266 -8.7488,-8.7487 -17.7797,-16.0865 -36.6883,-31.044 -54.7502,-46.8482 -20.602,-17.4976 -40.6394,-35.8417 -61.8058,-52.7748 -1.1289,-0.8467 -2.54,-1.6933 -3.6688,-2.8222 l -6.7733,-5.0799 c -42.3327,-33.584 -85.512,-65.4746 -129.8203,-96.2364 -23.4241,-16.3686 -47.4126,-31.0439 -71.4011,-46.5659 -21.1664,-13.8287 -41.7683,-28.5041 -63.4991,-41.4861 -2.5399,-1.6933 -6.2088,-2.8222 -8.7487,-4.5155 -44.3083,-26.5285 -89.1809,-51.9281 -134.9003,-75.9166 -4.7977,-2.2578 -9.5954,-5.3622 -14.1109,-7.9021 -20.0374,-10.1599 -40.0749,-20.3197 -60.1124,-29.9151 -5.6444,-2.8222 -11.0065,-5.3622 -16.6509,-7.9021 -25.964,-12.4176 -53.0569,-23.9886 -79.3032,-35.2773 -18.062,-7.9021 -35.8417,-15.8042 -53.9037,-22.8597 -22.8596,-9.3132 -45.7193,-18.0619 -68.8612,-26.5285 -3.1044,-1.1288 -6.491,-2.5399 -9.5954,-3.6688 -9.5954,-3.3866 -18.6264,-7.0554 -28.2218,-10.4421 2.2578,-1127.461 918.0553,-2038.2068 2046.9274,-2038.2068 z m 5788.8563,0 c 1130.283,0 2045.234,913.2858 2045.234,2042.4401 0,1129.4366 -914.951,2046.0807 -2045.234,2046.0807 -127.845,0 -253.432,-11.8531 -374.786,-34.1484 -142.802,-938.9393 -798.112,-1708.5479 -1672.141,-2016.1656 2.54,-1127.1788 918.337,-2038.2068 2046.927,-2038.2068 z M 6988.1707,4337.369 c 22.5774,0 44.8727,0 67.1679,0.8467 3.3866,0 7.0554,-0.2822 10.7243,0 18.6264,0.5644 37.535,2.2577 56.4436,3.3866 4.2333,0.2822 7.9021,1.6933 12.1354,1.9755 21.1663,1.4111 41.7682,2.2578 62.6524,4.2333 18.3441,1.9755 37.2527,4.7977 55.5969,7.0554 21.7308,2.8222 42.8972,5.3622 64.3457,8.7488 15.2398,3.1044 30.4796,6.7732 46.0016,9.8776 143.9312,936.9639 798.677,1704.8792 1671.0129,2012.4968 0,33.3017 -1.6933,66.6035 -3.3866,99.623 v 5.3621 c -0.5644,8.4666 -1.1289,16.3687 -1.6933,24.8352 -3.1044,46.8482 -7.9021,92.2853 -14.1109,138.2868 -1.6933,12.6999 -2.54,25.3997 -4.5155,37.8173 0,1.1288 0.2822,2.5399 0,3.6688 -2.54,17.2153 -6.491,33.8662 -9.5954,51.0815 -15.2398,83.5365 -34.1484,165.6619 -59.2658,245.2474 -9.5954,30.7618 -20.6019,61.5236 -31.6084,91.7209 -0.5645,1.1289 -0.5645,2.2577 -0.8467,3.3866 -11.2887,30.1973 -22.8596,59.8302 -35.2772,89.1809 -0.5645,1.1289 -1.4111,2.54 -1.6933,3.6688 -12.6998,29.3507 -25.9641,58.4192 -39.7928,87.2054 -0.5644,1.1289 -0.2822,2.54 -0.8466,3.3866 -13.8287,28.7863 -29.0685,56.7258 -44.026,84.6654 -0.8467,1.1289 -0.5645,2.54 -1.1289,3.6689 -15.2398,27.9395 -31.8907,55.0325 -48.5415,82.1254 -0.2822,0.5644 -0.2822,1.6933 -0.8467,2.54 -4.2332,7.3376 -9.5954,14.6753 -14.1109,22.013 -34.995,55.8791 -72.8122,109.5006 -112.8872,161.4287 -14.1109,18.6264 -28.2218,36.6883 -43.1793,54.7503 -0.5645,0.5644 -0.2823,1.9755 -0.8467,2.5399 -17.4975,21.1664 -36.4061,41.4861 -54.7503,61.8058 -25.1174,28.2218 -50.7992,55.3147 -77.61,82.1254 -22.5774,22.5775 -46.5659,45.1549 -70.5545,66.8857 -0.2822,0.2822 -0.2822,0.5645 -0.8466,0.8467 -23.7063,21.7308 -47.4126,42.0505 -72.2478,62.6524 -0.2822,0.2822 -0.5645,1.4111 -0.8467,1.6933 -5.0799,4.2333 -10.7243,8.1843 -15.8042,12.4176 -38.3816,31.044 -78.7388,60.9591 -119.096,89.1809 -7.3377,5.0799 -13.8287,9.8776 -21.1664,14.9575 -0.5644,0.2822 -1.411,1.4111 -1.9755,1.6933 -26.5285,18.062 -54.1858,35.2773 -81.8432,51.9282 -0.5644,0.2822 -1.4111,1.6933 -1.6933,1.9755 -11.8532,7.0554 -23.4241,13.2642 -35.2773,20.3197 -31.044,17.7797 -62.6524,33.8661 -94.543,50.2348 -14.1109,7.0554 -27.9396,14.9575 -42.3327,22.013 -0.2822,0.2822 -0.2822,0.5644 -0.8467,0.8466 -29.3506,14.1109 -59.8302,27.6574 -90.0275,40.6394 -0.2822,0 -0.2822,0.5645 -0.8467,0.8467 -18.3441,7.6199 -37.535,14.6753 -56.4436,22.013 -43.1793,16.6509 -86.6409,31.044 -131.2314,44.8727 -57.008,17.7797 -114.016,33.0195 -172.9996,46.0015 -139.9802,30.1973 -285.6047,47.4126 -434.898,47.4126 -1128.8721,0 -2044.1052,-915.5152 -2046.0807,-2043.2585 867.5382,-310.1576 1516.9219,-1076.944 1660.8531,-2009.9568 125.0226,-23.9885 253.4318,-36.9706 385.2276,-36.9706 z m 5789.9853,0 c 127.562,0 252.021,12.1354 373.092,34.4306 143.649,937.5283 798.959,1706.2902 1672.142,2014.1901 -3.387,1126.6144 -916.927,2041.5652 -2045.234,2041.5652 -1128.308,0 -2043.823,-914.6686 -2046.928,-2041.5652 873.465,-307.8999 1528.493,-1076.944 1672.142,-2015.0367 121.636,-22.5775 246.941,-33.584 374.786,-33.584 z m 931.319,224.9278 c 494.446,253.1496 872.054,700.4652 1030.943,1242.606 -494.446,-252.8674 -870.925,-701.3118 -1030.943,-1242.606 z m -5788.8559,0.8467 c 30.4795,15.5219 59.548,30.4795 88.8986,47.6948 60.1125,34.4306 118.8138,72.53 174.693,112.8872 27.9396,20.0375 55.8792,40.9216 82.9721,62.3702 53.6214,43.1794 104.9851,88.6165 154.3733,136.8757 24.5529,23.9886 48.8237,48.8238 72.2478,73.9412 23.4241,25.3996 44.8727,51.3636 66.8857,77.6099 22.013,26.5285 43.7438,52.7748 64.3457,80.4322 0.8466,0.8466 2.2577,1.6933 2.8222,2.5399 39.2283,52.4926 75.9166,107.8073 110.065,163.9687 1.4111,1.9755 2.5399,3.3866 3.6688,5.3621 0.8467,1.4111 1.6933,2.8222 2.54,4.5155 34.7128,57.8547 66.3212,117.685 95.3897,178.9263 14.9575,31.3262 29.0684,63.7812 42.3327,96.2363 12.4176,30.1973 24.2707,60.3947 35.2772,91.7209 0.5645,1.9755 1.9756,3.1044 2.54,5.0799 1.6933,5.0799 2.8222,10.1598 4.5155,14.9576 9.3132,27.3751 18.3442,55.3147 26.5285,82.9721 0.2822,1.1288 0.5644,2.5399 0.8466,3.6688 -493.5993,-253.1496 -870.9248,-700.4652 -1030.9424,-1240.9127 v -0.8466 z m 3923.6769,0 c -160.017,539.883 -536.214,986.9164 -1029.249,1239.7838 159.453,-540.1653 535.932,-986.6343 1029.249,-1239.7838 z m -5802.4024,5.3621 c -159.1709,533.1099 -529.441,975.6277 -1015.1382,1228.4951 5.3621,-17.2153 10.4421,-35.2773 16.0864,-52.2104 167.0731,-509.9679 529.441,-931.3195 999.0518,-1176.2847 z"
     style="fill:#000000;fill-opacity:1"
     inkscape:connector-curvature="0" /><metadata
     id="metadata21"><rdf:RDF><cc:Work><dc:format>image/svg+xml</dc:format><dc:type
           rdf:resource="http://purl.org/dc/dcmitype/StillImage" /><cc:license
           rdf:resource="http://creativecommons.org/licenses/publicdomain/" /><dc:publisher><cc:Agent
             rdf:about="http://openclipart.org/"><dc:title>Openclipart</dc:title></cc:Agent></dc:publisher><dc:title></dc:title><dc:date>2012-08-10T15:37:05</dc:date><dc:description>Another version.</dc:description><dc:source>http://openclipart.org/detail/171611/olympic-rings-3-by-gustavorezende-171611</dc:source><dc:creator><cc:Agent><dc:title>gustavorezende</dc:title></cc:Agent></dc:creator><dc:subject><rdf:Bag><rdf:li>brushed steel</rdf:li><rdf:li>circles</rdf:li><rdf:li>clip art</rdf:li><rdf:li>clipart</rdf:li><rdf:li>games</rdf:li><rdf:li>olympics</rdf:li><rdf:li>rings</rdf:li><rdf:li>sports</rdf:li><rdf:li>world</rdf:li></rdf:Bag></dc:subject></cc:Work><cc:License
         rdf:about="http://creativecommons.org/licenses/publicdomain/"><cc:permits
           rdf:resource="http://creativecommons.org/ns#Reproduction" /><cc:permits
           rdf:resource="http://creativecommons.org/ns#Distribution" /><cc:permits
           rdf:resource="http://creativecommons.org/ns#DerivativeWorks" /></cc:License></rdf:RDF></metadata></svg>