<?xml version="1.0" encoding="UTF-8" standalone="no"?>
<svg
   xmlns:dc="http://purl.org/dc/elements/1.1/"
   xmlns:cc="http://creativecommons.org/ns#"
   xmlns:rdf="http://www.w3.org/1999/02/22-rdf-syntax-ns#"
   xmlns:svg="http://www.w3.org/2000/svg"
   xmlns="http://www.w3.org/2000/svg"
   xmlns:sodipodi="http://sodipodi.sourceforge.net/DTD/sodipodi-0.dtd"
   xmlns:inkscape="http://www.inkscape.org/namespaces/inkscape"
   id="svg15710"
   viewBox="0 0 744.09 1052.4"
   version="1.1"
   inkscape:version="0.48.4 r9939"
   width="100%"
   height="100%"
   sodipodi:docname="Satellite2_iss_activity_sheet_p1.svg">
  <defs
     id="defs643" />
  <sodipodi:namedview
     pagecolor="#ffffff"
     bordercolor="#666666"
     borderopacity="1"
     objecttolerance="10"
     gridtolerance="10"
     guidetolerance="10"
     inkscape:pageopacity="0"
     inkscape:pageshadow="2"
     inkscape:window-width="1280"
     inkscape:window-height="1000"
     id="namedview641"
     showgrid="false"
     showguides="true"
     inkscape:guide-bbox="true"
     inkscape:zoom="2.5370916"
     inkscape:cx="400.18344"
     inkscape:cy="414.4858"
     inkscape:window-x="0"
     inkscape:window-y="24"
     inkscape:window-maximized="1"
     inkscape:current-layer="svg15710" />
  <path
     style="fill:#ffffff;fill-rule:evenodd"
     inkscape:connector-curvature="0"
     d="m 324.35,541.39 c -0.01,1.73 -1.49,3.13 -3.3,3.11 -1.81,-0.01 -3.27,-1.43 -3.26,-3.16 0.01,-1.72 1.49,-3.12 3.31,-3.1 1.81,0.01 3.27,1.42 3.25,3.15"
     id="path6208" />
  <path
     style="fill:#ffffff;fill-rule:evenodd"
     inkscape:connector-curvature="0"
     d="m 390.96,461.82 c 0.9,-0.3 2.14,1 2.88,3.26 0.74,2.25 0.57,4.19 -0.32,4.49 l -14.3,4.07 c 0,0 -2.31,-0.39 -3.23,-3.5 -0.92,-3.12 0.51,-4.75 0.51,-4.75 l 14.39,-3.52"
     id="path7322" />
  <path
     style="fill:#000000;stroke:#000000;stroke-width:2.50000000000000000;stroke-linecap:round;stroke-linejoin:round;stroke-miterlimit:14.30000019000000044;fill-opacity:1"
     inkscape:connector-curvature="0"
     stroke-miterlimit="14.3"
     d="m 390.96,461.82 c 0.9,-0.3 2.14,1 2.88,3.26 0.74,2.25 0.57,4.19 -0.32,4.49 l -14.3,4.07 c 0,0 -2.31,-0.39 -3.23,-3.5 -0.92,-3.12 0.51,-4.75 0.51,-4.75 l 14.39,-3.52"
     id="path7324" />
  <path
     style="fill:#ffffff;fill-rule:evenodd"
     inkscape:connector-curvature="0"
     d="m 379.48,469.08 c 0.75,2.27 0.62,4.36 -0.27,4.65 -0.9,0.3 -2.24,-1.31 -2.98,-3.58 -0.75,-2.27 -0.63,-4.35 0.27,-4.65 0.9,-0.29 2.23,1.31 2.98,3.58"
     id="path7326" />
  <path
     style="fill:none;stroke:#000000;stroke-width:1.25;stroke-linecap:round;stroke-linejoin:round;stroke-miterlimit:14.30000019"
     inkscape:connector-curvature="0"
     stroke-miterlimit="14.3"
     d="m 379.48,469.08 c 0.75,2.27 0.62,4.36 -0.27,4.65 -0.9,0.3 -2.24,-1.31 -2.98,-3.58 -0.75,-2.27 -0.63,-4.35 0.27,-4.65 0.9,-0.29 2.23,1.31 2.98,3.58 z"
     id="path7328" />
  <path
     style="fill:none;stroke:#000000;stroke-width:2.5;stroke-linecap:round;stroke-linejoin:round;stroke-miterlimit:14.30000019"
     inkscape:connector-curvature="0"
     stroke-miterlimit="14.3"
     d="m 377.25,639.28 -24.12,7.31 9.03,29.7 24.11,-7.31 -9.02,-29.7 z"
     id="path7336" />
  <path
     style="fill:none;stroke:#000000;stroke-width:2.5;stroke-linecap:round;stroke-linejoin:round;stroke-miterlimit:14.30000019"
     inkscape:connector-curvature="0"
     stroke-miterlimit="14.3"
     d="m 353.11,647.56 -23.82,7.23 8.76,28.81 23.82,-7.22 -8.76,-28.82 z"
     id="path7344" />
  <path
     style="fill:none;stroke:#000000;stroke-width:2.5;stroke-linecap:round;stroke-linejoin:round;stroke-miterlimit:14.30000019"
     inkscape:connector-curvature="0"
     stroke-miterlimit="14.3"
     d="m 329.47,655.37 -22.68,6.88 8.49,27.94 22.68,-6.88 -8.49,-27.94 z"
     id="path7348" />
  <path
     style="fill-rule:evenodd"
     inkscape:connector-curvature="0"
     d="m 307.04,664.1 -8.61,2.62 7.95,26.17 8.61,-2.61"
     id="path7350" />
  <path
     style="fill:none;stroke:#000000;stroke-width:1.25;stroke-linecap:round;stroke-linejoin:round;stroke-miterlimit:14.30000019"
     inkscape:connector-curvature="0"
     stroke-miterlimit="14.3"
     d="m 307.04,664.1 -8.61,2.62 7.95,26.17 8.61,-2.61 -7.95,-26.18 z"
     id="path7352" />
  <path
     style="fill:none;stroke:#000000;stroke-width:2.5;stroke-linecap:round;stroke-linejoin:round;stroke-miterlimit:14.30000019"
     inkscape:connector-curvature="0"
     stroke-miterlimit="14.3"
     d="m 439.11,620.62 23.93,-7.89 9.71,29.48 -23.94,7.9 -9.7,-29.49 z"
     id="path7380" />
  <path
     style="fill:none;stroke:#000000;stroke-width:2.50000000000000000;stroke-linecap:round;stroke-linejoin:round;stroke-miterlimit:14.30000019000000044;fill-opacity:1"
     inkscape:connector-curvature="0"
     stroke-miterlimit="14.3"
     d="m 463.61,613.51 23.65,-7.8 9.42,28.61 -23.65,7.8 -9.42,-28.61 z"
     id="path7388" />
  <path
     style="fill:none;stroke:#000000;stroke-width:2.5;stroke-linecap:round;stroke-linejoin:round;stroke-miterlimit:14.30000019"
     inkscape:connector-curvature="0"
     stroke-miterlimit="14.3"
     d="m 487.45,606.29 22.51,-7.42 9.13,27.73 -22.51,7.43 -9.13,-27.74 z"
     id="path7392" />
  <path
     style="fill-rule:evenodd"
     inkscape:connector-curvature="0"
     d="m 510.82,600.53 8.55,-2.82 8.55,25.98 -8.55,2.82"
     id="path7394" />
  <path
     style="fill-rule:evenodd"
     inkscape:connector-curvature="0"
     d="m 386.57,686.33 -1.57,-2.67 -4.19,-7.47 0.97,-0.56 -7.62,-25.59 -0.87,-0.18 -0.07,-1.99 0.34,-2.47 c 0,0 2.323,5.38985 -0.91,-1 l -2.54,-11.56 c 4.35254,-1.4349 14.56,-4.8 14.56,-4.8 l 2.26,1.97 1.43,3.3 2.12,1.55 9.02,9.89 4.69,20.18 c 0.0187,4.40983 -0.80016,10.59528 -0.06,13.48 l -3.33,1.45 -14.23,6.47"
     id="path7418"
     sodipodi:nodetypes="ccccccccccccccccccc" />
  <path
     style="fill:#000000;stroke:#000000;stroke-width:2.50000000000000000;stroke-linecap:round;stroke-linejoin:round;stroke-miterlimit:14.30000019000000044;fill-opacity:1"
     inkscape:connector-curvature="0"
     stroke-miterlimit="14.3"
     d="m 370.06,632.72 16.4,-5.11 16.79,53.73 -16.41,5.11 -16.78,-53.73 z"
     id="path7424" />
  <path
     style="fill:none;stroke:#000000;stroke-width:1.25;stroke-linecap:round;stroke-linejoin:round;stroke-miterlimit:14.30000019"
     inkscape:connector-curvature="0"
     stroke-miterlimit="14.3"
     d="m 384.19,677.23 15.91,-4.9 m -15.52,6.07 15.9,-4.9"
     id="path7426" />
  <path
     style="fill:#ffffff;fill-rule:evenodd"
     inkscape:connector-curvature="0"
     d="m 402.79,681.33 2.97,8.35 -0.17,0.88 -15.14,4.76 -3.09,-0.63 -1.5,-1.75 -1.05,-3.2 1.41,-3.06 16.57,-5.35"
     id="path7428" />
  <path
     style="fill:#000000;stroke:#000000;stroke-width:2.50000000000000000;stroke-linecap:round;stroke-linejoin:round;stroke-miterlimit:14.30000019000000044;fill-opacity:1"
     inkscape:connector-curvature="0"
     stroke-miterlimit="14.3"
     d="m 402.79,681.33 2.97,8.35 -0.17,0.88 -15.14,4.76 -3.09,-0.63 -1.5,-1.75 -1.05,-3.2 1.41,-3.06 16.57,-5.35 z"
     id="path7430" />
  <path
     style="fill:#ffffff;fill-rule:evenodd"
     inkscape:connector-curvature="0"
     d="m 401.55,707.05 23.85,-6 4.17,12.66 -24.17,5.04 -3.85,-11.7"
     id="path7452" />
  <path
     style="fill:#000000;stroke:#000000;stroke-width:2.50000000000000000;stroke-linecap:round;stroke-linejoin:round;stroke-miterlimit:14.30000019000000044;fill-opacity:1"
     inkscape:connector-curvature="0"
     stroke-miterlimit="14.3"
     d="m 401.55,707.05 23.85,-6 4.17,12.66 -24.17,5.04 -3.85,-11.7 z"
     id="path7454" />
  <path
     style="fill:#000000;stroke:#000000;stroke-width:2.50000000000000000;stroke-linecap:round;stroke-linejoin:round;stroke-miterlimit:14.30000019000000044;fill-opacity:1"
     inkscape:connector-curvature="0"
     stroke-miterlimit="14.3"
     d="m 421.17,677.12 0.07,3.39 c 0,0 -1.31,4.56 -0.56,7.37 0.75,2.81 2.57,9.4 2.57,9.4 l 5.81,16.59 -0.94,4.08 -0.58,0.38 0.38,1.13 c 0,0 1.43,2.22 11.72,-1.17 10.28,-3.39 12.22,-6.01 12.22,-6.01 l -0.53,-1.08 -0.74,-0.12 -2.54,-2.4 -4.38,-13.83 0.05,-1.99 -0.8,-1.89 -0.64,-0.87 c 0,0 -1.53,-5.22 -2.77,-7.89 -1.81,-3.9 -4.72,-5.81 -4.72,-5.81 l -2.12,-3.26 c 0,0 -1.29,0.87 -5.28,2.19 -3.99,1.32 -6.22,1.79 -6.22,1.79 z"
     id="path7466" />
  <path
     style="fill:#ffffff;fill-rule:evenodd"
     inkscape:connector-curvature="0"
     d="m 440.86,696.47 2.07,-1.18 4.48,13.61 -2.07,1.19 -4.48,-13.62"
     id="path7484" />
  <path
     style="fill:none;stroke:#000000;stroke-width:1.25;stroke-linecap:round;stroke-linejoin:round;stroke-miterlimit:14.30000019"
     inkscape:connector-curvature="0"
     stroke-miterlimit="14.3"
     d="m 440.86,696.47 2.07,-1.18 4.48,13.61 -2.07,1.19 -4.48,-13.62 z"
     id="path7486" />
  <path
     style="fill:#000000;fill-rule:evenodd;fill-opacity:1"
     inkscape:connector-curvature="0"
     d="m 442.22,697.43 28.15,-7.22 4.21,12.81 -28.46,6.24 -3.9,-11.83"
     id="path7498" />
  <path
     style="fill:none;stroke:#000000;stroke-width:2.5;stroke-linecap:round;stroke-linejoin:round;stroke-miterlimit:14.30000019"
     inkscape:connector-curvature="0"
     stroke-miterlimit="14.3"
     d="m 442.22,697.43 28.15,-7.22 4.21,12.81 -28.46,6.24 -3.9,-11.83 z"
     id="path7500" />
  <path
     style="fill:#ffffff;fill-rule:evenodd"
     inkscape:connector-curvature="0"
     d="m 470,689.06 1.11,-0.34 5.02,15.24 -1.12,0.34"
     id="path7504" />
  <path
     style="fill:none;stroke:#000000;stroke-width:1.25;stroke-linecap:round;stroke-linejoin:round;stroke-miterlimit:14.30000019"
     inkscape:connector-curvature="0"
     stroke-miterlimit="14.3"
     d="m 470,689.06 1.11,-0.34 5.02,15.24 -1.12,0.34 -5.01,-15.24 z"
     id="path7506" />
  <path
     style="fill:#ffffff;fill-rule:evenodd"
     inkscape:connector-curvature="0"
     d="m 400.1,705.82 0.95,-0.29 4.7,14.27 -0.96,0.29"
     id="path7508" />
  <path
     style="fill:none;stroke:#000000;stroke-width:1.25;stroke-linecap:round;stroke-linejoin:round;stroke-miterlimit:14.30000019"
     inkscape:connector-curvature="0"
     stroke-miterlimit="14.3"
     d="m 400.1,705.82 0.95,-0.29 4.7,14.27 -0.96,0.29 -4.69,-14.27 z"
     id="path7510" />
  <path
     style="fill:#ffffff;fill-rule:evenodd"
     inkscape:connector-curvature="0"
     d="m 356.32,639.69 0.57,0.91 -0.6,1.01 14.57,29.66 0.92,-0.03 0.41,0.83 -5.06,2.49 -0.24,-0.75 0.28,-0.77 -14.37,-29.45 -1.12,-0.18 -0.49,-1.07 c 0,0 1.61,-0.39 2.97,-1.12 1.23,-0.65 2.16,-1.53 2.16,-1.53"
     id="path7528" />
  <path
     style="fill:#000000;stroke:#000000;stroke-width:2.50000000000000000;stroke-linecap:round;stroke-linejoin:round;stroke-miterlimit:14.30000019000000044;fill-opacity:1"
     inkscape:connector-curvature="0"
     stroke-miterlimit="14.3"
     d="m 356.32,639.69 0.57,0.91 -0.6,1.01 14.57,29.66 0.92,-0.03 0.41,0.83 -5.06,2.49 -0.24,-0.75 0.28,-0.77 -14.37,-29.45 -1.12,-0.18 -0.49,-1.07 c 0,0 1.61,-0.39 2.97,-1.12 1.23,-0.65 2.16,-1.53 2.16,-1.53 z"
     id="path7530" />
  <path
     style="fill:#ffffff;fill-rule:evenodd"
     inkscape:connector-curvature="0"
     d="m 382.76,707.42 -0.56,-0.9 0.2,-0.62 -14.01,-30.39 -0.93,0.03 -0.4,-0.82 5.05,-2.49 0.25,0.74 -0.28,0.78 13.97,30.68 0.84,0.13 0.49,1.07 c 0,0 -0.96,1.54 -2.29,1.98 -1.32,0.44 -2.33,-0.19 -2.33,-0.19"
     id="path7532" />
  <path
     style="fill:#000000;stroke:#000000;stroke-width:2.50000000000000000;stroke-linecap:round;stroke-linejoin:round;stroke-miterlimit:14.30000019000000044;fill-opacity:1"
     inkscape:connector-curvature="0"
     stroke-miterlimit="14.3"
     d="m 382.76,707.42 -0.56,-0.9 0.2,-0.62 -14.01,-30.39 -0.93,0.03 -0.4,-0.82 5.05,-2.49 0.25,0.74 -0.28,0.78 13.97,30.68 0.84,0.13 0.49,1.07 c 0,0 -0.96,1.54 -2.29,1.98 -1.32,0.44 -2.33,-0.19 -2.33,-0.19 z"
     id="path7534" />
  <path
     style="fill:#ffffff;fill-rule:evenodd"
     inkscape:connector-curvature="0"
     d="m 450.94,682.2 -60.9,27.06 -0.12,0.86 -1,0.61 c 0,0 -0.93,-0.79 -1.74,-2.44 -0.8,-1.65 -0.41,-2.46 -0.41,-2.46 l 0.93,-0.44 0.64,0.33 61.82,-27.92 c 0,0 0.36,-0.12 1.13,1.41 0.77,1.52 -0.35,2.99 -0.35,2.99"
     id="path7536" />
  <path
     style="fill:#000000;stroke:#000000;stroke-width:2.50000000000000000;stroke-linecap:round;stroke-linejoin:round;stroke-miterlimit:14.30000019000000044;fill-opacity:1"
     inkscape:connector-curvature="0"
     stroke-miterlimit="14.3"
     d="m 450.94,682.2 -60.9,27.06 -0.12,0.86 -1,0.61 c 0,0 -0.93,-0.79 -1.74,-2.44 -0.8,-1.65 -0.41,-2.46 -0.41,-2.46 l 0.93,-0.44 0.64,0.33 61.82,-27.92 c 0,0 0.36,-0.12 1.13,1.41 0.77,1.52 -0.35,2.99 -0.35,2.99 z"
     id="path7538" />
  <path
     style="fill:#000000;stroke:#000000;stroke-width:2.50000000000000000;stroke-linecap:round;stroke-linejoin:round;stroke-miterlimit:14.30000019000000044;fill-opacity:1"
     inkscape:connector-curvature="0"
     stroke-miterlimit="14.3"
     d="m 453.97,675.59 -1.24,1.09 -1.45,0.07 -0.64,0.07 -2.24,2.93 c 0,0 1.09,1.88 2.54,2.86 1.37,0.91 2.58,0.92 2.58,0.92 l 0.44,-0.28 2.24,-2.51 -0.16,-1.32 0.59,-1.43 -0.36,-1.11 -2.3,-1.29 z"
     id="path7542" />
  <path
     style="fill:#000000;fill-rule:evenodd;fill-opacity:1"
     inkscape:connector-curvature="0"
     d="m 447.78,662.45 6.04,4.16 0.36,0.7 -0.67,1.18 0.64,0.75 1.05,-0.07 0.8,1.24 -2.6,3.45 -1.44,-0.34 -0.49,-1.07 -1.08,1.18 -0.72,0.23 -1.21,-0.83 -0.29,-0.86 -4.51,-3.57 -1.94,-1.83 4.16,-6.02 1.9,1.7"
     id="path7544" />
  <path
     style="fill:none;stroke:#000000;stroke-width:2.5;stroke-linecap:round;stroke-linejoin:round;stroke-miterlimit:14.30000019"
     inkscape:connector-curvature="0"
     stroke-miterlimit="14.3"
     d="m 447.78,662.45 6.04,4.16 0.36,0.7 -0.67,1.18 0.64,0.75 1.05,-0.07 0.8,1.24 -2.6,3.45 -1.44,-0.34 -0.49,-1.07 -1.08,1.18 -0.72,0.23 -1.21,-0.83 -0.29,-0.86 -4.51,-3.57 -1.94,-1.83 4.16,-6.02 1.9,1.7 z"
     id="path7546" />
  <path
     style="fill:#ffffff;fill-rule:evenodd"
     inkscape:connector-curvature="0"
     d="m 359.02,477.72 4.03,0.59 -0.46,3.39 12.08,-3.75 -0.01,-3.47 3.52,-3.01 c 0,0 1.18,0.16 0.44,-2.07 -0.52,-1.6 -1.82,-2.1 -1.82,-2.1 l -6.11,5.41 -4.69,1.55 -9.42,-1.21 2.44,4.67"
     id="path7616" />
  <path
     style="fill:#000000;stroke:#000000;stroke-width:2.50000000000000000;stroke-linecap:round;stroke-linejoin:round;stroke-miterlimit:14.30000019000000044;fill-opacity:1"
     inkscape:connector-curvature="0"
     stroke-miterlimit="14.3"
     d="m 359.02,477.72 4.03,0.59 -0.46,3.39 12.08,-3.75 -0.01,-3.47 3.52,-3.01 c 0,0 1.18,0.16 0.44,-2.07 -0.52,-1.6 -1.82,-2.1 -1.82,-2.1 l -6.11,5.41 -4.69,1.55 -9.42,-1.21 2.44,4.67 z"
     id="path7618" />
  <path
     style="fill:#000000;stroke:none;stroke-width:1.25000000000000000;stroke-linecap:round;stroke-linejoin:round;stroke-miterlimit:14.30000019000000044;fill-opacity:1"
     inkscape:connector-curvature="0"
     stroke-miterlimit="14.3"
     d="m 353.44,560.57 15.71,-4.99 10.22,32.2 -15.72,4.99 z"
     id="path7662"
     sodipodi:nodetypes="ccccc" />
  <path
     style="fill:#000000;stroke:none;stroke-width:1.25000000000000000;stroke-linecap:round;stroke-linejoin:round;stroke-miterlimit:14.30000019000000044;fill-opacity:1"
     inkscape:connector-curvature="0"
     stroke-miterlimit="14.3"
     d="m 249.61,593.56 15.71,-4.99 10.22,32.2 -15.71,4.99 -10.22,-32.2 z"
     id="path7638" />
  <path
     style="fill:#000000;stroke:none;stroke-width:1.25000000000000000;stroke-linecap:round;stroke-linejoin:round;stroke-miterlimit:14.30000019000000044;fill-opacity:1"
     inkscape:connector-curvature="0"
     stroke-miterlimit="14.3"
     d="m 266.91,588.06 15.72,-4.99 10.22,32.2 -15.72,4.99 -10.22,-32.2 z"
     id="path7642" />
  <path
     style="fill:#000000;stroke:none;stroke-width:1.25000000000000000;stroke-linecap:round;stroke-linejoin:round;stroke-miterlimit:14.30000019000000044;fill-opacity:1"
     inkscape:connector-curvature="0"
     stroke-miterlimit="14.3"
     d="m 284.22,582.56 15.71,-4.99 10.22,32.2 -15.71,4.99 -10.22,-32.2 z"
     id="path7646" />
  <path
     style="fill:#000000;stroke:none;stroke-width:1.25000000000000000;stroke-linecap:round;stroke-linejoin:round;stroke-miterlimit:14.30000019000000044;fill-opacity:1"
     inkscape:connector-curvature="0"
     stroke-miterlimit="14.3"
     d="m 301.52,577.07 15.72,-5 10.22,32.2 -15.72,5 -10.22,-32.2 z"
     id="path7650" />
  <path
     style="fill:#000000;stroke:none;stroke-width:1.25000000000000000;stroke-linecap:round;stroke-linejoin:round;stroke-miterlimit:14.30000019000000044;fill-opacity:1"
     inkscape:connector-curvature="0"
     stroke-miterlimit="14.3"
     d="m 318.83,571.57 15.71,-4.99 10.22,32.19 -15.71,5 -10.22,-32.2 z"
     id="path7654" />
  <path
     style="fill:#000000;stroke:none;stroke-width:1.25000000000000000;stroke-linecap:round;stroke-linejoin:round;stroke-miterlimit:14.30000019000000044;fill-opacity:1"
     inkscape:connector-curvature="0"
     stroke-miterlimit="14.3"
     d="m 336.13,566.07 15.72,-4.99 10.22,32.2 -15.72,4.99 -10.22,-32.2 z"
     id="path7658" />
  <path
     style="fill-rule:evenodd"
     inkscape:connector-curvature="0"
     d="m 258.49,625.84 129.71,-41.22 0.71,2.21 -129.71,41.22"
     id="path7668" />
  <path
     style="fill:none;stroke:#000000;stroke-width:1.25;stroke-linecap:round;stroke-linejoin:round;stroke-miterlimit:14.30000019"
     inkscape:connector-curvature="0"
     stroke-miterlimit="14.3"
     d="m 258.49,625.84 129.71,-41.22 0.71,2.21 -129.71,41.22 -0.71,-2.21 z"
     id="path7670" />
  <path
     style="fill-rule:evenodd"
     inkscape:connector-curvature="0"
     d="m 247.78,592.06 129.71,-41.21 0.6,1.89 -129.71,41.21"
     id="path7672" />
  <path
     style="fill:none;stroke:#000000;stroke-width:1.25;stroke-linecap:round;stroke-linejoin:round;stroke-miterlimit:14.30000019"
     inkscape:connector-curvature="0"
     stroke-miterlimit="14.3"
     d="m 247.78,592.06 129.71,-41.21 0.6,1.89 -129.71,41.21 -0.6,-1.89 z"
     id="path7674" />
  <path
     style="fill:#000000;stroke:#000000;stroke-width:2.50000000000000000;stroke-linecap:round;stroke-linejoin:round;stroke-miterlimit:14.30000019000000044;stroke-opacity:1;fill-opacity:1"
     inkscape:connector-curvature="0"
     stroke-miterlimit="14.3"
     d="m 374.43,532.38 20.04,-6.61 20.92,63.56 -20.04,6.61 -20.92,-63.56 z"
     id="path7682" />
  <path
     style="fill:#ffffff;fill-rule:evenodd"
     inkscape:connector-curvature="0"
     d="m 359.29,485.89 19.41,-6.4 14.25,43.3 -19.4,6.41 -14.26,-43.31"
     id="path7688" />
  <path
     style="fill:#000000;stroke:#000000;stroke-width:2.50000000000000000;stroke-linecap:round;stroke-linejoin:round;stroke-miterlimit:14.30000019000000044;stroke-opacity:1;fill-opacity:1"
     inkscape:connector-curvature="0"
     stroke-miterlimit="14.3"
     d="m 359.29,485.89 19.41,-6.4 14.25,43.3 -19.4,6.41 -14.26,-43.31 z"
     id="path7690" />
  <path
     style="fill-rule:evenodd"
     inkscape:connector-curvature="0"
     d="m 405.56,618.37 10.72,-3.54 3.26,9.91 -10.72,3.54"
     id="path7740" />
  <path
     style="fill:none;stroke:#000000;stroke-width:0.625;stroke-linecap:round;stroke-linejoin:round;stroke-miterlimit:14.30000019"
     inkscape:connector-curvature="0"
     stroke-miterlimit="14.3"
     d="m 405.56,618.37 10.72,-3.54 3.26,9.91 -10.72,3.54 -3.26,-9.91 z"
     id="path7742" />
  <path
     style="fill:#ffffff;fill-rule:evenodd"
     inkscape:connector-curvature="0"
     d="m 356.12,471.62 c 0.97,-0.32 2.32,1.09 3.13,3.55 0.81,2.46 0.62,4.57 -0.35,4.89 l -15.58,4.44 -2.96,-8.99 15.67,-3.83"
     id="path7758" />
  <path
     style="fill:#000000;stroke:#000000;stroke-width:2.50000000000000000;stroke-linecap:round;stroke-linejoin:round;stroke-miterlimit:14.30000019000000044;fill-opacity:1"
     inkscape:connector-curvature="0"
     stroke-miterlimit="14.3"
     d="m 356.12,471.62 c 0.97,-0.32 2.32,1.09 3.13,3.55 0.81,2.46 0.62,4.57 -0.35,4.89 l -15.58,4.44 -2.96,-8.99 15.67,-3.83"
     id="path7760" />
  <path
     style="fill-rule:evenodd"
     inkscape:connector-curvature="0"
     d="m 376.08,551.58 2.14,-0.71 11.08,33.66 -2.15,0.71"
     id="path7772" />
  <path
     style="fill:#000000;stroke:#000000;stroke-width:2.50000000000000000;stroke-linecap:round;stroke-linejoin:round;stroke-miterlimit:14.30000019000000044;fill-opacity:1"
     inkscape:connector-curvature="0"
     stroke-miterlimit="14.3"
     d="m 447.71,641.28 c 4.36,13.26 -2.66,27.5 -15.67,31.79 -13.01,4.29 -27.11,-2.98 -31.48,-16.23 -4.36,-13.26 2.66,-27.5 15.67,-31.79 13.01,-4.29 27.12,2.98 31.48,16.23 z"
     id="path7800" />
  <path
     style="fill:#000000;stroke:#000000;stroke-width:2.50000000000000000;stroke-linecap:round;stroke-linejoin:round;stroke-miterlimit:14.30000019000000044;fill-opacity:1"
     inkscape:connector-curvature="0"
     stroke-miterlimit="14.3"
     d="m 453.97,675.59 c 0,0 0.36,0.7 1.17,1.12 0.81,0.42 1.49,0.87 1.49,0.87 l 1.72,-1.25 1.57,-1.74 -0.29,-1.69 v -0.82 l -2.06,-1.37 -0.56,0.32 -1.17,-0.3 -2.24,2.93 c 0,0 0.45,2.18 0.37,1.93 z"
     id="path7908" />
  <path
     style="fill:none;stroke:#000000;stroke-width:1.25;stroke-linecap:round;stroke-linejoin:round;stroke-miterlimit:14.30000019"
     inkscape:connector-curvature="0"
     stroke-miterlimit="14.3"
     d="m 374.63,646.58 15.91,-4.89 m -15.52,6.06 15.91,-4.89"
     id="path7992"
     sodipodi:nodetypes="cccc" />
  <path
     style="fill:none;stroke:#000000;stroke-width:1.25;stroke-linecap:round;stroke-linejoin:round;stroke-miterlimit:14.30000019"
     inkscape:connector-curvature="0"
     stroke-miterlimit="14.3"
     d="m 375.61,630.33 7.18,-2.37 0.25,0.75 -7.18,2.37 -0.25,-0.75 z"
     id="path8038" />
  <path
     style="fill:#ffffff;fill-rule:evenodd"
     inkscape:connector-curvature="0"
     d="m 240.19,681.63 -3.96,1.17 -0.41,1.05 0.56,1.9 c -0.09,0.03 0.82,0.69 0.82,0.69 l 0.72,1.75 -0.54,0.57 0.54,1.49 2.16,0.71 1.89,1.19 2.92,-0.86 -0.98,-3.32 -1.43,-0.31 -1.44,-4.53 -0.85,-1.5"
     id="path8062" />
  <path
     style="fill:#000000;fill-opacity:1;stroke:#000000;stroke-width:2.50000000000000000;stroke-miterlimit:14.30000019000000044"
     inkscape:connector-curvature="0"
     stroke-miterlimit="14.3"
     d="m 228.25123,673.83 363.33,-105.37 0.63701,-6.95456 -7.84117,-24.24157 -368.27048,108.95111 7.83002,22.15415 z"
     id="path8128"
     sodipodi:nodetypes="ccccccc" />
  <path
     style="fill:#ffffff;fill-rule:evenodd"
     inkscape:connector-curvature="0"
     d="m 456.95,563.05 -122.1,36.11 2.35,9.09 123.05,-36.4 -3.3,-8.8"
     id="path8334" />
  <path
     style="fill:#ffffff;fill-opacity:1;stroke:#000000;stroke-width:2.5;stroke-miterlimit:14.30000019"
     d="m 583.625,535.375 -4.25,-8.53125 c -80.78454,23.88631 -171.06009,50.59269 -244.53125,72.3125 l -120.8125,35.75 1.0625,9.46875 z"
     id="path8336"
     inkscape:connector-curvature="0"
     sodipodi:nodetypes="cccccc"
     transform="translate(-4.7968621e-6,0)" />
  <path
     style="fill:#ffffff;fill-rule:evenodd"
     inkscape:connector-curvature="0"
     d="m 574.04895,504.37333 -122.1,36.11 5.66491,3.68602 120.68509,-31.27602 -4.25,-8.52"
     id="path8442"
     sodipodi:nodetypes="ccccc" />
  <path
     style="fill:#ffffff;fill-rule:evenodd"
     inkscape:connector-curvature="0"
     d="m 328.18,458.47 -263.88,82.45 -4.652,21.18 272.2,-85.36 -3.67,-18.27"
     id="path8538" />
  <path
     style="fill:#000000;stroke:#000000;stroke-width:2.50000000000000000;stroke-miterlimit:14.30000019000000044;fill-opacity:1"
     inkscape:connector-curvature="0"
     stroke-miterlimit="14.3"
     d="m 328.18,458.47 -263.88,82.45 -4.652,21.18 272.2,-85.36 -3.67,-18.27 z"
     id="path8540" />
  <path
     style="fill:#ffffff;fill-rule:evenodd"
     inkscape:connector-curvature="0"
     d="m 334.2,486.17 -277.7,87.42 -4.812,22.1 287.02,-88.41 -4.51,-21.11"
     id="path8546" />
  <path
     style="fill:#000000;stroke:#000000;stroke-width:2.50000000000000000;stroke-miterlimit:14.30000019000000044;fill-opacity:1"
     inkscape:connector-curvature="0"
     stroke-miterlimit="14.3"
     d="m 334.2,486.17 -277.7,87.42 -4.812,22.1 287.02,-88.41 -4.51,-21.11 z"
     id="path8548" />
  <path
     style="fill:#000000;fill-opacity:1;stroke:#000000;stroke-width:1.25;stroke-miterlimit:11.5"
     inkscape:connector-curvature="0"
     stroke-miterlimit="11.5"
     d="M 340.84,477.49 60.56,566.67 59.63,570.9 341.67289,480.11194 z"
     id="path8550"
     sodipodi:nodetypes="ccccc" />
  <path
     style="fill:#ffffff;fill-rule:evenodd"
     inkscape:connector-curvature="0"
     d="m 393.79,441.62 266.28,-74.37 15.44,15.24 -274.85,76.46 -6.87,-17.33"
     id="path8588" />
  <path
     style="fill:#000000;stroke:#000000;stroke-width:2.50000000000000000;stroke-miterlimit:14.30000019000000044;fill-opacity:1"
     inkscape:connector-curvature="0"
     stroke-miterlimit="14.3"
     d="m 393.79,441.62 266.28,-74.37 15.43,15.24 -274.84,76.46 -6.87,-17.33 z"
     id="path8590" />
  <path
     style="fill:#ffffff;fill-rule:evenodd"
     inkscape:connector-curvature="0"
     d="m 403.82,468.13 280.59,-77.71 16.07,15.93 -288.94,81.94 -7.72,-20.16"
     id="path8596" />
  <path
     style="fill:#000000;stroke:#000000;stroke-width:2.50000000000000000;stroke-miterlimit:14.30000019000000044;fill-opacity:1"
     inkscape:connector-curvature="0"
     stroke-miterlimit="14.3"
     d="m 403.82,468.13 280.59,-77.71 16.07,15.93 -288.94,81.94 -7.72,-20.16 z"
     id="path8598" />
  <path
     style="fill:#000000;stroke:#000000;stroke-width:1.25000000000000000;stroke-miterlimit:11.50000000000000000;fill-opacity:1"
     inkscape:connector-curvature="0"
     stroke-miterlimit="11.5"
     d="m 677.22,386.82 -283.58,77.07 1.21582,3.33806 L 680.31,389.87 z"
     id="path8600"
     sodipodi:nodetypes="ccccc" />
  <metadata
     id="metadata639">
    <rdf:RDF>
      <cc:Work>
        <dc:format>image/svg+xml</dc:format>
        <dc:type
           rdf:resource="http://purl.org/dc/dcmitype/StillImage" />
        <cc:license
           rdf:resource="http://creativecommons.org/licenses/publicdomain/" />
        <dc:publisher>
          <cc:Agent
             rdf:about="http://openclipart.org/">
            <dc:title>Openclipart</dc:title>
          </cc:Agent>
        </dc:publisher>
        <dc:title></dc:title>
        <dc:date>2010-04-07T21:57:08</dc:date>
        <dc:description>NASA, clip art, clipart, gray scale, iss, satellite, space, </dc:description>
        <dc:source>http://openclipart.org/detail/39091/-by-pianobrad-39091</dc:source>
        <dc:creator>
          <cc:Agent>
            <dc:title>pianoBrad</dc:title>
          </cc:Agent>
        </dc:creator>
        <dc:subject>
          <rdf:Bag>
            <rdf:li>NASA</rdf:li>
            <rdf:li>clip art</rdf:li>
            <rdf:li>clipart</rdf:li>
            <rdf:li>gray scale</rdf:li>
            <rdf:li>iss</rdf:li>
            <rdf:li>satellite</rdf:li>
            <rdf:li>space</rdf:li>
          </rdf:Bag>
        </dc:subject>
      </cc:Work>
      <cc:License
         rdf:about="http://creativecommons.org/licenses/publicdomain/">
        <cc:permits
           rdf:resource="http://creativecommons.org/ns#Reproduction" />
        <cc:permits
           rdf:resource="http://creativecommons.org/ns#Distribution" />
        <cc:permits
           rdf:resource="http://creativecommons.org/ns#DerivativeWorks" />
      </cc:License>
    </rdf:RDF>
  </metadata>
</svg>
