<?xml version="1.0" encoding="UTF-8" standalone="no"?>
<!-- Created with Inkscape (http://www.inkscape.org/) -->

<svg
   xmlns:dc="http://purl.org/dc/elements/1.1/"
   xmlns:cc="http://creativecommons.org/ns#"
   xmlns:rdf="http://www.w3.org/1999/02/22-rdf-syntax-ns#"
   xmlns:svg="http://www.w3.org/2000/svg"
   xmlns="http://www.w3.org/2000/svg"
   version="1.1"
   width="1052.3622"
   height="744.09448"
   id="svg2">
  <defs
     id="defs4">
    <marker
       refX="0"
       refY="0"
       orient="auto"
       id="Arrow1Lstart"
       style="overflow:visible">
      <path
         d="M 0,0 5,-5 -12.5,0 5,5 0,0 z"
         transform="matrix(0.8,0,0,0.8,10,0)"
         id="path5526"
         style="fill-rule:evenodd;stroke:#000000;stroke-width:1pt" />
    </marker>
    <marker
       refX="0"
       refY="0"
       orient="auto"
       id="Arrow1Lend"
       style="overflow:visible">
      <path
         d="M 0,0 5,-5 -12.5,0 5,5 0,0 z"
         transform="matrix(-0.8,0,0,-0.8,-10,0)"
         id="path5529"
         style="fill-rule:evenodd;stroke:#000000;stroke-width:1pt" />
    </marker>
    <marker
       refX="0"
       refY="0"
       orient="auto"
       id="Arrow1Lstart-2"
       style="overflow:visible">
      <path
         d="M 0,0 5,-5 -12.5,0 5,5 0,0 z"
         transform="matrix(0.8,0,0,0.8,10,0)"
         id="path5526-9"
         style="fill-rule:evenodd;stroke:#000000;stroke-width:1pt" />
    </marker>
    <marker
       refX="0"
       refY="0"
       orient="auto"
       id="Arrow1Lstart-8"
       style="overflow:visible">
      <path
         d="M 0,0 5,-5 -12.5,0 5,5 0,0 z"
         transform="matrix(0.8,0,0,0.8,10,0)"
         id="path5526-99"
         style="fill-rule:evenodd;stroke:#000000;stroke-width:1pt" />
    </marker>
  </defs>
  <metadata
     id="metadata7">
    <rdf:RDF>
      <cc:Work
         rdf:about="">
        <dc:format>image/svg+xml</dc:format>
        <dc:type
           rdf:resource="http://purl.org/dc/dcmitype/StillImage" />
        <dc:title></dc:title>
      </cc:Work>
    </rdf:RDF>
  </metadata>
  <g
     transform="translate(0,-308.2677)"
     id="layer1">
    <path
       d="m 315.24115,619.00979 95.79405,-44.44054 100.73189,49.37838 z"
       id="path2985"
       style="fill:none;stroke:#000000;stroke-width:0.488821px;stroke-linecap:butt;stroke-linejoin:miter;stroke-opacity:1" />
    <path
       d="m 317.21628,619.00979 -2.9627,206.40161"
       id="path2987"
       style="fill:none;stroke:#000000;stroke-width:0.488821px;stroke-linecap:butt;stroke-linejoin:miter;stroke-opacity:1" />
    <path
       d="m 510.77952,622.96006 1.97513,205.41405"
       id="path2989"
       style="fill:none;stroke:#000000;stroke-width:0.488821px;stroke-linecap:butt;stroke-linejoin:miter;stroke-opacity:1" />
    <path
       d="m 411.0352,572.59411 0.98756,297.25783 100.73189,-41.47783 -197.5135,-2.96271 96.78161,44.44054"
       id="path2991"
       style="fill:none;stroke:#000000;stroke-width:0.488821px;stroke-linecap:butt;stroke-linejoin:miter;stroke-opacity:1" />
    <path
       d="m 438.40619,185.48012 a 31.31473,31.31473 0 1 1 -62.62946,0 31.31473,31.31473 0 1 1 62.62946,0 z"
       transform="translate(106.41775,442.68978)"
       id="path2999"
       style="fill:none;stroke:#000000;stroke-width:1;stroke-miterlimit:4;stroke-opacity:1;stroke-dasharray:none" />
    <path
       d="m 438.40619,185.48012 a 31.31473,31.31473 0 1 1 -62.62946,0 31.31473,31.31473 0 1 1 62.62946,0 z"
       transform="translate(60.068824,665.9401)"
       id="path2999-6"
       style="fill:none;stroke:#000000;stroke-width:1;stroke-miterlimit:4;stroke-opacity:1;stroke-dasharray:none" />
    <g
       transform="translate(-15.71429,2.8571428)"
       id="g3167">
      <path
         d="m 754.50619,415.93361 90,55 0,130.71429"
         id="path3001"
         style="fill:none;stroke:#000000;stroke-width:1px;stroke-linecap:butt;stroke-linejoin:miter;stroke-opacity:1" />
      <path
         d="m 843.7919,470.21932 68.57143,-47.14285"
         id="path3003"
         style="fill:none;stroke:#000000;stroke-width:1px;stroke-linecap:butt;stroke-linejoin:miter;stroke-opacity:1" />
      <path
         d="m 808.07762,469.50504 35.71428,18.57143 35,-22.14286 0.71429,38.57143 -35.71429,20.71428 -35.71429,-20 z"
         id="path3007"
         style="fill:none;stroke:#000000;stroke-width:1px;stroke-linecap:butt;stroke-linejoin:miter;stroke-opacity:1" />
      <path
         d="m 738.57141,173.73734 a 2.5,2.5 0 1 1 -5,0 2.5,2.5 0 1 1 5,0 z"
         transform="translate(78.791898,308.2677)"
         id="path3017"
         style="fill:none;stroke:#000000;stroke-width:1;stroke-miterlimit:4;stroke-opacity:1;stroke-dasharray:none" />
      <path
         d="m 738.57141,173.73734 a 2.5,2.5 0 1 1 -5,0 2.5,2.5 0 1 1 5,0 z"
         transform="translate(77.720488,327.19627)"
         id="path3017-5"
         style="fill:none;stroke:#000000;stroke-width:1;stroke-miterlimit:4;stroke-opacity:1;stroke-dasharray:none" />
      <path
         d="m 738.57141,173.73734 a 2.5,2.5 0 1 1 -5,0 2.5,2.5 0 1 1 5,0 z"
         transform="translate(97.006202,327.91056)"
         id="path3017-4"
         style="fill:none;stroke:#000000;stroke-width:1;stroke-miterlimit:4;stroke-opacity:1;stroke-dasharray:none" />
      <path
         d="m 738.57141,173.73734 a 2.5,2.5 0 1 1 -5,0 2.5,2.5 0 1 1 5,0 z"
         transform="translate(117.72049,326.48199)"
         id="path3017-6"
         style="fill:none;stroke:#000000;stroke-width:1;stroke-miterlimit:4;stroke-opacity:1;stroke-dasharray:none" />
      <path
         d="m 738.57141,173.73734 a 2.5,2.5 0 1 1 -5,0 2.5,2.5 0 1 1 5,0 z"
         transform="translate(132.72049,309.33913)"
         id="path3017-1"
         style="fill:none;stroke:#000000;stroke-width:1;stroke-miterlimit:4;stroke-opacity:1;stroke-dasharray:none" />
      <path
         d="m 738.57141,173.73734 a 2.5,2.5 0 1 1 -5,0 2.5,2.5 0 1 1 5,0 z"
         transform="translate(134.14906,328.62485)"
         id="path3017-2"
         style="fill:none;stroke:#000000;stroke-width:1;stroke-miterlimit:4;stroke-opacity:1;stroke-dasharray:none" />
      <path
         d="m 875.22047,485.21932 c 61.42857,-42.85714 75.71429,-23.57142 75.71429,-23.57142"
         id="path3071"
         style="fill:none;stroke:#000000;stroke-width:1px;stroke-linecap:butt;stroke-linejoin:miter;stroke-opacity:1" />
      <text
         x="954.50616"
         y="465.93359"
         id="text3073"
         xml:space="preserve"
         style="font-size:14px;font-style:normal;font-variant:normal;font-weight:normal;font-stretch:normal;line-height:125%;letter-spacing:0px;word-spacing:0px;fill:#000000;fill-opacity:1;stroke:none;font-family:Times New Roman;-inkscape-font-specification:Times New Roman"><tspan
           x="954.50616"
           y="465.93359"
           id="tspan3075">Gångjärn</tspan></text>
      <text
         x="451.00278"
         y="912.34723"
         transform="matrix(0.85725809,-0.51488694,0.51488694,0.85725809,0,0)"
         id="text3077"
         xml:space="preserve"
         style="font-size:14px;font-style:normal;font-variant:normal;font-weight:normal;font-stretch:normal;line-height:125%;letter-spacing:0px;word-spacing:0px;fill:#000000;fill-opacity:1;stroke:none;font-family:Times New Roman;-inkscape-font-specification:Times New Roman"><tspan
           x="451.00278"
           y="912.34723"
           id="tspan3079">Playwood sida 2</tspan></text>
      <text
         x="903.33478"
         y="54.729408"
         transform="matrix(0.86370182,0.50400314,-0.50400314,0.86370182,0,0)"
         id="text3081"
         xml:space="preserve"
         style="font-size:14px;font-style:normal;font-variant:normal;font-weight:normal;font-stretch:normal;line-height:125%;letter-spacing:0px;word-spacing:0px;fill:#000000;fill-opacity:1;stroke:none;font-family:Times New Roman;-inkscape-font-specification:Times New Roman"><tspan
           x="903.33478"
           y="54.729408"
           id="tspan3083">Playwood sida 1</tspan></text>
      <path
         d="m 942.14287,225.8802 a 148.92857,148.92857 0 1 1 -297.85715,0 148.92857,148.92857 0 1 1 297.85715,0 z"
         transform="matrix(1.0693117,0,0,1.0693117,27.741468,248.683)"
         id="path3103"
         style="fill:none;stroke:#000000;stroke-width:1;stroke-miterlimit:4;stroke-opacity:1;stroke-dasharray:none" />
    </g>
    <path
       d="M 494.31632,602.91609 764.48243,364.50777"
       id="path3124"
       style="fill:none;stroke:#000000;stroke-width:1px;stroke-linecap:butt;stroke-linejoin:miter;stroke-opacity:1" />
    <path
       d="m 515.52953,659.48463 345.07838,-7.31616"
       id="path3126"
       style="fill:none;stroke:#000000;stroke-width:1px;stroke-linecap:butt;stroke-linejoin:miter;stroke-opacity:1" />
    <path
       d="m 633.71737,895.86033 267.69044,0"
       id="path3128"
       style="fill:none;stroke:#000000;stroke-width:1px;stroke-linecap:butt;stroke-linejoin:miter;stroke-opacity:1" />
    <path
       d="m 728.67171,850.40347 64.64977,0 0,46.46701 25.25381,47.47717 -108.08632,0 17.17259,-51.51778 z"
       id="path3130"
       style="fill:none;stroke:#000000;stroke-width:1px;stroke-linecap:butt;stroke-linejoin:miter;stroke-opacity:1" />
    <path
       d="m 738.57141,173.73734 a 2.5,2.5 0 1 1 -5,0 2.5,2.5 0 1 1 5,0 z"
       transform="translate(2.1967542,685.25242)"
       id="path3017-8"
       style="fill:none;stroke:#000000;stroke-width:1;stroke-miterlimit:4;stroke-opacity:1;stroke-dasharray:none" />
    <path
       d="m 738.57141,173.73734 a 2.5,2.5 0 1 1 -5,0 2.5,2.5 0 1 1 5,0 z"
       transform="translate(45.633314,685.75751)"
       id="path3017-8-3"
       style="fill:none;stroke:#000000;stroke-width:1;stroke-miterlimit:4;stroke-opacity:1;stroke-dasharray:none" />
    <path
       d="m 738.57141,173.73734 a 2.5,2.5 0 1 1 -5,0 2.5,2.5 0 1 1 5,0 z"
       transform="translate(22.904884,712.02147)"
       id="path3017-8-6"
       style="fill:none;stroke:#000000;stroke-width:1;stroke-miterlimit:4;stroke-opacity:1;stroke-dasharray:none" />
    <path
       d="m 738.57141,173.73734 a 2.5,2.5 0 1 1 -5,0 2.5,2.5 0 1 1 5,0 z"
       transform="translate(23.915034,732.7296)"
       id="path3017-8-0"
       style="fill:none;stroke:#000000;stroke-width:1;stroke-miterlimit:4;stroke-opacity:1;stroke-dasharray:none" />
    <path
       d="m 738.57141,173.73734 a 2.5,2.5 0 1 1 -5,0 2.5,2.5 0 1 1 5,0 z"
       transform="translate(64.826214,761.01387)"
       id="path3017-8-9"
       style="fill:none;stroke:#000000;stroke-width:1;stroke-miterlimit:4;stroke-opacity:1;stroke-dasharray:none" />
    <path
       d="m 738.57141,173.73734 a 2.5,2.5 0 1 1 -5,0 2.5,2.5 0 1 1 5,0 z"
       transform="translate(-10.935233,761.51894)"
       id="path3017-8-64"
       style="fill:none;stroke:#000000;stroke-width:1;stroke-miterlimit:4;stroke-opacity:1;stroke-dasharray:none" />
    <text
       x="674.28571"
       y="823.79077"
       id="text3232"
       xml:space="preserve"
       style="font-size:14px;font-style:normal;font-variant:normal;font-weight:normal;font-stretch:normal;line-height:125%;letter-spacing:0px;word-spacing:0px;fill:#000000;fill-opacity:1;stroke:none;font-family:Times New Roman;-inkscape-font-specification:Times New Roman"><tspan
         x="674.28571"
         y="823.79077"
         id="tspan3234">Playwood sida</tspan></text>
    <text
       x="722.85718"
       y="972.36224"
       id="text3236"
       xml:space="preserve"
       style="font-size:14px;font-style:normal;font-variant:normal;font-weight:normal;font-stretch:normal;line-height:125%;letter-spacing:0px;word-spacing:0px;fill:#000000;fill-opacity:1;stroke:none;font-family:Times New Roman;-inkscape-font-specification:Times New Roman"><tspan
         x="722.85718"
         y="972.36224"
         id="tspan3238">Playwood golv</tspan></text>
    <text
       x="838.57147"
       y="870.21936"
       id="text3240"
       xml:space="preserve"
       style="font-size:14px;font-style:normal;font-variant:normal;font-weight:normal;font-stretch:normal;line-height:125%;letter-spacing:0px;word-spacing:0px;fill:#000000;fill-opacity:1;stroke:none;font-family:Times New Roman;-inkscape-font-specification:Times New Roman"><tspan
         x="838.57147"
         y="870.21936"
         id="tspan3242">Gångjärn</tspan></text>
    <path
       d="m 785.71428,870.93361 c 43.57143,-11.42857 48.57143,-5 48.57143,-5"
       id="path3244"
       style="fill:none;stroke:#000000;stroke-width:1px;stroke-linecap:butt;stroke-linejoin:miter;stroke-opacity:1" />
    <text
       x="801.42859"
       y="841.64795"
       id="text3246"
       xml:space="preserve"
       style="font-size:14px;font-style:normal;font-variant:normal;font-weight:normal;font-stretch:normal;line-height:125%;letter-spacing:0px;word-spacing:0px;fill:#000000;fill-opacity:1;stroke:none;font-family:Times New Roman;-inkscape-font-specification:Times New Roman"><tspan
         x="801.42859"
         y="841.64795"
         id="tspan3248">Skruv/mutter</tspan></text>
    <path
       d="m 782.14285,859.50504 c 10,-32.14285 17.14286,-23.57143 17.14286,-23.57143"
       id="path3250"
       style="fill:none;stroke:#000000;stroke-width:1px;stroke-linecap:butt;stroke-linejoin:miter;stroke-opacity:1" />
    <path
       d="m 1017.1429,579.09448 a 146.42857,146.42857 0 1 1 -292.85718,0 146.42857,146.42857 0 1 1 292.85718,0 z"
       transform="translate(-102.85714,302.55342)"
       id="path3252"
       style="fill:none;stroke:#000000;stroke-width:1;stroke-miterlimit:4;stroke-opacity:1;stroke-dasharray:none" />
    <path
       d="M 463.00159,819.08874 738.77324,737.26638"
       id="path3254"
       style="fill:none;stroke:#000000;stroke-width:1px;stroke-linecap:butt;stroke-linejoin:miter;stroke-opacity:1" />
    <path
       d="M 447.8493,875.65728 714.52958,1019.0989"
       id="path3256"
       style="fill:none;stroke:#000000;stroke-width:1px;stroke-linecap:butt;stroke-linejoin:miter;stroke-opacity:1" />
    <rect
       width="57.578693"
       height="26.263966"
       x="378.14877"
       y="814.03796"
       id="rect3258"
       style="fill:none;stroke:#000000;stroke-width:0.70866144;stroke-miterlimit:4;stroke-opacity:1;stroke-dasharray:none" />
    <path
       d="M 424.28571,819.50504 C 547.14285,702.36219 567.14285,718.07647 567.14285,718.07647"
       id="path4028"
       style="fill:none;stroke:#000000;stroke-width:1px;stroke-linecap:butt;stroke-linejoin:miter;stroke-opacity:1" />
    <text
       x="572.85718"
       y="720.93359"
       id="text4030"
       xml:space="preserve"
       style="font-size:14px;font-style:normal;font-variant:normal;font-weight:normal;font-stretch:normal;line-height:125%;letter-spacing:0px;word-spacing:0px;fill:#000000;fill-opacity:1;stroke:none;font-family:Times New Roman;-inkscape-font-specification:Times New Roman"><tspan
         x="572.85718"
         y="720.93359"
         id="tspan4032">Vikt (betong/sten) för vältskydd</tspan></text>
    <text
       x="321.42856"
       y="528.07648"
       id="text4034"
       xml:space="preserve"
       style="font-size:14px;font-style:normal;font-variant:normal;font-weight:normal;font-stretch:normal;line-height:125%;letter-spacing:0px;word-spacing:0px;fill:#000000;fill-opacity:1;stroke:none;font-family:Times New Roman;-inkscape-font-specification:Times New Roman"><tspan
         x="321.42856"
         y="528.07648"
         id="tspan4038">Utställningspelare uppbygd av</tspan><tspan
         x="321.42856"
         y="545.57648"
         id="tspan4042">tre sidor av playwood</tspan></text>
    <path
       d="m 314.28571,719.50504 97.14286,15.71429 100,-18.57143"
       id="path4044"
       style="fill:none;stroke:#000000;stroke-width:1px;stroke-linecap:butt;stroke-linejoin:miter;stroke-opacity:1" />
    <path
       d="M 344.28571,695.21933 C 240,638.07647 232.85714,660.93361 232.85714,660.93361"
       id="path5490"
       style="fill:none;stroke:#000000;stroke-width:1px;stroke-linecap:butt;stroke-linejoin:miter;stroke-opacity:1" />
    <text
       x="101.4286"
       y="663.07648"
       id="text5492"
       xml:space="preserve"
       style="font-size:14px;font-style:normal;font-variant:normal;font-weight:normal;font-stretch:normal;line-height:125%;letter-spacing:0px;word-spacing:0px;fill:#000000;fill-opacity:1;stroke:none;font-family:Times New Roman;-inkscape-font-specification:Times New Roman"><tspan
         x="101.4286"
         y="663.07648"
         id="tspan5494">Tryckt material endast</tspan><tspan
         x="101.4286"
         y="680.57648"
         id="tspan5496">på övre halvan</tspan></text>
    <path
       d="m 315.71428,618.07647 -37.85714,0"
       id="path5498"
       style="fill:none;stroke:#000000;stroke-width:1px;stroke-linecap:butt;stroke-linejoin:miter;stroke-opacity:1" />
    <path
       d="m 313.92857,825.93362 -37.85714,0"
       id="path5498-4"
       style="fill:none;stroke:#000000;stroke-width:1px;stroke-linecap:butt;stroke-linejoin:miter;stroke-opacity:1" />
    <path
       d="m 295,618.79076 0,79.28571"
       id="path5518"
       style="fill:none;stroke:#000000;stroke-width:1px;stroke-linecap:butt;stroke-linejoin:miter;stroke-opacity:1;marker-start:url(#Arrow1Lstart)" />
    <path
       d="m 294.28571,824.50504 0,-102.14286"
       id="path5520"
       style="fill:none;stroke:#000000;stroke-width:0.99921262;stroke-linecap:butt;stroke-linejoin:miter;stroke-miterlimit:4;stroke-opacity:1;stroke-dasharray:none;marker-start:url(#Arrow1Lstart);marker-mid:none;marker-end:none" />
    <text
       x="285.71426"
       y="717.36218"
       id="text6882"
       xml:space="preserve"
       style="font-size:14px;font-style:normal;font-variant:normal;font-weight:normal;font-stretch:normal;line-height:125%;letter-spacing:0px;word-spacing:0px;fill:#000000;fill-opacity:1;stroke:none;font-family:Times New Roman;-inkscape-font-specification:Times New Roman"><tspan
         x="285.71426"
         y="717.36218"
         id="tspan6884">2m</tspan></text>
    <path
       d="m 315,824.50504 -24.28572,25"
       id="path6886"
       style="fill:none;stroke:#000000;stroke-width:1px;stroke-linecap:butt;stroke-linejoin:miter;stroke-opacity:1" />
    <path
       d="m 412.14286,869.1479 -24.28572,25"
       id="path6886-0"
       style="fill:none;stroke:#000000;stroke-width:1px;stroke-linecap:butt;stroke-linejoin:miter;stroke-opacity:1" />
    <path
       d="m 303.57142,837.00505 33.57143,17.14285"
       id="path5518-3"
       style="fill:none;stroke:#000000;stroke-width:1px;stroke-linecap:butt;stroke-linejoin:miter;stroke-opacity:1;marker-start:url(#Arrow1Lstart)" />
    <path
       d="m 395.71428,882.71933 -45,-22.14286"
       id="path5520-9"
       style="fill:none;stroke:#000000;stroke-width:0.99921262;stroke-linecap:butt;stroke-linejoin:miter;stroke-miterlimit:4;stroke-opacity:1;stroke-dasharray:none;marker-start:url(#Arrow1Lstart);marker-mid:none;marker-end:none" />
    <text
       x="-511.11972"
       y="782.30408"
       transform="matrix(0.58089866,-0.81397589,0.81397589,0.58089866,0,0)"
       id="text6954"
       xml:space="preserve"
       style="font-size:14px;font-style:normal;font-variant:normal;font-weight:normal;font-stretch:normal;line-height:125%;letter-spacing:0px;word-spacing:0px;fill:#000000;fill-opacity:1;stroke:none;font-family:Times New Roman;-inkscape-font-specification:Times New Roman"><tspan
         x="-511.11972"
         y="782.30408"
         id="tspan6956">1.2m</tspan></text>
    <text
       x="332.50119"
       y="356.19376"
       id="text6966"
       xml:space="preserve"
       style="font-size:14px;font-style:normal;font-variant:normal;font-weight:normal;font-stretch:normal;line-height:125%;letter-spacing:0px;word-spacing:0px;fill:#000000;fill-opacity:1;stroke:none;font-family:Times New Roman;-inkscape-font-specification:Times New Roman"><tspan
         x="332.50119"
         y="356.19376"
         id="tspan6968"
         style="font-size:24px">Utställningspelare -uppbyggnad</tspan></text>
  </g>
</svg>
