<?xml version="1.0"?>
<svg xmlns:rdf="http://www.w3.org/1999/02/22-rdf-syntax-ns#" xmlns="http://www.w3.org/2000/svg" xmlns:cc="http://creativecommons.org/ns#" xmlns:dc="http://purl.org/dc/elements/1.1/" xmlns:svg="http://www.w3.org/2000/svg" id="Layer_1" xml:space="preserve" viewBox="0 0 547.16927 716.74401" version="1.1" y="0px" x="0px" enable-background="new 0 0 595.275 841.89">
<g id="g3" transform="translate(-13.586 -30.002)" clip-rule="evenodd" fill-rule="evenodd">
	<path id="path5" d="m365.15 64.364c-8.494 34.444-31.079 54.8-54.865 73.95-10.034-7.462-24.56-10.428-35.785-16.699-2.229-8.105-3.188-17.483-4.769-26.241 27.69-11.535 55.38-54.951 95.42-31.005z" fill="#fff"/>
	<path id="path7" d="m241.11 114.46c31.629 10.513 59.96 24.326 85.879 40.552-10.117 16.917-12.767 41.302-26.241 54.868-6.73-13.853 3.2-29.641 7.156-40.555-17.876-17.907-39.445-32.116-66.794-40.552-0.01-4.77-0.01-9.54-0.01-14.31z" fill="#fff"/>
	<path id="path9" d="m329.37 166.94c27.629 26.146-24.536 90.345-19.084 138.36-25.071-9.266-12.432-45.008-7.158-66.795 6.61-27.29 20.01-50.42 26.24-71.56z" fill="#fff"/>
	<path id="path11" d="m55.041 176.48c7.302 1.447 12.43 5.063 19.084 7.154 1.68 13.43 6.361 23.855 4.771 40.557-5.924-0.359-9.899 1.228-11.928 4.771-11.468-10-8.786-34.15-11.927-52.48z" fill="#fff"/>
	<path id="path13" d="m210.1 264.74c4.094-21.351 10.942-39.95 28.624-47.711-2.09 14.15-9.08 43.16-28.62 47.71z" fill="#fff"/>
	<path id="path15" d="m243.49 360.16c-1.312-5.291 4.555-3.397 4.771-7.159-6.187-1.121-1.576-6.154-9.542-11.925 6.582-23.923-2.563-97.66 23.855-116.88 13.472 1.636 17.478 12.736 19.083 26.238-4.666 2.015-16.768 3.811-26.239 0 8.332 23.074 10.738 63.389 0 85.875 6.74 5.979 26.653-1.208 33.395 4.771-5.08 20.54-31.31 48.39-45.33 19.07zm14.32-14.31c-0.762 5.533 0.383 9.159 2.385 11.925 9.238-2.456 9.822 1.248 16.696-2.383v-7.159c-6.76-0.43-10.17-5.44-19.09-2.39z" fill="#fff"/>
	<path id="path17" d="m405.7 238.5c53.455-14.644 101.11 32.912 71.565 69.179-9.392 11.532-36.182 19.778-57.25 28.626-22.547 9.469-41.877 19.114-54.865 23.855 8.112-44.416 97.279-30.024 102.57-73.95 2.239-18.58-13.034-36.407-31.01-40.552-11.51-2.66-27.74 3.98-31-7.16z"/>
	<path id="path19" d="m267.35 255.2h9.539c7.258 21.438-12.253 59.098 2.387 73.95-4.079 7.154-8.68 2.65-16.697 2.383 5.47-13.5-1.18-55.76 4.77-76.33z" fill="#fff"/>
	<path id="path21" d="m210.1 290.98v-11.925c4.984-1.015 6.313 1.631 9.54 2.383-0.29 6.07-3.47 9.25-9.54 9.54z" fill="#fff"/>
	<path id="path23" d="m281.66 302.91c3.87 6.47 3.074 17.604 4.77 26.244-6.32-5.05-6.42-20-4.77-26.24z" fill="#fff"/>
	<path id="path25" d="m288.82 307.68c6.742-1.971 6.182 3.363 11.928 2.388 0.23 9.771-0.328 18.754-9.542 19.084-0.11-7.85-4.03-11.88-2.39-21.47z" fill="#fff"/>
	<path id="path27" d="m35.959 398.33c-1.092-7.455 5.097-7.63 11.925-7.159 0.304 4.281-2.919 5.033-2.385 9.542-2.121-1.85-5.385-2.56-9.54-2.38z"/>
	<path id="path29" d="m493.97 646.41c20.818 9.135-9.59 32.262-23.857 21.473 10.4-4.7 25.95-4.27 23.86-21.47z" fill="#fff"/>
	<path id="path31" d="m532.13 715.59c15.134 2.363 17.952 17.036 23.855 28.627-11.18-5.18-26.76-17.12-23.85-28.63z" fill="#fff"/>
	<path id="path33" d="m238.72 190.79c21.922 3.524 35.292 15.595 47.708 28.626 3.939-13.556 6.546-28.442 11.929-40.557-13.367-15.257-49.526-26.049-72.635-31.568-4.032-16.58 10.746-23.184 12.998-42.379 0.98-2.973 1.291-4.992 4.242-7.943 2.33-3.106 2.33-2.951 7.685-6.37 29.827-10.955 87.837-80.798 126.43-54.865 43.737 29.394-36.538 83.375-52.48 104.96 13.063 9.2 15.366 29.161 23.854 42.935-18.948 34.834-26.103 75.959-26.238 133.59-12.15 11.804-29.098 11.445-33.398 26.239-1.95 6.717 2.299 14.075 0 21.472-7.279 23.434-44.7 66.868-76.333 35.781-19.007-18.677-26.491-83.119-21.47-124.04 5.08-41.3 31.1-69.04 47.72-85.87zm50.1 150.29c-6.742-5.979-26.654 1.208-33.395-4.771 10.738-22.487 8.332-62.801 0-85.875 9.471 3.811 21.573 2.015 26.239 0-1.605-13.502-5.611-24.603-19.083-26.238-26.418 19.225-17.274 92.961-23.855 116.88 7.966 5.771 3.355 10.804 9.542 11.925-0.217 3.762-6.083 1.869-4.771 7.159 14.02 29.32 40.25 1.47 45.33-19.08zm-42.94-100.19c2.113-6.557 15.824-14.556 7.156-19.084-13.064 24.686-26.942 70.023-14.313 104.96 1.06-29.32 0.15-64.2 7.15-85.88zm26.64-144.74c7.349 9.882 5.799 17.395 1.977 25.469 11.225 6.271 25.75 9.236 35.785 16.699 23.786-19.15 46.935-41.272 55.428-75.716-40.04-23.952-65.5 22.002-93.19 33.542zm-35.46 32.824c31.846 9.824 46.213 15.687 70.838 40.355-3.956 10.914-13.886 26.702-7.156 40.555 13.475-13.566 16.124-37.951 26.241-54.868-25.92-16.22-57.98-30.59-89.61-41.1-0.31 4.82-0.31 10.3-0.31 15.07zm66.07 109.53c-5.274 21.788-17.913 57.53 7.158 66.795-5.452-48.012 46.713-112.21 19.084-138.36-6.23 21.14-19.63 44.27-26.24 71.56zm-104.96 45.33c-7.053 71.368 27.175 158.77 73.95 93.03-7.861 4.028-15.252 1.412-23.855 0-29.03-35.927-26.438-138.69 11.927-162.21 6.1-0.345 13.035 10.562 16.696 4.771-7.173-11.911-18.269-19.899-40.55-16.701-11.74 16.29-34.03 39.21-38.17 81.11zm64.41 47.7c8.017 0.267 12.618 4.771 16.697-2.383-14.64-14.852 4.871-52.511-2.387-73.95h-9.539c-5.95 20.57 0.7 62.83-4.77 76.33zm23.85-2.38c-1.696-8.64-0.899-19.774-4.77-26.244-1.65 6.24-1.55 21.19 4.77 26.24zm4.77 0c9.214-0.33 9.772-9.314 9.542-19.084-5.746 0.976-5.187-4.358-11.928-2.388-1.63 9.59 2.29 13.62 2.39 21.47z"/>
	<path id="path35" d="m238.72 326.76c-12.629-34.936 1.249-80.274 14.313-104.96 8.668 4.528-5.043 12.527-7.156 19.084-6.99 21.69-6.08 56.57-7.15 85.88z" fill="#fff"/>
	<path id="path37" d="m236.34 202.72c22.281-3.198 33.377 4.791 40.55 16.701-3.661 5.791-10.597-5.116-16.696-4.771-38.365 23.521-40.957 126.28-11.927 162.21 8.604 1.412 15.994 4.028 23.855 0-46.774 65.742-81.002-21.662-73.95-93.03 4.14-41.9 26.43-64.82 38.17-81.11zm-26.24 66.8c20.894-8.208 33.268-36.053 31.009-59.637-18.39 10.41-35.96 33.77-31.01 59.64zm9.54 4.77c-12.275-1.941-14.587 6.082-14.311 16.696 13.28 6.94 23.51-6.36 14.31-16.7zm-11.93 35.78c8.373-1.053 10.115-5.028 7.154-11.93h-9.54c-0.76 5.53 0.39 9.16 2.39 11.93zm7.16 64.4c4.625 3.325 3.558 12.343 7.156 16.696 6.59-4.616 36.803 1.913 26.242-11.925-5.858 2.437-26.038 6.606-26.242 0h19.084c-0.44-8.96-22.21-14.36-26.24-4.77z" fill="#fff"/>
	<path id="path39" d="m241.11 209.88c2.259 23.584-10.115 51.429-31.009 59.637-4.95-25.87 12.62-49.23 31.01-59.64zm-2.39 7.15c-17.682 7.761-24.53 26.36-28.624 47.711 19.54-4.55 26.53-33.56 28.62-47.71z"/>
	<path id="path41" d="m205.33 290.98c-0.276-10.615 2.036-18.638 14.311-16.696 9.2 10.35-1.03 23.65-14.31 16.7zm14.31-9.54c-3.226-0.752-4.556-3.398-9.54-2.383v11.925c6.07-0.29 9.25-3.47 9.54-9.54z"/>
	<path id="path43" d="m74.125 319.61c5.24 3.106-2.82 12.892-2.385 19.085-7.79-6.563-10.312 19.036-11.928 31.01-26.055-48.944 2.956-110.94 31.012-135.98-37.053 0.194-76.705 74.688-66.793 138.36 3.104 19.953 19.732 29.534 16.699 45.323-21.783-18.23-30.081-40.02-26.241-78.72 2.922-29.45 23.035-54.14 26.241-78.72 4.834-37.09-16.316-64.42-21.47-97.8 29.27-8.897 45-31.333 76.335-38.167-21.728 13.26-41.574 28.401-64.408 40.552 7.069 16.786-0.315 48.024 19.082 52.48 0.946 5.717-10.865-1.325-7.157 7.159 2.021 6.989 7.681-1.427 11.928 0-0.847-17.444-3.031-33.548-7.157-47.711 12.156-17.279 40.742-30.803 54.866-38.167-10.722 14.721-31.187 19.701-45.323 31.01-0.73 5.502 6.892 2.65 7.157 7.157 17.141-5.921 32.539-17.381 51.798-27.321 14.91-4.349 31.461-6.375 36.654-6.834 57.069-5.041 72.759 2.199 72.688 4.97-18.432-2.174-57.879 0-80.454 5.591-20.718 6.681-60.563 24.943-63.988 30.748-0.563 15.672 6.188 24.03 7.157 38.169 38.773 17.381 0.905 80.541-21.47 95.417 15.233-7.067 4.3 3.688-4.771 14.313 6.899-1.05 10.874-5.02 11.927-11.92zm-7.156-90.65c2.029-3.543 6.004-5.13 11.928-4.771 1.59-16.702-3.091-27.127-4.771-40.557-6.654-2.092-11.782-5.708-19.084-7.154 3.14 18.33 0.458 42.48 11.927 52.48z"/>
	<path id="path45" d="m467.73 655.96c-25.019-25.351-99.688-16.196-107.35-52.478-12.39-58.724 95.838-69.29 95.419-121.66-0.278-34.635-57.477-2.043-71.563 7.159-36.517 23.847-67.436 57.113-102.58 81.104-25.679 17.531-64.194 34.188-90.647 9.542-14.219-39.406 11.721-84.788 38.167-90.646 2.566 10.096-12.571 18.779-19.082 31.01-8.125 15.26-14.188 51.061 11.924 54.866 18.68 2.723 55.309-26.477 66.794-33.398 44.1-26.568 101.52-98.883 162.21-85.875 10.73 2.301 20.123 11.926 21.471 16.696 10.741 38.11-48.759 62.02-71.563 83.492-6.59 6.208-25 26.56-23.854 38.169 1.631 16.551 22.158 20.017 47.708 26.238 30.95 7.538 50 14.954 76.336 23.856 30.452 28.874 40.002 65.067 59.637 102.58-19.945 1.655-23.896-12.683-31.012-23.855-32.124-6.043-38.259-38.077-64.407-50.095 0.01-6.34-0.91-13.63 2.38-16.7zm88.26 88.26c-5.903-11.591-8.722-26.264-23.855-28.627-2.92 11.51 12.66 23.45 23.85 28.63zm-85.88-76.33c14.268 10.789 44.676-12.338 23.857-21.473 2.09 17.19-13.46 16.76-23.86 21.47zm62.02 45.32c0.534-1.854 0.065-4.708 2.385-4.771v-9.542c-8.073-7.829-13.514-18.294-21.469-26.239-5.514 0.631 19.44 22.973 16.699 28.622-10.161-10.508-16.741-24.607-28.625-33.393-1.485 6.479 10.786 11.168 4.769 14.313-4.186-3.767-4.948-10.955-11.924-11.931-4.355 3.602-13.374 2.533-16.7 7.159 16.021 11.809 26.779 28.879 42.938 40.552 2.02-3.55 7.68-3.45 11.92-4.77z"/>
	<path id="path47" d="m520.21 717.98c-16.159-11.673-26.918-28.743-42.938-40.552 3.326-4.626 12.345-3.558 16.7-7.159 6.976 0.976 7.738 8.164 11.924 11.931 6.018-3.146-6.254-7.834-4.769-14.313 11.884 8.785 18.464 22.885 28.625 33.393 2.741-5.649-22.213-27.991-16.699-28.622 7.955 7.945 13.396 18.41 21.469 26.239v9.542c-2.319 0.063-1.851 2.917-2.385 4.771-4.23 1.32-9.89 1.22-11.91 4.77z" fill="#fff"/>
	<path id="path49" d="m205.33 298.14h9.54c2.96 6.902 1.218 10.877-7.154 11.93-2.01-2.77-3.16-6.4-2.39-11.93z"/>
	<path id="path51" d="m276.89 348.23v7.159c-6.874 3.63-7.458-0.073-16.696 2.383-2.001-2.766-3.147-6.392-2.385-11.925 8.93-3.04 12.34 1.97 19.09 2.39z"/>
	<path id="path53" d="m241.11 379.24h-19.084c0.204 6.606 20.384 2.437 26.242 0 10.561 13.838-19.652 7.31-26.242 11.925-3.598-4.354-2.53-13.372-7.156-16.696 4.03-9.58 25.8-4.18 26.24 4.78z"/>
</g>
<path id="path55" d="m135.72 43.984" clip-rule="evenodd" fill-rule="evenodd"/>
<path id="path57" d="m45.018 337.84c12.843 16.134-5.769 38.281-23.513 32.539 0.811 2.053-0.587 12.328 5.963 16.696 9.319 6.213 21.863 7.896 42.556-0.466 16.5-6.664 24.87-14.774 33.393-30.131 17.133-30.879 25.195-67.606 14.911-103.13-4.655-16.075-12.425-36.033-31.063-50.944 2.662 11.62 7.436 28.986 8.649 40.882 1.121 11.003 4.839 32.869 2.533 43.61-4.373 20.38-9.117 39.285-25.472 53.429-6.557 5.674-21.684 3.606-28.578-2.485" clip-rule="evenodd" fill-rule="evenodd"/>
<path id="path59" d="m227.52 84.458c-23.666-4.23-50.173-3.817-71.296-0.917s-56.327 8.698-67.097 12.84c-5.157 1.985-24.021 8.698-24.021 8.698s0.752-5.725 14.91-11.598c9.45-3.919 32.219-8.365 37.688-9.525 6.907-1.466 41.945-7.455 56.744-7.455 7.041 0 34.375-0.417 40.588-0.83 6.212-0.413 10.099-0.754 10.099-0.754l1.913 8.21" clip-rule="evenodd" fill-rule="evenodd"/>
<path id="path61" d="m104.65 118.23c6.365-2.764 14.694-5.392 21.383-7.412 7.438-2.242 16.432-3.844 23.969-5.635 8.955-2.126 16.68-3.458 25.865-4.41 11.411-1.182 13.148-1.669 21.662-2.424 6.708-0.595 9.319 0.311 18.638 0.932 0.932 3.106 0.68 4.392 0.107 9.011-0.534 4.334 0.893 7.338-4.491 7.375-7.963 0.053-15.986 0.748-23.963 0.451-4.24-0.155-8.528 0.228-12.755-0.097-4.169-0.32-10.033 0.112-14.19-0.276-10.219-0.949-17.512 2.155-27.416 3.465-8.018 1.063-20.604 4.502-27.877-0.67" clip-rule="evenodd" fill-rule="evenodd"/>
<path id="path63" d="m211.82 469.86c10.251-12.114 19.664-24.03 28.889-35.931 12.839-16.565 18.226-24.434 28.166-36.034 19.201-22.409 28.991-31.888 52.186-49.701 2.719-2.087 13.532-9.149 16.565-10.765 4.66-2.485 8.151-4.247 12.426-5.8 18.226-6.625 36.098-27.554 39.761-33.961-12.435 2.922-54.914 21.099-65.439 28.578-5.469 3.888-13.252 7.455-21.95 14.911-11.289 9.678-13.281 13.43-19.054 18.638-12.736 11.494-15.739 13.668-25.679 26.093-12.477 15.594-25.732 33.738-36.448 50.531-4.617 7.237-9.155 12.692-14.393 19.463-3.393 4.388-7.275 8.373-9.862 13.251 4.772 1.791 9.83 0.747 13.59 0.728" clip-rule="evenodd" fill-rule="evenodd"/>
<path id="path65" d="m378.22 209.04c-4.355 1.281-0.489 0.641-4.92 0.422-5.072-0.248-9.761-0.034-14.722-1.107-9.566-2.072-20.508-4.251-29.394-8.494-4.028-1.927-7.613-4.344-10.616-7.649-3.21 7.46-4.064 8.004-2.476 11.857 2.899 7.038 19.048 10.591 26.328 12.425 7.214 1.82 15.504 3.728 24.201 3.728 6.582 0 13.338-1.344 19.881-2.072 7.536-0.845 11.396-2.126 18.928-3.728-4.131 0.704-8.746-3.528-10.3-6.97-2.749 0.913-2.602 0.219-11.113 1.17" clip-rule="evenodd" fill-rule="evenodd"/>
<metadata><rdf:RDF><cc:Work><dc:format>image/svg+xml</dc:format><dc:type rdf:resource="http://purl.org/dc/dcmitype/StillImage"/><cc:license rdf:resource="http://creativecommons.org/licenses/publicdomain/"/><dc:publisher><cc:Agent rdf:about="http://openclipart.org/"><dc:title>Openclipart</dc:title></cc:Agent></dc:publisher><dc:title>Earphones</dc:title><dc:date>2010-09-26T22:36:07</dc:date><dc:description>a stylised headphone set</dc:description><dc:source>http://openclipart.org/detail/87211/earphones-by-wildchief</dc:source><dc:creator><cc:Agent><dc:title>wildchief</dc:title></cc:Agent></dc:creator><dc:subject><rdf:Bag><rdf:li>audio</rdf:li><rdf:li>clip art</rdf:li><rdf:li>clipart</rdf:li><rdf:li>earphones</rdf:li><rdf:li>headphones</rdf:li><rdf:li>mp3</rdf:li></rdf:Bag></dc:subject></cc:Work><cc:License rdf:about="http://creativecommons.org/licenses/publicdomain/"><cc:permits rdf:resource="http://creativecommons.org/ns#Reproduction"/><cc:permits rdf:resource="http://creativecommons.org/ns#Distribution"/><cc:permits rdf:resource="http://creativecommons.org/ns#DerivativeWorks"/></cc:License></rdf:RDF></metadata></svg>
