<?xml version="1.0" encoding="UTF-8" standalone="no"?>
<svg
   xmlns:dc="http://purl.org/dc/elements/1.1/"
   xmlns:cc="http://creativecommons.org/ns#"
   xmlns:rdf="http://www.w3.org/1999/02/22-rdf-syntax-ns#"
   xmlns:svg="http://www.w3.org/2000/svg"
   xmlns="http://www.w3.org/2000/svg"
   xmlns:sodipodi="http://sodipodi.sourceforge.net/DTD/sodipodi-0.dtd"
   xmlns:inkscape="http://www.inkscape.org/namespaces/inkscape"
   id="svg3957"
   viewBox="0 0 397.09 330.21"
   version="1.1"
   inkscape:version="0.48.4 r9939"
   width="100%"
   height="100%"
   sodipodi:docname="GS_Journal.svg">
  <sodipodi:namedview
     pagecolor="#ffffff"
     bordercolor="#666666"
     borderopacity="1"
     objecttolerance="10"
     gridtolerance="10"
     guidetolerance="10"
     inkscape:pageopacity="0"
     inkscape:pageshadow="2"
     inkscape:window-width="1280"
     inkscape:window-height="1000"
     id="namedview163"
     showgrid="false"
     inkscape:zoom="1.4293934"
     inkscape:cx="105.72219"
     inkscape:cy="78.076455"
     inkscape:window-x="0"
     inkscape:window-y="24"
     inkscape:window-maximized="1"
     inkscape:current-layer="svg3957" />
  <defs
     id="defs3959" />
  <flowRoot
     line-height="125%"
     font-size="40px"
     xml:space="preserve"
     style="font-size:40px;line-height:125%;letter-spacing:0px;word-spacing:0px;fill:#000000;font-family:Sans"
     id="flowRoot4865"
     transform="translate(-0.89286,6.3066)"><flowRegion
       id="flowRegion4867"><rect
         height="81.791"
         x="1082.5"
         width="27.264"
         y="678.69"
         id="rect4869" /></flowRegion><flowPara
       id="flowPara4871" /></flowRoot>  <path
     id="rect4830"
     d="m 185.30866,13.960386 c 12.47256,9.884859 21.06968,4.737089 29.77276,0 V 313.24552 c -16.68939,10.49703 -22.32391,3.84084 -29.77276,0 z"
     inkscape:connector-curvature="0"
     style="fill:#000000;fill-opacity:1" />
  <path
     id="rect4828"
     d="m 1255.4,24.343 h 394.29 v 660 H 1255.4 z"
     inkscape:connector-curvature="0"
     style="fill:#ffffff;stroke:#000000;stroke-width:4.05299997000000012;fill-opacity:1;stroke-opacity:1"
     transform="matrix(0.45279,0,0,0.45279,-365.10286,5.1097)" />
  <path
     id="rect4822"
     d="m 840,22.362 h 394.29 v 660 H 840 z"
     inkscape:connector-curvature="0"
     style="fill:#666666;stroke:#666666;stroke-width:4.05299997000000012;"
     transform="matrix(0.45279,0,0,0.45279,-365.10286,5.1097)" />
  <path
     id="rect4877"
     d="m 11.61842,15.23499 h 178.53057 v 298.8414 H 11.61842 z"
     inkscape:connector-curvature="0"
     style="fill:#ffffff;stroke:#000000;stroke-width:1.83515786999999997;stroke-opacity:1;fill-opacity:1" />
  <path
     id="rect3965"
     d="m 15.24074,15.23499 h 178.53057 v 298.8414 H 15.24074 z"
     inkscape:connector-curvature="0"
     style="fill:#ffffff;stroke:#000000;stroke-width:1.83515786999999997;fill-opacity:1;stroke-opacity:1" />
  <path
     style="fill:none;stroke:#000000;stroke-width:0.77619784999999986px;stroke-opacity:1"
     inkscape:connector-curvature="0"
     d="M 32.921782,51.975729 H 155.14058"
     id="path3971" />
  <path
     style="fill:none;stroke:#000000;stroke-width:0.77619784999999986px;stroke-opacity:1"
     inkscape:connector-curvature="0"
     d="M 32.921782,72.028893 H 155.14058"
     id="path3975" />
  <path
     style="fill:none;stroke:#000000;stroke-width:0.77619784999999986px;stroke-opacity:1"
     inkscape:connector-curvature="0"
     d="M 32.921782,92.078434 H 155.14058"
     id="path3977" />
  <path
     style="fill:none;stroke:#000000;stroke-width:0.77619784999999986px;stroke-opacity:1"
     inkscape:connector-curvature="0"
     d="M 32.921782,112.1325 H 155.14058"
     id="path3979" />
  <path
     style="fill:none;stroke:#000000;stroke-width:0.77619784999999986px;stroke-opacity:1"
     inkscape:connector-curvature="0"
     d="M 32.921782,132.18657 H 155.14058"
     id="path3981" />
  <path
     style="fill:none;stroke:#000000;stroke-width:0.77619784999999986px;stroke-opacity:1"
     inkscape:connector-curvature="0"
     d="M 32.921782,152.23611 H 155.14058"
     id="path3983" />
  <path
     style="fill:none;stroke:#000000;stroke-width:0.77619784999999986px;stroke-opacity:1"
     inkscape:connector-curvature="0"
     d="M 32.921782,172.29018 H 155.14058"
     id="path3985" />
  <path
     style="fill:none;stroke:#000000;stroke-width:0.77619784999999986px;stroke-opacity:1"
     inkscape:connector-curvature="0"
     d="M 32.921782,192.33972 H 155.14058"
     id="path3987" />
  <path
     style="fill:none;stroke:#000000;stroke-width:0.77619784999999986px;stroke-opacity:1"
     inkscape:connector-curvature="0"
     d="M 32.921782,212.39379 H 155.14058"
     id="path3989" />
  <path
     style="fill:none;stroke:#000000;stroke-width:0.77619784999999986px;stroke-opacity:1"
     inkscape:connector-curvature="0"
     d="M 32.921782,232.44333 H 155.14058"
     id="path3991" />
  <path
     style="fill:none;stroke:#000000;stroke-width:0.77619784999999986px;stroke-opacity:1"
     inkscape:connector-curvature="0"
     d="M 32.921782,252.4974 H 155.14058"
     id="path3993" />
  <path
     style="fill:none;stroke:#000000;stroke-width:0.77619784999999986px;stroke-opacity:1"
     inkscape:connector-curvature="0"
     d="M 32.921782,272.55147 H 155.14058"
     id="path3995" />
  <path
     style="fill:none;stroke:#000000;stroke-width:0.77619784999999986px;stroke-opacity:1"
     inkscape:connector-curvature="0"
     d="M 32.921782,292.60101 H 155.14058"
     id="path3997" />
  <path
     id="path3999"
     d="M 32.70485,19.526081 V 302.71"
     inkscape:connector-curvature="0"
     style="fill:none;stroke:#000000;stroke-width:1.14234388000000009px;stroke-opacity:1" />
  <path
     id="path4016"
     d="M 166.38204,35.089379 H 18.953618"
     inkscape:connector-curvature="0"
     style="fill:none;stroke:#000000;stroke-width:0.57898258999999996px;stroke-opacity:1" />
  <path
     id="rect4879"
     d="m 207.72177,15.23499 h 178.53057 v 298.8414 H 207.72177 z"
     inkscape:connector-curvature="0"
     style="fill:#ffffff;stroke:#000000;stroke-width:1.83515786999999997;stroke-opacity:1;fill-opacity:1" />
  <path
     id="rect4041"
     d="m 204.09945,15.23499 h 178.53057 v 298.8414 H 204.09945 z"
     inkscape:connector-curvature="0"
     style="fill:#ffffff;stroke:#000000;stroke-width:1.83515786999999997;fill-opacity:1;stroke-opacity:1" />
  <path
     style="fill:none;stroke:#000000;stroke-width:0.80280684999999985px;stroke-opacity:1"
     inkscape:connector-curvature="0"
     d="M 235.39985,51.975729 H 366.14191"
     id="path4045" />
  <path
     style="fill:none;stroke:#000000;stroke-width:0.80280684999999985px;stroke-opacity:1"
     inkscape:connector-curvature="0"
     d="M 235.39985,72.028893 H 366.14191"
     id="path4047" />
  <path
     style="fill:none;stroke:#000000;stroke-width:0.80280684999999985px;stroke-opacity:1"
     inkscape:connector-curvature="0"
     d="M 235.39985,92.078434 H 366.14191"
     id="path4049" />
  <path
     style="fill:none;stroke:#000000;stroke-width:0.80280684999999985px;stroke-opacity:1"
     inkscape:connector-curvature="0"
     d="M 235.39985,112.1325 H 366.14191"
     id="path4051" />
  <path
     style="fill:none;stroke:#000000;stroke-width:0.80280684999999985px;stroke-opacity:1"
     inkscape:connector-curvature="0"
     d="M 235.39985,132.18657 H 366.14191"
     id="path4053" />
  <path
     style="fill:none;stroke:#000000;stroke-width:0.80280684999999985px;stroke-opacity:1"
     inkscape:connector-curvature="0"
     d="M 235.39985,152.23611 H 366.14191"
     id="path4055" />
  <path
     style="fill:none;stroke:#000000;stroke-width:0.80280684999999985px;stroke-opacity:1"
     inkscape:connector-curvature="0"
     d="M 235.39985,172.29018 H 366.14191"
     id="path4057" />
  <path
     style="fill:none;stroke:#000000;stroke-width:0.80280684999999985px;stroke-opacity:1"
     inkscape:connector-curvature="0"
     d="M 235.39985,192.33972 H 366.14191"
     id="path4059" />
  <path
     style="fill:none;stroke:#000000;stroke-width:0.80280684999999985px;stroke-opacity:1"
     inkscape:connector-curvature="0"
     d="M 235.39985,212.39379 H 366.14191"
     id="path4061" />
  <path
     style="fill:none;stroke:#000000;stroke-width:0.80280684999999985px;stroke-opacity:1"
     inkscape:connector-curvature="0"
     d="M 235.39985,232.44333 H 366.14191"
     id="path4063" />
  <path
     style="fill:none;stroke:#000000;stroke-width:0.80280684999999985px;stroke-opacity:1"
     inkscape:connector-curvature="0"
     d="M 235.39985,252.4974 H 366.14191"
     id="path4065" />
  <path
     style="fill:none;stroke:#000000;stroke-width:0.80280684999999985px;stroke-opacity:1"
     inkscape:connector-curvature="0"
     d="M 235.39985,272.55147 H 366.14191"
     id="path4067" />
  <path
     style="fill:none;stroke:#000000;stroke-width:0.80280684999999985px;stroke-opacity:1"
     inkscape:connector-curvature="0"
     d="M 235.39985,292.60101 H 366.14191"
     id="path4069" />
  <path
     id="path4071"
     d="M 235.16084,18.80207 V 302.71046"
     inkscape:connector-curvature="0"
     style="fill:none;stroke:#000000;stroke-width:1.18304968000000010px;stroke-opacity:1" />
  <path
     id="path4073"
     d="M 380.46115,35.736416 H 221.45489"
     inkscape:connector-curvature="0"
     style="fill:none;stroke:#000000;stroke-width:0.88534027000000004px;stroke-opacity:1" />
  <g
     id="g4145"
     style="fill:#f2f2f2;stroke:#000000;stroke-width:4.05299997000000012;"
     transform="matrix(0.45279,0,0,0.45279,-365.10286,5.1097)">
    <path
       id="path4110"
       d="m 585.71,-96.209 c 0,12.624 -10.873,22.857 -24.286,22.857 -13.413,0 -24.286,-10.233 -24.286,-22.857 0,-12.624 10.873,-22.857 24.286,-22.857 13.413,0 24.286,10.233 24.286,22.857 z"
       transform="matrix(0.59616,0,0,0.58848,869.6,159.57)"
       inkscape:connector-curvature="0" />
    <path
       id="path4129"
       d="m 585.71,-96.209 c 0,12.624 -10.873,22.857 -24.286,22.857 -13.413,0 -24.286,-10.233 -24.286,-22.857 0,-12.624 10.873,-22.857 24.286,-22.857 13.413,0 24.286,10.233 24.286,22.857 z"
       transform="matrix(0.59616,0,0,0.58848,869.6,219.06)"
       inkscape:connector-curvature="0" />
    <path
       id="path4131"
       d="m 585.71,-96.209 c 0,12.624 -10.873,22.857 -24.286,22.857 -13.413,0 -24.286,-10.233 -24.286,-22.857 0,-12.624 10.873,-22.857 24.286,-22.857 13.413,0 24.286,10.233 24.286,22.857 z"
       transform="matrix(0.59616,0,0,0.58848,869.6,278.55)"
       inkscape:connector-curvature="0" />
    <path
       id="path4133"
       d="m 585.71,-96.209 c 0,12.624 -10.873,22.857 -24.286,22.857 -13.413,0 -24.286,-10.233 -24.286,-22.857 0,-12.624 10.873,-22.857 24.286,-22.857 13.413,0 24.286,10.233 24.286,22.857 z"
       transform="matrix(0.59616,0,0,0.58848,869.6,338.05)"
       inkscape:connector-curvature="0" />
    <path
       id="path4135"
       d="m 585.71,-96.209 c 0,12.624 -10.873,22.857 -24.286,22.857 -13.413,0 -24.286,-10.233 -24.286,-22.857 0,-12.624 10.873,-22.857 24.286,-22.857 13.413,0 24.286,10.233 24.286,22.857 z"
       transform="matrix(0.59616,0,0,0.58848,869.6,397.54)"
       inkscape:connector-curvature="0" />
    <path
       id="path4137"
       d="m 585.71,-96.209 c 0,12.624 -10.873,22.857 -24.286,22.857 -13.413,0 -24.286,-10.233 -24.286,-22.857 0,-12.624 10.873,-22.857 24.286,-22.857 13.413,0 24.286,10.233 24.286,22.857 z"
       transform="matrix(0.59616,0,0,0.58848,869.6,457.03)"
       inkscape:connector-curvature="0" />
    <path
       id="path4139"
       d="m 585.71,-96.209 c 0,12.624 -10.873,22.857 -24.286,22.857 -13.413,0 -24.286,-10.233 -24.286,-22.857 0,-12.624 10.873,-22.857 24.286,-22.857 13.413,0 24.286,10.233 24.286,22.857 z"
       transform="matrix(0.59616,0,0,0.58848,869.6,516.52)"
       inkscape:connector-curvature="0" />
    <path
       id="path4141"
       d="m 585.71,-96.209 c 0,12.624 -10.873,22.857 -24.286,22.857 -13.413,0 -24.286,-10.233 -24.286,-22.857 0,-12.624 10.873,-22.857 24.286,-22.857 13.413,0 24.286,10.233 24.286,22.857 z"
       transform="matrix(0.59616,0,0,0.58848,869.6,576.01)"
       inkscape:connector-curvature="0" />
    <path
       id="path4143"
       d="m 585.71,-96.209 c 0,12.624 -10.873,22.857 -24.286,22.857 -13.413,0 -24.286,-10.233 -24.286,-22.857 0,-12.624 10.873,-22.857 24.286,-22.857 13.413,0 24.286,10.233 24.286,22.857 z"
       transform="matrix(0.59616,0,0,0.58848,869.6,635.5)"
       inkscape:connector-curvature="0" />
  </g>
  <g
     id="g4156"
     transform="matrix(0.45279,0,0,0.45279,-326.61616,5.1097)"
     style="fill:#f2f2f2;stroke:#000000;stroke-width:4.05299997000000012;">
    <path
       id="path4158"
       d="m 585.71,-96.209 c 0,12.624 -10.873,22.857 -24.286,22.857 -13.413,0 -24.286,-10.233 -24.286,-22.857 0,-12.624 10.873,-22.857 24.286,-22.857 13.413,0 24.286,10.233 24.286,22.857 z"
       transform="matrix(0.59616,0,0,0.58848,869.6,159.57)"
       inkscape:connector-curvature="0" />
    <path
       id="path4160"
       d="m 585.71,-96.209 c 0,12.624 -10.873,22.857 -24.286,22.857 -13.413,0 -24.286,-10.233 -24.286,-22.857 0,-12.624 10.873,-22.857 24.286,-22.857 13.413,0 24.286,10.233 24.286,22.857 z"
       transform="matrix(0.59616,0,0,0.58848,869.6,219.06)"
       inkscape:connector-curvature="0" />
    <path
       id="path4162"
       d="m 585.71,-96.209 c 0,12.624 -10.873,22.857 -24.286,22.857 -13.413,0 -24.286,-10.233 -24.286,-22.857 0,-12.624 10.873,-22.857 24.286,-22.857 13.413,0 24.286,10.233 24.286,22.857 z"
       transform="matrix(0.59616,0,0,0.58848,869.6,278.55)"
       inkscape:connector-curvature="0" />
    <path
       id="path4164"
       d="m 585.71,-96.209 c 0,12.624 -10.873,22.857 -24.286,22.857 -13.413,0 -24.286,-10.233 -24.286,-22.857 0,-12.624 10.873,-22.857 24.286,-22.857 13.413,0 24.286,10.233 24.286,22.857 z"
       transform="matrix(0.59616,0,0,0.58848,869.6,338.05)"
       inkscape:connector-curvature="0" />
    <path
       id="path4166"
       d="m 585.71,-96.209 c 0,12.624 -10.873,22.857 -24.286,22.857 -13.413,0 -24.286,-10.233 -24.286,-22.857 0,-12.624 10.873,-22.857 24.286,-22.857 13.413,0 24.286,10.233 24.286,22.857 z"
       transform="matrix(0.59616,0,0,0.58848,869.6,397.54)"
       inkscape:connector-curvature="0" />
    <path
       id="path4168"
       d="m 585.71,-96.209 c 0,12.624 -10.873,22.857 -24.286,22.857 -13.413,0 -24.286,-10.233 -24.286,-22.857 0,-12.624 10.873,-22.857 24.286,-22.857 13.413,0 24.286,10.233 24.286,22.857 z"
       transform="matrix(0.59616,0,0,0.58848,869.6,457.03)"
       inkscape:connector-curvature="0" />
    <path
       id="path4170"
       d="m 585.71,-96.209 c 0,12.624 -10.873,22.857 -24.286,22.857 -13.413,0 -24.286,-10.233 -24.286,-22.857 0,-12.624 10.873,-22.857 24.286,-22.857 13.413,0 24.286,10.233 24.286,22.857 z"
       transform="matrix(0.59616,0,0,0.58848,869.6,516.52)"
       inkscape:connector-curvature="0" />
    <path
       id="path4172"
       d="m 585.71,-96.209 c 0,12.624 -10.873,22.857 -24.286,22.857 -13.413,0 -24.286,-10.233 -24.286,-22.857 0,-12.624 10.873,-22.857 24.286,-22.857 13.413,0 24.286,10.233 24.286,22.857 z"
       transform="matrix(0.59616,0,0,0.58848,869.6,576.01)"
       inkscape:connector-curvature="0" />
    <path
       id="path4174"
       d="m 585.71,-96.209 c 0,12.624 -10.873,22.857 -24.286,22.857 -13.413,0 -24.286,-10.233 -24.286,-22.857 0,-12.624 10.873,-22.857 24.286,-22.857 13.413,0 24.286,10.233 24.286,22.857 z"
       transform="matrix(0.59616,0,0,0.58848,869.6,635.5)"
       inkscape:connector-curvature="0" />
  </g>
  <g
     id="g4778"
     style="fill:#ffffff;stroke:#000000;stroke-width:4.05299997000000012;fill-opacity:1"
     transform="matrix(0.45279,0,0,0.45279,-365.10286,5.1097)">
    <path
       id="path4780"
       d="m 585.71,-96.209 c 0,12.624 -10.873,22.857 -24.286,22.857 -13.413,0 -24.286,-10.233 -24.286,-22.857 0,-12.624 10.873,-22.857 24.286,-22.857 13.413,0 24.286,10.233 24.286,22.857 z"
       transform="matrix(0.59616,0,0,0.58848,869.6,159.57)"
       inkscape:connector-curvature="0"
       style="fill:#ffffff;fill-opacity:1" />
    <path
       id="path4782"
       d="m 585.71,-96.209 c 0,12.624 -10.873,22.857 -24.286,22.857 -13.413,0 -24.286,-10.233 -24.286,-22.857 0,-12.624 10.873,-22.857 24.286,-22.857 13.413,0 24.286,10.233 24.286,22.857 z"
       transform="matrix(0.59616,0,0,0.58848,869.6,219.06)"
       inkscape:connector-curvature="0"
       style="fill:#ffffff;fill-opacity:1" />
    <path
       id="path4784"
       d="m 585.71,-96.209 c 0,12.624 -10.873,22.857 -24.286,22.857 -13.413,0 -24.286,-10.233 -24.286,-22.857 0,-12.624 10.873,-22.857 24.286,-22.857 13.413,0 24.286,10.233 24.286,22.857 z"
       transform="matrix(0.59616,0,0,0.58848,869.6,278.55)"
       inkscape:connector-curvature="0"
       style="fill:#ffffff;fill-opacity:1" />
    <path
       id="path4786"
       d="m 585.71,-96.209 c 0,12.624 -10.873,22.857 -24.286,22.857 -13.413,0 -24.286,-10.233 -24.286,-22.857 0,-12.624 10.873,-22.857 24.286,-22.857 13.413,0 24.286,10.233 24.286,22.857 z"
       transform="matrix(0.59616,0,0,0.58848,869.6,338.05)"
       inkscape:connector-curvature="0"
       style="fill:#ffffff;fill-opacity:1" />
    <path
       id="path4788"
       d="m 585.71,-96.209 c 0,12.624 -10.873,22.857 -24.286,22.857 -13.413,0 -24.286,-10.233 -24.286,-22.857 0,-12.624 10.873,-22.857 24.286,-22.857 13.413,0 24.286,10.233 24.286,22.857 z"
       transform="matrix(0.59616,0,0,0.58848,869.6,397.54)"
       inkscape:connector-curvature="0"
       style="fill:#ffffff;fill-opacity:1" />
    <path
       id="path4790"
       d="m 585.71,-96.209 c 0,12.624 -10.873,22.857 -24.286,22.857 -13.413,0 -24.286,-10.233 -24.286,-22.857 0,-12.624 10.873,-22.857 24.286,-22.857 13.413,0 24.286,10.233 24.286,22.857 z"
       transform="matrix(0.59616,0,0,0.58848,869.6,457.03)"
       inkscape:connector-curvature="0"
       style="fill:#ffffff;fill-opacity:1" />
    <path
       id="path4792"
       d="m 585.71,-96.209 c 0,12.624 -10.873,22.857 -24.286,22.857 -13.413,0 -24.286,-10.233 -24.286,-22.857 0,-12.624 10.873,-22.857 24.286,-22.857 13.413,0 24.286,10.233 24.286,22.857 z"
       transform="matrix(0.59616,0,0,0.58848,869.6,516.52)"
       inkscape:connector-curvature="0"
       style="fill:#ffffff;fill-opacity:1" />
    <path
       id="path4794"
       d="m 585.71,-96.209 c 0,12.624 -10.873,22.857 -24.286,22.857 -13.413,0 -24.286,-10.233 -24.286,-22.857 0,-12.624 10.873,-22.857 24.286,-22.857 13.413,0 24.286,10.233 24.286,22.857 z"
       transform="matrix(0.59616,0,0,0.58848,869.6,576.01)"
       inkscape:connector-curvature="0"
       style="fill:#ffffff;fill-opacity:1" />
    <path
       id="path4796"
       d="m 585.71,-96.209 c 0,12.624 -10.873,22.857 -24.286,22.857 -13.413,0 -24.286,-10.233 -24.286,-22.857 0,-12.624 10.873,-22.857 24.286,-22.857 13.413,0 24.286,10.233 24.286,22.857 z"
       transform="matrix(0.59616,0,0,0.58848,869.6,635.5)"
       inkscape:connector-curvature="0"
       style="fill:#ffffff;fill-opacity:1" />
  </g>
  <g
     id="g4802"
     transform="matrix(0.45279,0,0,0.45279,-326.61616,5.1097)"
     style="fill:#ffffff;stroke:#000000;stroke-width:4.05299997000000012;fill-opacity:1">
    <path
       id="path4804"
       d="m 585.71,-96.209 c 0,12.624 -10.873,22.857 -24.286,22.857 -13.413,0 -24.286,-10.233 -24.286,-22.857 0,-12.624 10.873,-22.857 24.286,-22.857 13.413,0 24.286,10.233 24.286,22.857 z"
       transform="matrix(0.59616,0,0,0.58848,869.6,159.57)"
       inkscape:connector-curvature="0"
       style="fill:#ffffff;fill-opacity:1" />
    <path
       id="path4806"
       d="m 585.71,-96.209 c 0,12.624 -10.873,22.857 -24.286,22.857 -13.413,0 -24.286,-10.233 -24.286,-22.857 0,-12.624 10.873,-22.857 24.286,-22.857 13.413,0 24.286,10.233 24.286,22.857 z"
       transform="matrix(0.59616,0,0,0.58848,869.6,219.06)"
       inkscape:connector-curvature="0"
       style="fill:#ffffff;fill-opacity:1" />
    <path
       id="path4808"
       d="m 585.71,-96.209 c 0,12.624 -10.873,22.857 -24.286,22.857 -13.413,0 -24.286,-10.233 -24.286,-22.857 0,-12.624 10.873,-22.857 24.286,-22.857 13.413,0 24.286,10.233 24.286,22.857 z"
       transform="matrix(0.59616,0,0,0.58848,869.6,278.55)"
       inkscape:connector-curvature="0"
       style="fill:#ffffff;fill-opacity:1" />
    <path
       id="path4810"
       d="m 585.71,-96.209 c 0,12.624 -10.873,22.857 -24.286,22.857 -13.413,0 -24.286,-10.233 -24.286,-22.857 0,-12.624 10.873,-22.857 24.286,-22.857 13.413,0 24.286,10.233 24.286,22.857 z"
       transform="matrix(0.59616,0,0,0.58848,869.6,338.05)"
       inkscape:connector-curvature="0"
       style="fill:#ffffff;fill-opacity:1" />
    <path
       id="path4812"
       d="m 585.71,-96.209 c 0,12.624 -10.873,22.857 -24.286,22.857 -13.413,0 -24.286,-10.233 -24.286,-22.857 0,-12.624 10.873,-22.857 24.286,-22.857 13.413,0 24.286,10.233 24.286,22.857 z"
       transform="matrix(0.59616,0,0,0.58848,869.6,397.54)"
       inkscape:connector-curvature="0"
       style="fill:#ffffff;fill-opacity:1" />
    <path
       id="path4814"
       d="m 585.71,-96.209 c 0,12.624 -10.873,22.857 -24.286,22.857 -13.413,0 -24.286,-10.233 -24.286,-22.857 0,-12.624 10.873,-22.857 24.286,-22.857 13.413,0 24.286,10.233 24.286,22.857 z"
       transform="matrix(0.59616,0,0,0.58848,869.6,457.03)"
       inkscape:connector-curvature="0"
       style="fill:#ffffff;fill-opacity:1" />
    <path
       id="path4816"
       d="m 585.71,-96.209 c 0,12.624 -10.873,22.857 -24.286,22.857 -13.413,0 -24.286,-10.233 -24.286,-22.857 0,-12.624 10.873,-22.857 24.286,-22.857 13.413,0 24.286,10.233 24.286,22.857 z"
       transform="matrix(0.59616,0,0,0.58848,869.6,516.52)"
       inkscape:connector-curvature="0"
       style="fill:#ffffff;fill-opacity:1" />
    <path
       id="path4818"
       d="m 585.71,-96.209 c 0,12.624 -10.873,22.857 -24.286,22.857 -13.413,0 -24.286,-10.233 -24.286,-22.857 0,-12.624 10.873,-22.857 24.286,-22.857 13.413,0 24.286,10.233 24.286,22.857 z"
       transform="matrix(0.59616,0,0,0.58848,869.6,576.01)"
       inkscape:connector-curvature="0"
       style="fill:#ffffff;fill-opacity:1" />
    <path
       id="path4820"
       d="m 585.71,-96.209 c 0,12.624 -10.873,22.857 -24.286,22.857 -13.413,0 -24.286,-10.233 -24.286,-22.857 0,-12.624 10.873,-22.857 24.286,-22.857 13.413,0 24.286,10.233 24.286,22.857 z"
       transform="matrix(0.59616,0,0,0.58848,869.6,635.5)"
       inkscape:connector-curvature="0"
       style="fill:#ffffff;fill-opacity:1" />
  </g>
  <g
     id="g4740"
     style="fill:none;stroke:#000000;stroke-width:12.72099972000000001;stroke-linecap:round;"
     transform="matrix(0.45279,0,0,0.45279,-365.10286,5.1097)">
    <g
       id="g4704">
      <path
         id="path4176"
         d="m 1197.9,104.66 c 58.827,-29.901 98.722,-0.0311 98.763,0"
         inkscape:connector-curvature="0" />
      <path
         id="path4686"
         d="m 1197.9,164 c 58.827,-29.901 98.722,-0.0311 98.763,0"
         inkscape:connector-curvature="0" />
      <path
         id="path4688"
         d="m 1197.9,226.55 c 58.827,-29.901 98.722,-0.0311 98.763,0"
         inkscape:connector-curvature="0" />
      <path
         id="path4690"
         d="m 1197.9,285.89 c 58.827,-29.901 98.722,-0.0311 98.763,0"
         inkscape:connector-curvature="0" />
      <path
         id="path4696"
         d="m 1197.9,521.24 c 58.827,-29.901 98.722,-0.0311 98.763,0"
         inkscape:connector-curvature="0" />
      <path
         id="path4698"
         d="m 1197.9,460.3 c 58.827,-29.901 98.722,-0.0311 98.763,0"
         inkscape:connector-curvature="0" />
      <path
         id="path4700"
         d="m 1197.9,402.56 c 58.827,-29.901 98.722,-0.0311 98.763,0"
         inkscape:connector-curvature="0" />
      <path
         id="path4702"
         d="m 1197.9,344.83 c 58.827,-29.901 98.722,-0.0311 98.763,0"
         inkscape:connector-curvature="0" />
    </g>
    <path
       id="path4724"
       d="m 1199.5,582.18 c 58.827,-29.901 98.722,-0.0311 98.763,0"
       inkscape:connector-curvature="0" />
  </g>
  <g
     id="g4752"
     style="fill:none;stroke:#ffffff;stroke-width:2.20000004999999987;stroke-linecap:round;stroke-opacity:1"
     transform="matrix(0.45279,0,0,0.45279,-365.10286,5.1097)">
    <g
       id="g4754"
       style="stroke:#ffffff;stroke-opacity:1">
      <path
         id="path4756"
         d="m 1197.9,104.66 c 58.827,-29.901 98.722,-0.0311 98.763,0"
         inkscape:connector-curvature="0"
         style="stroke:#ffffff;stroke-opacity:1" />
      <path
         id="path4758"
         d="m 1197.9,164 c 58.827,-29.901 98.722,-0.0311 98.763,0"
         inkscape:connector-curvature="0"
         style="stroke:#ffffff;stroke-opacity:1" />
      <path
         id="path4760"
         d="m 1197.9,226.55 c 58.827,-29.901 98.722,-0.0311 98.763,0"
         inkscape:connector-curvature="0"
         style="stroke:#ffffff;stroke-opacity:1" />
      <path
         id="path4762"
         d="m 1197.9,285.89 c 58.827,-29.901 98.722,-0.0311 98.763,0"
         inkscape:connector-curvature="0"
         style="stroke:#ffffff;stroke-opacity:1" />
      <path
         id="path4764"
         d="m 1197.9,521.24 c 58.827,-29.901 98.722,-0.0311 98.763,0"
         inkscape:connector-curvature="0"
         style="stroke:#ffffff;stroke-opacity:1" />
      <path
         id="path4766"
         d="m 1197.9,460.3 c 58.827,-29.901 98.722,-0.0311 98.763,0"
         inkscape:connector-curvature="0"
         style="stroke:#ffffff;stroke-opacity:1" />
      <path
         id="path4768"
         d="m 1197.9,402.56 c 58.827,-29.901 98.722,-0.0311 98.763,0"
         inkscape:connector-curvature="0"
         style="stroke:#ffffff;stroke-opacity:1" />
      <path
         id="path4770"
         d="m 1197.9,344.83 c 58.827,-29.901 98.722,-0.0311 98.763,0"
         inkscape:connector-curvature="0"
         style="stroke:#ffffff;stroke-opacity:1" />
    </g>
    <path
       id="path4772"
       d="m 1199.5,582.18 c 58.827,-29.901 98.722,-0.0311 98.763,0"
       inkscape:connector-curvature="0"
       style="stroke:#ffffff;stroke-opacity:1" />
  </g>
  <g
     id="text4849"
     transform="matrix(0.45279,0,0,0.45279,-365.10286,5.1097)">
    <path
       id="path5035"
       d="m 1117.8,51.979 h 1.8077 c 1.8854,10e-7 3.3303,-0.53778 4.3346,-1.6133 1.0108,-1.0756 1.5161,-2.6176 1.5161,-4.6262 0,-2.0086 -0.5021,-3.5441 -1.5064,-4.6067 -1.0043,-1.0626 -2.4524,-1.5939 -4.3443,-1.5939 H 1117.8 v 12.44 m -3.8195,1.0302 v -1.0302 h 1.8465 v -12.44 h -1.8465 V 38.499 h 5.773 c 2.5009,1.4e-5 4.448,0.63822 5.841,1.9146 1.3995,1.2764 2.0993,3.0517 2.0993,5.3259 0,2.2807 -0.6998,4.0625 -2.0993,5.3454 -1.3995,1.2829 -3.3465,1.9243 -5.841,1.9243 h -5.773"
       inkscape:connector-curvature="0" />
    <path
       id="path5037"
       d="m 1136.8,49.764 v -2.1867 h -2.3033 c -0.8877,6e-6 -1.5486,0.19114 -1.9827,0.57341 -0.4341,0.38228 -0.6512,0.96865 -0.6511,1.7591 -10e-5,0.7192 0.2202,1.2894 0.6608,1.7105 0.4406,0.42115 1.0367,0.63173 1.7883,0.63173 0.7451,0 1.3444,-0.23001 1.798,-0.69004 0.46,-0.46002 0.69,-1.0594 0.69,-1.798 m 1.7883,-3.2072 v 5.4231 h 1.5939 v 1.0302 H 1136.8 v -1.1177 c -0.3952,0.47946 -0.852,0.83258 -1.3703,1.0594 -0.5184,0.22677 -1.1242,0.34016 -1.8175,0.34016 -1.1468,-1e-6 -2.0571,-0.30452 -2.731,-0.91358 -0.6738,-0.60905 -1.0107,-1.4319 -1.0107,-2.4686 0,-1.0691 0.3855,-1.8984 1.1565,-2.488 0.7711,-0.58961 1.8596,-0.88441 3.2656,-0.88442 h 2.5074 v -0.70948 c 0,-0.78398 -0.2397,-1.3898 -0.7192,-1.8174 -0.4729,-0.4341 -1.1403,-0.65116 -2.002,-0.65116 -0.7128,1e-5 -1.2797,0.16199 -1.7008,0.48594 -0.4212,0.32397 -0.6836,0.80344 -0.7873,1.4384 h -0.9233 v -2.0896 c 0.622,-0.26564 1.2246,-0.46326 1.8077,-0.59285 0.5896,-0.13605 1.1631,-0.20409 1.7203,-0.2041 1.4319,1.1e-5 2.5204,0.35637 3.2655,1.0691 0.7516,0.70625 1.1274,1.7364 1.1274,3.0906"
       inkscape:connector-curvature="0" />
    <path
       id="path5039"
       d="m 1142.8,43.718 h -1.5745 v -1.0399 h 1.5745 v -3.2072 h 1.798 v 3.2072 h 3.3627 v 1.0399 h -3.3627 v 6.5602 c -10e-5,0.8747 0.084,1.4352 0.2526,1.6814 0.1685,0.24621 0.4795,0.36932 0.9331,0.36932 0.4665,0 0.8066,-0.13606 1.0204,-0.40819 0.2138,-0.27861 0.3272,-0.72568 0.3402,-1.3412 h 1.3509 c -0.052,0.93949 -0.3078,1.6263 -0.7678,2.0604 -0.46,0.43411 -1.1598,0.65116 -2.0992,0.65116 -1.0303,-10e-7 -1.7592,-0.22677 -2.1868,-0.68032 -0.4276,-0.46003 -0.6414,-1.2375 -0.6414,-2.3325 v -6.5602"
       inkscape:connector-curvature="0" />
    <path
       id="path5041"
       d="m 1159.5,48.034 h -7.7071 v 0.07775 c 0,1.393 0.2624,2.4459 0.7873,3.1586 0.5248,0.70624 1.299,1.0594 2.3228,1.0594 0.784,0 1.4254,-0.2041 1.9243,-0.61229 0.5054,-0.41467 0.8585,-1.027 1.0594,-1.8369 h 1.4384 c -0.2851,1.1339 -0.8132,1.9859 -1.5842,2.5561 -0.7646,0.57017 -1.7721,0.85526 -3.0226,0.85526 -1.5097,-10e-7 -2.7245,-0.49566 -3.6446,-1.487 -0.9135,-0.9978 -1.3703,-2.3196 -1.3703,-3.9653 0,-1.6328 0.4503,-2.9481 1.3509,-3.9459 0.9006,-0.99779 2.0831,-1.4967 3.5474,-1.4967 1.5615,1.1e-5 2.7601,0.48272 3.596,1.4481 0.8358,0.95894 1.2699,2.3552 1.3023,4.1888 m -2.109,-1.0302 c -0.039,-1.2051 -0.2948,-2.1122 -0.7678,-2.7213 -0.4665,-0.61552 -1.1403,-0.92328 -2.0215,-0.92329 -0.8229,10e-6 -1.4708,0.30777 -1.9438,0.92329 -0.473,0.61554 -0.7613,1.5226 -0.865,2.7213 h 5.5981"
       inkscape:connector-curvature="0" />
    <path
       id="path5043"
       d="m 1162.6,51.999 c 0,-0.36284 0.1231,-0.6706 0.3694,-0.92329 0.2527,-0.25269 0.5604,-0.37903 0.9233,-0.37904 0.3628,2e-6 0.6673,0.12635 0.9135,0.37904 0.2527,0.25269 0.3791,0.56046 0.3791,0.92329 0,0.36284 -0.1231,0.6706 -0.3694,0.92329 -0.2462,0.24621 -0.5539,0.36932 -0.9232,0.36932 -0.3694,-10e-7 -0.6771,-0.12311 -0.9233,-0.36932 C 1162.7231,52.6696 1162.6,52.36184 1162.6,51.999 m 0,-6.3367 c 0,-0.36283 0.1231,-0.66736 0.3694,-0.91357 0.2527,-0.25268 0.5604,-0.37903 0.9233,-0.37904 0.3693,9e-6 0.677,0.12312 0.9232,0.36932 0.2463,0.24622 0.3694,0.55398 0.3694,0.92329 0,0.36932 -0.1231,0.67709 -0.3694,0.92329 -0.2462,0.24622 -0.5539,0.36932 -0.9232,0.36932 -0.3629,6e-6 -0.6706,-0.1231 -0.9233,-0.36932 -0.2463,-0.25268 -0.3694,-0.56045 -0.3694,-0.92329"
       inkscape:connector-curvature="0" />
  </g>
  <g
     id="text4857"
     transform="matrix(0.45279,0,0,0.45279,-365.10286,5.1097)">
    <path
       id="path5046"
       d="m 1538,53.583 h 1.8077 c 1.8855,1e-6 3.3303,-0.53778 4.3346,-1.6133 1.0108,-1.0756 1.5162,-2.6176 1.5162,-4.6262 0,-2.0086 -0.5022,-3.5441 -1.5065,-4.6067 -1.0043,-1.0626 -2.4524,-1.5939 -4.3443,-1.5939 H 1538 v 12.44 m -3.8195,1.0302 v -1.0302 h 1.8466 v -12.44 h -1.8466 V 40.103 h 5.773 c 2.501,1.5e-5 4.448,0.63822 5.841,1.9146 1.3995,1.2764 2.0993,3.0517 2.0993,5.3259 0,2.2807 -0.6998,4.0625 -2.0993,5.3454 -1.3995,1.2829 -3.3465,1.9243 -5.841,1.9243 h -5.773"
       inkscape:connector-curvature="0" />
    <path
       id="path5048"
       d="m 1556.9,51.367 v -2.1867 h -2.3034 c -0.8877,6e-6 -1.5486,0.19114 -1.9827,0.57341 -0.4341,0.38228 -0.6511,0.96865 -0.6511,1.7591 0,0.7192 0.2203,1.2894 0.6609,1.7105 0.4405,0.42115 1.0366,0.63173 1.7882,0.63173 0.7451,10e-7 1.3445,-0.23001 1.798,-0.69004 0.46,-0.46002 0.69,-1.0594 0.6901,-1.798 m 1.7882,-3.2072 v 5.4231 h 1.5939 v 1.0302 H 1556.9 v -1.1177 c -0.3953,0.47947 -0.8521,0.83258 -1.3704,1.0594 -0.5184,0.22677 -1.1242,0.34016 -1.8174,0.34016 -1.1469,-10e-7 -2.0572,-0.30452 -2.731,-0.91358 -0.6739,-0.60905 -1.0108,-1.4319 -1.0108,-2.4686 0,-1.0691 0.3855,-1.8984 1.1565,-2.488 0.7711,-0.5896 1.8596,-0.88441 3.2656,-0.88442 h 2.5075 v -0.70948 c -1e-4,-0.78398 -0.2398,-1.3898 -0.7192,-1.8174 -0.473,-0.4341 -1.1404,-0.65116 -2.0021,-0.65116 -0.7128,1e-5 -1.2797,0.16199 -1.7008,0.48594 -0.4212,0.32397 -0.6836,0.80344 -0.7873,1.4384 h -0.9233 v -2.0896 c 0.6221,-0.26564 1.2246,-0.46326 1.8078,-0.59285 0.5896,-0.13605 1.163,-0.20409 1.7202,-0.2041 1.4319,1.1e-5 2.5204,0.35637 3.2655,1.0691 0.7516,0.70625 1.1274,1.7364 1.1274,3.0906"
       inkscape:connector-curvature="0" />
    <path
       id="path5050"
       d="m 1563,45.322 h -1.5745 V 44.2821 H 1563 v -3.2072 h 1.798 v 3.2072 h 3.3627 v 1.0399 h -3.3627 v 6.5602 c 0,0.8747 0.084,1.4352 0.2527,1.6814 0.1684,0.24621 0.4794,0.36932 0.933,0.36932 0.4665,0 0.8066,-0.13606 1.0205,-0.40819 0.2138,-0.27861 0.3271,-0.72568 0.3401,-1.3412 h 1.3509 c -0.052,0.93949 -0.3077,1.6263 -0.7678,2.0604 -0.46,0.43411 -1.1597,0.65116 -2.0992,0.65116 -1.0302,-1e-6 -1.7592,-0.22677 -2.1868,-0.68032 -0.4276,-0.46003 -0.6414,-1.2375 -0.6414,-2.3325 v -6.5602"
       inkscape:connector-curvature="0" />
    <path
       id="path5052"
       d="m 1579.7,49.637 h -7.7071 v 0.07775 c 0,1.393 0.2625,2.4459 0.7873,3.1586 0.5248,0.70624 1.2991,1.0594 2.3228,1.0594 0.784,0 1.4254,-0.2041 1.9243,-0.61229 0.5054,-0.41467 0.8585,-1.027 1.0594,-1.8369 h 1.4384 c -0.2851,1.1339 -0.8132,1.9859 -1.5842,2.5561 -0.7646,0.57018 -1.7721,0.85526 -3.0226,0.85526 -1.5096,-10e-7 -2.7245,-0.49566 -3.6446,-1.487 -0.9135,-0.9978 -1.3703,-2.3196 -1.3703,-3.9653 0,-1.6328 0.4503,-2.9481 1.3509,-3.9459 0.9006,-0.9978 2.0831,-1.4967 3.5474,-1.4967 1.5615,1.1e-5 2.7602,0.48272 3.596,1.4481 0.8358,0.95894 1.2699,2.3552 1.3023,4.1888 m -2.109,-1.0302 c -0.039,-1.2051 -0.2948,-2.1122 -0.7678,-2.7213 -0.4665,-0.61552 -1.1403,-0.92328 -2.0215,-0.92329 -0.8229,10e-6 -1.4708,0.30777 -1.9438,0.92329 -0.473,0.61554 -0.7613,1.5226 -0.865,2.7213 h 5.5981"
       inkscape:connector-curvature="0" />
    <path
       id="path5054"
       d="m 1582.7,53.603 c 0,-0.36284 0.1231,-0.6706 0.3693,-0.92329 0.2527,-0.25269 0.5604,-0.37903 0.9233,-0.37904 0.3628,3e-6 0.6673,0.12635 0.9135,0.37904 0.2527,0.25269 0.3791,0.56046 0.3791,0.92329 0,0.36284 -0.1231,0.6706 -0.3693,0.92329 -0.2462,0.24621 -0.554,0.36932 -0.9233,0.36932 -0.3693,-10e-7 -0.6771,-0.12311 -0.9233,-0.36932 C 1582.8231,54.2736 1582.7,53.96584 1582.7,53.603 m 0,-6.3367 c 0,-0.36283 0.1231,-0.66736 0.3693,-0.91357 0.2527,-0.25268 0.5604,-0.37903 0.9233,-0.37904 0.3693,8e-6 0.6771,0.12311 0.9233,0.36932 0.2462,0.24622 0.3693,0.55398 0.3693,0.92329 0,0.36932 -0.1231,0.67709 -0.3693,0.92329 -0.2462,0.24622 -0.554,0.36932 -0.9233,0.36932 -0.3629,6e-6 -0.6706,-0.1231 -0.9233,-0.36932 -0.2462,-0.25268 -0.3693,-0.56045 -0.3693,-0.92329"
       inkscape:connector-curvature="0" />
  </g>
  <g
     id="text4861"
     transform="matrix(0.45279,0,0,0.45279,-365.10286,5.1097)">
    <path
       id="path5057"
       d="m 903.2,647.51 4.3066,11.191 4.2969,-11.191 h -1.6406 v -1.0449 h 4.2774 v 1.0449 h -1.416 l -5.2051,13.535 h -1.6797 l -5.1758,-13.535 h -1.4551 v -1.0449 h 5.3125 V 647.51 H 903.2"
       inkscape:connector-curvature="0" />
    <path
       id="path5059"
       d="m 923.16,656.05 h -7.7441 v 0.0781 c -10e-6,1.3998 0.26367,2.4577 0.79101,3.1738 0.52734,0.70964 1.3053,1.0645 2.334,1.0644 0.78775,10e-6 1.4323,-0.20507 1.9336,-0.61523 0.50781,-0.41666 0.86262,-1.0319 1.0644,-1.8457 h 1.4453 c -0.28647,1.1393 -0.81707,1.9954 -1.5918,2.5684 -0.76824,0.57291 -1.7806,0.85937 -3.0371,0.85937 -1.5169,0 -2.7376,-0.49805 -3.6621,-1.4941 -0.91797,-1.0026 -1.377,-2.3307 -1.377,-3.9844 0,-1.6406 0.45247,-2.9622 1.3574,-3.9648 0.90495,-1.0026 2.0931,-1.5039 3.5644,-1.5039 1.569,10e-6 2.7734,0.48503 3.6133,1.4551 0.83984,0.96355 1.276,2.3666 1.3086,4.209 m -2.1191,-1.0352 c -0.0391,-1.2109 -0.29623,-2.1224 -0.77149,-2.7344 -0.46875,-0.61848 -1.1458,-0.92773 -2.0312,-0.92774 -0.82682,10e-6 -1.4779,0.30926 -1.9531,0.92774 -0.47527,0.61849 -0.76498,1.53 -0.86914,2.7344 h 5.625"
       inkscape:connector-curvature="0" />
    <path
       id="path5061"
       d="m 933.72,650.65 v 2.5976 h -1.0352 c -0.0326,-0.51431 -0.17579,-0.89843 -0.42968,-1.1523 -0.25392,-0.2539 -0.62501,-0.38085 -1.1133,-0.38086 -0.88542,1e-5 -1.5658,0.306 -2.041,0.91797 -0.46876,0.61199 -0.70313,1.4909 -0.70313,2.6367 v 4.7461 h 2.0801 v 1.0352 h -5.498 v -1.0352 h 1.6211 v -8.3203 h -1.7188 v -1.0254 h 3.5156 v 1.8457 c 0.35156,-0.72265 0.80404,-1.2565 1.3574,-1.6016 0.55337,-0.35155 1.2272,-0.52733 2.0215,-0.52734 0.29296,1e-5 0.59895,0.0228 0.91797,0.0684 0.32551,0.0456 0.66731,0.11069 1.0254,0.19532"
       inkscape:connector-curvature="0" />
    <path
       id="path5063"
       d="m 935.67,647.44 c 0,-0.29946 0.10742,-0.55988 0.32227,-0.78125 0.22135,-0.22134 0.48502,-0.33201 0.79102,-0.33203 0.29947,2e-5 0.55663,0.11069 0.77148,0.33203 0.22135,0.22137 0.33203,0.48179 0.33203,0.78125 0,0.30601 -0.10742,0.56642 -0.32226,0.78125 -0.21485,0.21486 -0.47527,0.32228 -0.78125,0.32227 -0.306,1e-5 -0.56967,-0.10741 -0.79102,-0.32227 C 935.77742,648.00642 935.67,647.74601 935.67,647.44 m 2.2949,12.568 h 1.6992 v 1.0352 h -5.2148 v -1.0352 h 1.7188 v -8.3008 h -1.7188 v -1.0449 h 3.5156 v 9.3457"
       inkscape:connector-curvature="0" />
    <path
       id="path5065"
       d="m 950.59,648.49 -0.91797,-0.01 c -0.0195,-0.55988 -0.22787,-0.97655 -0.625,-1.25 -0.39714,-0.27994 -0.9961,-0.41991 -1.7969,-0.41992 -0.9961,10e-6 -1.7253,0.23113 -2.1875,0.69336 -0.46225,0.46225 -0.69337,1.1914 -0.69336,2.1875 v 0.97656 h 6.9434 v 9.3457 h 1.6992 v 1.0352 h -5.2246 v -1.0352 h 1.7285 v -8.3008 h -5.1465 v 8.3008 h 1.6992 v 1.0352 h -5.2148 v -1.0352 h 1.7188 v -8.3008 h -1.7188 v -1.0449 h 1.7188 V 649.73 c 0,-1.2825 0.38086,-2.2493 1.1426,-2.9004 0.76171,-0.65103 1.888,-0.97655 3.3789,-0.97656 0.56639,1e-5 1.1458,0.0423 1.7383,0.12695 0.59244,0.0847 1.1784,0.21486 1.7578,0.39062 v 2.1191"
       inkscape:connector-curvature="0" />
    <path
       id="path5067"
       d="m 964.33,656.05 h -7.7441 v 0.0781 c 0,1.3998 0.26367,2.4577 0.79102,3.1738 0.52734,0.70964 1.3053,1.0645 2.334,1.0644 0.78776,10e-6 1.4323,-0.20507 1.9336,-0.61523 0.5078,-0.41666 0.86262,-1.0319 1.0644,-1.8457 h 1.4453 c -0.28647,1.1393 -0.81706,1.9954 -1.5918,2.5684 -0.76824,0.57291 -1.7806,0.85937 -3.0371,0.85937 -1.5169,0 -2.7376,-0.49805 -3.6621,-1.4941 -0.91797,-1.0026 -1.377,-2.3307 -1.377,-3.9844 0,-1.6406 0.45248,-2.9622 1.3574,-3.9648 0.90494,-1.0026 2.0931,-1.5039 3.5644,-1.5039 1.569,10e-6 2.7734,0.48503 3.6133,1.4551 0.83983,0.96355 1.276,2.3666 1.3086,4.209 m -2.1191,-1.0352 c -0.0391,-1.2109 -0.29623,-2.1224 -0.77148,-2.7344 -0.46876,-0.61848 -1.1458,-0.92773 -2.0312,-0.92774 -0.82683,10e-6 -1.4779,0.30926 -1.9531,0.92774 -0.47526,0.61849 -0.76497,1.53 -0.86914,2.7344 h 5.625"
       inkscape:connector-curvature="0" />
    <path
       id="path5069"
       d="m 975.83,660.01 h 1.7188 v 1.0352 h -3.5156 v -1.6211 c -0.35157,0.65105 -0.80079,1.1328 -1.3477,1.4453 -0.54037,0.30599 -1.2109,0.45898 -2.0117,0.45898 -1.276,0 -2.321,-0.50456 -3.1348,-1.5137 -0.80729,-1.0156 -1.2109,-2.3372 -1.2109,-3.9648 0,-1.6276 0.40365,-2.946 1.2109,-3.9551 0.80729,-1.0091 1.8522,-1.5137 3.1348,-1.5137 0.80078,10e-6 1.4714,0.15626 2.0117,0.46875 0.54687,0.306 0.99609,0.78451 1.3477,1.4355 v -5.4004 h -1.6992 v -1.0352 h 3.4961 v 14.16 m -1.7969,-3.6426 v -1.0254 c -10e-6,-1.2435 -0.24089,-2.194 -0.72266,-2.8516 -0.47526,-0.65754 -1.1686,-0.98632 -2.0801,-0.98633 -0.92448,1e-5 -1.6244,0.36459 -2.0996,1.0938 -0.46876,0.72918 -0.70313,1.8132 -0.70313,3.252 0,1.4323 0.23437,2.5163 0.70313,3.252 0.47525,0.73568 1.1751,1.1035 2.0996,1.1035 0.91146,10e-6 1.6048,-0.32552 2.0801,-0.97656 0.48177,-0.65755 0.72265,-1.6113 0.72266,-2.8613"
       inkscape:connector-curvature="0" />
    <path
       id="path5071"
       d="m 989.45,660.01 h 2.9199 c 1.1719,0 2.028,-0.2539 2.5684,-0.76172 0.54036,-0.50781 0.81054,-1.3151 0.81055,-2.4219 -10e-6,-1.1003 -0.27019,-1.901 -0.81055,-2.4024 -0.53386,-0.5078 -1.39,-0.76171 -2.5684,-0.76171 H 989.45 v 6.3476 m 0,-7.3828 h 2.4805 c 1.0677,10e-6 1.8457,-0.20507 2.334,-0.61524 0.49479,-0.41014 0.74218,-1.0579 0.74219,-1.9434 -1e-5,-0.89192 -0.2474,-1.5397 -0.74219,-1.9434 -0.48829,-0.41015 -1.2663,-0.61522 -2.334,-0.61524 H 989.45 v 5.1172 m -3.8379,8.418 v -1.0352 h 1.8555 v -12.5 h -1.8555 v -1.0449 h 7.1973 c 1.4713,10e-6 2.5781,0.30275 3.3203,0.9082 0.74868,0.59897 1.123,1.4974 1.123,2.6953 -2e-5,0.86589 -0.26043,1.556 -0.78125,2.0703 -0.51434,0.51433 -1.2696,0.83008 -2.2656,0.94726 1.237,0.15626 2.1745,0.5534 2.8125,1.1914 0.64452,0.63152 0.96678,1.4811 0.9668,2.5488 -2e-5,1.4453 -0.45574,2.5098 -1.3672,3.1934 -0.91147,0.68359 -2.334,1.0254 -4.2676,1.0254 h -6.7383"
       inkscape:connector-curvature="0" />
    <path
       id="path5073"
       d="m 1003.5,662.95 0.6835,-1.7285 -3.8769,-9.5117 h -1.1816 v -1.0449 h 4.7754 v 1.0449 h -1.6601 l 2.9199,7.1387 2.9199,-7.1387 h -1.5527 v -1.0449 h 3.8965 v 1.0449 h -1.1621 l -4.7559,11.68 c -0.3255,0.80729 -0.6868,1.3574 -1.084,1.6504 -0.3971,0.29947 -0.957,0.44921 -1.6797,0.44922 -0.306,-10e-6 -0.6217,-0.026 -0.9472,-0.0781 -0.319,-0.0521 -0.6413,-0.12695 -0.96682,-0.22461 v -1.9824 h 0.91792 c 0.039,0.44271 0.1498,0.75846 0.3321,0.94727 0.1888,0.19531 0.4785,0.29296 0.8691,0.29297 0.3581,-1e-5 0.6445,-0.10092 0.8594,-0.30274 0.2213,-0.19531 0.4525,-0.59245 0.6934,-1.1914"
       inkscape:connector-curvature="0" />
    <path
       id="path5075"
       d="m 1012.6,660.03 c 0,-0.36458 0.1237,-0.67382 0.3711,-0.92773 0.2539,-0.25391 0.5631,-0.38086 0.9277,-0.38086 0.3646,0 0.6706,0.12695 0.918,0.38086 0.2539,0.25391 0.3808,0.56315 0.3808,0.92773 0,0.36459 -0.1237,0.67383 -0.3711,0.92774 -0.2474,0.24739 -0.5566,0.37109 -0.9277,0.37109 -0.3711,0 -0.6803,-0.1237 -0.9277,-0.37109 -0.2474,-0.25391 -0.3711,-0.56315 -0.3711,-0.92774 m 0,-6.3672 c 0,-0.36458 0.1237,-0.67057 0.3711,-0.91797 0.2539,-0.2539 0.5631,-0.38085 0.9277,-0.38086 0.3711,10e-6 0.6803,0.1237 0.9277,0.37109 0.2474,0.24741 0.3711,0.55665 0.3711,0.92774 0,0.3711 -0.1237,0.68034 -0.3711,0.92773 -0.2474,0.2474 -0.5566,0.3711 -0.9277,0.37109 -0.3646,10e-6 -0.6738,-0.12369 -0.9277,-0.37109 -0.2474,-0.2539 -0.3711,-0.56314 -0.3711,-0.92773"
       inkscape:connector-curvature="0" />
    <path
       id="path5077"
       d="m 1101.9,660.34 v -3.3203 l 1.1231,0.01 c 0.033,1.1068 0.3515,1.9271 0.957,2.4609 0.612,0.52735 1.5397,0.79102 2.7832,0.79102 1.1589,0 2.041,-0.22786 2.6465,-0.68359 0.612,-0.46224 0.918,-1.1328 0.918,-2.0117 0,-0.70312 -0.1856,-1.2435 -0.5567,-1.6211 -0.3646,-0.3776 -1.1393,-0.74543 -2.3242,-1.1035 l -1.9238,-0.57617 c -1.3933,-0.42317 -2.3763,-0.95052 -2.9492,-1.582 -0.5665,-0.6315 -0.8497,-1.4974 -0.8497,-2.5976 0,-1.237 0.4395,-2.1972 1.3184,-2.8809 0.8789,-0.68358 2.1126,-1.0254 3.7012,-1.0254 0.6771,10e-6 1.4192,0.0749 2.2265,0.22461 0.8073,0.14324 1.6667,0.35483 2.5782,0.63476 v 3.1055 h -1.1036 c -0.1106,-1.0286 -0.4557,-1.7708 -1.0351,-2.2266 -0.5729,-0.46223 -1.4486,-0.69335 -2.627,-0.69336 -1.0286,1e-5 -1.8131,0.2116 -2.3535,0.63477 -0.5338,0.41668 -0.8008,1.0254 -0.8008,1.8262 0,0.69662 0.2019,1.2435 0.6055,1.6406 0.4037,0.39715 1.2598,0.79103 2.5684,1.1816 l 1.8066,0.53711 c 1.3216,0.39715 2.2624,0.90496 2.8223,1.5234 0.5664,0.61198 0.8496,1.4356 0.8496,2.4707 0,1.4128 -0.4525,2.4772 -1.3574,3.1934 -0.905,0.71615 -2.2526,1.0742 -4.043,1.0742 -0.8008,0 -1.6178,-0.0814 -2.4512,-0.24414 -0.8268,-0.16276 -1.6699,-0.41016 -2.5293,-0.74219"
       inkscape:connector-curvature="0" />
    <path
       id="path5079"
       d="m 1115.7,647.44 c 0,-0.29946 0.1074,-0.55988 0.3222,-0.78125 0.2214,-0.22134 0.485,-0.33201 0.791,-0.33203 0.2995,2e-5 0.5567,0.11069 0.7715,0.33203 0.2214,0.22137 0.332,0.48179 0.3321,0.78125 -10e-5,0.30601 -0.1075,0.56642 -0.3223,0.78125 -0.2149,0.21486 -0.4753,0.32228 -0.7813,0.32227 -0.306,1e-5 -0.5696,-0.10741 -0.791,-0.32227 -0.2148,-0.21483 -0.3222,-0.47524 -0.3222,-0.78125 m 2.2949,12.568 h 1.6992 v 1.0352 h -5.2148 v -1.0352 h 1.7187 v -8.3008 h -1.7187 v -1.0449 h 3.5156 v 9.3457"
       inkscape:connector-curvature="0" />
    <path
       id="path5081"
       d="m 1130.6,651.71 v 9.1113 c 0,1.4909 -0.4102,2.64 -1.2305,3.4473 -0.8203,0.8138 -1.9889,1.2207 -3.5058,1.2207 -0.6836,-10e-6 -1.3379,-0.0619 -1.9629,-0.18555 -0.625,-0.1237 -1.224,-0.30925 -1.7969,-0.55664 v -2.1777 h 0.9375 c 0.1172,0.67708 0.3939,1.1719 0.8301,1.4844 0.4362,0.3125 1.0612,0.46875 1.875,0.46875 1.0547,0 1.8261,-0.29948 2.3144,-0.89844 0.4948,-0.59245 0.7422,-1.5267 0.7422,-2.8027 v -1.3965 c -0.3516,0.65105 -0.8008,1.1328 -1.3476,1.4453 -0.5404,0.30599 -1.211,0.45898 -2.0118,0.45898 -1.276,0 -2.3209,-0.50456 -3.1347,-1.5137 -0.8073,-1.0156 -1.211,-2.3372 -1.211,-3.9648 0,-1.6276 0.4037,-2.946 1.211,-3.9551 0.8073,-1.0091 1.8522,-1.5137 3.1347,-1.5137 0.8008,10e-6 1.4714,0.15626 2.0118,0.46875 0.5468,0.306 0.996,0.78451 1.3476,1.4355 v -1.6211 h 3.5156 v 1.0449 H 1130.6 m -1.7969,3.6328 c 0,-1.2435 -0.2409,-2.194 -0.7226,-2.8516 -0.4753,-0.65754 -1.1687,-0.98632 -2.0801,-0.98633 -0.9245,10e-6 -1.6244,0.36459 -2.0996,1.0938 -0.4688,0.72918 -0.7032,1.8132 -0.7032,3.252 0,1.4323 0.2344,2.5163 0.7032,3.252 0.4752,0.73568 1.1751,1.1035 2.0996,1.1035 0.9114,10e-6 1.6048,-0.32552 2.0801,-0.97656 0.4817,-0.65755 0.7226,-1.6113 0.7226,-2.8613 v -1.0254"
       inkscape:connector-curvature="0" />
    <path
       id="path5083"
       d="m 1133.8,661.05 v -1.0352 h 1.6211 v -8.3008 h -1.7188 v -1.0449 h 3.5156 v 1.8457 c 0.3321,-0.70311 0.7617,-1.2337 1.2891,-1.5918 0.5338,-0.35806 1.1523,-0.53709 1.8555,-0.5371 1.1458,10e-6 1.9889,0.32878 2.5293,0.98632 0.5403,0.65756 0.8105,1.683 0.8105,3.0762 v 5.5664 h 1.6016 v 1.0352 h -4.961 v -1.0352 h 1.5528 v -5 c 0,-1.2695 -0.1563,-2.1387 -0.4688,-2.6074 -0.3125,-0.47525 -0.8626,-0.71288 -1.6504,-0.71289 -0.8333,10e-6 -1.4681,0.306 -1.9043,0.91797 -0.4362,0.60547 -0.6543,1.4909 -0.6543,2.6562 v 4.7461 h 1.5625 V 661.05 H 1133.8"
       inkscape:connector-curvature="0" />
    <path
       id="path5085"
       d="m 1147.9,660.03 c 0,-0.36458 0.1237,-0.67382 0.3711,-0.92773 0.2539,-0.25391 0.5632,-0.38086 0.9278,-0.38086 0.3646,0 0.6705,0.12695 0.9179,0.38086 0.2539,0.25391 0.3809,0.56315 0.3809,0.92773 0,0.36459 -0.1237,0.67383 -0.3711,0.92774 -0.2474,0.24739 -0.5566,0.37109 -0.9277,0.37109 -0.3711,0 -0.6804,-0.1237 -0.9278,-0.37109 -0.2474,-0.25391 -0.3711,-0.56315 -0.3711,-0.92774 m 0,-6.3672 c 0,-0.36458 0.1237,-0.67057 0.3711,-0.91797 0.2539,-0.2539 0.5632,-0.38085 0.9278,-0.38086 0.3711,10e-6 0.6803,0.1237 0.9277,0.37109 0.2474,0.24741 0.3711,0.55665 0.3711,0.92774 0,0.3711 -0.1237,0.68034 -0.3711,0.92773 -0.2474,0.2474 -0.5566,0.3711 -0.9277,0.37109 -0.3646,10e-6 -0.6739,-0.12369 -0.9278,-0.37109 -0.2474,-0.2539 -0.3711,-0.56314 -0.3711,-0.92773"
       inkscape:connector-curvature="0" />
  </g>
  <g
     id="text4873"
     transform="matrix(0.45279,0,0,0.45279,-365.10286,5.1097)">
    <path
       id="path5088"
       d="m 1360.3,650.72 4.3066,11.191 4.2969,-11.191 h -1.6406 v -1.0449 h 4.2773 v 1.0449 h -1.416 l -5.2051,13.535 h -1.6796 l -5.1758,-13.535 h -1.4551 v -1.0449 h 5.3125 V 650.72 H 1360.3"
       inkscape:connector-curvature="0" />
    <path
       id="path5090"
       d="m 1380.2,659.25 h -7.7441 v 0.0781 c 0,1.3998 0.2637,2.4577 0.791,3.1738 0.5274,0.70964 1.3053,1.0644 2.334,1.0644 0.7877,0 1.4323,-0.20507 1.9336,-0.61523 0.5078,-0.41667 0.8626,-1.0319 1.0644,-1.8457 h 1.4454 c -0.2865,1.1393 -0.8171,1.9954 -1.5918,2.5684 -0.7683,0.57291 -1.7806,0.85937 -3.0372,0.85937 -1.5169,0 -2.7376,-0.49805 -3.6621,-1.4941 -0.9179,-1.0026 -1.3769,-2.3307 -1.3769,-3.9844 0,-1.6406 0.4525,-2.9622 1.3574,-3.9648 0.905,-1.0026 2.0931,-1.5039 3.5645,-1.5039 1.569,10e-6 2.7734,0.48503 3.6132,1.4551 0.8399,0.96355 1.2761,2.3666 1.3086,4.209 m -2.1191,-1.0352 c -0.039,-1.2109 -0.2962,-2.1224 -0.7715,-2.7344 -0.4687,-0.61848 -1.1458,-0.92773 -2.0312,-0.92774 -0.8269,1e-5 -1.4779,0.30926 -1.9532,0.92774 -0.4752,0.61849 -0.7649,1.53 -0.8691,2.7344 h 5.625"
       inkscape:connector-curvature="0" />
    <path
       id="path5092"
       d="m 1390.8,653.85 v 2.5976 h -1.0352 c -0.033,-0.51431 -0.1758,-0.89843 -0.4297,-1.1523 -0.2539,-0.2539 -0.625,-0.38085 -1.1132,-0.38086 -0.8855,10e-6 -1.5658,0.306 -2.0411,0.91797 -0.4687,0.61199 -0.7031,1.4909 -0.7031,2.6367 v 4.7461 h 2.0801 v 1.0352 h -5.4981 v -1.0352 h 1.6211 v -8.3203 h -1.7187 v -1.0254 h 3.5156 v 1.8457 c 0.3516,-0.72265 0.804,-1.2565 1.3574,-1.6016 0.5534,-0.35155 1.2272,-0.52733 2.0215,-0.52734 0.293,10e-6 0.599,0.0228 0.918,0.0684 0.3255,0.0456 0.6673,0.11069 1.0254,0.19532"
       inkscape:connector-curvature="0" />
    <path
       id="path5094"
       d="m 1392.7,650.65 c 0,-0.29946 0.1074,-0.55988 0.3223,-0.78125 0.2213,-0.22134 0.485,-0.33201 0.791,-0.33203 0.2995,2e-5 0.5566,0.11069 0.7715,0.33203 0.2213,0.22137 0.332,0.48179 0.332,0.78125 0,0.306 -0.1074,0.56642 -0.3223,0.78125 -0.2148,0.21486 -0.4752,0.32228 -0.7812,0.32227 -0.306,10e-6 -0.5697,-0.10741 -0.791,-0.32227 -0.2149,-0.21483 -0.3223,-0.47525 -0.3223,-0.78125 m 2.2949,12.568 h 1.6992 v 1.0352 h -5.2148 v -1.0352 h 1.7187 v -8.3008 h -1.7187 v -1.0449 h 3.5156 v 9.3457"
       inkscape:connector-curvature="0" />
    <path
       id="path5096"
       d="m 1407.7,651.7 -0.918,-0.01 c -0.02,-0.55988 -0.2279,-0.97655 -0.625,-1.25 -0.3971,-0.27994 -0.9961,-0.41991 -1.7969,-0.41992 -0.9961,10e-6 -1.7252,0.23113 -2.1875,0.69336 -0.4622,0.46225 -0.6933,1.1914 -0.6933,2.1875 v 0.97656 h 6.9433 v 9.3457 h 1.6993 v 1.0352 h -5.2247 v -1.0352 h 1.7286 v -8.3008 h -5.1465 v 8.3008 h 1.6992 v 1.0352 h -5.2149 v -1.0352 h 1.7188 v -8.3008 h -1.7188 v -1.0449 h 1.7188 V 652.94 c 0,-1.2825 0.3809,-2.2493 1.1426,-2.9004 0.7617,-0.65103 1.888,-0.97655 3.3789,-0.97656 0.5664,10e-6 1.1458,0.0423 1.7383,0.12695 0.5924,0.0846 1.1783,0.21486 1.7578,0.39062 v 2.1191"
       inkscape:connector-curvature="0" />
    <path
       id="path5098"
       d="m 1421.4,659.25 h -7.7441 v 0.0781 c 0,1.3998 0.2636,2.4577 0.791,3.1738 0.5273,0.70964 1.3053,1.0644 2.334,1.0644 0.7877,0 1.4323,-0.20507 1.9336,-0.61523 0.5078,-0.41667 0.8626,-1.0319 1.0644,-1.8457 h 1.4453 c -0.2864,1.1393 -0.817,1.9954 -1.5918,2.5684 -0.7682,0.57291 -1.7806,0.85937 -3.0371,0.85937 -1.5169,0 -2.7376,-0.49805 -3.6621,-1.4941 -0.918,-1.0026 -1.3769,-2.3307 -1.3769,-3.9844 0,-1.6406 0.4524,-2.9622 1.3574,-3.9648 0.9049,-1.0026 2.0931,-1.5039 3.5644,-1.5039 1.569,10e-6 2.7735,0.48503 3.6133,1.4551 0.8399,0.96355 1.276,2.3666 1.3086,4.209 m -2.1191,-1.0352 c -0.039,-1.2109 -0.2963,-2.1224 -0.7715,-2.7344 -0.4688,-0.61848 -1.1459,-0.92773 -2.0313,-0.92774 -0.8268,1e-5 -1.4778,0.30926 -1.9531,0.92774 -0.4753,0.61849 -0.765,1.53 -0.8691,2.7344 h 5.625"
       inkscape:connector-curvature="0" />
    <path
       id="path5100"
       d="m 1432.9,663.22 h 1.7187 v 1.0352 h -3.5156 v -1.6211 c -0.3516,0.65105 -0.8008,1.1328 -1.3477,1.4453 -0.5404,0.30599 -1.2109,0.45898 -2.0117,0.45898 -1.276,0 -2.321,-0.50456 -3.1348,-1.5137 -0.8073,-1.0156 -1.2109,-2.3372 -1.2109,-3.9648 0,-1.6276 0.4036,-2.946 1.2109,-3.9551 0.8073,-1.0091 1.8522,-1.5137 3.1348,-1.5137 0.8008,10e-6 1.4713,0.15626 2.0117,0.46875 0.5469,0.30599 0.9961,0.78451 1.3477,1.4355 v -5.4004 h -1.6992 v -1.0352 h 3.4961 v 14.16 m -1.7969,-3.6426 v -1.0254 c 0,-1.2435 -0.2409,-2.194 -0.7227,-2.8516 -0.4752,-0.65754 -1.1686,-0.98632 -2.0801,-0.98633 -0.9244,10e-6 -1.6243,0.36459 -2.0996,1.0938 -0.4687,0.72918 -0.7031,1.8132 -0.7031,3.252 0,1.4323 0.2344,2.5163 0.7031,3.252 0.4753,0.73568 1.1752,1.1035 2.0996,1.1035 0.9115,0 1.6049,-0.32552 2.0801,-0.97656 0.4818,-0.65755 0.7227,-1.6113 0.7227,-2.8613"
       inkscape:connector-curvature="0" />
    <path
       id="path5102"
       d="m 1446.5,663.22 h 2.9199 c 1.1719,0 2.028,-0.2539 2.5684,-0.76172 0.5403,-0.50781 0.8105,-1.3151 0.8105,-2.4219 0,-1.1003 -0.2702,-1.901 -0.8105,-2.4024 -0.5339,-0.5078 -1.39,-0.76171 -2.5684,-0.76171 H 1446.5 v 6.3476 m 0,-7.3828 h 2.4805 c 1.0677,10e-6 1.8457,-0.20507 2.334,-0.61524 0.4947,-0.41014 0.7421,-1.0579 0.7421,-1.9434 0,-0.89192 -0.2474,-1.5397 -0.7421,-1.9434 -0.4883,-0.41015 -1.2663,-0.61523 -2.334,-0.61524 H 1446.5 v 5.1172 m -3.8379,8.418 v -1.0352 h 1.8555 v -12.5 h -1.8555 v -1.0449 h 7.1973 c 1.4713,10e-6 2.5781,0.30275 3.3203,0.9082 0.7487,0.59897 1.123,1.4974 1.123,2.6953 0,0.86589 -0.2604,1.556 -0.7812,2.0703 -0.5144,0.51433 -1.2696,0.83008 -2.2656,0.94726 1.2369,0.15626 2.1744,0.5534 2.8125,1.1914 0.6445,0.63152 0.9667,1.4811 0.9668,2.5488 -10e-5,1.4453 -0.4558,2.5098 -1.3672,3.1934 -0.9115,0.68359 -2.334,1.0254 -4.2676,1.0254 h -6.7383"
       inkscape:connector-curvature="0" />
    <path
       id="path5104"
       d="m 1460.6,666.16 0.6836,-1.7285 -3.877,-9.5117 h -1.1816 v -1.0449 h 4.7754 v 1.0449 h -1.6602 l 2.92,7.1387 2.9199,-7.1387 h -1.5528 v -1.0449 h 3.8965 v 1.0449 h -1.1621 l -4.7558,11.68 c -0.3256,0.80729 -0.6869,1.3574 -1.084,1.6504 -0.3972,0.29947 -0.9571,0.44921 -1.6797,0.44922 -0.306,-1e-5 -0.6218,-0.0261 -0.9473,-0.0781 -0.319,-0.0521 -0.6413,-0.12696 -0.9668,-0.22461 v -1.9824 h 0.918 c 0.039,0.44271 0.1497,0.75846 0.332,0.94727 0.1888,0.19531 0.4785,0.29296 0.8692,0.29297 0.358,-10e-6 0.6445,-0.10092 0.8593,-0.30274 0.2214,-0.19531 0.4525,-0.59245 0.6934,-1.1914"
       inkscape:connector-curvature="0" />
    <path
       id="path5106"
       d="m 1469.6,663.24 c 0,-0.36458 0.1237,-0.67382 0.3711,-0.92773 0.2539,-0.25391 0.5632,-0.38086 0.9278,-0.38086 0.3645,0 0.6705,0.12695 0.9179,0.38086 0.2539,0.25391 0.3809,0.56315 0.3809,0.92773 0,0.36459 -0.1237,0.67383 -0.3711,0.92774 -0.2474,0.24739 -0.5566,0.37109 -0.9277,0.37109 -0.3711,0 -0.6804,-0.1237 -0.9278,-0.37109 -0.2474,-0.25391 -0.3711,-0.56315 -0.3711,-0.92774 m 0,-6.3672 c 0,-0.36458 0.1237,-0.67057 0.3711,-0.91797 0.2539,-0.2539 0.5632,-0.38085 0.9278,-0.38086 0.3711,10e-6 0.6803,0.1237 0.9277,0.37109 0.2474,0.2474 0.3711,0.55665 0.3711,0.92774 0,0.3711 -0.1237,0.68034 -0.3711,0.92773 -0.2474,0.2474 -0.5566,0.3711 -0.9277,0.37109 -0.3646,1e-5 -0.6739,-0.12369 -0.9278,-0.37109 -0.2474,-0.2539 -0.3711,-0.56314 -0.3711,-0.92773"
       inkscape:connector-curvature="0" />
    <path
       id="path5108"
       d="m 1558.9,663.55 v -3.3203 l 1.123,0.01 c 0.033,1.1068 0.3516,1.9271 0.9571,2.4609 0.6119,0.52735 1.5397,0.79102 2.7832,0.79102 1.1588,0 2.041,-0.22786 2.6464,-0.68359 0.612,-0.46224 0.918,-1.1328 0.918,-2.0117 0,-0.70312 -0.1855,-1.2435 -0.5566,-1.6211 -0.3646,-0.3776 -1.1394,-0.74543 -2.3243,-1.1035 l -1.9238,-0.57617 c -1.3932,-0.42317 -2.3763,-0.95052 -2.9492,-1.582 -0.5664,-0.6315 -0.8496,-1.4974 -0.8496,-2.5976 0,-1.237 0.4394,-2.1972 1.3184,-2.8809 0.8789,-0.68358 2.1126,-1.0254 3.7011,-1.0254 0.6771,10e-6 1.4193,0.0749 2.2266,0.22461 0.8073,0.14324 1.6666,0.35483 2.5781,0.63476 v 3.1055 h -1.1035 c -0.1107,-1.0286 -0.4557,-1.7708 -1.0352,-2.2266 -0.5729,-0.46223 -1.4485,-0.69335 -2.6269,-0.69336 -1.0287,10e-6 -1.8132,0.2116 -2.3535,0.63477 -0.5339,0.41667 -0.8008,1.0254 -0.8008,1.8262 0,0.69662 0.2018,1.2435 0.6055,1.6406 0.4036,0.39715 1.2597,0.79103 2.5683,1.1816 l 1.8067,0.53711 c 1.3216,0.39715 2.2623,0.90496 2.8222,1.5234 0.5664,0.61198 0.8496,1.4356 0.8496,2.4707 0,1.4128 -0.4525,2.4772 -1.3574,3.1934 -0.9049,0.71615 -2.2526,1.0742 -4.043,1.0742 -0.8007,0 -1.6178,-0.0814 -2.4511,-0.24414 -0.8269,-0.16276 -1.67,-0.41016 -2.5293,-0.74219"
       inkscape:connector-curvature="0" />
    <path
       id="path5110"
       d="m 1572.7,650.65 c 0,-0.29946 0.1074,-0.55988 0.3223,-0.78125 0.2213,-0.22134 0.485,-0.33201 0.791,-0.33203 0.2995,2e-5 0.5566,0.11069 0.7715,0.33203 0.2213,0.22137 0.332,0.48179 0.332,0.78125 0,0.306 -0.1074,0.56642 -0.3223,0.78125 -0.2148,0.21486 -0.4752,0.32228 -0.7812,0.32227 -0.306,10e-6 -0.5697,-0.10741 -0.791,-0.32227 -0.2149,-0.21483 -0.3223,-0.47525 -0.3223,-0.78125 m 2.2949,12.568 h 1.6992 v 1.0352 h -5.2148 v -1.0352 h 1.7187 v -8.3008 h -1.7187 v -1.0449 h 3.5156 v 9.3457"
       inkscape:connector-curvature="0" />
    <path
       id="path5112"
       d="m 1587.7,654.92 v 9.1113 c 0,1.4909 -0.4101,2.64 -1.2304,3.4473 -0.8204,0.8138 -1.989,1.2207 -3.5059,1.2207 -0.6836,-10e-6 -1.3379,-0.0619 -1.9629,-0.18555 -0.625,-0.1237 -1.2239,-0.30925 -1.7969,-0.55664 v -2.1777 h 0.9375 c 0.1172,0.67708 0.3939,1.1719 0.8301,1.4844 0.4362,0.3125 1.0612,0.46875 1.875,0.46875 1.0547,0 1.8262,-0.29948 2.3145,-0.89844 0.4948,-0.59245 0.7422,-1.5267 0.7422,-2.8027 v -1.3965 c -0.3516,0.65105 -0.8008,1.1328 -1.3477,1.4453 -0.5404,0.30599 -1.2109,0.45898 -2.0117,0.45898 -1.2761,0 -2.321,-0.50456 -3.1348,-1.5137 -0.8073,-1.0156 -1.2109,-2.3372 -1.2109,-3.9648 0,-1.6276 0.4036,-2.946 1.2109,-3.9551 0.8073,-1.0091 1.8522,-1.5137 3.1348,-1.5137 0.8008,10e-6 1.4713,0.15626 2.0117,0.46875 0.5469,0.30599 0.9961,0.78451 1.3477,1.4355 v -1.6211 h 3.5156 v 1.0449 H 1587.7 m -1.7968,3.6328 c 0,-1.2435 -0.2409,-2.194 -0.7227,-2.8516 -0.4753,-0.65754 -1.1686,-0.98632 -2.0801,-0.98633 -0.9245,10e-6 -1.6243,0.36459 -2.0996,1.0938 -0.4687,0.72918 -0.7031,1.8132 -0.7031,3.252 0,1.4323 0.2344,2.5163 0.7031,3.252 0.4753,0.73568 1.1751,1.1035 2.0996,1.1035 0.9115,0 1.6048,-0.32552 2.0801,-0.97656 0.4818,-0.65755 0.7227,-1.6113 0.7227,-2.8613 v -1.0254"
       inkscape:connector-curvature="0" />
    <path
       id="path5114"
       d="m 1590.8,664.25 v -1.0352 h 1.6211 v -8.3008 h -1.7188 v -1.0449 h 3.5157 v 1.8457 c 0.332,-0.70311 0.7617,-1.2337 1.289,-1.5918 0.5339,-0.35806 1.1524,-0.53709 1.8555,-0.5371 1.1458,10e-6 1.9889,0.32878 2.5293,0.98632 0.5404,0.65756 0.8105,1.683 0.8105,3.0762 v 5.5664 h 1.6016 v 1.0352 h -4.9609 v -1.0352 h 1.5527 v -5 c 0,-1.2695 -0.1563,-2.1387 -0.4687,-2.6074 -0.3125,-0.47525 -0.8627,-0.71288 -1.6504,-0.71289 -0.8334,10e-6 -1.4681,0.306 -1.9043,0.91797 -0.4362,0.60547 -0.6543,1.4909 -0.6543,2.6562 v 4.7461 h 1.5625 V 664.25 H 1590.8"
       inkscape:connector-curvature="0" />
    <path
       id="path5116"
       d="m 1605,663.24 c 0,-0.36458 0.1237,-0.67382 0.3711,-0.92773 0.2539,-0.25391 0.5631,-0.38086 0.9277,-0.38086 0.3646,0 0.6706,0.12695 0.918,0.38086 0.2539,0.25391 0.3808,0.56315 0.3809,0.92773 -10e-5,0.36459 -0.1238,0.67383 -0.3711,0.92774 -0.2474,0.24739 -0.5567,0.37109 -0.9278,0.37109 -0.3711,0 -0.6803,-0.1237 -0.9277,-0.37109 C 1605.1237,663.91383 1605,663.60459 1605,663.24 m 0,-6.3672 c 0,-0.36458 0.1237,-0.67057 0.3711,-0.91797 0.2539,-0.2539 0.5631,-0.38085 0.9277,-0.38086 0.3711,10e-6 0.6804,0.1237 0.9278,0.37109 0.2473,0.2474 0.371,0.55665 0.3711,0.92774 -10e-5,0.3711 -0.1238,0.68034 -0.3711,0.92773 -0.2474,0.2474 -0.5567,0.3711 -0.9278,0.37109 -0.3646,1e-5 -0.6738,-0.12369 -0.9277,-0.37109 -0.2474,-0.2539 -0.3711,-0.56314 -0.3711,-0.92773"
       inkscape:connector-curvature="0" />
  </g>
  <metadata
     id="metadata161">
    <rdf:RDF>
      <cc:Work>
        <dc:format>image/svg+xml</dc:format>
        <dc:type
           rdf:resource="http://purl.org/dc/dcmitype/StillImage" />
        <cc:license
           rdf:resource="http://creativecommons.org/licenses/publicdomain/" />
        <dc:publisher>
          <cc:Agent
             rdf:about="http://openclipart.org/">
            <dc:title>Openclipart</dc:title>
          </cc:Agent>
        </dc:publisher>
        <dc:title></dc:title>
        <dc:date>2011-05-01T14:19:28</dc:date>
        <dc:description>Student activity Journal </dc:description>
        <dc:source>http://openclipart.org/detail/134989/student-journal-by-gsagri04</dc:source>
        <dc:creator>
          <cc:Agent>
            <dc:title>gsagri04</dc:title>
          </cc:Agent>
        </dc:creator>
        <dc:subject>
          <rdf:Bag>
            <rdf:li>Journal</rdf:li>
            <rdf:li>Student</rdf:li>
            <rdf:li>activity</rdf:li>
            <rdf:li>book</rdf:li>
            <rdf:li>clip art</rdf:li>
            <rdf:li>clipart</rdf:li>
            <rdf:li>dairy</rdf:li>
            <rdf:li>event</rdf:li>
            <rdf:li>inkscape</rdf:li>
            <rdf:li>log</rdf:li>
            <rdf:li>png</rdf:li>
            <rdf:li>researcher</rdf:li>
            <rdf:li>sign</rdf:li>
            <rdf:li>svg</rdf:li>
          </rdf:Bag>
        </dc:subject>
      </cc:Work>
      <cc:License
         rdf:about="http://creativecommons.org/licenses/publicdomain/">
        <cc:permits
           rdf:resource="http://creativecommons.org/ns#Reproduction" />
        <cc:permits
           rdf:resource="http://creativecommons.org/ns#Distribution" />
        <cc:permits
           rdf:resource="http://creativecommons.org/ns#DerivativeWorks" />
      </cc:License>
    </rdf:RDF>
  </metadata>
</svg>
