<?xml version="1.0"?>
<svg xmlns:rdf="http://www.w3.org/1999/02/22-rdf-syntax-ns#" xmlns="http://www.w3.org/2000/svg" xmlns:cc="http://creativecommons.org/ns#" xmlns:dc="http://purl.org/dc/elements/1.1/" xmlns:svg="http://www.w3.org/2000/svg" id="svg2" viewBox="0 0 744.09 1052.4" version="1.1">
  <g id="layer1">
    <g id="g16373" transform="matrix(13.271 0 0 13.271 -2148.3 -4591.1)">
      <path id="path3785" stroke="#000" stroke-width=".94173" d="m176.71 397.27c24.573 2.8869 24.573 2.8869 24.573 2.8869"/>
      <path id="path3589-5" d="m482.86 342.36c0 85.999-69.716 155.71-155.71 155.71-85.999 0-155.71-69.716-155.71-155.71 0-85.999 69.716-155.71 155.71-155.71 85.999 0 155.71 69.716 155.71 155.71z" stroke="#000" stroke-width="16.022" transform="matrix(.044394 0 0 .043463 242.41 370.48)"/>
      <path id="path3589-3-1" d="m482.86 342.36c0 85.999-69.716 155.71-155.71 155.71-85.999 0-155.71-69.716-155.71-155.71 0-85.999 69.716-155.71 155.71-155.71 85.999 0 155.71 69.716 155.71 155.71z" stroke="#000" stroke-width="12.301" transform="matrix(.077374 0 0 .075751 173.26 330.43)"/>
      <path id="path3589-5-6" d="m482.86 342.36c0 85.999-69.716 155.71-155.71 155.71-85.999 0-155.71-69.716-155.71-155.71 0-85.999 69.716-155.71 155.71-155.71 85.999 0 155.71 69.716 155.71 155.71z" stroke="#000" stroke-width="16.022" transform="matrix(.045895 0 0 .044932 225.58 353.73)"/>
      <path id="path3589-5-8" d="m482.86 342.36c0 85.999-69.716 155.71-155.71 155.71-85.999 0-155.71-69.716-155.71-155.71 0-85.999 69.716-155.71 155.71-155.71 85.999 0 155.71 69.716 155.71 155.71z" stroke="#000" stroke-width="16.022" transform="matrix(.045895 0 0 .044932 245.98 391.26)"/>
      <path id="path3589-5-8-7" d="m482.86 342.36c0 85.999-69.716 155.71-155.71 155.71-85.999 0-155.71-69.716-155.71-155.71 0-85.999 69.716-155.71 155.71-155.71 85.999 0 155.71 69.716 155.71 155.71z" stroke="#000" stroke-width="16.022" transform="matrix(.045895 0 0 .044932 236.39 411.23)"/>
      <path id="path3727" stroke="#000" stroke-width=".94173" d="m245.76 374.17l6.389 6.255"/>
      <path id="path3729" stroke="#000" stroke-width=".94173" d="m258.78 391.73l1.2286 7.6985"/>
      <path id="path3731" stroke="#000" stroke-width=".94173" d="m258.29 413.14c-2.9488 7.2173-2.9488 7.2173-2.9488 7.2173"/>
      <path id="path3733" stroke="#000" stroke-width=".94173" d="m246.49 421.32c-4.1774-4.3304-4.1774-4.3304-4.1774-4.3304"/>
      <path id="path3735" stroke="#000" stroke-width=".94173" d="m210.37 357.81l23.836 8.6608"/>
      <path id="path3589-3-7" d="m482.86 342.36c0 85.999-69.716 155.71-155.71 155.71-85.999 0-155.71-69.716-155.71-155.71 0-85.999 69.716-155.71 155.71-155.71 85.999 0 155.71 69.716 155.71 155.71z" stroke="#000" stroke-width="12.301" transform="matrix(.062782 0 0 .061466 147.16 349.61)"/>
      <path id="path3781" stroke="#000" stroke-width=".94173" d="m196.61 367.91l-8.1091 37.53"/>
      <path id="path3589-5-6-2-1" d="m482.86 342.36c0 85.999-69.716 155.71-155.71 155.71-85.999 0-155.71-69.716-155.71-155.71 0-85.999 69.716-155.71 155.71-155.71 85.999 0 155.71 69.716 155.71 155.71z" stroke="#000" stroke-width="21.083" transform="matrix(.045144 0 0 .044197 171.77 397.05)"/>
      <path id="path3783" stroke="#000" stroke-width=".94173" d="m187.27 360.22l-10.566 6.4956"/>
      <path id="path3787" stroke="#000" stroke-width=".94173" d="m180.39 431.91l25.064-16.359"/>
      <path id="path3589-5-6-2" d="m482.86 342.36c0 85.999-69.716 155.71-155.71 155.71-85.999 0-155.71-69.716-155.71-155.71 0-85.999 69.716-155.71 155.71-155.71 85.999 0 155.71 69.716 155.71 155.71z" stroke="#000" stroke-width="21.083" transform="matrix(.045144 0 0 .044197 154.66 381.53)"/>
      <path id="path3589-3-1-2" d="m482.86 342.36c0 85.999-69.716 155.71-155.71 155.71-85.999 0-155.71-69.716-155.71-155.71 0-85.999 69.716-155.71 155.71-155.71 85.999 0 155.71 69.716 155.71 155.71z" stroke="#000" stroke-width="12.301" transform="matrix(.058459 0 0 .057233 252.38 347.92)"/>
      <path id="path3589-3" d="m482.86 342.36c0 85.999-69.716 155.71-155.71 155.71-85.999 0-155.71-69.716-155.71-155.71 0-85.999 69.716-155.71 155.71-155.71 85.999 0 155.71 69.716 155.71 155.71z" stroke="#000" stroke-width="12.301" transform="matrix(.055216 0 0 .054058 154.23 415.18)"/>
      <path id="path3813" stroke="#000" stroke-width=".98449px" d="m262.41 366.54c-14.696 0.68514-14.696 0.85642-14.696 0.85642"/>
      <path id="path3815" stroke="#000" stroke-width=".98449px" d="m270.98 376.31l-5.7735 24.836"/>
      <path id="path3819" stroke="#000" stroke-width=".98449px" d="m205.37 366.1c10.022 16.021 10.022 15.91 10.022 15.91"/>
      <path id="path3589" d="m482.86 342.36c0 85.999-69.716 155.71-155.71 155.71-85.999 0-155.71-69.716-155.71-155.71 0-85.999 69.716-155.71 155.71-155.71 85.999 0 155.71 69.716 155.71 155.71z" stroke="#000" stroke-width="6.444" transform="matrix(.14770 0 0 .14460 176.03 353.25)"/>
      <text id="text3869" font-size="7.1147px" xml:space="preserve" transform="scale(1.0107 .98946)" line-height="125%" y="408.96286" x="202.79559" font-family="Arial Rounded MT Bold" fill="#000000">
        <tspan id="tspan3871" y="408.96286" x="202.79559">INTRANET</tspan>
      </text>
    </g>
  </g>
  <metadata>
    <rdf:RDF>
      <cc:Work>
        <dc:format>image/svg+xml</dc:format>
        <dc:type rdf:resource="http://purl.org/dc/dcmitype/StillImage"/>
        <cc:license rdf:resource="http://creativecommons.org/licenses/publicdomain/"/>
        <dc:publisher>
          <cc:Agent rdf:about="http://openclipart.org/">
            <dc:title>Openclipart</dc:title>
          </cc:Agent>
        </dc:publisher>
        <dc:title>network</dc:title>
        <dc:date>2010-05-27T12:41:23</dc:date>
        <dc:description>network icon</dc:description>
        <dc:source>http://openclipart.org/detail/63295/network-by-fafil</dc:source>
        <dc:creator>
          <cc:Agent>
            <dc:title>fafil</dc:title>
          </cc:Agent>
        </dc:creator>
        <dc:subject>
          <rdf:Bag>
            <rdf:li>clip art</rdf:li>
            <rdf:li>clipart</rdf:li>
            <rdf:li>network</rdf:li>
          </rdf:Bag>
        </dc:subject>
      </cc:Work>
      <cc:License rdf:about="http://creativecommons.org/licenses/publicdomain/">
        <cc:permits rdf:resource="http://creativecommons.org/ns#Reproduction"/>
        <cc:permits rdf:resource="http://creativecommons.org/ns#Distribution"/>
        <cc:permits rdf:resource="http://creativecommons.org/ns#DerivativeWorks"/>
      </cc:License>
    </rdf:RDF>
  </metadata>
</svg>
