<?xml version="1.0" encoding="UTF-8" standalone="no"?>
<svg
   xmlns:dc="http://purl.org/dc/elements/1.1/"
   xmlns:cc="http://creativecommons.org/ns#"
   xmlns:rdf="http://www.w3.org/1999/02/22-rdf-syntax-ns#"
   xmlns:svg="http://www.w3.org/2000/svg"
   xmlns="http://www.w3.org/2000/svg"
   xmlns:xlink="http://www.w3.org/1999/xlink"
   xmlns:sodipodi="http://sodipodi.sourceforge.net/DTD/sodipodi-0.dtd"
   xmlns:inkscape="http://www.inkscape.org/namespaces/inkscape"
   id="svg2"
   viewBox="0 0 360.14 369.04"
   version="1.1"
   inkscape:version="0.48.4 r9939"
   width="100%"
   height="100%"
   sodipodi:docname="it-floppy-35.svg">
  <sodipodi:namedview
     pagecolor="#ffffff"
     bordercolor="#666666"
     borderopacity="1"
     objecttolerance="10"
     gridtolerance="10"
     guidetolerance="10"
     inkscape:pageopacity="0"
     inkscape:pageshadow="2"
     inkscape:window-width="1280"
     inkscape:window-height="1000"
     id="namedview36"
     showgrid="false"
     inkscape:zoom="0.90438543"
     inkscape:cx="404.1492"
     inkscape:cy="83.642409"
     inkscape:window-x="0"
     inkscape:window-y="24"
     inkscape:window-maximized="1"
     inkscape:current-layer="svg2" />
  <title
     id="title3836">Floppy 3.5 inch</title>
  <defs
     id="defs4">
    <linearGradient
       id="linearGradient3046"
       x1="268"
       gradientUnits="userSpaceOnUse"
       y1="632.76"
       gradientTransform="translate(239.8,-24.387)"
       x2="451.23"
       y2="632.76">
      <stop
         id="stop2919"
         stop-color="#999"
         offset="0" />
      <stop
         id="stop2925"
         stop-color="#ececec"
         offset=".32746" />
      <stop
         id="stop2921"
         stop-color="#999"
         offset="1" />
    </linearGradient>
    <linearGradient
       inkscape:collect="always"
       xlink:href="#linearGradient3046"
       id="linearGradient3035"
       gradientUnits="userSpaceOnUse"
       gradientTransform="translate(239.8,-24.387)"
       x1="268"
       y1="632.76"
       x2="451.23"
       y2="632.76" />
    <linearGradient
       inkscape:collect="always"
       xlink:href="#linearGradient3046"
       id="linearGradient3062"
       gradientUnits="userSpaceOnUse"
       gradientTransform="translate(239.8,-24.387)"
       x1="268"
       y1="632.76"
       x2="451.23"
       y2="632.76" />
  </defs>
  <path
     style="fill-opacity:0.99607999;filter:url(#filter3832)"
     inkscape:connector-curvature="0"
     d="m 12.34,8.35 c -2.216,0 -4,1.7856 -4,4 v 344.34 c 0,2.2144 1.784,4 4,4 h 335.44 c 2.216,0 4,-1.7856 4,-4 V 49.25 h -3.2812 V 36.031 H 351.78 V 30.5622 L 325.218,8.3432 h -7.125 v 1.125 h -28.688 l -1.3438,1 -2.3125,1.6562 v 0.0312 H 53.0587 V 8.3431 h -40.719 z m 307.12,314.16 h 20.125 v 14.344 H 319.46 V 322.51 z"
     id="path2948" />
  <path
     style="fill-opacity:0.99607999"
     id="rect2831"
     d="m 8.34,4.472 c -2.216,0 -4,1.7856 -4,4 v 344.34 c 0,2.2144 1.784,4 4,4 h 335.44 c 2.216,0 4,-1.7856 4,-4 V 45.372 h -3.2812 V 32.153 H 347.78 V 26.6842 L 321.218,4.4652 h -7.125 v 1.125 h -28.688 l -1.3438,1 -2.3125,1.6562 V 8.2776 H 49.0587 V 4.4651 H 8.3397 z m 307.12,314.16 h 20.125 v 14.344 H 315.46 v -14.344 z"
     inkscape:connector-curvature="0" />
  <rect
     style="opacity:0.59999999999999998;fill:#000000;fill-opacity:0.99607998"
     x="45.488735"
     y="157.66098"
     width="261.14001"
     height="199.16"
     id="rect2851" />
  <rect
     style="fill:#ffffff;fill-opacity:0.99607999"
     id="rect2862"
     y="159.181"
     width="258.09"
     x="47.016785"
     height="32.514999" />
  <rect
     style="fill:#ffffff;fill-opacity:0.99607999"
     id="rect2864"
     y="192.89102"
     width="258.09"
     x="47.016785"
     height="22.862" />
  <rect
     style="fill:#ffffff;fill-opacity:0.99607999"
     id="rect2866"
     y="216.95102"
     width="258.09"
     x="47.016785"
     height="22.862" />
  <rect
     style="fill:#ffffff;fill-opacity:0.99607999"
     id="rect2868"
     y="241.01102"
     width="258.09"
     x="47.016785"
     height="22.862" />
  <rect
     style="fill:#ffffff;fill-opacity:0.99607999"
     id="rect2870"
     y="265.061"
     width="258.09"
     x="47.016785"
     height="22.862" />
  <rect
     style="fill:#ffffff;fill-opacity:0.99607999"
     id="rect2872"
     y="289.121"
     width="258.09"
     x="47.016785"
     height="22.862" />
  <rect
     style="fill:#ffffff;fill-opacity:0.99607999"
     id="rect2874"
     y="313.181"
     width="258.09"
     x="47.016785"
     height="22.862" />
  <path
     inkscape:connector-curvature="0"
     style="fill:#ffffff;fill-opacity:1;stroke:#000000;stroke-opacity:1;stroke-width:3.54330701;stroke-miterlimit:4;stroke-dasharray:none"
     d="m 91.75,4.219 v 113.91 c 0,3.324 2.676,6 6,6 h 173.94 c 3.324,0 6,-2.676 6,-6 V 4.219 H 91.75 z M 199.44,21.5 h 50.812 v 94.469 H 199.44 V 21.5 z"
     id="rect2853" />
  <path
     style="fill:#000000;fill-opacity:1"
     inkscape:connector-curvature="0"
     d="m 64.649,187.1162 c 0,0.0456 -0.0148,0.0866 -0.0444,0.12304 -0.0296,0.0365 -0.0786,0.0661 -0.14697,0.0889 -0.0684,0.0228 -0.15951,0.041 -0.27344,0.0547 -0.11394,0.0137 -0.25977,0.0205 -0.4375,0.0205 -0.17318,0 -0.31787,-0.007 -0.43408,-0.0205 -0.11622,-0.0137 -0.2085,-0.0319 -0.27686,-0.0547 -0.0684,-0.0228 -0.11735,-0.0524 -0.14697,-0.0889 -0.0296,-0.0364 -0.0444,-0.0775 -0.0444,-0.12304 v -8.3535 c 0,-0.0456 0.0148,-0.0866 0.0444,-0.12304 0.0296,-0.0365 0.0797,-0.0661 0.15039,-0.0889 0.0706,-0.0228 0.16292,-0.041 0.27685,-0.0547 0.11393,-0.0137 0.25749,-0.0205 0.43067,-0.0205 0.17773,1e-5 0.32356,0.007 0.4375,0.0205 0.11393,0.0137 0.20507,0.0319 0.27344,0.0547 0.0683,0.0228 0.11734,0.0524 0.14697,0.0889 0.0296,0.0365 0.0444,0.0775 0.0444,0.12304 z"
     id="path3014" />
  <path
     style="fill:#000000;fill-opacity:1"
     inkscape:connector-curvature="0"
     d="m 73.889,186.7362 c 0,0.10481 -0.0182,0.19824 -0.0547,0.28027 -0.0365,0.082 -0.0855,0.15039 -0.14698,0.20508 -0.0615,0.0547 -0.13444,0.0946 -0.21875,0.11963 -0.0843,0.0251 -0.16976,0.0376 -0.25634,0.0376 H 72.4466 c -0.15951,0 -0.29737,-0.0159 -0.41357,-0.0479 -0.11622,-0.0319 -0.22332,-0.09 -0.32129,-0.17431 -0.098,-0.0843 -0.19255,-0.19825 -0.28369,-0.3418 -0.0912,-0.14356 -0.19369,-0.32926 -0.30762,-0.55713 l -2.2012,-4.1357 c -0.12761,-0.24609 -0.25749,-0.51155 -0.38965,-0.79639 -0.13217,-0.28482 -0.25066,-0.56168 -0.35547,-0.83057 h -0.0137 c 0.0182,0.32814 0.0319,0.65512 0.041,0.98096 0.009,0.32585 0.0137,0.66195 0.0137,1.0083 v 4.6279 c -10e-6,0.0456 -0.0125,0.0866 -0.0376,0.12305 -0.0251,0.0365 -0.0684,0.0672 -0.12989,0.0923 -0.0615,0.0251 -0.14469,0.0444 -0.24951,0.0581 -0.10482,0.0137 -0.23926,0.0205 -0.40332,0.0205 -0.1595,0 -0.29167,-0.007 -0.39648,-0.0205 -0.10482,-0.0137 -0.18685,-0.033 -0.2461,-0.0581 -0.0592,-0.0251 -0.10026,-0.0558 -0.12304,-0.0923 -0.0228,-0.0365 -0.0342,-0.0775 -0.0342,-0.12305 v -7.9502 c 0,-0.21419 0.0627,-0.37483 0.18799,-0.48194 0.12532,-0.10708 0.27913,-0.16063 0.46142,-0.16064 h 0.96387 c 0.17317,1e-5 0.31901,0.0148 0.4375,0.0444 0.11849,0.0296 0.22444,0.0786 0.31787,0.14697 0.0934,0.0684 0.18115,0.16294 0.26318,0.2837 0.082,0.12077 0.16634,0.27002 0.25293,0.44775 l 1.7227,3.2334 c 0.10025,0.19597 0.19938,0.38851 0.29736,0.57764 0.098,0.18913 0.19254,0.37825 0.28369,0.56738 0.0911,0.18913 0.18001,0.37484 0.26661,0.55713 0.0866,0.18229 0.17089,0.36458 0.25293,0.54687 h 0.007 c -0.0137,-0.31901 -0.0239,-0.65169 -0.0308,-0.99804 -0.007,-0.34636 -0.0103,-0.67676 -0.0103,-0.99122 v -4.1494 c -10e-6,-0.0456 0.0137,-0.0866 0.041,-0.12305 0.0273,-0.0365 0.0729,-0.0684 0.13672,-0.0957 0.0638,-0.0273 0.14811,-0.0467 0.25293,-0.0581 0.10481,-0.0114 0.23925,-0.0171 0.40332,-0.0171 0.15494,1e-5 0.28482,0.006 0.38965,0.0171 0.10481,0.0114 0.1857,0.0308 0.24267,0.0581 0.057,0.0273 0.0968,0.0592 0.11963,0.0957 0.0228,0.0365 0.0342,0.0775 0.0342,0.12305 z"
     id="path3016" />
  <path
     style="fill:#000000;fill-opacity:1"
     inkscape:connector-curvature="0"
     d="m 83.159,182.8162 c 0,0.8112 -0.10596,1.505 -0.31787,2.0815 -0.21192,0.5765 -0.51612,1.047 -0.91259,1.4116 -0.3965,0.36459 -0.87843,0.63233 -1.4458,0.80322 -0.56739,0.1709 -1.243,0.25635 -2.0269,0.25635 h -2.1123 c -0.1504,0 -0.27686,-0.0444 -0.3794,-0.1333 -0.10254,-0.0889 -0.15381,-0.23356 -0.15381,-0.43408 v -7.7109 c 0,-0.20051 0.0513,-0.3452 0.15381,-0.43408 0.10254,-0.0889 0.229,-0.13329 0.3794,-0.1333 h 2.2695 c 0.7884,1e-5 1.4572,0.0923 2.0063,0.27685 0.54915,0.18458 1.0117,0.45802 1.3877,0.82032 0.37597,0.36231 0.66194,0.81006 0.85791,1.3433 0.19595,0.53321 0.29394,1.1507 0.29394,1.8525 z m -1.8594,0.0615 c -1e-5,-0.41927 -0.049,-0.80891 -0.14697,-1.1689 -0.098,-0.36002 -0.25522,-0.6722 -0.47168,-0.93653 -0.21648,-0.26431 -0.49447,-0.47053 -0.83399,-0.61865 -0.33952,-0.1481 -0.78499,-0.22216 -1.3364,-0.22217 h -0.90918 v 6.0156 h 0.93652 c 0.49218,0 0.9069,-0.0638 1.2441,-0.19141 0.33724,-0.1276 0.61865,-0.32015 0.84424,-0.57764 0.22558,-0.25748 0.3942,-0.57763 0.50586,-0.96045 0.11165,-0.3828 0.16747,-0.82942 0.16748,-1.3398 z"
     id="path3018" />
  <path
     style="fill:#000000;fill-opacity:1"
     inkscape:connector-curvature="0"
     d="m 89.879,186.6662 c -1e-5,0.13216 -0.006,0.24268 -0.0171,0.33154 -0.0114,0.0889 -0.0285,0.16065 -0.0513,0.21534 -0.0228,0.0547 -0.0513,0.0946 -0.0855,0.11962 -0.0342,0.0251 -0.0718,0.0376 -0.11279,0.0376 h -4.4434 c -0.1504,0 -0.27686,-0.0444 -0.3794,-0.1333 -0.10254,-0.0889 -0.15381,-0.23356 -0.15381,-0.43408 v -7.7109 c 0,-0.20051 0.0513,-0.3452 0.15381,-0.43408 0.10254,-0.0889 0.229,-0.13329 0.3794,-0.1333 h 4.416 c 0.041,1e-5 0.0775,0.0114 0.10938,0.0342 0.0319,0.0228 0.0592,0.0627 0.082,0.11963 0.0228,0.057 0.0399,0.12989 0.0513,0.21875 0.0114,0.0889 0.0171,0.20167 0.0171,0.33838 -1e-5,0.12761 -0.006,0.23584 -0.0171,0.3247 -0.0114,0.0889 -0.0285,0.16066 -0.0513,0.21534 -0.0228,0.0547 -0.0501,0.0946 -0.082,0.11962 -0.0319,0.0251 -0.0684,0.0376 -0.10938,0.0376 h -3.1582 v 2.1602 h 2.6728 c 0.041,0 0.0786,0.0125 0.11279,0.0376 0.0342,0.0251 0.0627,0.0638 0.0855,0.11621 0.0228,0.0524 0.0399,0.12305 0.0513,0.21191 0.0114,0.0889 0.0171,0.19711 0.0171,0.32471 0,0.13216 -0.006,0.24154 -0.0171,0.32812 -0.0114,0.0866 -0.0285,0.15609 -0.0513,0.2085 -0.0228,0.0524 -0.0513,0.09 -0.0855,0.11279 -0.0342,0.0228 -0.0718,0.0342 -0.11279,0.0342 h -2.6728 v 2.4951 h 3.1856 c 0.041,0 0.0786,0.0125 0.11279,0.0376 0.0342,0.0251 0.0627,0.0649 0.0855,0.11963 0.0228,0.0547 0.0399,0.12646 0.0513,0.21533 0.0114,0.0889 0.0171,0.19938 0.0171,0.33154 z"
     id="path3020" />
  <path
     style="fill:#000000;fill-opacity:1"
     inkscape:connector-curvature="0"
     d="m 97.779,186.6862 c 0.082,0.15951 0.13557,0.28711 0.16064,0.38282 0.0251,0.0957 0.0102,0.16862 -0.0444,0.21875 -0.0547,0.0501 -0.15382,0.082 -0.29737,0.0957 -0.14356,0.0137 -0.34294,0.0205 -0.59814,0.0205 -0.2142,0 -0.38282,-0.005 -0.50586,-0.0137 -0.12305,-0.009 -0.2199,-0.0239 -0.29053,-0.0444 -0.0706,-0.0205 -0.12191,-0.049 -0.15381,-0.0855 -0.0319,-0.0365 -0.0592,-0.082 -0.082,-0.13672 l -1.6611,-3.1924 -1.6543,3.1924 c -0.0273,0.0547 -0.057,0.10026 -0.0889,0.13672 -0.0319,0.0365 -0.0832,0.0649 -0.1538,0.0855 -0.0706,0.0205 -0.16863,0.0353 -0.29395,0.0444 -0.12533,0.009 -0.29053,0.0137 -0.4956,0.0137 -0.23698,0 -0.42042,-0.007 -0.5503,-0.0205 -0.12988,-0.0137 -0.21761,-0.0456 -0.26318,-0.0957 -0.0456,-0.0501 -0.0547,-0.12305 -0.0273,-0.21875 0.0273,-0.0957 0.0843,-0.22331 0.17089,-0.38282 l 2.1191,-3.8623 -1.9688,-3.6299 c -0.082,-0.16406 -0.13785,-0.29508 -0.16748,-0.39307 -0.0296,-0.098 -0.0182,-0.17089 0.0342,-0.21875 0.0524,-0.0478 0.14925,-0.0775 0.29053,-0.0889 0.14128,-0.0114 0.3418,-0.0171 0.60156,-0.0171 0.21419,1e-5 0.38395,0.005 0.50928,0.0137 0.12532,0.009 0.22445,0.0239 0.29736,0.0444 0.0729,0.0205 0.12419,0.049 0.15381,0.0855 0.0296,0.0365 0.0581,0.082 0.0854,0.13672 l 1.5518,2.9258 1.5107,-2.9258 c 0.0273,-0.0547 0.0558,-0.10026 0.0854,-0.13672 0.0296,-0.0364 0.0775,-0.0649 0.14356,-0.0855 0.0661,-0.0205 0.15722,-0.0353 0.27343,-0.0444 0.11621,-0.009 0.27685,-0.0137 0.48194,-0.0137 0.22785,1e-5 0.40787,0.006 0.54004,0.0171 0.13215,0.0114 0.2233,0.0422 0.27343,0.0923 0.0501,0.0501 0.0627,0.12305 0.0376,0.21875 -0.0251,0.0957 -0.0763,0.22559 -0.15381,0.38965 l -1.9688,3.6094 z"
     id="path3022" />
  <metadata
     id="metadata34">
    <rdf:RDF>
      <cc:Work>
        <dc:format>image/svg+xml</dc:format>
        <dc:type
           rdf:resource="http://purl.org/dc/dcmitype/StillImage" />
        <cc:license
           rdf:resource="http://creativecommons.org/licenses/publicdomain/" />
        <dc:publisher>
          <cc:Agent
             rdf:about="http://openclipart.org/">
            <dc:title>Openclipart</dc:title>
          </cc:Agent>
        </dc:publisher>
        <dc:title>Floppy 3.5 inch</dc:title>
        <dc:date>2010-04-22T21:07:20</dc:date>
        <dc:description>3.5 inch, IT, clip art, clipart, computer, disk, floppy, pc, </dc:description>
        <dc:source>http://openclipart.org/detail/50263/3.5-inch-floppy-by-sheikh_tuhin</dc:source>
        <dc:creator>
          <cc:Agent>
            <dc:title>sheikh_tuhin</dc:title>
          </cc:Agent>
        </dc:creator>
        <dc:subject>
          <rdf:Bag>
            <rdf:li>3.5 inch</rdf:li>
            <rdf:li>IT</rdf:li>
            <rdf:li>clip art</rdf:li>
            <rdf:li>clipart</rdf:li>
            <rdf:li>computer</rdf:li>
            <rdf:li>disk</rdf:li>
            <rdf:li>floppy</rdf:li>
            <rdf:li>pc</rdf:li>
          </rdf:Bag>
        </dc:subject>
      </cc:Work>
      <cc:License
         rdf:about="http://creativecommons.org/licenses/publicdomain/">
        <cc:permits
           rdf:resource="http://creativecommons.org/ns#Reproduction" />
        <cc:permits
           rdf:resource="http://creativecommons.org/ns#Distribution" />
        <cc:permits
           rdf:resource="http://creativecommons.org/ns#DerivativeWorks" />
      </cc:License>
    </rdf:RDF>
  </metadata>
</svg>
