<?xml version="1.0" standalone="no"?>
<!DOCTYPE svg PUBLIC "-//W3C//DTD SVG 1.1//EN" "http://www.w3.org/Graphics/SVG/1.1/DTD/svg11.dtd" >
<svg viewBox="0 -256 1792 1792">
  <g transform="matrix(1 0 0 -1 0 1536)">
   <path fill="currentColor"
d="M640 192v-128q0 -26 -19 -45t-45 -19h-512q-26 0 -45 19t-19 45v128q0 26 19 45t45 19h64v384h-64q-26 0 -45 19t-19 45v128q0 26 19 45t45 19h384q26 0 45 -19t19 -45v-576h64q26 0 45 -19t19 -45zM512 1344v-192q0 -26 -19 -45t-45 -19h-256q-26 0 -45 19t-19 45v192
q0 26 19 45t45 19h256q26 0 45 -19t19 -45z" />
  </g>

</svg>
