<?xml version="1.0" standalone="no"?>
<!DOCTYPE svg PUBLIC "-//W3C//DTD SVG 1.1//EN" "http://www.w3.org/Graphics/SVG/1.1/DTD/svg11.dtd" >
<svg viewBox="0 -256 1792 1792">
  <g transform="matrix(1 0 0 -1 0 1536)">
   <path fill="currentColor"
d="M1792 192v-128q0 -26 -19 -45t-45 -19h-1664q-26 0 -45 19t-19 45v128q0 26 19 45t45 19h1664q26 0 45 -19t19 -45zM1408 576v-128q0 -26 -19 -45t-45 -19h-896q-26 0 -45 19t-19 45v128q0 26 19 45t45 19h896q26 0 45 -19t19 -45zM1664 960v-128q0 -26 -19 -45t-45 -19
h-1408q-26 0 -45 19t-19 45v128q0 26 19 45t45 19h1408q26 0 45 -19t19 -45zM1280 1344v-128q0 -26 -19 -45t-45 -19h-640q-26 0 -45 19t-19 45v128q0 26 19 45t45 19h640q26 0 45 -19t19 -45z" />
  </g>

</svg>
