<?xml version="1.0" standalone="no"?>
<!DOCTYPE svg PUBLIC "-//W3C//DTD SVG 1.1//EN" "http://www.w3.org/Graphics/SVG/1.1/DTD/svg11.dtd" >
<svg viewBox="0 -256 1792 1792">
  <g transform="matrix(1 0 0 -1 0 1536)">
   <path fill="currentColor"
d="M1088 704q0 26 -19 45t-45 19h-256q-26 0 -45 -19t-19 -45t19 -45t45 -19h256q26 0 45 19t19 45zM1664 896v-960q0 -26 -19 -45t-45 -19h-1408q-26 0 -45 19t-19 45v960q0 26 19 45t45 19h1408q26 0 45 -19t19 -45zM1728 1344v-256q0 -26 -19 -45t-45 -19h-1536
q-26 0 -45 19t-19 45v256q0 26 19 45t45 19h1536q26 0 45 -19t19 -45z" />
  </g>

</svg>
