<?xml version="1.0" standalone="no"?>
<!DOCTYPE svg PUBLIC "-//W3C//DTD SVG 1.1//EN" "http://www.w3.org/Graphics/SVG/1.1/DTD/svg11.dtd" >
<svg viewBox="0 -256 1792 1792">
  <g transform="matrix(1 0 0 -1 0 1536)">
   <path fill="currentColor"
d="M63 0h-63v1408h63v-1408zM126 1h-32v1407h32v-1407zM220 1h-31v1407h31v-1407zM377 1h-31v1407h31v-1407zM534 1h-62v1407h62v-1407zM660 1h-31v1407h31v-1407zM723 1h-31v1407h31v-1407zM786 1h-31v1407h31v-1407zM943 1h-63v1407h63v-1407zM1100 1h-63v1407h63v-1407z
M1226 1h-63v1407h63v-1407zM1352 1h-63v1407h63v-1407zM1446 1h-63v1407h63v-1407zM1635 1h-94v1407h94v-1407zM1698 1h-32v1407h32v-1407zM1792 0h-63v1408h63v-1408z" />
  </g>

</svg>
