<?xml version="1.0" standalone="no"?>
<!DOCTYPE svg PUBLIC "-//W3C//DTD SVG 1.1//EN" "http://www.w3.org/Graphics/SVG/1.1/DTD/svg11.dtd" >
<svg viewBox="0 -256 1792 1792">
  <g transform="matrix(1 0 0 -1 0 1536)">
   <path fill="currentColor"
d="M685 237l614 614q19 19 19 45t-19 45l-102 102q-19 19 -45 19t-45 -19l-467 -467l-211 211q-19 19 -45 19t-45 -19l-102 -102q-19 -19 -19 -45t19 -45l358 -358q19 -19 45 -19t45 19zM1536 1120v-960q0 -119 -84.5 -203.5t-203.5 -84.5h-960q-119 0 -203.5 84.5
t-84.5 203.5v960q0 119 84.5 203.5t203.5 84.5h960q119 0 203.5 -84.5t84.5 -203.5z" />
  </g>

</svg>
