<?xml version="1.0" standalone="no"?>
<!DOCTYPE svg PUBLIC "-//W3C//DTD SVG 1.1//EN" "http://www.w3.org/Graphics/SVG/1.1/DTD/svg11.dtd" >
<svg viewBox="0 -256 1792 1792">
  <g transform="matrix(1 0 0 -1 0 1536)">
   <path fill="currentColor"
d="M717 141l454 454q19 19 19 45t-19 45l-454 454q-19 19 -45 19t-45 -19l-102 -102q-19 -19 -19 -45t19 -45l307 -307l-307 -307q-19 -19 -19 -45t19 -45l102 -102q19 -19 45 -19t45 19zM1536 640q0 -209 -103 -385.5t-279.5 -279.5t-385.5 -103t-385.5 103t-279.5 279.5
t-103 385.5t103 385.5t279.5 279.5t385.5 103t385.5 -103t279.5 -279.5t103 -385.5z" />
  </g>

</svg>
