<?xml version="1.0" standalone="no"?>
<!DOCTYPE svg PUBLIC "-//W3C//DTD SVG 1.1//EN" "http://www.w3.org/Graphics/SVG/1.1/DTD/svg11.dtd" >
<svg viewBox="0 -256 1920 1792">
  <g transform="matrix(1 0 0 -1 0 1536)">
   <path fill="currentColor"
d="M1920 384q0 -159 -112.5 -271.5t-271.5 -112.5h-1088q-185 0 -316.5 131.5t-131.5 316.5q0 132 71 241.5t187 163.5q-2 28 -2 43q0 212 150 362t362 150q158 0 286.5 -88t187.5 -230q70 62 166 62q106 0 181 -75t75 -181q0 -75 -41 -138q129 -30 213 -134.5t84 -239.5z
" />
  </g>

</svg>
