<?xml version="1.0" standalone="no"?>
<!DOCTYPE svg PUBLIC "-//W3C//DTD SVG 1.1//EN" "http://www.w3.org/Graphics/SVG/1.1/DTD/svg11.dtd" >
<svg viewBox="0 -256 1792 1792">
  <g transform="matrix(1 0 0 -1 0 1536)">
   <path fill="currentColor"
d="M1075 224q0 -13 -10 -23l-50 -50q-10 -10 -23 -10t-23 10l-393 393l-393 -393q-10 -10 -23 -10t-23 10l-50 50q-10 10 -10 23t10 23l466 466q10 10 23 10t23 -10l466 -466q10 -10 10 -23zM1075 608q0 -13 -10 -23l-50 -50q-10 -10 -23 -10t-23 10l-393 393l-393 -393
q-10 -10 -23 -10t-23 10l-50 50q-10 10 -10 23t10 23l466 466q10 10 23 10t23 -10l466 -466q10 -10 10 -23z" />
  </g>

</svg>
