<?xml version="1.0" standalone="no"?>
<!DOCTYPE svg PUBLIC "-//W3C//DTD SVG 1.1//EN" "http://www.w3.org/Graphics/SVG/1.1/DTD/svg11.dtd" >
<svg viewBox="0 -256 1792 1792">
  <g transform="matrix(1 0 0 -1 0 1536)">
   <path fill="currentColor"
d="M402 829l494 -305l-342 -285l-490 319zM1388 274v-108l-490 -293v-1l-1 1l-1 -1v1l-489 293v108l147 -96l342 284v2l1 -1l1 1v-2l343 -284zM554 1418l342 -285l-494 -304l-338 270zM1390 829l338 -271l-489 -319l-343 285zM1239 1418l489 -319l-338 -270l-494 304z" />
  </g>

</svg>
