<?xml version="1.0" standalone="no"?>
<!DOCTYPE svg PUBLIC "-//W3C//DTD SVG 1.1//EN" "http://www.w3.org/Graphics/SVG/1.1/DTD/svg11.dtd" >
<svg viewBox="0 -256 1792 1792">
  <g transform="matrix(1 0 0 -1 0 1536)">
   <path fill="currentColor"
d="M384 800v-192q0 -40 -28 -68t-68 -28h-192q-40 0 -68 28t-28 68v192q0 40 28 68t68 28h192q40 0 68 -28t28 -68zM896 800v-192q0 -40 -28 -68t-68 -28h-192q-40 0 -68 28t-28 68v192q0 40 28 68t68 28h192q40 0 68 -28t28 -68zM1408 800v-192q0 -40 -28 -68t-68 -28h-192
q-40 0 -68 28t-28 68v192q0 40 28 68t68 28h192q40 0 68 -28t28 -68z" />
  </g>

</svg>
