<?xml version="1.0" standalone="no"?>
<!DOCTYPE svg PUBLIC "-//W3C//DTD SVG 1.1//EN" "http://www.w3.org/Graphics/SVG/1.1/DTD/svg11.dtd" >
<svg viewBox="0 -256 1792 1792">
  <g transform="matrix(1 0 0 -1 0 1536)">
   <path fill="currentColor"
d="M1307 618l23 219h-198v109q0 49 15.5 68.5t71.5 19.5h110v219h-175q-152 0 -218 -72t-66 -213v-131h-131v-219h131v-635h262v635h175zM1536 1120v-960q0 -119 -84.5 -203.5t-203.5 -84.5h-960q-119 0 -203.5 84.5t-84.5 203.5v960q0 119 84.5 203.5t203.5 84.5h960
q119 0 203.5 -84.5t84.5 -203.5z" />
  </g>

</svg>
