<?xml version="1.0" standalone="no"?>
<!DOCTYPE svg PUBLIC "-//W3C//DTD SVG 1.1//EN" "http://www.w3.org/Graphics/SVG/1.1/DTD/svg11.dtd" >
<svg viewBox="0 -256 1920 1792">
  <g transform="matrix(1 0 0 -1 0 1536)">
   <path fill="currentColor"
d="M1920 576q-1 -32 -288 -96l-352 -32l-224 -64h-64l-293 -352h69q26 0 45 -4.5t19 -11.5t-19 -11.5t-45 -4.5h-96h-160h-64v32h64v416h-160l-192 -224h-96l-32 32v192h32v32h128v8l-192 24v128l192 24v8h-128v32h-32v192l32 32h96l192 -224h160v416h-64v32h64h160h96
q26 0 45 -4.5t19 -11.5t-19 -11.5t-45 -4.5h-69l293 -352h64l224 -64l352 -32q261 -58 287 -93z" />
  </g>

</svg>
