<?xml version="1.0" standalone="no"?>
<!DOCTYPE svg PUBLIC "-//W3C//DTD SVG 1.1//EN" "http://www.w3.org/Graphics/SVG/1.1/DTD/svg11.dtd" >
<svg viewBox="0 -256 1920 1792">
  <g transform="matrix(1 0 0 -1 0 1536)">
   <path fill="currentColor"
d="M384 -64v128q0 26 -19 45t-45 19h-128q-26 0 -45 -19t-19 -45v-128q0 -26 19 -45t45 -19h128q26 0 45 19t19 45zM384 320v128q0 26 -19 45t-45 19h-128q-26 0 -45 -19t-19 -45v-128q0 -26 19 -45t45 -19h128q26 0 45 19t19 45zM384 704v128q0 26 -19 45t-45 19h-128
q-26 0 -45 -19t-19 -45v-128q0 -26 19 -45t45 -19h128q26 0 45 19t19 45zM1408 -64v512q0 26 -19 45t-45 19h-768q-26 0 -45 -19t-19 -45v-512q0 -26 19 -45t45 -19h768q26 0 45 19t19 45zM384 1088v128q0 26 -19 45t-45 19h-128q-26 0 -45 -19t-19 -45v-128q0 -26 19 -45
t45 -19h128q26 0 45 19t19 45zM1792 -64v128q0 26 -19 45t-45 19h-128q-26 0 -45 -19t-19 -45v-128q0 -26 19 -45t45 -19h128q26 0 45 19t19 45zM1408 704v512q0 26 -19 45t-45 19h-768q-26 0 -45 -19t-19 -45v-512q0 -26 19 -45t45 -19h768q26 0 45 19t19 45zM1792 320v128
q0 26 -19 45t-45 19h-128q-26 0 -45 -19t-19 -45v-128q0 -26 19 -45t45 -19h128q26 0 45 19t19 45zM1792 704v128q0 26 -19 45t-45 19h-128q-26 0 -45 -19t-19 -45v-128q0 -26 19 -45t45 -19h128q26 0 45 19t19 45zM1792 1088v128q0 26 -19 45t-45 19h-128q-26 0 -45 -19
t-19 -45v-128q0 -26 19 -45t45 -19h128q26 0 45 19t19 45zM1920 1248v-1344q0 -66 -47 -113t-113 -47h-1600q-66 0 -113 47t-47 113v1344q0 66 47 113t113 47h1600q66 0 113 -47t47 -113z" />
  </g>

</svg>
