<?xml version="1.0" standalone="no"?>
<!DOCTYPE svg PUBLIC "-//W3C//DTD SVG 1.1//EN" "http://www.w3.org/Graphics/SVG/1.1/DTD/svg11.dtd" >
<svg viewBox="0 -256 1792 1792">
  <g transform="matrix(1 0 0 -1 0 1536)">
   <path fill="currentColor"
d="M1248 1408q119 0 203.5 -84.5t84.5 -203.5v-960q0 -119 -84.5 -203.5t-203.5 -84.5h-960q-119 0 -203.5 84.5t-84.5 203.5v960q0 119 84.5 203.5t203.5 84.5h960zM698 640q0 88 -62 150t-150 62t-150 -62t-62 -150t62 -150t150 -62t150 62t62 150zM1262 640q0 88 -62 150
t-150 62t-150 -62t-62 -150t62 -150t150 -62t150 62t62 150z" />
  </g>

</svg>
