<?xml version="1.0" standalone="no"?>
<!DOCTYPE svg PUBLIC "-//W3C//DTD SVG 1.1//EN" "http://www.w3.org/Graphics/SVG/1.1/DTD/svg11.dtd" >
<svg viewBox="0 -256 1792 1792">
  <g transform="matrix(1 0 0 -1 0 1536)">
   <path fill="currentColor"
d="M1020 399v-367q0 -14 -9 -23t-23 -9h-956q-14 0 -23 9t-9 23v150q0 13 9.5 22.5t22.5 9.5h97v383h-95q-14 0 -23 9.5t-9 22.5v131q0 14 9 23t23 9h95v223q0 171 123.5 282t314.5 111q185 0 335 -125q9 -8 10 -20.5t-7 -22.5l-103 -127q-9 -11 -22 -12q-13 -2 -23 7
q-5 5 -26 19t-69 32t-93 18q-85 0 -137 -47t-52 -123v-215h305q13 0 22.5 -9t9.5 -23v-131q0 -13 -9.5 -22.5t-22.5 -9.5h-305v-379h414v181q0 13 9 22.5t23 9.5h162q14 0 23 -9.5t9 -22.5z" />
  </g>

</svg>
