<?xml version="1.0" standalone="no"?>
<!DOCTYPE svg PUBLIC "-//W3C//DTD SVG 1.1//EN" "http://www.w3.org/Graphics/SVG/1.1/DTD/svg11.dtd" >
<svg viewBox="0 -256 1792 1792">
  <g transform="matrix(1 0 0 -1 0 1536)">
   <path fill="currentColor"
d="M464 128q0 33 -23.5 56.5t-56.5 23.5t-56.5 -23.5t-23.5 -56.5t23.5 -56.5t56.5 -23.5t56.5 23.5t23.5 56.5zM672 288v704q0 13 -9.5 22.5t-22.5 9.5h-512q-13 0 -22.5 -9.5t-9.5 -22.5v-704q0 -13 9.5 -22.5t22.5 -9.5h512q13 0 22.5 9.5t9.5 22.5zM480 1136
q0 16 -16 16h-160q-16 0 -16 -16t16 -16h160q16 0 16 16zM768 1152v-1024q0 -52 -38 -90t-90 -38h-512q-52 0 -90 38t-38 90v1024q0 52 38 90t90 38h512q52 0 90 -38t38 -90z" />
  </g>

</svg>
