<?xml version="1.0" standalone="no"?>
<!DOCTYPE svg PUBLIC "-//W3C//DTD SVG 1.1//EN" "http://www.w3.org/Graphics/SVG/1.1/DTD/svg11.dtd" >
<svg viewBox="0 -256 1792 1792">
  <g transform="matrix(1 0 0 -1 0 1536)">
   <path fill="currentColor"
d="M1792 640q0 -26 -19 -45l-256 -256q-19 -19 -45 -19t-45 19t-19 45v128h-384v-384h128q26 0 45 -19t19 -45t-19 -45l-256 -256q-19 -19 -45 -19t-45 19l-256 256q-19 19 -19 45t19 45t45 19h128v384h-384v-128q0 -26 -19 -45t-45 -19t-45 19l-256 256q-19 19 -19 45
t19 45l256 256q19 19 45 19t45 -19t19 -45v-128h384v384h-128q-26 0 -45 19t-19 45t19 45l256 256q19 19 45 19t45 -19l256 -256q19 -19 19 -45t-19 -45t-45 -19h-128v-384h384v128q0 26 19 45t45 19t45 -19l256 -256q19 -19 19 -45z" />
  </g>

</svg>
