<?xml version="1.0" standalone="no"?>
<!DOCTYPE svg PUBLIC "-//W3C//DTD SVG 1.1//EN" "http://www.w3.org/Graphics/SVG/1.1/DTD/svg11.dtd" >
<svg viewBox="0 -256 1792 1792">
  <g transform="matrix(1 0 0 -1 0 1536)">
   <path fill="currentColor"
d="M1284 802q0 28 -18 46l-91 90q-19 19 -45 19t-45 -19l-408 -407l-226 226q-19 19 -45 19t-45 -19l-91 -90q-18 -18 -18 -46q0 -27 18 -45l362 -362q19 -19 45 -19q27 0 46 19l543 543q18 18 18 45zM1536 640q0 -209 -103 -385.5t-279.5 -279.5t-385.5 -103t-385.5 103
t-279.5 279.5t-103 385.5t103 385.5t279.5 279.5t385.5 103t385.5 -103t279.5 -279.5t103 -385.5z" />
  </g>

</svg>
