<?xml version="1.0" standalone="no"?>
<!DOCTYPE svg PUBLIC "-//W3C//DTD SVG 1.1//EN" "http://www.w3.org/Graphics/SVG/1.1/DTD/svg11.dtd" >
<svg viewBox="0 -256 1792 1792">
  <g transform="matrix(1 0 0 -1 0 1536)">
   <path fill="currentColor"
d="M384 384v-128h-128v128h128zM384 1152v-128h-128v128h128zM1152 1152v-128h-128v128h128zM128 129h384v383h-384v-383zM128 896h384v384h-384v-384zM896 896h384v384h-384v-384zM640 640v-640h-640v640h640zM1152 128v-128h-128v128h128zM1408 128v-128h-128v128h128z
M1408 640v-384h-384v128h-128v-384h-128v640h384v-128h128v128h128zM640 1408v-640h-640v640h640zM1408 1408v-640h-640v640h640z" />
  </g>

</svg>
