<?xml version="1.0" standalone="no"?>
<!DOCTYPE svg PUBLIC "-//W3C//DTD SVG 1.1//EN" "http://www.w3.org/Graphics/SVG/1.1/DTD/svg11.dtd" >
<svg viewBox="0 -256 1792 1792">
  <g transform="matrix(1 0 0 -1 0 1536)">
   <path fill="currentColor"
d="M768 576v-384q0 -80 -56 -136t-136 -56h-384q-80 0 -136 56t-56 136v704q0 104 40.5 198.5t109.5 163.5t163.5 109.5t198.5 40.5h64q26 0 45 -19t19 -45v-128q0 -26 -19 -45t-45 -19h-64q-106 0 -181 -75t-75 -181v-32q0 -40 28 -68t68 -28h224q80 0 136 -56t56 -136z
M1664 576v-384q0 -80 -56 -136t-136 -56h-384q-80 0 -136 56t-56 136v704q0 104 40.5 198.5t109.5 163.5t163.5 109.5t198.5 40.5h64q26 0 45 -19t19 -45v-128q0 -26 -19 -45t-45 -19h-64q-106 0 -181 -75t-75 -181v-32q0 -40 28 -68t68 -28h224q80 0 136 -56t56 -136z" />
  </g>

</svg>
