<?xml version="1.0" standalone="no"?>
<!DOCTYPE svg PUBLIC "-//W3C//DTD SVG 1.1//EN" "http://www.w3.org/Graphics/SVG/1.1/DTD/svg11.dtd" >
<svg viewBox="0 -256 1792 1792">
  <g transform="matrix(1 0 0 -1 0 1536)">
   <path fill="currentColor"
d="M1298 214q0 -40 -28 -68l-136 -136q-28 -28 -68 -28t-68 28l-294 294l-294 -294q-28 -28 -68 -28t-68 28l-136 136q-28 28 -28 68t28 68l294 294l-294 294q-28 28 -28 68t28 68l136 136q28 28 68 28t68 -28l294 -294l294 294q28 28 68 28t68 -28l136 -136q28 -28 28 -68
t-28 -68l-294 -294l294 -294q28 -28 28 -68z" />
  </g>

</svg>
