<?xml version="1.0" standalone="no"?>
<!DOCTYPE svg PUBLIC "-//W3C//DTD SVG 1.1//EN" "http://www.w3.org/Graphics/SVG/1.1/DTD/svg11.dtd" >
<svg viewBox="0 -256 1792 1792">
  <g transform="matrix(1 0 0 -1 0 1536)">
   <path fill="currentColor"
d="M1216 -32v-192q0 -14 -9 -23t-23 -9h-256q-14 0 -23 9t-9 23v192q0 14 9 23t23 9h256q14 0 23 -9t9 -23zM736 96q0 -12 -10 -24l-319 -319q-10 -9 -23 -9q-12 0 -23 9l-320 320q-15 16 -7 35q8 20 30 20h192v1376q0 14 9 23t23 9h192q14 0 23 -9t9 -23v-1376h192
q14 0 23 -9t9 -23zM1408 480v-192q0 -14 -9 -23t-23 -9h-448q-14 0 -23 9t-9 23v192q0 14 9 23t23 9h448q14 0 23 -9t9 -23zM1600 992v-192q0 -14 -9 -23t-23 -9h-640q-14 0 -23 9t-9 23v192q0 14 9 23t23 9h640q14 0 23 -9t9 -23zM1792 1504v-192q0 -14 -9 -23t-23 -9h-832
q-14 0 -23 9t-9 23v192q0 14 9 23t23 9h832q14 0 23 -9t9 -23z" />
  </g>

</svg>
