<?xml version="1.0" standalone="no"?>
<!DOCTYPE svg PUBLIC "-//W3C//DTD SVG 1.1//EN" "http://www.w3.org/Graphics/SVG/1.1/DTD/svg11.dtd" >
<svg viewBox="0 -256 1792 1792">
  <g transform="matrix(1 0 0 -1 0 1536)">
   <path fill="currentColor"
d="M928 135v-151l-707 -1v151zM1169 481v-701l-1 -35v-1h-1132l-35 1h-1v736h121v-618h928v618h120zM241 393l704 -65l-13 -150l-705 65zM309 709l683 -183l-39 -146l-683 183zM472 1058l609 -360l-77 -130l-609 360zM832 1389l398 -585l-124 -85l-399 584zM1285 1536
l121 -697l-149 -26l-121 697z" />
  </g>

</svg>
