<?xml version="1.0" standalone="no"?>
<!DOCTYPE svg PUBLIC "-//W3C//DTD SVG 1.1//EN" "http://www.w3.org/Graphics/SVG/1.1/DTD/svg11.dtd" >
<svg viewBox="0 -256 1792 1792">
  <g transform="matrix(1 0 0 -1 0 1536)">
   <path fill="currentColor"
d="M1186 579l257 250l-356 52l-66 10l-30 60l-159 322v-963l59 -31l318 -168l-60 355l-12 66zM1638 841l-363 -354l86 -500q5 -33 -6 -51.5t-34 -18.5q-17 0 -40 12l-449 236l-449 -236q-23 -12 -40 -12q-23 0 -34 18.5t-6 51.5l86 500l-364 354q-32 32 -23 59.5t54 34.5
l502 73l225 455q20 41 49 41q28 0 49 -41l225 -455l502 -73q45 -7 54 -34.5t-24 -59.5z" />
  </g>

</svg>
