<?xml version="1.0" standalone="no"?>
<!DOCTYPE svg PUBLIC "-//W3C//DTD SVG 1.1//EN" "http://www.w3.org/Graphics/SVG/1.1/DTD/svg11.dtd" >
<svg viewBox="0 -256 1792 1792">
  <g transform="matrix(1 0 0 -1 0 1536)">
   <path fill="currentColor"
d="M1024 128h640v128h-640v-128zM640 640h1024v128h-1024v-128zM1280 1152h384v128h-384v-128zM1792 320v-256q0 -26 -19 -45t-45 -19h-1664q-26 0 -45 19t-19 45v256q0 26 19 45t45 19h1664q26 0 45 -19t19 -45zM1792 832v-256q0 -26 -19 -45t-45 -19h-1664q-26 0 -45 19
t-19 45v256q0 26 19 45t45 19h1664q26 0 45 -19t19 -45zM1792 1344v-256q0 -26 -19 -45t-45 -19h-1664q-26 0 -45 19t-19 45v256q0 26 19 45t45 19h1664q26 0 45 -19t19 -45z" />
  </g>

</svg>
