<?xml version="1.0" standalone="no"?>
<!DOCTYPE svg PUBLIC "-//W3C//DTD SVG 1.1//EN" "http://www.w3.org/Graphics/SVG/1.1/DTD/svg11.dtd" >
<svg viewBox="0 -256 1792 1792">
  <g transform="matrix(1 0 0 -1 0 1536)">
   <path fill="currentColor"
d="M1024 1084l316 -316l-572 -572l-316 316zM813 105l618 618q19 19 19 45t-19 45l-362 362q-18 18 -45 18t-45 -18l-618 -618q-19 -19 -19 -45t19 -45l362 -362q18 -18 45 -18t45 18zM1702 742l-907 -908q-37 -37 -90.5 -37t-90.5 37l-126 126q56 56 56 136t-56 136
t-136 56t-136 -56l-125 126q-37 37 -37 90.5t37 90.5l907 906q37 37 90.5 37t90.5 -37l125 -125q-56 -56 -56 -136t56 -136t136 -56t136 56l126 -125q37 -37 37 -90.5t-37 -90.5z" />
  </g>

</svg>
