<?xml version="1.0" standalone="no"?>
<!DOCTYPE svg PUBLIC "-//W3C//DTD SVG 1.1//EN" "http://www.w3.org/Graphics/SVG/1.1/DTD/svg11.dtd" >
<svg viewBox="0 -256 1792 1792">
  <g transform="matrix(1 0 0 -1 0 1536)">
   <path fill="currentColor"
d="M512 384q0 36 -20 69q-1 1 -15.5 22.5t-25.5 38t-25 44t-21 50.5q-4 16 -21 16t-21 -16q-7 -23 -21 -50.5t-25 -44t-25.5 -38t-15.5 -22.5q-20 -33 -20 -69q0 -53 37.5 -90.5t90.5 -37.5t90.5 37.5t37.5 90.5zM1024 512q0 -212 -150 -362t-362 -150t-362 150t-150 362
q0 145 81 275q6 9 62.5 90.5t101 151t99.5 178t83 201.5q9 30 34 47t51 17t51.5 -17t33.5 -47q28 -93 83 -201.5t99.5 -178t101 -151t62.5 -90.5q81 -127 81 -275z" />
  </g>

</svg>
