<?xml version="1.0" standalone="no"?>
<!DOCTYPE svg PUBLIC "-//W3C//DTD SVG 1.1//EN" "http://www.w3.org/Graphics/SVG/1.1/DTD/svg11.dtd" >
<svg viewBox="0 -256 1792 1792">
  <g transform="matrix(1 0 0 -1 0 1536)">
   <path fill="currentColor"
d="M1056 768q40 0 68 -28t28 -68v-576q0 -40 -28 -68t-68 -28h-960q-40 0 -68 28t-28 68v576q0 40 28 68t68 28h32v320q0 185 131.5 316.5t316.5 131.5t316.5 -131.5t131.5 -316.5q0 -26 -19 -45t-45 -19h-64q-26 0 -45 19t-19 45q0 106 -75 181t-181 75t-181 -75t-75 -181
v-320h736z" />
  </g>

</svg>
