<?xml version="1.0" standalone="no"?>
<!DOCTYPE svg PUBLIC "-//W3C//DTD SVG 1.1//EN" "http://www.w3.org/Graphics/SVG/1.1/DTD/svg11.dtd" >
<svg viewBox="0 -256 1792 1792">
  <g transform="matrix(1 0 0 -1 0 1536)">
   <path fill="currentColor"
d="M597 869q-10 -18 -257 -456q-27 -46 -65 -46h-239q-21 0 -31 17t0 36l253 448q1 0 0 1l-161 279q-12 22 -1 37q9 15 32 15h239q40 0 66 -45zM1403 1511q11 -16 0 -37l-528 -934v-1l336 -615q11 -20 1 -37q-10 -15 -32 -15h-239q-42 0 -66 45l-339 622q18 32 531 942
q25 45 64 45h241q22 0 31 -15z" />
  </g>

</svg>
