<?xml version="1.0"?>
<svg xmlns:rdf="http://www.w3.org/1999/02/22-rdf-syntax-ns#" xmlns="http://www.w3.org/2000/svg" xmlns:cc="http://creativecommons.org/ns#" xmlns:dc="http://purl.org/dc/elements/1.1/" xmlns:svg="http://www.w3.org/2000/svg" id="svg2" viewBox="0 0 374.88 693.36" version="1.1">
  <g id="layer1" transform="translate(16.859 -230.68)">
    <path id="path2874" d="m64.418 908.63c-4.3056-0.76468-7.1526-1.9556-8.8009-3.6815-0.71006-0.74338-1.7187-1.0349-3.3821-0.97725-2.339 0.081-7.1082-1.7155-8.1842-3.0828-0.28392-0.36081-0.66164-1.7971-0.83931-3.1917-0.22147-1.7378-0.75381-2.8907-1.6917-3.6639-0.75268-0.62056-1.8874-1.5504-2.5214-2.0664-0.73194-0.59558-1.3749-2.1392-1.7609-4.2276-0.33438-1.8092-1.2439-6.0796-2.0211-9.4899-0.77714-3.4103-1.8187-8.6102-2.3145-11.555-0.49581-2.9452-1.0001-5.5147-1.1206-5.71-0.5037-0.81604-1.9051-12.637-1.6088-13.571 0.18376-0.579-0.15146-1.6198-0.77844-2.4169-0.60562-0.76993-1.2801-2.6077-1.4987-4.084-0.21865-1.4762-0.86942-3.8255-1.4461-5.2206-0.57676-1.3951-1.7179-4.8195-2.536-7.6097-0.81801-2.7902-3.5034-10.232-5.9676-16.537-4.3524-11.137-4.5274-11.772-6.1297-22.265-2.507-16.418-2.0777-15.148-5.496-16.252-3.0689-0.9907-4.6241-2.0171-11.297-7.4554-2.879-2.3465-4.0091-3.6138-3.7724-4.2307 0.53313-1.3892 9.5044-16.216 12.815-21.18 1.6492-2.4726 3.9631-5.1506 5.1419-5.9512 1.2607-0.85617 2.7216-2.603 3.5472-4.2415 0.77207-1.5322 1.9943-3.2931 2.7161-3.9132 0.72174-0.62004 1.555-1.6347 1.8517-2.2547 1.4998-3.1345 4.339-18.715 5.4977-30.17 0.88272-8.7262 2.1156-14.569 3.2682-15.488 0.3886-0.31003 1.2914-1.3967 2.0061-2.4147 0.79276-1.1292 2.8361-2.6248 5.2396-3.8352 3.8213-1.9244 4.0331-1.9648 7.0291-1.3429 1.699 0.35272 4.4786 1.2774 6.1768 2.0549 4.499 2.0597 4.9353 1.6992 4.4588-3.6839-0.59181-6.6856 0.54039-14.327 2.7272-18.405 2.3537-4.3899 6.3436-6.8742 9.9485-6.1944 1.0851 0.20464 2.7994 0.42461 3.8096 0.48883 1.2554 0.0798 2.3603 0.69009 3.4912 1.9282 0.93886 1.0279 2.2168 1.8148 2.9546 1.8192 2.9843 0.0176 3.9599 0.69453 5.2695 3.6558 1.1301 2.5552 1.2388 3.3971 0.8445 6.5397-0.24886 1.9838-1.2152 5.3825-2.1474 7.5527-0.93215 2.1702-2.7461 7.2074-4.0309 11.194-1.9223 5.9646-2.21 7.4-1.6241 8.1059 0.39154 0.47177 2.6068 1.7213 4.9229 2.7768 7.5208 3.4273 9.6354 5.8728 9.532 11.023-0.02765 1.3793 0.23466 3.0403 0.58301 3.6911 0.3483 0.65082 0.6333 1.6986 0.6333 2.3283 0 1.2733 1.1347 2.5065 7.4981 8.1482l4.3584 3.8641 4.6408-0.3451c7.5195-0.55915 7.3259-0.58891 8.9683 1.3784l1.5175 1.8177 7.7874 0.20558c22.02 0.58129 49.015 0.60432 55.277 0.0472 5.6853-0.50582 6.9051-0.77303 6.9051-1.5126 0-0.49406 0.51577-5.3296 1.1462-10.746 1.1661-10.018 2.0593-18.377 3.5819-33.522 0.46751-4.6504 1.3824-13.528 2.0331-19.729 0.65071-6.2005 1.5618-15.459 2.0248-20.574 2.2892-25.295 3.5744-38.378 4.2363-43.121 0.30275-2.1702 0.78081-6.8628 1.0623-10.428 0.50269-6.367 1.9632-21.106 4.8038-48.476 0.7883-7.5956 1.6861-16.727 1.9951-20.292 0.30901-3.5653 0.79529-7.7506 1.0806-9.3007 0.28528-1.5501 0.80189-5.9891 1.148-9.8644 0.70312-7.8733 1.846-18.445 3.047-28.184 0.43961-3.5653 1.2289-11.936 1.7539-18.601 1.2776-16.218 2.889-33.224 3.899-41.149 0.45443-3.5653 0.83863-8.1479 0.85379-10.184 0.0152-2.0357 0.30524-5.2036 0.64469-7.0397 0.54677-2.9578 0.50703-3.4034-0.3487-3.9084-2.3443-1.3834-3.122-2.4224-3.5915-4.7975-1.512-7.6499-2.4245-10.873-3.7748-13.333-2.1111-3.8463-3.0716-4.7638-8.3875-8.0123-5.7862-3.5358-7.8409-5.5414-8.868-8.656-0.95307-2.8902-0.7511-4.2111 0.71514-4.6764 2.1262-0.67482 1.1137-6.8266-1.436-8.7255-1.093-0.814-2.3478-1.1456-8.4646-2.2368-5.0343-0.89812-19.669-3.933-21.983-4.5589-1.2401-0.33533-3.449-0.67019-4.9087-0.74413-4.3766-0.22172-6.7996-3.4272-6.2519-8.2709 0.27029-2.3904 0.16161-2.664-1.6025-4.0331-1.1095-0.86104-2.9326-3.448-4.4064-6.2527-2.265-4.3104-2.4461-4.9327-1.829-6.287 0.94783-2.0803 4.5702-3.5448 11.231-4.5408 5.6962-0.85172 7.925-0.63779 10.514 1.0092 1.954 1.2431 11.592 4.5847 25.719 8.9168 24.132 7.4003 25.633 7.881 27.62 8.8471l1.9729 0.95917-0.12598 6.3237c-0.14256 7.1565-1.0031 10.103-3.078 10.539-2.9209 0.61414-5.9801 0.99635-8.9151 1.1138-3.7055 0.14831-5.3338 0.9403-6.4765 3.15-1.1567 2.2368-1.0914 3.0308 0.64168 7.7922 1.2023 3.3032 1.8434 4.294 3.2439 5.0128 0.96001 0.4927 3.841 2.3815 6.4022 4.1973 4.2311 2.9998 6.9602 4.0268 7.6497 2.8787 0.47862-0.79698 2.1961-15.078 4.0506-33.68 0.49452-4.9604 1.3924-13.204 1.9951-18.32 0.60281-5.1154 1.3731-12.596 1.7117-16.623 0.33861-4.0273 0.85455-7.7687 1.1465-8.3143 0.44965-0.84027 1.3523-0.99194 5.903-0.99194 7.4583 0 7.5528 0.0749 7.5528 5.9833v4.8162l1.832-0.36561c2.8405-0.56692 7.4032-1.9218 8.0696-2.3964 0.33049-0.23532 1.3997-1.6022 2.376-3.0375 0.97635-1.4353 2.1339-2.7473 2.5724-2.9156 1.059-0.40639 2.2639-7.0787 1.4544-8.0541-0.32102-0.38679-2.4087-1.0179-4.6392-1.4024-2.2305-0.38453-4.7405-1.0392-5.5777-1.4548-0.83718-0.41561-2.0615-0.75566-2.7208-0.75566-2.0039 0-4.3476-2.8664-4.7977-5.8676-0.31567-2.1048-0.68629-2.7776-1.7538-3.1834-1.7897-0.68045-2.0881-1.6418-1.3549-4.3648 1.1938-4.4336 1.3487-4.5008 13.277-5.7563 5.8904-0.62006 14.768-1.751 19.729-2.5132 4.9604-0.7622 13.331-1.9376 18.601-2.612 5.2704-0.67437 11.485-1.4822 13.81-1.7952 3.7993-0.51139 4.6458-0.437 8.3564 0.73442 2.2708 0.7169 5.1154 2.0181 6.3212 2.8916 5.9023 4.2756 4.738 9.2034-3.7152 15.725-1.7273 1.3327-3.5203 3.1572-3.9844 4.0545-0.46402 0.89733-1.1459 1.5312-1.5152 1.4085-1.0949-0.36359-1.5318-5.9785-0.83418-10.72 0.54079-3.6757 0.51492-4.5141-0.15947-5.1609-0.81169-0.77836-8.4974-2.5695-11.026-2.5695-1.7526 0-2.2229 1.2552-2.9863 7.9691-0.32997 2.9025-0.7608 6.5913-0.95735 8.1972l-0.35743 2.9199 1.9058 0.30184c8.4851 1.3439 10.376 1.5496 11.739 1.2769 1.4139-0.28278 1.5295-0.18279 1.2825 1.1095-0.14931 0.78115-0.80904 1.6176-1.4661 1.8588-1.2507 0.45911-16.732-0.14878-21.338-0.83785-1.8357-0.27462-2.9359-0.17841-3.522 0.30803-0.64851 0.53818-2.7882 0.61065-8.9441 0.30291l-8.0918-0.4045-0.35822 2.1683c-0.68661 4.156-0.45212 6.3126 0.75674 6.9595 1.5201 0.81351 1.4184 2.3797-0.33466 5.1568-2.0561 3.257-3.9003 4.6779-7.5184 5.7926-5.1591 1.5895-10.101 4.2741-12.032 6.5368-2.8026 3.2829-4.9163 7.9054-4.9176 10.754 0 2.676-2.0552 24.68-2.5203 27-0.15541 0.77507-0.79017 7.7506-1.4106 15.501-1.1533 14.408-1.6167 19.701-3.1101 35.512-0.46848 4.9604-1.3589 15.782-1.9787 24.047-0.61982 8.2656-1.5025 17.778-1.9615 21.138-1.0546 7.7202-4.4489 39.059-5.6374 52.049-0.49642 5.4254-1.1397 11.894-1.4295 14.374-2.0526 17.564-4.3874 41.106-6.1774 62.286-0.30129 3.5653-1.1796 11.936-1.9517 18.601-0.77218 6.6655-1.9216 17.7-2.5543 24.52-0.63267 6.8205-1.6625 17.22-2.2885 23.111-0.62598 5.8904-1.3851 14.134-1.6869 18.32-0.30178 4.1853-0.7897 9.2584-1.0842 11.274-0.29451 2.0152-0.8264 6.7078-1.182 10.428-0.35562 3.7203-0.89376 8.6666-1.1959 10.992-0.30214 2.3252-0.76402 7.2714-1.0264 10.992-0.26239 3.7203-0.89248 10.696-1.4002 15.501-1.4116 13.36-1.4586 12.522 0.73915 13.167 2.7475 0.80706 3.7005 2.5864 3.2812 6.1266-0.37637 3.1779-0.90668 3.7218-4.5636 4.6808-1.6398 0.43006-2.3128 0.94502-2.5782 1.9729-0.39558 1.5319 0.17891 10.249 2.2834 34.648 0.86581 10.038 1.0564 14.14 1.663 35.794 0.56621 20.216 1.2107 32.228 2.2983 42.84 0.56712 5.5333 0.90037 13.026 1.1984 26.944 0.1704 7.9585 0.15523 8.0743-1.1906 9.0929-1.4734 1.1151-7.4234 2.293-11.583 2.293-2.2539 0-2.6529-0.18417-3.1326-1.4459-0.30235-0.79524-0.5497-3.2661-0.5497-5.4907 0-2.2247-0.2585-8.7398-0.57438-14.478-0.31589-5.7382-0.95139-18.931-1.4122-29.316-0.46081-10.386-1.4541-31.312-2.2073-46.504-0.75319-15.191-1.5407-32.217-1.75-37.836l-0.38061-10.216 2.9236-0.70136c1.608-0.38576 3.0592-1.0548 3.225-1.4868 0.22947-0.59801-1.635-6.3815-2.395-7.429-0.0696-0.0958-2.5-0.51588-5.401-0.93341-2.9011-0.41752-6.7966-1.1682-8.6567-1.6682-1.8601-0.50002-4.904-0.91317-6.7641-0.91814-5.574-0.0148-20.976-1.0837-27.902-1.9363-3.5653-0.43886-10.455-0.97427-15.31-1.1898l-8.8279-0.39181-0.19097 1.337c-0.12655 0.88569-1.2253 2.0222-3.2552 3.3668-2.1843 1.4469-3.3452 2.6912-4.0425 4.3332-0.96705 2.2769-1.0196 2.3078-4.5831 2.6894-4.4744 0.47915-10.774-1.2034-13.546-3.618-1.0013-0.87208-2.5902-1.9795-3.5309-2.4609-0.94078-0.48143-3.2237-2.657-5.0731-4.8346s-3.5207-3.9749-3.7138-3.9941c-0.19312-0.0191-1.8166 2.5652-3.6077 5.7429-2.9589 5.2495-3.3028 6.2157-3.7626 10.569-0.27829 2.6352-0.77816 5.8059-1.1108 7.046-0.90617 3.3782-0.56993 10.876 0.56577 12.613 0.82348 1.2602 0.93458 3.4462 0.90482 17.804-0.02704 13.111-0.19695 16.704-0.85313 18.059-0.45055 0.93007-1.1962 1.691-1.6571 1.691-0.46086 0-0.83136 0.25365-0.82336 0.56366 0.06384 2.4711 1.6008 14.926 2.2623 18.332 1.0248 5.2782 1.0182 8.3134-0.02194 10.133-0.44311 0.77505-0.81458 2.2171-0.82557 3.2045-0.01132 0.98739-0.26279 2.4339-0.55956 3.2145-0.29678 0.78058-0.70032 4.4837-0.89676 8.2292s-0.60076 8.2599-0.8985 10.032-0.75702 4.8707-1.0205 6.8859c-0.26358 2.0152-0.65606 4.4548-0.87217 5.4215l-0.393 1.7576 3.0149 0.25586c5.7301 0.48622 9.0777 3.1895 7.6057 6.1418-0.93092 1.8672-4.4924 3.7199-7.9914 4.1571-5.3996 0.67467-5.4374 0.809-2.5748 9.1464 1.3639 3.9723 2.759 7.7587 3.1002 8.4142 0.91581 1.7591 8.0405 7.7028 12.051 10.053 3.7657 2.207 4.9057 3.6402 4.3323 5.4467-0.87348 2.7522-9.203 4.2626-16.429 2.9793l-0.000208 0.00001zm103.39-583.77c0.65921-0.83194 2.0979-16.397 1.6286-17.62-0.2598-0.67705-1.5782-0.84034-6.7845-0.84034-7.3824 0-6.6963-0.56015-7.595 6.2005-1.1803 8.8791-1.2701 11.075-0.48003 11.731 0.4151 0.34445 3.277 0.70979 6.3599 0.81188 3.0829 0.10207 5.7644 0.23867 5.9589 0.30356 0.19459 0.0649 0.605-0.19909 0.9121-0.58662zm137.32 566.25c-1.3622-0.13731-2.7509-0.69513-3.3335-1.3388-0.88155-0.97404-0.90702-1.2744-0.21753-2.5627 0.42958-0.80267 2.7579-3.1082 5.174-5.1234 4.0472-3.3757 10.013-10.92 10.013-12.663 0-0.44678-1.3048-0.52501-4.4219-0.26504-3.2899 0.27434-5.0424 0.14982-6.8457-0.4864-3.6359-1.2828-4.0036-2.0354-3.8572-7.8936 0.12755-5.104-0.26341-8.4426-1.2793-10.924-0.49406-1.2071-0.79506-1.3082-2.9953-1.0067-2.004 0.27468-2.632 0.12976-3.4752-0.802-0.84519-0.93396-1.4371-1.0694-3.3102-0.75776-1.2545 0.20879-3.2955 0.91604-4.5356 1.5718-2.0096 1.0626-3.0481 1.177-9.5517 1.0525-8.0192-0.15348-9.8952-0.75977-9.8952-3.1978 0-1.1336 0.53104-1.5551 3.2412-2.5724 1.7826-0.6692 4.5611-1.4332 6.1744-1.6977 3.0972-0.50793 5.2401-1.402 5.2401-2.1862 0-0.25885-1.1517-0.79304-2.5594-1.1872-1.4076-0.39412-2.7827-1.1339-3.0556-1.6439-0.28623-0.53487-0.28415-2.8272 0.006-5.4163 0.2757-2.4689 1.0438-9.3083 1.7069-15.199 0.66311-5.8904 1.4958-15.292 1.8505-20.892l0.64491-10.182 3.1786-4.1918c1.7483-2.3055 3.5839-4.9976 4.0791-5.9825 0.87884-1.7476 0.84624-1.9069-1.354-6.6252-4.02-8.6205-5.4764-12.87-5.9052-17.231-0.3952-4.0194-1.4176-6.7532-3.769-10.078-0.69501-0.98265-1.3252-1.269-2.3581-1.0716-0.77528 0.14822-1.6554 0.11754-1.9558-0.0681-0.30038-0.1857-1.7003-2.7582-3.1109-5.7168-2.0745-4.351-2.6952-6.398-3.2472-10.71-0.37541-2.9319-0.95159-5.6794-1.2804-6.1055-0.61385-0.79545-0.37592-0.79968-15.563 0.27647-2.8886 0.20469-5.7192 0.0889-7.128-0.29158-2.004-0.54123-2.4723-0.9714-3.2884-3.0209-0.52337-1.3144-1.323-2.8037-1.777-3.3096-0.71031-0.79166-0.73122-1.97-0.14972-8.4552 0.6081-6.7826 0.82787-7.7324 2.2003-9.5082 2.4079-3.1158 2.7939-4.1722 3.0036-8.2202 0.16223-3.1316 0.42204-3.9828 1.4759-4.8362 0.70341-0.56959 1.5915-1.0356 1.9736-1.0356 0.66846 0 2.6255-6.2463 3.4438-10.992 0.21386-1.2401 0.70719-2.6352 1.0963-3.1002 1.0285-1.2292 1.6025-3.3143 1.7069-6.2005 0.13179-3.6437 1.193-10.79 3.1391-21.138 3.2631-17.352 3.5627-19.514 2.7714-20.003-0.39688-0.2453-2.8294-0.86459-5.4056-1.3762l-4.684-0.93023-6.2256 3.1223c-3.4242 1.7172-6.7021 3.1222-7.2842 3.1222-0.76705 0-1.3946-0.87816-2.2789-3.1891-0.78629-4.9392-0.85555-14.338 0.58341-19.499 0.81445-2.7231 1.4055-3.8048 2.0788-3.8048 0.51746 0 3.4768 0.64478 6.5763 1.4329 3.0995 0.78807 8.8936 2.1467 12.876 3.0191 6.2666 1.3729 7.328 1.4762 7.8915 0.76819 2.2888-2.876 3.2317-3.5291 5.0946-3.5291 2.5247 0 3.7298 1.2475 3.7298 3.861 0 2.4966-5.9895 24.621-10.387 38.37-1.7275 5.4006-3.1409 10.03-3.1409 10.287 0 0.8312 1.101 0.5014 3.3958-1.0172 1.2343-0.81686 3.3216-1.7253 4.6383-2.0188 5.206-1.1604 6.3968-1.1425 8.9384 0.13381 4.1344 2.0762 6.0662 4.359 7.3558 8.6922 0.78543 2.6393 2.0725 10.569 1.9721 12.15-0.0809 1.274 0.20506 1.4663 3.0109 2.0256 3.7482 0.74719 6.8774 2.2909 10.098 4.9814 1.3254 1.1073 2.612 2.0133 2.8592 2.0133 1.399 0 6.5003 5.6438 8.1322 8.9968 1.8366 3.7738 6.0863 10.391 7.0601 10.992 0.57828 0.35741 7.5648 12.021 9.5665 15.971 0.67483 1.3316 2.0709 3.3608 3.1024 4.5094s2.5456 3.418 3.3648 5.0432c0.86779 1.7215 4.084 5.6879 7.7056 9.503 6.6355 6.9899 8.5214 9.9963 10.963 17.476 1.9519 5.9795 1.8652 6.7638-1.0491 9.4848-1.3514 1.2618-3.0361 3.4356-3.7438 4.8307-0.70775 1.3951-2.4406 4.1853-3.8508 6.2005-4.6274 6.6128-5.5305 8.1332-6.8625 11.555-2.4844 6.3828-6.5329 14.248-9.9555 19.34-1.3145 1.956-3.1284 7.4302-3.1396 9.4755-0.006 0.65764 1.0685 2.5558 2.3825 4.2182 3.0587 3.8696 3.2104 4.3139 3.9615 11.601 0.34552 3.3525 0.98057 8.1248 1.4112 10.605 0.43059 2.4802 1.0798 7.046 1.4427 10.146 0.3629 3.1002 1.25 7.9391 1.9714 10.753 0.72134 2.8139 1.182 5.6119 1.0236 6.2176-0.19971 0.76373 0.4134 1.8168 2 3.4355 2.5307 2.5816 2.7023 3.5177 1.7316 9.4455-0.65911 4.0251-2.2031 5.832-5.3924 6.3107-1.6457 0.24706-2.9576 1.0444-5.0428 3.0649-1.8839 1.8254-3.8564 3.0879-5.9488 3.8077-3.242 1.1151-10.354 1.8007-14.424 1.3902l-0.00067-0.00002zm-48.34-189.92c1.5781-0.73481 3.861-1.6772 5.0731-2.0942 1.8493-0.63625 2.2904-1.1003 2.7417-2.8844 0.82967-3.2796-0.0254-3.6125-8.9896-3.5006-4.1357 0.0517-7.6647 0.23924-7.8424 0.4169-0.17761 0.17767-0.54468 1.8264-0.81564 3.6639-0.27102 1.8375-0.66147 3.7332-0.86767 4.2128-0.99173 2.3063 5.8895 2.4257 10.7 0.18565zm0.21566-17.949c0.54457-0.65618 0.49531-1.3272-0.23827-3.2482-1.2945-3.3897-2.6727-9.3881-2.6576-11.567 0.01-1.4107-0.22694-1.832-1.0293-1.832-1.1473 0-2.2448 2.7965-3.4102 8.6898-0.60698 3.0691-0.5722 3.406 0.43639 4.2276 0.60274 0.49101 1.6614 1.7171 2.3525 2.7247 1.3634 1.9877 3.3639 2.4299 4.5466 1.0049z"/>
  </g>
  <metadata>
    <rdf:RDF>
      <cc:Work>
        <dc:format>image/svg+xml</dc:format>
        <dc:type rdf:resource="http://purl.org/dc/dcmitype/StillImage"/>
        <cc:license rdf:resource="http://creativecommons.org/licenses/publicdomain/"/>
        <dc:publisher>
          <cc:Agent rdf:about="http://openclipart.org/">
            <dc:title>Openclipart</dc:title>
          </cc:Agent>
        </dc:publisher>
        <dc:title>fight surveillance!</dc:title>
        <dc:date>2012-02-02T18:00:45</dc:date>
        <dc:description>Normal people chopping down a CCTV camera</dc:description>
        <dc:source>http://openclipart.org/detail/167626/fight-surveillance!-by-worker</dc:source>
        <dc:creator>
          <cc:Agent>
            <dc:title>worker</dc:title>
          </cc:Agent>
        </dc:creator>
        <dc:subject>
          <rdf:Bag>
            <rdf:li>against</rdf:li>
            <rdf:li>camera</rdf:li>
            <rdf:li>capitalism</rdf:li>
            <rdf:li>clip art</rdf:li>
            <rdf:li>clipart</rdf:li>
            <rdf:li>fight</rdf:li>
            <rdf:li>surveillance</rdf:li>
          </rdf:Bag>
        </dc:subject>
      </cc:Work>
      <cc:License rdf:about="http://creativecommons.org/licenses/publicdomain/">
        <cc:permits rdf:resource="http://creativecommons.org/ns#Reproduction"/>
        <cc:permits rdf:resource="http://creativecommons.org/ns#Distribution"/>
        <cc:permits rdf:resource="http://creativecommons.org/ns#DerivativeWorks"/>
      </cc:License>
    </rdf:RDF>
  </metadata>
</svg>
