<?xml version="1.0"?>
<svg xmlns:rdf="http://www.w3.org/1999/02/22-rdf-syntax-ns#" xmlns="http://www.w3.org/2000/svg" xmlns:cc="http://creativecommons.org/ns#" xmlns:dc="http://purl.org/dc/elements/1.1/" xmlns:svg="http://www.w3.org/2000/svg" id="svg3957" viewBox="0 0 397.09 330.21" version="1.1">
  <defs id="defs3959">
    <filter id="filter4774" color-interpolation-filters="sRGB">
      <feGaussianBlur id="feGaussianBlur4776" stdDeviation="2.9559247"/>
    </filter>
    <filter id="filter4798" height="1.0227" width="1.3935" y="-.011331" x="-.19677" color-interpolation-filters="sRGB">
      <feGaussianBlur id="feGaussianBlur4800" stdDeviation="2.3740288"/>
    </filter>
    <filter id="filter4824" color-interpolation-filters="sRGB">
      <feGaussianBlur id="feGaussianBlur4826" stdDeviation="13.178571"/>
    </filter>
  </defs>
  <g id="layer1" transform="translate(-.89286 6.3066)">
    <flowRoot id="flowRoot4865" style="word-spacing:0px;letter-spacing:0px" xml:space="preserve" font-size="40px" line-height="125%" font-family="Sans" fill="#000000">
      <flowRegion id="flowRegion4867">
        <rect id="rect4869" y="678.69" width="27.264" x="1082.5" height="81.791"/>
      </flowRegion>
      <flowPara id="flowPara4871"/>
    </flowRoot>
    <g id="g4881" transform="matrix(.45279 0 0 .45279 -364.21 -1.1969)">
      <path id="rect4830" d="m1215.6 19.547c27.546 21.831 46.533 10.462 65.754 0v660.98c-36.859 23.183-49.303 8.4826-65.754 0z" fill="#666"/>
      <path id="rect4828" d="m1255.4 24.343h394.29v660h-394.29z" filter="url(#filter4824)" stroke="#666" stroke-width="4.053" fill="#666"/>
      <path id="rect4822" d="m840 22.362h394.29v660h-394.29z" filter="url(#filter4824)" stroke="#666" stroke-width="4.053" fill="#666"/>
      <path id="rect4877" d="m832 22.362h394.29v660h-394.29z" stroke="#666" stroke-width="4.053" fill="#f2f2f2"/>
      <path id="rect3965" d="m840 22.362h394.29v660h-394.29z" stroke="#666" stroke-width="4.053" fill="#f2f2f2"/>
      <g id="g4001" stroke="#00f" stroke-width="1.8417px" transform="matrix(.86639 0 0 1 114.2 21.143)" fill="none">
        <path id="path3971" d="m882.8 82.362h311.55"/>
        <path id="path3975" d="m882.8 126.65h311.55"/>
        <path id="path3977" d="m882.8 170.93h311.55"/>
        <path id="path3979" d="m882.8 215.22h311.55"/>
        <path id="path3981" d="m882.8 259.51h311.55"/>
        <path id="path3983" d="m882.8 303.79h311.55"/>
        <path id="path3985" d="m882.8 348.08h311.55"/>
        <path id="path3987" d="m882.8 392.36h311.55"/>
        <path id="path3989" d="m882.8 436.65h311.55"/>
        <path id="path3991" d="m882.8 480.93h311.55"/>
        <path id="path3993" d="m882.8 525.22h311.55"/>
        <path id="path3995" d="m882.8 569.51h311.55"/>
        <path id="path3997" d="m882.8 613.79h311.55"/>
      </g>
      <path id="path3999" d="m878.57 31.839v625.42" stroke="#f00" stroke-width="2.5229px" fill="none"/>
      <path id="path4016" d="m1173.8 66.211h-325.6" stroke="#f00" stroke-width="1.2787px" fill="none"/>
      <path id="rect4879" d="m1265.1 22.362h394.29v660h-394.29z" stroke="#666" stroke-width="4.053" fill="#f2f2f2"/>
      <path id="rect4041" d="m1257.1 22.362h394.29v660h-394.29z" stroke="#666" stroke-width="4.053" fill="#f2f2f2"/>
      <g id="g4043" stroke="#00f" stroke-width="1.8417px" transform="matrix(.92681 0 0 1 508.04 21.143)" fill="none">
        <path id="path4045" d="m882.8 82.362h311.55"/>
        <path id="path4047" d="m882.8 126.65h311.55"/>
        <path id="path4049" d="m882.8 170.93h311.55"/>
        <path id="path4051" d="m882.8 215.22h311.55"/>
        <path id="path4053" d="m882.8 259.51h311.55"/>
        <path id="path4055" d="m882.8 303.79h311.55"/>
        <path id="path4057" d="m882.8 348.08h311.55"/>
        <path id="path4059" d="m882.8 392.36h311.55"/>
        <path id="path4061" d="m882.8 436.65h311.55"/>
        <path id="path4063" d="m882.8 480.93h311.55"/>
        <path id="path4065" d="m882.8 525.22h311.55"/>
        <path id="path4067" d="m882.8 569.51h311.55"/>
        <path id="path4069" d="m882.8 613.79h311.55"/>
      </g>
      <path id="path4071" d="m1325.7 30.24v627.02" stroke="#f00" stroke-width="2.6128px" fill="none"/>
      <path id="path4073" d="m1646.6 67.64h-351.17" stroke="#f00" stroke-width="1.9553px" fill="none"/>
      <g id="g4145" stroke="#000" stroke-width="4.053" fill="#f2f2f2">
        <path id="path4110" d="m585.71-96.209c0 12.624-10.873 22.857-24.286 22.857s-24.286-10.233-24.286-22.857 10.873-22.857 24.286-22.857 24.286 10.233 24.286 22.857z" transform="matrix(.59616 0 0 .58848 869.6 159.57)"/>
        <path id="path4129" d="m585.71-96.209c0 12.624-10.873 22.857-24.286 22.857s-24.286-10.233-24.286-22.857 10.873-22.857 24.286-22.857 24.286 10.233 24.286 22.857z" transform="matrix(.59616 0 0 .58848 869.6 219.06)"/>
        <path id="path4131" d="m585.71-96.209c0 12.624-10.873 22.857-24.286 22.857s-24.286-10.233-24.286-22.857 10.873-22.857 24.286-22.857 24.286 10.233 24.286 22.857z" transform="matrix(.59616 0 0 .58848 869.6 278.55)"/>
        <path id="path4133" d="m585.71-96.209c0 12.624-10.873 22.857-24.286 22.857s-24.286-10.233-24.286-22.857 10.873-22.857 24.286-22.857 24.286 10.233 24.286 22.857z" transform="matrix(.59616 0 0 .58848 869.6 338.05)"/>
        <path id="path4135" d="m585.71-96.209c0 12.624-10.873 22.857-24.286 22.857s-24.286-10.233-24.286-22.857 10.873-22.857 24.286-22.857 24.286 10.233 24.286 22.857z" transform="matrix(.59616 0 0 .58848 869.6 397.54)"/>
        <path id="path4137" d="m585.71-96.209c0 12.624-10.873 22.857-24.286 22.857s-24.286-10.233-24.286-22.857 10.873-22.857 24.286-22.857 24.286 10.233 24.286 22.857z" transform="matrix(.59616 0 0 .58848 869.6 457.03)"/>
        <path id="path4139" d="m585.71-96.209c0 12.624-10.873 22.857-24.286 22.857s-24.286-10.233-24.286-22.857 10.873-22.857 24.286-22.857 24.286 10.233 24.286 22.857z" transform="matrix(.59616 0 0 .58848 869.6 516.52)"/>
        <path id="path4141" d="m585.71-96.209c0 12.624-10.873 22.857-24.286 22.857s-24.286-10.233-24.286-22.857 10.873-22.857 24.286-22.857 24.286 10.233 24.286 22.857z" transform="matrix(.59616 0 0 .58848 869.6 576.01)"/>
        <path id="path4143" d="m585.71-96.209c0 12.624-10.873 22.857-24.286 22.857s-24.286-10.233-24.286-22.857 10.873-22.857 24.286-22.857 24.286 10.233 24.286 22.857z" transform="matrix(.59616 0 0 .58848 869.6 635.5)"/>
      </g>
      <g id="g4156" stroke="#000" stroke-width="4.053" transform="translate(84.999)" fill="#f2f2f2">
        <path id="path4158" d="m585.71-96.209c0 12.624-10.873 22.857-24.286 22.857s-24.286-10.233-24.286-22.857 10.873-22.857 24.286-22.857 24.286 10.233 24.286 22.857z" transform="matrix(.59616 0 0 .58848 869.6 159.57)"/>
        <path id="path4160" d="m585.71-96.209c0 12.624-10.873 22.857-24.286 22.857s-24.286-10.233-24.286-22.857 10.873-22.857 24.286-22.857 24.286 10.233 24.286 22.857z" transform="matrix(.59616 0 0 .58848 869.6 219.06)"/>
        <path id="path4162" d="m585.71-96.209c0 12.624-10.873 22.857-24.286 22.857s-24.286-10.233-24.286-22.857 10.873-22.857 24.286-22.857 24.286 10.233 24.286 22.857z" transform="matrix(.59616 0 0 .58848 869.6 278.55)"/>
        <path id="path4164" d="m585.71-96.209c0 12.624-10.873 22.857-24.286 22.857s-24.286-10.233-24.286-22.857 10.873-22.857 24.286-22.857 24.286 10.233 24.286 22.857z" transform="matrix(.59616 0 0 .58848 869.6 338.05)"/>
        <path id="path4166" d="m585.71-96.209c0 12.624-10.873 22.857-24.286 22.857s-24.286-10.233-24.286-22.857 10.873-22.857 24.286-22.857 24.286 10.233 24.286 22.857z" transform="matrix(.59616 0 0 .58848 869.6 397.54)"/>
        <path id="path4168" d="m585.71-96.209c0 12.624-10.873 22.857-24.286 22.857s-24.286-10.233-24.286-22.857 10.873-22.857 24.286-22.857 24.286 10.233 24.286 22.857z" transform="matrix(.59616 0 0 .58848 869.6 457.03)"/>
        <path id="path4170" d="m585.71-96.209c0 12.624-10.873 22.857-24.286 22.857s-24.286-10.233-24.286-22.857 10.873-22.857 24.286-22.857 24.286 10.233 24.286 22.857z" transform="matrix(.59616 0 0 .58848 869.6 516.52)"/>
        <path id="path4172" d="m585.71-96.209c0 12.624-10.873 22.857-24.286 22.857s-24.286-10.233-24.286-22.857 10.873-22.857 24.286-22.857 24.286 10.233 24.286 22.857z" transform="matrix(.59616 0 0 .58848 869.6 576.01)"/>
        <path id="path4174" d="m585.71-96.209c0 12.624-10.873 22.857-24.286 22.857s-24.286-10.233-24.286-22.857 10.873-22.857 24.286-22.857 24.286 10.233 24.286 22.857z" transform="matrix(.59616 0 0 .58848 869.6 635.5)"/>
      </g>
      <g id="g4778" filter="url(#filter4798)" stroke="#000" stroke-width="4.053" fill="#f2f2f2">
        <path id="path4780" d="m585.71-96.209c0 12.624-10.873 22.857-24.286 22.857s-24.286-10.233-24.286-22.857 10.873-22.857 24.286-22.857 24.286 10.233 24.286 22.857z" transform="matrix(.59616 0 0 .58848 869.6 159.57)"/>
        <path id="path4782" d="m585.71-96.209c0 12.624-10.873 22.857-24.286 22.857s-24.286-10.233-24.286-22.857 10.873-22.857 24.286-22.857 24.286 10.233 24.286 22.857z" transform="matrix(.59616 0 0 .58848 869.6 219.06)"/>
        <path id="path4784" d="m585.71-96.209c0 12.624-10.873 22.857-24.286 22.857s-24.286-10.233-24.286-22.857 10.873-22.857 24.286-22.857 24.286 10.233 24.286 22.857z" transform="matrix(.59616 0 0 .58848 869.6 278.55)"/>
        <path id="path4786" d="m585.71-96.209c0 12.624-10.873 22.857-24.286 22.857s-24.286-10.233-24.286-22.857 10.873-22.857 24.286-22.857 24.286 10.233 24.286 22.857z" transform="matrix(.59616 0 0 .58848 869.6 338.05)"/>
        <path id="path4788" d="m585.71-96.209c0 12.624-10.873 22.857-24.286 22.857s-24.286-10.233-24.286-22.857 10.873-22.857 24.286-22.857 24.286 10.233 24.286 22.857z" transform="matrix(.59616 0 0 .58848 869.6 397.54)"/>
        <path id="path4790" d="m585.71-96.209c0 12.624-10.873 22.857-24.286 22.857s-24.286-10.233-24.286-22.857 10.873-22.857 24.286-22.857 24.286 10.233 24.286 22.857z" transform="matrix(.59616 0 0 .58848 869.6 457.03)"/>
        <path id="path4792" d="m585.71-96.209c0 12.624-10.873 22.857-24.286 22.857s-24.286-10.233-24.286-22.857 10.873-22.857 24.286-22.857 24.286 10.233 24.286 22.857z" transform="matrix(.59616 0 0 .58848 869.6 516.52)"/>
        <path id="path4794" d="m585.71-96.209c0 12.624-10.873 22.857-24.286 22.857s-24.286-10.233-24.286-22.857 10.873-22.857 24.286-22.857 24.286 10.233 24.286 22.857z" transform="matrix(.59616 0 0 .58848 869.6 576.01)"/>
        <path id="path4796" d="m585.71-96.209c0 12.624-10.873 22.857-24.286 22.857s-24.286-10.233-24.286-22.857 10.873-22.857 24.286-22.857 24.286 10.233 24.286 22.857z" transform="matrix(.59616 0 0 .58848 869.6 635.5)"/>
      </g>
      <g id="g4802" transform="translate(84.999)" filter="url(#filter4798)" stroke="#000" stroke-width="4.053" fill="#f2f2f2">
        <path id="path4804" d="m585.71-96.209c0 12.624-10.873 22.857-24.286 22.857s-24.286-10.233-24.286-22.857 10.873-22.857 24.286-22.857 24.286 10.233 24.286 22.857z" transform="matrix(.59616 0 0 .58848 869.6 159.57)"/>
        <path id="path4806" d="m585.71-96.209c0 12.624-10.873 22.857-24.286 22.857s-24.286-10.233-24.286-22.857 10.873-22.857 24.286-22.857 24.286 10.233 24.286 22.857z" transform="matrix(.59616 0 0 .58848 869.6 219.06)"/>
        <path id="path4808" d="m585.71-96.209c0 12.624-10.873 22.857-24.286 22.857s-24.286-10.233-24.286-22.857 10.873-22.857 24.286-22.857 24.286 10.233 24.286 22.857z" transform="matrix(.59616 0 0 .58848 869.6 278.55)"/>
        <path id="path4810" d="m585.71-96.209c0 12.624-10.873 22.857-24.286 22.857s-24.286-10.233-24.286-22.857 10.873-22.857 24.286-22.857 24.286 10.233 24.286 22.857z" transform="matrix(.59616 0 0 .58848 869.6 338.05)"/>
        <path id="path4812" d="m585.71-96.209c0 12.624-10.873 22.857-24.286 22.857s-24.286-10.233-24.286-22.857 10.873-22.857 24.286-22.857 24.286 10.233 24.286 22.857z" transform="matrix(.59616 0 0 .58848 869.6 397.54)"/>
        <path id="path4814" d="m585.71-96.209c0 12.624-10.873 22.857-24.286 22.857s-24.286-10.233-24.286-22.857 10.873-22.857 24.286-22.857 24.286 10.233 24.286 22.857z" transform="matrix(.59616 0 0 .58848 869.6 457.03)"/>
        <path id="path4816" d="m585.71-96.209c0 12.624-10.873 22.857-24.286 22.857s-24.286-10.233-24.286-22.857 10.873-22.857 24.286-22.857 24.286 10.233 24.286 22.857z" transform="matrix(.59616 0 0 .58848 869.6 516.52)"/>
        <path id="path4818" d="m585.71-96.209c0 12.624-10.873 22.857-24.286 22.857s-24.286-10.233-24.286-22.857 10.873-22.857 24.286-22.857 24.286 10.233 24.286 22.857z" transform="matrix(.59616 0 0 .58848 869.6 576.01)"/>
        <path id="path4820" d="m585.71-96.209c0 12.624-10.873 22.857-24.286 22.857s-24.286-10.233-24.286-22.857 10.873-22.857 24.286-22.857 24.286 10.233 24.286 22.857z" transform="matrix(.59616 0 0 .58848 869.6 635.5)"/>
      </g>
      <g id="g4740" stroke="#000" stroke-width="12.721" stroke-linecap="round" fill="none">
        <g id="g4704">
          <path id="path4176" d="m1197.9 104.66c58.827-29.901 98.722-0.0311 98.763 0"/>
          <path id="path4686" d="m1197.9 164c58.827-29.901 98.722-0.0311 98.763 0"/>
          <path id="path4688" d="m1197.9 226.55c58.827-29.901 98.722-0.0311 98.763 0"/>
          <path id="path4690" d="m1197.9 285.89c58.827-29.901 98.722-0.0311 98.763 0"/>
          <path id="path4696" d="m1197.9 521.24c58.827-29.901 98.722-0.0311 98.763 0"/>
          <path id="path4698" d="m1197.9 460.3c58.827-29.901 98.722-0.0311 98.763 0"/>
          <path id="path4700" d="m1197.9 402.56c58.827-29.901 98.722-0.0311 98.763 0"/>
          <path id="path4702" d="m1197.9 344.83c58.827-29.901 98.722-0.0311 98.763 0"/>
        </g>
        <path id="path4724" d="m1199.5 582.18c58.827-29.901 98.722-0.0311 98.763 0"/>
      </g>
      <g id="g4752" filter="url(#filter4774)" stroke="#e6e6e6" stroke-linecap="round" stroke-width="2.2" fill="none">
        <g id="g4754">
          <path id="path4756" d="m1197.9 104.66c58.827-29.901 98.722-0.0311 98.763 0"/>
          <path id="path4758" d="m1197.9 164c58.827-29.901 98.722-0.0311 98.763 0"/>
          <path id="path4760" d="m1197.9 226.55c58.827-29.901 98.722-0.0311 98.763 0"/>
          <path id="path4762" d="m1197.9 285.89c58.827-29.901 98.722-0.0311 98.763 0"/>
          <path id="path4764" d="m1197.9 521.24c58.827-29.901 98.722-0.0311 98.763 0"/>
          <path id="path4766" d="m1197.9 460.3c58.827-29.901 98.722-0.0311 98.763 0"/>
          <path id="path4768" d="m1197.9 402.56c58.827-29.901 98.722-0.0311 98.763 0"/>
          <path id="path4770" d="m1197.9 344.83c58.827-29.901 98.722-0.0311 98.763 0"/>
        </g>
        <path id="path4772" d="m1199.5 582.18c58.827-29.901 98.722-0.0311 98.763 0"/>
      </g>
      <g id="text4849">
        <path id="path5035" d="m1117.8 51.979h1.8077c1.8854 0.000001 3.3303-0.53778 4.3346-1.6133 1.0108-1.0756 1.5161-2.6176 1.5161-4.6262s-0.5021-3.5441-1.5064-4.6067-2.4524-1.5939-4.3443-1.5939h-1.8077v12.44m-3.8195 1.0302v-1.0302h1.8465v-12.44h-1.8465v-1.0399h5.773c2.5009 0.000014 4.448 0.63822 5.841 1.9146 1.3995 1.2764 2.0993 3.0517 2.0993 5.3259 0 2.2807-0.6998 4.0625-2.0993 5.3454s-3.3465 1.9243-5.841 1.9243h-5.773"/>
        <path id="path5037" d="m1136.8 49.764v-2.1867h-2.3033c-0.8877 0.000006-1.5486 0.19114-1.9827 0.57341-0.4341 0.38228-0.6512 0.96865-0.6511 1.7591-0.0001 0.7192 0.2202 1.2894 0.6608 1.7105 0.4406 0.42115 1.0367 0.63173 1.7883 0.63173 0.7451 0 1.3444-0.23001 1.798-0.69004 0.46-0.46002 0.69-1.0594 0.69-1.798m1.7883-3.2072v5.4231h1.5939v1.0302h-3.3822v-1.1177c-0.3952 0.47946-0.852 0.83258-1.3703 1.0594-0.5184 0.22677-1.1242 0.34016-1.8175 0.34016-1.1468-0.000001-2.0571-0.30452-2.731-0.91358-0.6738-0.60905-1.0107-1.4319-1.0107-2.4686 0-1.0691 0.3855-1.8984 1.1565-2.488 0.7711-0.58961 1.8596-0.88441 3.2656-0.88442h2.5074v-0.70948c0-0.78398-0.2397-1.3898-0.7192-1.8174-0.4729-0.4341-1.1403-0.65116-2.002-0.65116-0.7128 0.00001-1.2797 0.16199-1.7008 0.48594-0.4212 0.32397-0.6836 0.80344-0.7873 1.4384h-0.9233v-2.0896c0.622-0.26564 1.2246-0.46326 1.8077-0.59285 0.5896-0.13605 1.1631-0.20409 1.7203-0.2041 1.4319 0.000011 2.5204 0.35637 3.2655 1.0691 0.7516 0.70625 1.1274 1.7364 1.1274 3.0906"/>
        <path id="path5039" d="m1142.8 43.718h-1.5745v-1.0399h1.5745v-3.2072h1.798v3.2072h3.3627v1.0399h-3.3627v6.5602c-0.0001 0.8747 0.084 1.4352 0.2526 1.6814 0.1685 0.24621 0.4795 0.36932 0.9331 0.36932 0.4665 0 0.8066-0.13606 1.0204-0.40819 0.2138-0.27861 0.3272-0.72568 0.3402-1.3412h1.3509c-0.052 0.93949-0.3078 1.6263-0.7678 2.0604-0.46 0.43411-1.1598 0.65116-2.0992 0.65116-1.0303-0.000001-1.7592-0.22677-2.1868-0.68032-0.4276-0.46003-0.6414-1.2375-0.6414-2.3325v-6.5602"/>
        <path id="path5041" d="m1159.5 48.034h-7.7071v0.07775c0 1.393 0.2624 2.4459 0.7873 3.1586 0.5248 0.70624 1.299 1.0594 2.3228 1.0594 0.784 0 1.4254-0.2041 1.9243-0.61229 0.5054-0.41467 0.8585-1.027 1.0594-1.8369h1.4384c-0.2851 1.1339-0.8132 1.9859-1.5842 2.5561-0.7646 0.57017-1.7721 0.85526-3.0226 0.85526-1.5097-0.000001-2.7245-0.49566-3.6446-1.487-0.9135-0.9978-1.3703-2.3196-1.3703-3.9653 0-1.6328 0.4503-2.9481 1.3509-3.9459 0.9006-0.99779 2.0831-1.4967 3.5474-1.4967 1.5615 0.000011 2.7601 0.48272 3.596 1.4481 0.8358 0.95894 1.2699 2.3552 1.3023 4.1888m-2.109-1.0302c-0.039-1.2051-0.2948-2.1122-0.7678-2.7213-0.4665-0.61552-1.1403-0.92328-2.0215-0.92329-0.8229 0.00001-1.4708 0.30777-1.9438 0.92329-0.473 0.61554-0.7613 1.5226-0.865 2.7213h5.5981"/>
        <path id="path5043" d="m1162.6 51.999c0-0.36284 0.1231-0.6706 0.3694-0.92329 0.2527-0.25269 0.5604-0.37903 0.9233-0.37904 0.3628 0.000002 0.6673 0.12635 0.9135 0.37904 0.2527 0.25269 0.3791 0.56046 0.3791 0.92329 0 0.36284-0.1231 0.6706-0.3694 0.92329-0.2462 0.24621-0.5539 0.36932-0.9232 0.36932-0.3694-0.000001-0.6771-0.12311-0.9233-0.36932-0.2463-0.25269-0.3694-0.56045-0.3694-0.92329m0-6.3367c0-0.36283 0.1231-0.66736 0.3694-0.91357 0.2527-0.25268 0.5604-0.37903 0.9233-0.37904 0.3693 0.000009 0.677 0.12312 0.9232 0.36932 0.2463 0.24622 0.3694 0.55398 0.3694 0.92329 0 0.36932-0.1231 0.67709-0.3694 0.92329-0.2462 0.24622-0.5539 0.36932-0.9232 0.36932-0.3629 0.000006-0.6706-0.1231-0.9233-0.36932-0.2463-0.25268-0.3694-0.56045-0.3694-0.92329"/>
      </g>
      <g id="text4857">
        <path id="path5046" d="m1538 53.583h1.8077c1.8855 0.000001 3.3303-0.53778 4.3346-1.6133 1.0108-1.0756 1.5162-2.6176 1.5162-4.6262s-0.5022-3.5441-1.5065-4.6067-2.4524-1.5939-4.3443-1.5939h-1.8077v12.44m-3.8195 1.0302v-1.0302h1.8466v-12.44h-1.8466v-1.0399h5.773c2.501 0.000015 4.448 0.63822 5.841 1.9146 1.3995 1.2764 2.0993 3.0517 2.0993 5.3259 0 2.2807-0.6998 4.0625-2.0993 5.3454s-3.3465 1.9243-5.841 1.9243h-5.773"/>
        <path id="path5048" d="m1556.9 51.367v-2.1867h-2.3034c-0.8877 0.000006-1.5486 0.19114-1.9827 0.57341-0.4341 0.38228-0.6511 0.96865-0.6511 1.7591 0 0.7192 0.2203 1.2894 0.6609 1.7105 0.4405 0.42115 1.0366 0.63173 1.7882 0.63173 0.7451 0.000001 1.3445-0.23001 1.798-0.69004 0.46-0.46002 0.69-1.0594 0.6901-1.798m1.7882-3.2072v5.4231h1.5939v1.0302h-3.3821v-1.1177c-0.3953 0.47947-0.8521 0.83258-1.3704 1.0594-0.5184 0.22677-1.1242 0.34016-1.8174 0.34016-1.1469-0.000001-2.0572-0.30452-2.731-0.91358-0.6739-0.60905-1.0108-1.4319-1.0108-2.4686 0-1.0691 0.3855-1.8984 1.1565-2.488 0.7711-0.5896 1.8596-0.88441 3.2656-0.88442h2.5075v-0.70948c-0.0001-0.78398-0.2398-1.3898-0.7192-1.8174-0.473-0.4341-1.1404-0.65116-2.0021-0.65116-0.7128 0.00001-1.2797 0.16199-1.7008 0.48594-0.4212 0.32397-0.6836 0.80344-0.7873 1.4384h-0.9233v-2.0896c0.6221-0.26564 1.2246-0.46326 1.8078-0.59285 0.5896-0.13605 1.163-0.20409 1.7202-0.2041 1.4319 0.000011 2.5204 0.35637 3.2655 1.0691 0.7516 0.70625 1.1274 1.7364 1.1274 3.0906"/>
        <path id="path5050" d="m1563 45.322h-1.5745v-1.0399h1.5745v-3.2072h1.798v3.2072h3.3627v1.0399h-3.3627v6.5602c0 0.8747 0.084 1.4352 0.2527 1.6814 0.1684 0.24621 0.4794 0.36932 0.933 0.36932 0.4665 0 0.8066-0.13606 1.0205-0.40819 0.2138-0.27861 0.3271-0.72568 0.3401-1.3412h1.3509c-0.052 0.93949-0.3077 1.6263-0.7678 2.0604-0.46 0.43411-1.1597 0.65116-2.0992 0.65116-1.0302-0.000001-1.7592-0.22677-2.1868-0.68032-0.4276-0.46003-0.6414-1.2375-0.6414-2.3325v-6.5602"/>
        <path id="path5052" d="m1579.7 49.637h-7.7071v0.07775c0 1.393 0.2625 2.4459 0.7873 3.1586 0.5248 0.70624 1.2991 1.0594 2.3228 1.0594 0.784 0 1.4254-0.2041 1.9243-0.61229 0.5054-0.41467 0.8585-1.027 1.0594-1.8369h1.4384c-0.2851 1.1339-0.8132 1.9859-1.5842 2.5561-0.7646 0.57018-1.7721 0.85526-3.0226 0.85526-1.5096-0.000001-2.7245-0.49566-3.6446-1.487-0.9135-0.9978-1.3703-2.3196-1.3703-3.9653 0-1.6328 0.4503-2.9481 1.3509-3.9459s2.0831-1.4967 3.5474-1.4967c1.5615 0.000011 2.7602 0.48272 3.596 1.4481 0.8358 0.95894 1.2699 2.3552 1.3023 4.1888m-2.109-1.0302c-0.039-1.2051-0.2948-2.1122-0.7678-2.7213-0.4665-0.61552-1.1403-0.92328-2.0215-0.92329-0.8229 0.00001-1.4708 0.30777-1.9438 0.92329-0.473 0.61554-0.7613 1.5226-0.865 2.7213h5.5981"/>
        <path id="path5054" d="m1582.7 53.603c0-0.36284 0.1231-0.6706 0.3693-0.92329 0.2527-0.25269 0.5604-0.37903 0.9233-0.37904 0.3628 0.000003 0.6673 0.12635 0.9135 0.37904 0.2527 0.25269 0.3791 0.56046 0.3791 0.92329 0 0.36284-0.1231 0.6706-0.3693 0.92329-0.2462 0.24621-0.554 0.36932-0.9233 0.36932-0.3693-0.000001-0.6771-0.12311-0.9233-0.36932-0.2462-0.25269-0.3693-0.56045-0.3693-0.92329m0-6.3367c0-0.36283 0.1231-0.66736 0.3693-0.91357 0.2527-0.25268 0.5604-0.37903 0.9233-0.37904 0.3693 0.000008 0.6771 0.12311 0.9233 0.36932 0.2462 0.24622 0.3693 0.55398 0.3693 0.92329 0 0.36932-0.1231 0.67709-0.3693 0.92329-0.2462 0.24622-0.554 0.36932-0.9233 0.36932-0.3629 0.000006-0.6706-0.1231-0.9233-0.36932-0.2462-0.25268-0.3693-0.56045-0.3693-0.92329"/>
      </g>
      <g id="text4861">
        <path id="path5057" d="m903.2 647.51 4.3066 11.191 4.2969-11.191h-1.6406v-1.0449h4.2774v1.0449h-1.416l-5.2051 13.535h-1.6797l-5.1758-13.535h-1.4551v-1.0449h5.3125v1.0449h-1.6211"/>
        <path id="path5059" d="m923.16 656.05h-7.7441v0.0781c-0.00001 1.3998 0.26367 2.4577 0.79101 3.1738 0.52734 0.70964 1.3053 1.0645 2.334 1.0644 0.78775 0.00001 1.4323-0.20507 1.9336-0.61523 0.50781-0.41666 0.86262-1.0319 1.0644-1.8457h1.4453c-0.28647 1.1393-0.81707 1.9954-1.5918 2.5684-0.76824 0.57291-1.7806 0.85937-3.0371 0.85937-1.5169 0-2.7376-0.49805-3.6621-1.4941-0.91797-1.0026-1.377-2.3307-1.377-3.9844 0-1.6406 0.45247-2.9622 1.3574-3.9648 0.90495-1.0026 2.0931-1.5039 3.5644-1.5039 1.569 0.00001 2.7734 0.48503 3.6133 1.4551 0.83984 0.96355 1.276 2.3666 1.3086 4.209m-2.1191-1.0352c-0.0391-1.2109-0.29623-2.1224-0.77149-2.7344-0.46875-0.61848-1.1458-0.92773-2.0312-0.92774-0.82682 0.00001-1.4779 0.30926-1.9531 0.92774-0.47527 0.61849-0.76498 1.53-0.86914 2.7344h5.625"/>
        <path id="path5061" d="m933.72 650.65v2.5976h-1.0352c-0.0326-0.51431-0.17579-0.89843-0.42968-1.1523-0.25392-0.2539-0.62501-0.38085-1.1133-0.38086-0.88542 0.00001-1.5658 0.306-2.041 0.91797-0.46876 0.61199-0.70313 1.4909-0.70313 2.6367v4.7461h2.0801v1.0352h-5.498v-1.0352h1.6211v-8.3203h-1.7188v-1.0254h3.5156v1.8457c0.35156-0.72265 0.80404-1.2565 1.3574-1.6016 0.55337-0.35155 1.2272-0.52733 2.0215-0.52734 0.29296 0.00001 0.59895 0.0228 0.91797 0.0684 0.32551 0.0456 0.66731 0.11069 1.0254 0.19532"/>
        <path id="path5063" d="m935.67 647.44c0-0.29946 0.10742-0.55988 0.32227-0.78125 0.22135-0.22134 0.48502-0.33201 0.79102-0.33203 0.29947 0.00002 0.55663 0.11069 0.77148 0.33203 0.22135 0.22137 0.33203 0.48179 0.33203 0.78125 0 0.30601-0.10742 0.56642-0.32226 0.78125-0.21485 0.21486-0.47527 0.32228-0.78125 0.32227-0.306 0.00001-0.56967-0.10741-0.79102-0.32227-0.21485-0.21483-0.32227-0.47524-0.32227-0.78125m2.2949 12.568h1.6992v1.0352h-5.2148v-1.0352h1.7188v-8.3008h-1.7188v-1.0449h3.5156v9.3457"/>
        <path id="path5065" d="m950.59 648.49-0.91797-0.01c-0.0195-0.55988-0.22787-0.97655-0.625-1.25-0.39714-0.27994-0.9961-0.41991-1.7969-0.41992-0.9961 0.00001-1.7253 0.23113-2.1875 0.69336-0.46225 0.46225-0.69337 1.1914-0.69336 2.1875v0.97656h6.9434v9.3457h1.6992v1.0352h-5.2246v-1.0352h1.7285v-8.3008h-5.1465v8.3008h1.6992v1.0352h-5.2148v-1.0352h1.7188v-8.3008h-1.7188v-1.0449h1.7188v-0.9375c0-1.2825 0.38086-2.2493 1.1426-2.9004 0.76171-0.65103 1.888-0.97655 3.3789-0.97656 0.56639 0.00001 1.1458 0.0423 1.7383 0.12695 0.59244 0.0847 1.1784 0.21486 1.7578 0.39062v2.1191"/>
        <path id="path5067" d="m964.33 656.05h-7.7441v0.0781c0 1.3998 0.26367 2.4577 0.79102 3.1738 0.52734 0.70964 1.3053 1.0645 2.334 1.0644 0.78776 0.00001 1.4323-0.20507 1.9336-0.61523 0.5078-0.41666 0.86262-1.0319 1.0644-1.8457h1.4453c-0.28647 1.1393-0.81706 1.9954-1.5918 2.5684-0.76824 0.57291-1.7806 0.85937-3.0371 0.85937-1.5169 0-2.7376-0.49805-3.6621-1.4941-0.91797-1.0026-1.377-2.3307-1.377-3.9844 0-1.6406 0.45248-2.9622 1.3574-3.9648 0.90494-1.0026 2.0931-1.5039 3.5644-1.5039 1.569 0.00001 2.7734 0.48503 3.6133 1.4551 0.83983 0.96355 1.276 2.3666 1.3086 4.209m-2.1191-1.0352c-0.0391-1.2109-0.29623-2.1224-0.77148-2.7344-0.46876-0.61848-1.1458-0.92773-2.0312-0.92774-0.82683 0.00001-1.4779 0.30926-1.9531 0.92774-0.47526 0.61849-0.76497 1.53-0.86914 2.7344h5.625"/>
        <path id="path5069" d="m975.83 660.01h1.7188v1.0352h-3.5156v-1.6211c-0.35157 0.65105-0.80079 1.1328-1.3477 1.4453-0.54037 0.30599-1.2109 0.45898-2.0117 0.45898-1.276 0-2.321-0.50456-3.1348-1.5137-0.80729-1.0156-1.2109-2.3372-1.2109-3.9648s0.40365-2.946 1.2109-3.9551c0.80729-1.0091 1.8522-1.5137 3.1348-1.5137 0.80078 0.00001 1.4714 0.15626 2.0117 0.46875 0.54687 0.306 0.99609 0.78451 1.3477 1.4355v-5.4004h-1.6992v-1.0352h3.4961v14.16m-1.7969-3.6426v-1.0254c-0.00001-1.2435-0.24089-2.194-0.72266-2.8516-0.47526-0.65754-1.1686-0.98632-2.0801-0.98633-0.92448 0.00001-1.6244 0.36459-2.0996 1.0938-0.46876 0.72918-0.70313 1.8132-0.70313 3.252 0 1.4323 0.23437 2.5163 0.70313 3.252 0.47525 0.73568 1.1751 1.1035 2.0996 1.1035 0.91146 0.00001 1.6048-0.32552 2.0801-0.97656 0.48177-0.65755 0.72265-1.6113 0.72266-2.8613"/>
        <path id="path5071" d="m989.45 660.01h2.9199c1.1719 0 2.028-0.2539 2.5684-0.76172 0.54036-0.50781 0.81054-1.3151 0.81055-2.4219-0.00001-1.1003-0.27019-1.901-0.81055-2.4024-0.53386-0.5078-1.39-0.76171-2.5684-0.76171h-2.9199v6.3476m0-7.3828h2.4805c1.0677 0.00001 1.8457-0.20507 2.334-0.61524 0.49479-0.41014 0.74218-1.0579 0.74219-1.9434-0.00001-0.89192-0.2474-1.5397-0.74219-1.9434-0.48829-0.41015-1.2663-0.61522-2.334-0.61524h-2.4805v5.1172m-3.8379 8.418v-1.0352h1.8555v-12.5h-1.8555v-1.0449h7.1973c1.4713 0.00001 2.5781 0.30275 3.3203 0.9082 0.74868 0.59897 1.123 1.4974 1.123 2.6953-0.00002 0.86589-0.26043 1.556-0.78125 2.0703-0.51434 0.51433-1.2696 0.83008-2.2656 0.94726 1.237 0.15626 2.1745 0.5534 2.8125 1.1914 0.64452 0.63152 0.96678 1.4811 0.9668 2.5488-0.00002 1.4453-0.45574 2.5098-1.3672 3.1934-0.91147 0.68359-2.334 1.0254-4.2676 1.0254h-6.7383"/>
        <path id="path5073" d="m1003.5 662.95 0.6835-1.7285-3.8769-9.5117h-1.1816v-1.0449h4.7754v1.0449h-1.6601l2.9199 7.1387 2.9199-7.1387h-1.5527v-1.0449h3.8965v1.0449h-1.1621l-4.7559 11.68c-0.3255 0.80729-0.6868 1.3574-1.084 1.6504-0.3971 0.29947-0.957 0.44921-1.6797 0.44922-0.306-0.00001-0.6217-0.026-0.9472-0.0781-0.319-0.0521-0.6413-0.12695-0.96682-0.22461v-1.9824h0.91792c0.039 0.44271 0.1498 0.75846 0.3321 0.94727 0.1888 0.19531 0.4785 0.29296 0.8691 0.29297 0.3581-0.00001 0.6445-0.10092 0.8594-0.30274 0.2213-0.19531 0.4525-0.59245 0.6934-1.1914"/>
        <path id="path5075" d="m1012.6 660.03c0-0.36458 0.1237-0.67382 0.3711-0.92773 0.2539-0.25391 0.5631-0.38086 0.9277-0.38086s0.6706 0.12695 0.918 0.38086c0.2539 0.25391 0.3808 0.56315 0.3808 0.92773 0 0.36459-0.1237 0.67383-0.3711 0.92774-0.2474 0.24739-0.5566 0.37109-0.9277 0.37109s-0.6803-0.1237-0.9277-0.37109c-0.2474-0.25391-0.3711-0.56315-0.3711-0.92774m0-6.3672c0-0.36458 0.1237-0.67057 0.3711-0.91797 0.2539-0.2539 0.5631-0.38085 0.9277-0.38086 0.3711 0.00001 0.6803 0.1237 0.9277 0.37109 0.2474 0.24741 0.3711 0.55665 0.3711 0.92774 0 0.3711-0.1237 0.68034-0.3711 0.92773-0.2474 0.2474-0.5566 0.3711-0.9277 0.37109-0.3646 0.00001-0.6738-0.12369-0.9277-0.37109-0.2474-0.2539-0.3711-0.56314-0.3711-0.92773"/>
        <path id="path5077" d="m1101.9 660.34v-3.3203l1.1231 0.01c0.033 1.1068 0.3515 1.9271 0.957 2.4609 0.612 0.52735 1.5397 0.79102 2.7832 0.79102 1.1589 0 2.041-0.22786 2.6465-0.68359 0.612-0.46224 0.918-1.1328 0.918-2.0117 0-0.70312-0.1856-1.2435-0.5567-1.6211-0.3646-0.3776-1.1393-0.74543-2.3242-1.1035l-1.9238-0.57617c-1.3933-0.42317-2.3763-0.95052-2.9492-1.582-0.5665-0.6315-0.8497-1.4974-0.8497-2.5976 0-1.237 0.4395-2.1972 1.3184-2.8809 0.8789-0.68358 2.1126-1.0254 3.7012-1.0254 0.6771 0.00001 1.4192 0.0749 2.2265 0.22461 0.8073 0.14324 1.6667 0.35483 2.5782 0.63476v3.1055h-1.1036c-0.1106-1.0286-0.4557-1.7708-1.0351-2.2266-0.5729-0.46223-1.4486-0.69335-2.627-0.69336-1.0286 0.00001-1.8131 0.2116-2.3535 0.63477-0.5338 0.41668-0.8008 1.0254-0.8008 1.8262 0 0.69662 0.2019 1.2435 0.6055 1.6406 0.4037 0.39715 1.2598 0.79103 2.5684 1.1816l1.8066 0.53711c1.3216 0.39715 2.2624 0.90496 2.8223 1.5234 0.5664 0.61198 0.8496 1.4356 0.8496 2.4707 0 1.4128-0.4525 2.4772-1.3574 3.1934-0.905 0.71615-2.2526 1.0742-4.043 1.0742-0.8008 0-1.6178-0.0814-2.4512-0.24414-0.8268-0.16276-1.6699-0.41016-2.5293-0.74219"/>
        <path id="path5079" d="m1115.7 647.44c0-0.29946 0.1074-0.55988 0.3222-0.78125 0.2214-0.22134 0.485-0.33201 0.791-0.33203 0.2995 0.00002 0.5567 0.11069 0.7715 0.33203 0.2214 0.22137 0.332 0.48179 0.3321 0.78125-0.0001 0.30601-0.1075 0.56642-0.3223 0.78125-0.2149 0.21486-0.4753 0.32228-0.7813 0.32227-0.306 0.00001-0.5696-0.10741-0.791-0.32227-0.2148-0.21483-0.3222-0.47524-0.3222-0.78125m2.2949 12.568h1.6992v1.0352h-5.2148v-1.0352h1.7187v-8.3008h-1.7187v-1.0449h3.5156v9.3457"/>
        <path id="path5081" d="m1130.6 651.71v9.1113c0 1.4909-0.4102 2.64-1.2305 3.4473-0.8203 0.8138-1.9889 1.2207-3.5058 1.2207-0.6836-0.00001-1.3379-0.0619-1.9629-0.18555-0.625-0.1237-1.224-0.30925-1.7969-0.55664v-2.1777h0.9375c0.1172 0.67708 0.3939 1.1719 0.8301 1.4844s1.0612 0.46875 1.875 0.46875c1.0547 0 1.8261-0.29948 2.3144-0.89844 0.4948-0.59245 0.7422-1.5267 0.7422-2.8027v-1.3965c-0.3516 0.65105-0.8008 1.1328-1.3476 1.4453-0.5404 0.30599-1.211 0.45898-2.0118 0.45898-1.276 0-2.3209-0.50456-3.1347-1.5137-0.8073-1.0156-1.211-2.3372-1.211-3.9648s0.4037-2.946 1.211-3.9551 1.8522-1.5137 3.1347-1.5137c0.8008 0.00001 1.4714 0.15626 2.0118 0.46875 0.5468 0.306 0.996 0.78451 1.3476 1.4355v-1.6211h3.5156v1.0449h-1.7187m-1.7969 3.6328c0-1.2435-0.2409-2.194-0.7226-2.8516-0.4753-0.65754-1.1687-0.98632-2.0801-0.98633-0.9245 0.00001-1.6244 0.36459-2.0996 1.0938-0.4688 0.72918-0.7032 1.8132-0.7032 3.252 0 1.4323 0.2344 2.5163 0.7032 3.252 0.4752 0.73568 1.1751 1.1035 2.0996 1.1035 0.9114 0.00001 1.6048-0.32552 2.0801-0.97656 0.4817-0.65755 0.7226-1.6113 0.7226-2.8613v-1.0254"/>
        <path id="path5083" d="m1133.8 661.05v-1.0352h1.6211v-8.3008h-1.7188v-1.0449h3.5156v1.8457c0.3321-0.70311 0.7617-1.2337 1.2891-1.5918 0.5338-0.35806 1.1523-0.53709 1.8555-0.5371 1.1458 0.00001 1.9889 0.32878 2.5293 0.98632 0.5403 0.65756 0.8105 1.683 0.8105 3.0762v5.5664h1.6016v1.0352h-4.961v-1.0352h1.5528v-5c0-1.2695-0.1563-2.1387-0.4688-2.6074-0.3125-0.47525-0.8626-0.71288-1.6504-0.71289-0.8333 0.00001-1.4681 0.306-1.9043 0.91797-0.4362 0.60547-0.6543 1.4909-0.6543 2.6562v4.7461h1.5625v1.0352h-4.9804"/>
        <path id="path5085" d="m1147.9 660.03c0-0.36458 0.1237-0.67382 0.3711-0.92773 0.2539-0.25391 0.5632-0.38086 0.9278-0.38086s0.6705 0.12695 0.9179 0.38086c0.2539 0.25391 0.3809 0.56315 0.3809 0.92773 0 0.36459-0.1237 0.67383-0.3711 0.92774-0.2474 0.24739-0.5566 0.37109-0.9277 0.37109s-0.6804-0.1237-0.9278-0.37109c-0.2474-0.25391-0.3711-0.56315-0.3711-0.92774m0-6.3672c0-0.36458 0.1237-0.67057 0.3711-0.91797 0.2539-0.2539 0.5632-0.38085 0.9278-0.38086 0.3711 0.00001 0.6803 0.1237 0.9277 0.37109 0.2474 0.24741 0.3711 0.55665 0.3711 0.92774 0 0.3711-0.1237 0.68034-0.3711 0.92773-0.2474 0.2474-0.5566 0.3711-0.9277 0.37109-0.3646 0.00001-0.6739-0.12369-0.9278-0.37109-0.2474-0.2539-0.3711-0.56314-0.3711-0.92773"/>
      </g>
      <g id="text4873">
        <path id="path5088" d="m1360.3 650.72 4.3066 11.191 4.2969-11.191h-1.6406v-1.0449h4.2773v1.0449h-1.416l-5.2051 13.535h-1.6796l-5.1758-13.535h-1.4551v-1.0449h5.3125v1.0449h-1.6211"/>
        <path id="path5090" d="m1380.2 659.25h-7.7441v0.0781c0 1.3998 0.2637 2.4577 0.791 3.1738 0.5274 0.70964 1.3053 1.0644 2.334 1.0644 0.7877 0 1.4323-0.20507 1.9336-0.61523 0.5078-0.41667 0.8626-1.0319 1.0644-1.8457h1.4454c-0.2865 1.1393-0.8171 1.9954-1.5918 2.5684-0.7683 0.57291-1.7806 0.85937-3.0372 0.85937-1.5169 0-2.7376-0.49805-3.6621-1.4941-0.9179-1.0026-1.3769-2.3307-1.3769-3.9844 0-1.6406 0.4525-2.9622 1.3574-3.9648 0.905-1.0026 2.0931-1.5039 3.5645-1.5039 1.569 0.00001 2.7734 0.48503 3.6132 1.4551 0.8399 0.96355 1.2761 2.3666 1.3086 4.209m-2.1191-1.0352c-0.039-1.2109-0.2962-2.1224-0.7715-2.7344-0.4687-0.61848-1.1458-0.92773-2.0312-0.92774-0.8269 0.00001-1.4779 0.30926-1.9532 0.92774-0.4752 0.61849-0.7649 1.53-0.8691 2.7344h5.625"/>
        <path id="path5092" d="m1390.8 653.85v2.5976h-1.0352c-0.033-0.51431-0.1758-0.89843-0.4297-1.1523-0.2539-0.2539-0.625-0.38085-1.1132-0.38086-0.8855 0.00001-1.5658 0.306-2.0411 0.91797-0.4687 0.61199-0.7031 1.4909-0.7031 2.6367v4.7461h2.0801v1.0352h-5.4981v-1.0352h1.6211v-8.3203h-1.7187v-1.0254h3.5156v1.8457c0.3516-0.72265 0.804-1.2565 1.3574-1.6016 0.5534-0.35155 1.2272-0.52733 2.0215-0.52734 0.293 0.00001 0.599 0.0228 0.918 0.0684 0.3255 0.0456 0.6673 0.11069 1.0254 0.19532"/>
        <path id="path5094" d="m1392.7 650.65c0-0.29946 0.1074-0.55988 0.3223-0.78125 0.2213-0.22134 0.485-0.33201 0.791-0.33203 0.2995 0.00002 0.5566 0.11069 0.7715 0.33203 0.2213 0.22137 0.332 0.48179 0.332 0.78125 0 0.306-0.1074 0.56642-0.3223 0.78125-0.2148 0.21486-0.4752 0.32228-0.7812 0.32227-0.306 0.00001-0.5697-0.10741-0.791-0.32227-0.2149-0.21483-0.3223-0.47525-0.3223-0.78125m2.2949 12.568h1.6992v1.0352h-5.2148v-1.0352h1.7187v-8.3008h-1.7187v-1.0449h3.5156v9.3457"/>
        <path id="path5096" d="m1407.7 651.7-0.918-0.01c-0.02-0.55988-0.2279-0.97655-0.625-1.25-0.3971-0.27994-0.9961-0.41991-1.7969-0.41992-0.9961 0.00001-1.7252 0.23113-2.1875 0.69336-0.4622 0.46225-0.6933 1.1914-0.6933 2.1875v0.97656h6.9433v9.3457h1.6993v1.0352h-5.2247v-1.0352h1.7286v-8.3008h-5.1465v8.3008h1.6992v1.0352h-5.2149v-1.0352h1.7188v-8.3008h-1.7188v-1.0449h1.7188v-0.9375c0-1.2825 0.3809-2.2493 1.1426-2.9004 0.7617-0.65103 1.888-0.97655 3.3789-0.97656 0.5664 0.00001 1.1458 0.0423 1.7383 0.12695 0.5924 0.0846 1.1783 0.21486 1.7578 0.39062v2.1191"/>
        <path id="path5098" d="m1421.4 659.25h-7.7441v0.0781c0 1.3998 0.2636 2.4577 0.791 3.1738 0.5273 0.70964 1.3053 1.0644 2.334 1.0644 0.7877 0 1.4323-0.20507 1.9336-0.61523 0.5078-0.41667 0.8626-1.0319 1.0644-1.8457h1.4453c-0.2864 1.1393-0.817 1.9954-1.5918 2.5684-0.7682 0.57291-1.7806 0.85937-3.0371 0.85937-1.5169 0-2.7376-0.49805-3.6621-1.4941-0.918-1.0026-1.3769-2.3307-1.3769-3.9844 0-1.6406 0.4524-2.9622 1.3574-3.9648 0.9049-1.0026 2.0931-1.5039 3.5644-1.5039 1.569 0.00001 2.7735 0.48503 3.6133 1.4551 0.8399 0.96355 1.276 2.3666 1.3086 4.209m-2.1191-1.0352c-0.039-1.2109-0.2963-2.1224-0.7715-2.7344-0.4688-0.61848-1.1459-0.92773-2.0313-0.92774-0.8268 0.00001-1.4778 0.30926-1.9531 0.92774-0.4753 0.61849-0.765 1.53-0.8691 2.7344h5.625"/>
        <path id="path5100" d="m1432.9 663.22h1.7187v1.0352h-3.5156v-1.6211c-0.3516 0.65105-0.8008 1.1328-1.3477 1.4453-0.5404 0.30599-1.2109 0.45898-2.0117 0.45898-1.276 0-2.321-0.50456-3.1348-1.5137-0.8073-1.0156-1.2109-2.3372-1.2109-3.9648s0.4036-2.946 1.2109-3.9551 1.8522-1.5137 3.1348-1.5137c0.8008 0.00001 1.4713 0.15626 2.0117 0.46875 0.5469 0.30599 0.9961 0.78451 1.3477 1.4355v-5.4004h-1.6992v-1.0352h3.4961v14.16m-1.7969-3.6426v-1.0254c0-1.2435-0.2409-2.194-0.7227-2.8516-0.4752-0.65754-1.1686-0.98632-2.0801-0.98633-0.9244 0.00001-1.6243 0.36459-2.0996 1.0938-0.4687 0.72918-0.7031 1.8132-0.7031 3.252 0 1.4323 0.2344 2.5163 0.7031 3.252 0.4753 0.73568 1.1752 1.1035 2.0996 1.1035 0.9115 0 1.6049-0.32552 2.0801-0.97656 0.4818-0.65755 0.7227-1.6113 0.7227-2.8613"/>
        <path id="path5102" d="m1446.5 663.22h2.9199c1.1719 0 2.028-0.2539 2.5684-0.76172 0.5403-0.50781 0.8105-1.3151 0.8105-2.4219 0-1.1003-0.2702-1.901-0.8105-2.4024-0.5339-0.5078-1.39-0.76171-2.5684-0.76171h-2.9199v6.3476m0-7.3828h2.4805c1.0677 0.00001 1.8457-0.20507 2.334-0.61524 0.4947-0.41014 0.7421-1.0579 0.7421-1.9434 0-0.89192-0.2474-1.5397-0.7421-1.9434-0.4883-0.41015-1.2663-0.61523-2.334-0.61524h-2.4805v5.1172m-3.8379 8.418v-1.0352h1.8555v-12.5h-1.8555v-1.0449h7.1973c1.4713 0.00001 2.5781 0.30275 3.3203 0.9082 0.7487 0.59897 1.123 1.4974 1.123 2.6953 0 0.86589-0.2604 1.556-0.7812 2.0703-0.5144 0.51433-1.2696 0.83008-2.2656 0.94726 1.2369 0.15626 2.1744 0.5534 2.8125 1.1914 0.6445 0.63152 0.9667 1.4811 0.9668 2.5488-0.0001 1.4453-0.4558 2.5098-1.3672 3.1934-0.9115 0.68359-2.334 1.0254-4.2676 1.0254h-6.7383"/>
        <path id="path5104" d="m1460.6 666.16 0.6836-1.7285-3.877-9.5117h-1.1816v-1.0449h4.7754v1.0449h-1.6602l2.92 7.1387 2.9199-7.1387h-1.5528v-1.0449h3.8965v1.0449h-1.1621l-4.7558 11.68c-0.3256 0.80729-0.6869 1.3574-1.084 1.6504-0.3972 0.29947-0.9571 0.44921-1.6797 0.44922-0.306-0.00001-0.6218-0.0261-0.9473-0.0781-0.319-0.0521-0.6413-0.12696-0.9668-0.22461v-1.9824h0.918c0.039 0.44271 0.1497 0.75846 0.332 0.94727 0.1888 0.19531 0.4785 0.29296 0.8692 0.29297 0.358-0.00001 0.6445-0.10092 0.8593-0.30274 0.2214-0.19531 0.4525-0.59245 0.6934-1.1914"/>
        <path id="path5106" d="m1469.6 663.24c0-0.36458 0.1237-0.67382 0.3711-0.92773 0.2539-0.25391 0.5632-0.38086 0.9278-0.38086 0.3645 0 0.6705 0.12695 0.9179 0.38086 0.2539 0.25391 0.3809 0.56315 0.3809 0.92773 0 0.36459-0.1237 0.67383-0.3711 0.92774-0.2474 0.24739-0.5566 0.37109-0.9277 0.37109s-0.6804-0.1237-0.9278-0.37109c-0.2474-0.25391-0.3711-0.56315-0.3711-0.92774m0-6.3672c0-0.36458 0.1237-0.67057 0.3711-0.91797 0.2539-0.2539 0.5632-0.38085 0.9278-0.38086 0.3711 0.00001 0.6803 0.1237 0.9277 0.37109 0.2474 0.2474 0.3711 0.55665 0.3711 0.92774 0 0.3711-0.1237 0.68034-0.3711 0.92773-0.2474 0.2474-0.5566 0.3711-0.9277 0.37109-0.3646 0.00001-0.6739-0.12369-0.9278-0.37109-0.2474-0.2539-0.3711-0.56314-0.3711-0.92773"/>
        <path id="path5108" d="m1558.9 663.55v-3.3203l1.123 0.01c0.033 1.1068 0.3516 1.9271 0.9571 2.4609 0.6119 0.52735 1.5397 0.79102 2.7832 0.79102 1.1588 0 2.041-0.22786 2.6464-0.68359 0.612-0.46224 0.918-1.1328 0.918-2.0117 0-0.70312-0.1855-1.2435-0.5566-1.6211-0.3646-0.3776-1.1394-0.74543-2.3243-1.1035l-1.9238-0.57617c-1.3932-0.42317-2.3763-0.95052-2.9492-1.582-0.5664-0.6315-0.8496-1.4974-0.8496-2.5976 0-1.237 0.4394-2.1972 1.3184-2.8809 0.8789-0.68358 2.1126-1.0254 3.7011-1.0254 0.6771 0.00001 1.4193 0.0749 2.2266 0.22461 0.8073 0.14324 1.6666 0.35483 2.5781 0.63476v3.1055h-1.1035c-0.1107-1.0286-0.4557-1.7708-1.0352-2.2266-0.5729-0.46223-1.4485-0.69335-2.6269-0.69336-1.0287 0.00001-1.8132 0.2116-2.3535 0.63477-0.5339 0.41667-0.8008 1.0254-0.8008 1.8262 0 0.69662 0.2018 1.2435 0.6055 1.6406 0.4036 0.39715 1.2597 0.79103 2.5683 1.1816l1.8067 0.53711c1.3216 0.39715 2.2623 0.90496 2.8222 1.5234 0.5664 0.61198 0.8496 1.4356 0.8496 2.4707 0 1.4128-0.4525 2.4772-1.3574 3.1934-0.9049 0.71615-2.2526 1.0742-4.043 1.0742-0.8007 0-1.6178-0.0814-2.4511-0.24414-0.8269-0.16276-1.67-0.41016-2.5293-0.74219"/>
        <path id="path5110" d="m1572.7 650.65c0-0.29946 0.1074-0.55988 0.3223-0.78125 0.2213-0.22134 0.485-0.33201 0.791-0.33203 0.2995 0.00002 0.5566 0.11069 0.7715 0.33203 0.2213 0.22137 0.332 0.48179 0.332 0.78125 0 0.306-0.1074 0.56642-0.3223 0.78125-0.2148 0.21486-0.4752 0.32228-0.7812 0.32227-0.306 0.00001-0.5697-0.10741-0.791-0.32227-0.2149-0.21483-0.3223-0.47525-0.3223-0.78125m2.2949 12.568h1.6992v1.0352h-5.2148v-1.0352h1.7187v-8.3008h-1.7187v-1.0449h3.5156v9.3457"/>
        <path id="path5112" d="m1587.7 654.92v9.1113c0 1.4909-0.4101 2.64-1.2304 3.4473-0.8204 0.8138-1.989 1.2207-3.5059 1.2207-0.6836-0.00001-1.3379-0.0619-1.9629-0.18555-0.625-0.1237-1.2239-0.30925-1.7969-0.55664v-2.1777h0.9375c0.1172 0.67708 0.3939 1.1719 0.8301 1.4844s1.0612 0.46875 1.875 0.46875c1.0547 0 1.8262-0.29948 2.3145-0.89844 0.4948-0.59245 0.7422-1.5267 0.7422-2.8027v-1.3965c-0.3516 0.65105-0.8008 1.1328-1.3477 1.4453-0.5404 0.30599-1.2109 0.45898-2.0117 0.45898-1.2761 0-2.321-0.50456-3.1348-1.5137-0.8073-1.0156-1.2109-2.3372-1.2109-3.9648s0.4036-2.946 1.2109-3.9551 1.8522-1.5137 3.1348-1.5137c0.8008 0.00001 1.4713 0.15626 2.0117 0.46875 0.5469 0.30599 0.9961 0.78451 1.3477 1.4355v-1.6211h3.5156v1.0449h-1.7188m-1.7968 3.6328c0-1.2435-0.2409-2.194-0.7227-2.8516-0.4753-0.65754-1.1686-0.98632-2.0801-0.98633-0.9245 0.00001-1.6243 0.36459-2.0996 1.0938-0.4687 0.72918-0.7031 1.8132-0.7031 3.252 0 1.4323 0.2344 2.5163 0.7031 3.252 0.4753 0.73568 1.1751 1.1035 2.0996 1.1035 0.9115 0 1.6048-0.32552 2.0801-0.97656 0.4818-0.65755 0.7227-1.6113 0.7227-2.8613v-1.0254"/>
        <path id="path5114" d="m1590.8 664.25v-1.0352h1.6211v-8.3008h-1.7188v-1.0449h3.5157v1.8457c0.332-0.70311 0.7617-1.2337 1.289-1.5918 0.5339-0.35806 1.1524-0.53709 1.8555-0.5371 1.1458 0.00001 1.9889 0.32878 2.5293 0.98632 0.5404 0.65756 0.8105 1.683 0.8105 3.0762v5.5664h1.6016v1.0352h-4.9609v-1.0352h1.5527v-5c0-1.2695-0.1563-2.1387-0.4687-2.6074-0.3125-0.47525-0.8627-0.71288-1.6504-0.71289-0.8334 0.00001-1.4681 0.306-1.9043 0.91797-0.4362 0.60547-0.6543 1.4909-0.6543 2.6562v4.7461h1.5625v1.0352h-4.9805"/>
        <path id="path5116" d="m1605 663.24c0-0.36458 0.1237-0.67382 0.3711-0.92773 0.2539-0.25391 0.5631-0.38086 0.9277-0.38086s0.6706 0.12695 0.918 0.38086c0.2539 0.25391 0.3808 0.56315 0.3809 0.92773-0.0001 0.36459-0.1238 0.67383-0.3711 0.92774-0.2474 0.24739-0.5567 0.37109-0.9278 0.37109s-0.6803-0.1237-0.9277-0.37109c-0.2474-0.25391-0.3711-0.56315-0.3711-0.92774m0-6.3672c0-0.36458 0.1237-0.67057 0.3711-0.91797 0.2539-0.2539 0.5631-0.38085 0.9277-0.38086 0.3711 0.00001 0.6804 0.1237 0.9278 0.37109 0.2473 0.2474 0.371 0.55665 0.3711 0.92774-0.0001 0.3711-0.1238 0.68034-0.3711 0.92773-0.2474 0.2474-0.5567 0.3711-0.9278 0.37109-0.3646 0.00001-0.6738-0.12369-0.9277-0.37109-0.2474-0.2539-0.3711-0.56314-0.3711-0.92773"/>
      </g>
    </g>
  </g>
  <metadata>
    <rdf:RDF>
      <cc:Work>
        <dc:format>image/svg+xml</dc:format>
        <dc:type rdf:resource="http://purl.org/dc/dcmitype/StillImage"/>
        <cc:license rdf:resource="http://creativecommons.org/licenses/publicdomain/"/>
        <dc:publisher>
          <cc:Agent rdf:about="http://openclipart.org/">
            <dc:title>Openclipart</dc:title>
          </cc:Agent>
        </dc:publisher>
        <dc:title>Student Journal</dc:title>
        <dc:date>2011-05-01T14:19:28</dc:date>
        <dc:description>Student activity Journal </dc:description>
        <dc:source>http://openclipart.org/detail/134989/student-journal-by-gsagri04</dc:source>
        <dc:creator>
          <cc:Agent>
            <dc:title>gsagri04</dc:title>
          </cc:Agent>
        </dc:creator>
        <dc:subject>
          <rdf:Bag>
            <rdf:li>Journal</rdf:li>
            <rdf:li>Student</rdf:li>
            <rdf:li>activity</rdf:li>
            <rdf:li>book</rdf:li>
            <rdf:li>clip art</rdf:li>
            <rdf:li>clipart</rdf:li>
            <rdf:li>dairy</rdf:li>
            <rdf:li>event</rdf:li>
            <rdf:li>inkscape</rdf:li>
            <rdf:li>log</rdf:li>
            <rdf:li>png</rdf:li>
            <rdf:li>researcher</rdf:li>
            <rdf:li>sign</rdf:li>
            <rdf:li>svg</rdf:li>
          </rdf:Bag>
        </dc:subject>
      </cc:Work>
      <cc:License rdf:about="http://creativecommons.org/licenses/publicdomain/">
        <cc:permits rdf:resource="http://creativecommons.org/ns#Reproduction"/>
        <cc:permits rdf:resource="http://creativecommons.org/ns#Distribution"/>
        <cc:permits rdf:resource="http://creativecommons.org/ns#DerivativeWorks"/>
      </cc:License>
    </rdf:RDF>
  </metadata>
</svg>
