<?xml version="1.0"?>
<svg xmlns:rdf="http://www.w3.org/1999/02/22-rdf-syntax-ns#" xmlns="http://www.w3.org/2000/svg" xmlns:cc="http://creativecommons.org/ns#" xmlns:dc="http://purl.org/dc/elements/1.1/" xmlns:svg="http://www.w3.org/2000/svg" id="svg7068" viewBox="0 0 513.72 345.66" version="1.1">
  <g id="layer1" transform="translate(-142.78 -81.156)">
    <path id="path7175" d="m295.44 117.85h147.86l1.3698 2.4461 13.176 23.482 74.785 0.76644 2.9353 0.0326 1.3209 2.6255 46.035 91.337 1.0763 2.1526-1.0437 2.1199-45.285 92.103-1.3372 2.6907h-3.0005l-59.358-0.0489-30.951 54.221-1.4024 2.4461-2.8048-0.0326-148.69-0.84797h-2.8048l-1.3535-2.4461-71.98-128.45-1.3535-2.3809 1.4024-2.3645 80.003-137.45 1.4024-2.3972z"/>
    <path id="path3791" d="m309.22 157.03-0.72513 0.35007 17.353 36.507-6.2761-1.9003-13.127-27.705-0.72514 0.35007 12.827 27.03-6.2511-1.9004-8.7266-18.378-0.72514 0.35007 8.4015 17.728-6.2511-1.9003-3.5256-7.4264-0.72513 0.35006 3.2256 6.7512-21.179-6.4262h-3.3756l-29.055 59.261-16.178 2.0754-1.0252 1.7503 2.5505-0.32506-0.77514 1.2502-2.5005 0.32507-1.0502 1.7503 2.4504-0.30005-0.77514 1.2752-2.4004 0.30005-1.0252 1.7503 2.3504-0.30007-0.80015 1.2752-2.2754 0.30004-1.0252 1.7253 2.2254-0.27505-0.80015 1.2752-2.1504 0.27504-1.0252 1.7503 2.1254-0.27505-0.80014 1.3002-2.0754 0.27505-1.0252 1.7253 2.8255-0.35007c0.12833 0.37628 0.26682 0.74486 0.40007 1.1002l-3.8507 0.50009 0.85016 1.5003 3.6006-0.45009c0.1691 0.39046 0.32409 0.76407 0.50009 1.1252l-3.5006 0.45009 0.85015 1.5003 3.4756-0.45007c0.22315 0.38245 0.44244 0.73326 0.67512 1.0752l-3.5506 0.45008 0.85015 1.5253 3.8757-0.5001c0.33583 0.37786 0.67276 0.74286 1.0252 1.0502l-4.2758 0.5501 0.85015 1.5003 5.451-0.70012c0.99991 0.47764 2.0485 0.73194 3.1506 0.77514l-8.0014 1.0252 0.85016 1.5003 12.602-1.6003 54.06 16.528 0.80015 0.0249 45.508-3.9507-50.809 99.918 0.40007 0.70013h2.0504l34.756-68.262 0.90016-3.8257 14.578-28.68 3.5506-0.32508-51.384 101.12 2.8005 0.025 36.732-72.238 0.77514-3.5256 12.977-25.53 3.5506-0.32506-51.684 101.62 2.8255 0.025 38.307-75.314 0.40007-2.8505 12.027-23.629 3.5756-0.30005-51.959 102.09 2.8255 0.025 39.132-76.939 0.40007-2.8255 11.477-22.529 3.5256-0.30006-52.159 102.59 2.8005 0.025 38.857-76.389 0.52509-3.0256 11.877-23.379 3.4506-0.30005-52.334 103.12h2.8005l35.556-69.863 0.50008-3.0756 15.353-30.331 0.5251-0.05 1.6503-3.3506-2.0004-7.0263c9.5853 26.262 47.999 108.77 63.111 107.29 12.929-1.2663-27.866-48.908-65.312-115.12-0.01 0.0298 0.006 0.0863 0 0.12503l-16.803-58.786-1.3502-1.3752-18.003-5.9511-15.828-33.356-0.72513 0.35007 15.528 32.681-6.2511-1.9004zm-24.679 28.505 64.412 19.604-13.928 33.206-5.8261 13.878 6.6762-13.452 15.903-31.981 18.253 69.338-1.3002-0.35006-60.886-15.878-7.5764-24.154zm-3.6507 1.6753 11.002 40.032-7.0263-0.72513 6.7012 6.4512-7.9264 2.8505 8.8516 2.2004-3.4756 7.8514 6.8012-4.3508 4.6008 16.703-57.986 6.9012zm11.602 3.5506c-0.94661 0.0897-0.0614 4.3693 0.22504 5.276l6.0761 20.154c0.23557 0.80529 2.7954 4.5365 3.6007 4.3008 0.80526-0.23568-0.28929-4.3957-0.5251-5.201l-6.0761-20.154c-0.19547-0.72304-2.5551-4.4485-3.3006-4.3758zm194.91 27.43c-3.3186 0.00004-6.1451 0.49882-8.5015 1.5003-2.3369 1.0015-4.1442 2.4764-5.401 4.4008-1.2371 1.9048-1.8503 3.9518-1.8503 6.1511 0 3.4169 1.3248 6.3255 3.9757 8.7016 1.8851 1.6888 5.1532 3.1172 9.8268 4.2758 3.6328 0.90332 5.9551 1.5219 6.9763 1.8753 1.4924 0.53021 2.5364 1.1488 3.1256 1.8753 0.60869 0.70694 0.92511 1.5794 0.92516 2.6005-0.00005 1.5906-0.71693 2.9779-2.1504 4.1758-1.4139 1.1782-3.5181 1.7753-6.3262 1.7753-2.651 0.00001-4.7802-0.66504-6.3511-2.0004-1.5514-1.3353-2.565-3.4288-3.0756-6.2761l-8.5015 0.82514c0.56946 4.8307 2.325 8.5188 5.2509 11.052 2.9259 2.5135 7.1182 3.7507 12.577 3.7507 3.7507 0 6.8882-0.50952 9.4017-1.5503 2.5135-1.0604 4.4514-2.6658 5.826-4.8259s2.0754-4.477 2.0754-6.9513c-0.00006-2.7295-0.59177-5.0304-1.7503-6.8762-1.139-1.8655-2.7337-3.3154-4.7759-4.3758-2.0227-1.08-5.1602-2.124-9.4017-3.1256-4.2416-1.0015-6.9018-1.9776-8.0015-2.9005-0.86403-0.72653-1.3002-1.5793-1.3002-2.6005 0-1.1193 0.4773-2.0328 1.4003-2.7005 1.4335-1.0407 3.3929-1.5502 5.9261-1.5503 2.4546 0.00004 4.3085 0.49344 5.526 1.4753 1.2371 0.96225 2.0273 2.5569 2.4005 4.7759l8.7266-0.40007c-0.13753-3.9667-1.5766-7.1256-4.3258-9.5017-2.7296-2.376-6.8074-3.5756-12.227-3.5757zm-115.72 0.75013v43.183h8.7016v-16.303h5.701c3.947 0.00002 6.9451-0.18771 9.0266-0.60011 1.5317-0.33381 3.053-1.0292 4.5258-2.0504 1.4924-1.0407 2.7134-2.4441 3.6757-4.2508 0.96218-1.8066 1.4502-4.0502 1.4503-6.7012-0.00005-3.4364-0.85636-6.2414-2.5255-8.4015-1.6692-2.1797-3.7269-3.5777-6.2011-4.2258-1.6103-0.43197-5.0749-0.65007-10.377-0.65012zm40.307 0v43.183h8.7266v-18.028h1.7753c2.003 0.00003 3.4528 0.16628 4.3758 0.50009 0.92292 0.31422 1.8007 0.91669 2.6255 1.8003 0.82473 0.86404 2.3622 2.9682 4.6008 6.3262l6.3011 9.4017h10.427l-5.276-8.4265c-2.0816-3.3579-3.7388-5.6856-4.9759-7.0013-1.2175-1.3157-2.7657-2.526-4.6508-3.6257 3.7899-0.54982 6.6217-1.8745 8.5266-3.9757 1.9048-2.1208 2.8755-4.8113 2.8755-8.0515-0.00004-2.5528-0.64362-4.8178-1.9004-6.8012-1.2568-1.9833-2.9248-3.3599-5.0259-4.1258-2.0816-0.78543-5.4372-1.1752-10.052-1.1752zm43.308 0v43.183h8.7266v-43.183zm57.185 0v43.183h8.0764v-34.006l8.5515 34.006h8.4015l8.5766-34.006v34.006h8.1015v-43.183h-13.077l-7.7514 29.455-7.8514-29.455zm-132.1 7.3013h4.2258c3.1419 0.00005 5.2354 0.10371 6.2761 0.30006 1.4138 0.25531 2.5777 0.87925 3.5006 1.9003 0.9229 1.0212 1.3752 2.3298 1.3752 3.9007-0.00003 1.2764-0.33256 2.3884-1.0002 3.3506-0.64806 0.96224-1.5419 1.6738-2.7005 2.1254-1.1586 0.45168-3.4648 0.67515-6.9013 0.67513h-4.7759zm40.332 0h6.8012c3.5346 0.00005 5.6692 0.0519 6.3762 0.15003 1.4138 0.23569 2.4847 0.79705 3.2506 1.7003 0.78545 0.88371 1.1752 2.0475 1.1752 3.5006-0.00004 1.2961-0.28608 2.3866-0.87516 3.2506-0.58914 0.86407-1.4097 1.4719-2.4504 1.8253-1.0408 0.35349-3.6438 0.52512-7.8264 0.52509h-6.4512zm-114.42 37.432 34.006 9.2767 20.329 5.551-63.011 6.2261-12.577-4.0007-35.982-11.427zm-21.104 11.502c-27.385-6.6362-4.669 2.1216 0.60011 3.4006 2.8007 0.56397 5.7431 1.0542 8.2015 1.1002 6.7354 0.081 13.468 0.2449 20.204 0.20003 10.197-0.0679 26.47-4.8497 13.327-5.326-13.503-0.10553-27.79 0.30399-42.333 0.62511z" fill="#fff"/>
    <path id="path4163" fill="#a5a5a5" d="m295.44 117.85-1.4002 2.4004-80.015 137.45-1.4003 2.3754 1.3502 2.3754 71.988 128.45 1.3502 2.4504h2.8005l148.7 0.85016 2.8005 0.025 1.4002-2.4504 30.956-54.21 59.361 0.05h3.0006l1.3252-2.7005 45.283-92.092 1.0502-2.1254-1.0752-2.1504-46.033-91.342-1.3252-2.6255-2.9255-0.0249-74.789-0.77514-13.177-23.479-1.3752-2.4504h-147.86zm143.43 6.2761v1.7003h-138.58l-79.814 137.05-1.4503-0.85016 80.04-137.45 0.25005-0.42508h0.47508l139.08-0.025zm-137.9 3.3256h136.7l13.152 23.454 1.3502 2.4254 2.7755 0.025 74.664 0.77515 43.658 86.616-42.908 87.266-59.186-0.05h-2.8005l-1.3753 2.4254-30.931 54.185-143.1-0.80015-69.288-123.62 77.289-132.7zm155.65 22.604 74.388 0.80014-0.0247 1.6753-74.389-0.80013 0.0249-1.6753zm122.87 92.617 1.5003 0.75014-45.308 92.092-0.22503 0.47509h-0.52508l-61.686-0.0249-32.081 56.185-0.25006 0.42508h-0.47508l-148.7-0.82519 0.025-1.7003 148.2 0.85015 32.081-56.21 0.22508-0.42507h0.5001l61.636 0.05 45.083-91.642z"/>
    <path id="path4020" d="m379.23 286.91 43.775 97.568 13.06 0.10001 2.8505-5.0009-1.6253-2.7005c-0.39744 0.35987-0.94793 0.57888-1.6753 0.65013-12.648 1.2388-41.643-56.389-56.385-90.616z" fill="#00abff"/>
    <path id="path7171" fill="#ff9d00" d="m383.1 284.19c33.215 54.636 63.97 92.22 52.509 93.342-0.20195 0.0198-0.4095 0.0262-0.61966 0.0163l2.5276 4.5008 6.8653-12.018-61.282-85.841z"/>
  </g>
  <metadata>
    <rdf:RDF>
      <cc:Work>
        <dc:format>image/svg+xml</dc:format>
        <dc:type rdf:resource="http://purl.org/dc/dcmitype/StillImage"/>
        <cc:license rdf:resource="http://creativecommons.org/licenses/publicdomain/"/>
        <dc:publisher>
          <cc:Agent rdf:about="http://openclipart.org/">
            <dc:title>Openclipart</dc:title>
          </cc:Agent>
        </dc:publisher>
        <dc:title>PRISM logo - no bg</dc:title>
        <dc:date>2013-08-17T19:41:54</dc:date>
        <dc:description>prism, prism logo, us, u.s., usa, government, spy, spying, clandestine, email, monitoring, data mining, United States, National Security Agency, NSA, logo, e mail, snowden, obama, bush, president, executive, abuse, analytic, analytics, leak, leaked, wikileaks, edward snowden, Protect America Act, Foreign Intelligence Surveillance Act, FISA, Surveillance, data collection, data gathering, electronic, terrorism, terrorist, terrorists,</dc:description>
        <dc:source>http://openclipart.org/detail/181905/prism-logo---no-bg-by-last-dino-181905</dc:source>
        <dc:creator>
          <cc:Agent>
            <dc:title>Last-Dino</dc:title>
          </cc:Agent>
        </dc:creator>
        <dc:subject>
          <rdf:Bag>
            <rdf:li>PRISM is a clandestine mass electronic surveillance data mining program operated by the United States National Security Agency (NSA) since 2007. This is a simplified and stylized version of their logo/ emblem for stickers</rdf:li>
            <rdf:li>etc.</rdf:li>
            <rdf:li>t-shirts</rdf:li>
          </rdf:Bag>
        </dc:subject>
      </cc:Work>
      <cc:License rdf:about="http://creativecommons.org/licenses/publicdomain/">
        <cc:permits rdf:resource="http://creativecommons.org/ns#Reproduction"/>
        <cc:permits rdf:resource="http://creativecommons.org/ns#Distribution"/>
        <cc:permits rdf:resource="http://creativecommons.org/ns#DerivativeWorks"/>
      </cc:License>
    </rdf:RDF>
  </metadata>
</svg>
